<svg width="40" height="40" viewBox="0 0 40 40" fill="none" xmlns="http://www.w3.org/2000/svg">
<path fill-rule="evenodd" clip-rule="evenodd" d="M0 20.0008C0 8.95521 8.95435 0 19.9999 0C31.0455 0 39.9999 8.95521 39.9999 20.0008C39.9999 31.0433 31.0455 40 19.9999 40C8.95435 40 0 31.0433 0 20.0008ZM29.4254 11.5359C29.5679 11.5922 29.6591 11.6515 29.7356 11.8766C29.7634 11.9567 29.7795 12.1285 29.7774 12.3003C29.7767 12.3758 29.7707 12.4468 29.7636 12.5314C29.759 12.5863 29.7539 12.6469 29.7495 12.7181C29.6358 14.555 26.2295 28.2641 26.2295 28.2641C26.2295 28.2641 26.0257 29.0671 25.2953 29.0937C25.0292 29.1026 24.706 29.0493 24.3196 28.7175C23.5502 28.0568 21.7673 26.7916 20.1107 25.6479C19.6106 26.0657 18.6112 26.9308 17.5783 27.9649C16.1143 29.4286 16.3027 27.9649 16.3027 27.9649L16.7522 23.1858L16.7635 23.1918C16.7842 23.1443 16.8171 23.1029 16.8171 23.1029C16.8171 23.1029 25.4426 15.438 25.6719 14.632C25.6897 14.5699 25.6228 14.5403 25.5324 14.5669C24.9596 14.7773 15.0287 21.0467 13.9327 21.74C13.8687 21.7815 13.6892 21.7548 13.6892 21.7548L8.87137 20.1845C8.87137 20.1845 8.2963 19.9504 8.48082 19.423C8.51912 19.3134 8.59614 19.2185 8.82601 19.0585C9.89385 18.3149 28.5857 11.5952 28.5857 11.5952C28.5857 11.5952 29.1137 11.4203 29.4254 11.5359Z" fill="#FBFBFB"/>
</svg>
