<svg width="40" height="40" viewBox="0 0 40 40" fill="none" xmlns="http://www.w3.org/2000/svg">
<g clip-path="url(#clip0_522_2931)">
<path d="M19.9998 0.799805C9.39581 0.799805 0.799805 9.39581 0.799805 19.9998C0.799805 30.6038 9.39581 39.1998 19.9998 39.1998C30.6038 39.1998 39.1998 30.6038 39.1998 19.9998C39.1998 9.39581 30.6038 0.799805 19.9998 0.799805ZM27.3838 22.4618C27.3838 22.4618 29.0818 24.1378 29.4998 24.9158C29.5118 24.9318 29.5178 24.9478 29.5218 24.9558C29.6918 25.2418 29.7318 25.4638 29.6478 25.6298C29.5078 25.9058 29.0278 26.0418 28.8638 26.0538H25.8638C25.6558 26.0538 25.2198 25.9998 24.6918 25.6358C24.2858 25.3518 23.8858 24.8858 23.4958 24.4318C22.9138 23.7558 22.4098 23.1718 21.9018 23.1718C21.8373 23.1717 21.7732 23.1818 21.7118 23.2018C21.3278 23.3258 20.8358 23.8738 20.8358 25.3338C20.8358 25.7898 20.4758 26.0518 20.2218 26.0518H18.8478C18.3798 26.0518 15.9418 25.8878 13.7818 23.6098C11.1378 20.8198 8.7578 15.2238 8.7378 15.1718C8.5878 14.8098 8.8978 14.6158 9.2358 14.6158H12.2658C12.6698 14.6158 12.8018 14.8618 12.8938 15.0798C13.0018 15.3338 13.3978 16.3438 14.0478 17.4798C15.1018 19.3318 15.7478 20.0838 16.2658 20.0838C16.3629 20.0827 16.4583 20.058 16.5438 20.0118C17.2198 19.6358 17.0938 17.2258 17.0638 16.7258C17.0638 16.6318 17.0618 15.6478 16.7158 15.1758C16.4678 14.8338 16.0458 14.7038 15.7898 14.6558C15.8934 14.5128 16.0299 14.3969 16.1878 14.3178C16.6518 14.0858 17.4878 14.0518 18.3178 14.0518H18.7798C19.6798 14.0638 19.9118 14.1218 20.2378 14.2038C20.8978 14.3618 20.9118 14.7878 20.8538 16.2458C20.8358 16.6598 20.8178 17.1278 20.8178 17.6798C20.8178 17.7998 20.8118 17.9278 20.8118 18.0638C20.7918 18.8058 20.7678 19.6478 21.2918 19.9938C21.3602 20.0367 21.4391 20.0595 21.5198 20.0598C21.7018 20.0598 22.2498 20.0598 23.7338 17.5138C24.1915 16.6943 24.5892 15.8428 24.9238 14.9658C24.9538 14.9138 25.0418 14.7538 25.1458 14.6918C25.2226 14.6527 25.3077 14.6328 25.3938 14.6338H28.9558C29.3438 14.6338 29.6098 14.6918 29.6598 14.8418C29.7478 15.0798 29.6438 15.8058 28.0178 18.0078L27.2918 18.9658C25.8178 20.8978 25.8178 20.9958 27.3838 22.4618Z" fill="#FBFBFB"/>
</g>
<defs>
<clipPath id="clip0_522_2931">
<rect width="40" height="40" fill="white"/>
</clipPath>
</defs>
</svg>
