<svg width="1214" height="714" viewBox="0 0 1214 714" fill="none" xmlns="http://www.w3.org/2000/svg">
<g filter="url(#filter0_d_1025_3113)">
<path d="M718.984 57H750.475C761.058 57 771.21 52.8059 778.707 45.3362L805.477 18.6638C812.974 11.1941 823.126 7 833.71 7H1167C1189.09 7 1207 24.9086 1207 47V667C1207 689.091 1189.09 707 1167 707H47C24.9086 707 7 689.091 7 667V47C7 24.9086 24.9086 7 47 7H380.431C391.04 7 401.214 11.2143 408.716 18.7157L435.284 45.2843C442.786 52.7857 452.96 57 463.569 57H495.016" stroke="#4BB7BA" stroke-opacity="0.5" stroke-width="4" stroke-miterlimit="22.9256" stroke-linecap="round" stroke-linejoin="round" shape-rendering="crispEdges"/>
</g>
<path d="M508.486 40.2385H567.777C568.595 40.2385 569.262 40.9045 569.262 41.7225V47.3745C569.262 48.1915 568.595 48.8585 567.777 48.8585H528.626H522.135H508.486C507.668 48.8585 507.001 48.1915 507.001 47.3745V41.7225C507.001 40.9045 507.668 40.2385 508.486 40.2385ZM522.135 52.6905H528.626H567.777C568.595 52.6905 569.262 53.3575 569.262 54.1745V59.8265C569.262 60.6445 568.595 61.3105 567.777 61.3105H523.62C522.802 61.3105 522.135 61.9775 522.135 62.7955V63.6575C522.135 64.4755 522.802 65.1425 523.62 65.1425H567.777C568.595 65.1425 569.262 65.8095 569.262 66.6265V72.2785C569.262 73.0965 568.595 73.7635 567.777 73.7635H508.486C507.668 73.7635 507.001 73.0965 507.001 72.2785V54.1745C507.001 53.3575 507.668 52.6905 508.486 52.6905H522.135Z" fill="#4BB7BA"/>
<path d="M594.075 40.5165L605.178 48.4775C605.704 48.8555 606.382 48.8555 606.908 48.4775L618.012 40.5165C618.275 40.3275 618.553 40.2385 618.877 40.2385H635.143C635.799 40.2385 636.355 40.6435 636.556 41.2685C636.757 41.8925 636.541 42.5465 636.008 42.9285L618.405 55.5545C618.004 55.8425 617.786 56.2675 617.786 56.7605C617.786 57.2545 618.004 57.6795 618.405 57.9675L636.678 71.0725C637.211 71.4545 637.427 72.1085 637.226 72.7325C637.026 73.3575 636.469 73.7635 635.813 73.7635H619.547C619.223 73.7635 618.945 73.6735 618.682 73.4855L606.908 65.0445C606.382 64.6665 605.704 64.6665 605.178 65.0445L593.404 73.4855C593.141 73.6735 592.863 73.7635 592.539 73.7635H576.273C575.618 73.7635 575.061 73.3575 574.86 72.7325C574.659 72.1085 574.875 71.4545 575.408 71.0725L593.681 57.9675C594.082 57.6795 594.3 57.2545 594.3 56.7605C594.3 56.2675 594.082 55.8425 593.681 55.5545L576.078 42.9285C575.545 42.5465 575.329 41.8925 575.53 41.2685C575.731 40.6435 576.288 40.2385 576.943 40.2385H593.21C593.533 40.2385 593.812 40.3275 594.075 40.5165Z" fill="#4BB7BA"/>
<path d="M643.077 40.1348H691.88C693.987 40.1348 695.871 40.5178 697.531 41.2838C699.192 42.0498 700.596 43.0638 701.746 44.3248C702.895 45.5858 703.773 47.0148 704.38 48.6118C704.987 50.2078 705.29 51.8518 705.29 53.5448C705.29 55.2048 704.987 56.8408 704.38 58.4538C703.773 60.0658 702.895 61.5028 701.746 62.7638C700.596 64.0248 699.192 65.0388 697.531 65.8048C695.871 66.5708 693.987 66.9548 691.88 66.9548H658.211C657.394 66.9548 656.727 67.6208 656.727 68.4388V72.1748C656.727 72.9928 656.06 73.6598 655.242 73.6598H643.077C642.26 73.6598 641.593 72.9928 641.593 72.1748V56.9448C641.593 56.1268 642.26 55.4598 643.077 55.4598H656.727H674.215H688.049C689.453 55.4598 690.156 54.8218 690.156 53.5448C690.156 52.2668 689.453 51.6288 688.049 51.6288H674.215H656.727H643.077C642.26 51.6288 641.593 50.9618 641.593 50.1438V41.6188C641.593 40.8008 642.26 40.1348 643.077 40.1348Z" fill="#4BB7BA"/>
<defs>
<filter id="filter0_d_1025_3113" x="0" y="0" width="1214" height="714" filterUnits="userSpaceOnUse" color-interpolation-filters="sRGB">
<feFlood flood-opacity="0" result="BackgroundImageFix"/>
<feColorMatrix in="SourceAlpha" type="matrix" values="0 0 0 0 0 0 0 0 0 0 0 0 0 0 0 0 0 0 127 0" result="hardAlpha"/>
<feOffset/>
<feGaussianBlur stdDeviation="2.5"/>
<feComposite in2="hardAlpha" operator="out"/>
<feColorMatrix type="matrix" values="0 0 0 0 0.294118 0 0 0 0 0.717647 0 0 0 0 0.729412 0 0 0 1 0"/>
<feBlend mode="normal" in2="BackgroundImageFix" result="effect1_dropShadow_1025_3113"/>
<feBlend mode="normal" in="SourceGraphic" in2="effect1_dropShadow_1025_3113" result="shape"/>
</filter>
</defs>
</svg>
