<svg width="958" height="565" viewBox="0 0 958 565" fill="none" xmlns="http://www.w3.org/2000/svg">
<g filter="url(#filter0_d_1030_2742)">
<path d="M567.094 46.3333H588.341C598.924 46.3333 609.076 42.1392 616.573 34.6695L632.638 18.6638C640.135 11.1941 650.287 7 660.87 7H911C933.091 7 951 24.9086 951 47V517.667C951 539.758 933.091 557.667 911 557.667H47C24.9086 557.667 7 539.758 7 517.667V47C7 24.9086 24.9086 7 47 7H297.231C307.84 7 318.014 11.2143 325.516 18.7157L341.418 34.6176C348.919 42.1191 359.093 46.3333 369.702 46.3333H390.906" stroke="#4BB7BA" stroke-opacity="0.5" stroke-width="4" stroke-miterlimit="22.9256" stroke-linecap="round" stroke-linejoin="round" shape-rendering="crispEdges"/>
</g>
<path d="M401.502 33.1477H448.144C448.788 33.1477 449.313 33.6716 449.313 34.3151V38.7614C449.313 39.4041 448.788 39.9288 448.144 39.9288H417.345H412.239H401.502C400.859 39.9288 400.334 39.4041 400.334 38.7614V34.3151C400.334 33.6716 400.859 33.1477 401.502 33.1477ZM412.239 42.9433H417.345H448.144C448.788 42.9433 449.313 43.468 449.313 44.1107V48.5569C449.313 49.2004 448.788 49.7243 448.144 49.7243H413.407C412.764 49.7243 412.239 50.2491 412.239 50.8925V51.5707C412.239 52.2141 412.764 52.7388 413.407 52.7388H448.144C448.788 52.7388 449.313 53.2636 449.313 53.9063V58.3525C449.313 58.996 448.788 59.5207 448.144 59.5207H401.502C400.859 59.5207 400.334 58.996 400.334 58.3525V44.1107C400.334 43.468 400.859 42.9433 401.502 42.9433H412.239Z" fill="#4BB7BA"/>
<path d="M468.832 33.3664L477.567 39.6291C477.981 39.9264 478.514 39.9264 478.928 39.6291L487.663 33.3664C487.87 33.2177 488.088 33.1477 488.343 33.1477H501.139C501.655 33.1477 502.093 33.4663 502.251 33.958C502.409 34.4489 502.239 34.9633 501.82 35.2638L487.972 45.1963C487.657 45.4228 487.485 45.7572 487.485 46.145C487.485 46.5336 487.657 46.868 487.972 47.0945L502.347 57.4038C502.766 57.7043 502.936 58.2188 502.778 58.7097C502.621 59.2013 502.182 59.5207 501.666 59.5207H488.87C488.616 59.5207 488.397 59.4499 488.19 59.302L478.928 52.6618C478.514 52.3644 477.981 52.3644 477.567 52.6618L468.305 59.302C468.098 59.4499 467.879 59.5207 467.624 59.5207H454.828C454.313 59.5207 453.875 59.2013 453.717 58.7097C453.559 58.2188 453.728 57.7043 454.148 57.4038L468.523 47.0945C468.838 46.868 469.009 46.5336 469.009 46.145C469.009 45.7572 468.838 45.4228 468.523 45.1963L454.675 35.2638C454.256 34.9633 454.086 34.4489 454.244 33.958C454.402 33.4663 454.84 33.1477 455.355 33.1477H468.152C468.406 33.1477 468.626 33.2177 468.832 33.3664Z" fill="#4BB7BA"/>
<path d="M507.381 33.0659H545.772C547.43 33.0659 548.912 33.3672 550.218 33.9698C551.524 34.5724 552.629 35.3701 553.533 36.362C554.437 37.354 555.128 38.4782 555.606 39.7345C556.083 40.99 556.321 42.2833 556.321 43.6151C556.321 44.921 556.083 46.208 555.606 47.4769C555.128 48.745 554.437 49.8754 553.533 50.8674C552.629 51.8594 551.524 52.6571 550.218 53.2597C548.912 53.8622 547.43 54.1643 545.772 54.1643H519.286C518.643 54.1643 518.119 54.6882 518.119 55.3317V58.2707C518.119 58.9142 517.594 59.4389 516.95 59.4389H507.381C506.738 59.4389 506.213 58.9142 506.213 58.2707V46.2898C506.213 45.6463 506.738 45.1216 507.381 45.1216H518.119H531.876H542.759C543.863 45.1216 544.416 44.6197 544.416 43.6151C544.416 42.6098 543.863 42.1079 542.759 42.1079H531.876H518.119H507.381C506.738 42.1079 506.213 41.5832 506.213 40.9397V34.2333C506.213 33.5898 506.738 33.0659 507.381 33.0659Z" fill="#4BB7BA"/>
<defs>
<filter id="filter0_d_1030_2742" x="0" y="0" width="958" height="564.667" filterUnits="userSpaceOnUse" color-interpolation-filters="sRGB">
<feFlood flood-opacity="0" result="BackgroundImageFix"/>
<feColorMatrix in="SourceAlpha" type="matrix" values="0 0 0 0 0 0 0 0 0 0 0 0 0 0 0 0 0 0 127 0" result="hardAlpha"/>
<feOffset/>
<feGaussianBlur stdDeviation="2.5"/>
<feComposite in2="hardAlpha" operator="out"/>
<feColorMatrix type="matrix" values="0 0 0 0 0.294118 0 0 0 0 0.717647 0 0 0 0 0.729412 0 0 0 1 0"/>
<feBlend mode="normal" in2="BackgroundImageFix" result="effect1_dropShadow_1030_2742"/>
<feBlend mode="normal" in="SourceGraphic" in2="effect1_dropShadow_1030_2742" result="shape"/>
</filter>
</defs>
</svg>
