<svg width="314" height="189" viewBox="0 0 314 189" fill="none" xmlns="http://www.w3.org/2000/svg">
<g filter="url(#filter0_d_1030_2754)">
<path d="M184.996 19.5H188.737C194.029 19.5 199.105 17.4029 202.853 13.6681L203.693 12.8319C207.441 9.09706 212.517 7 217.809 7H287C298.046 7 307 15.9543 307 27V162C307 173.046 298.046 182 287 182H27C15.9543 182 7 173.046 7 162V27C7 15.9543 15.9543 7 27 7H96.2157C101.52 7 106.607 9.10713 110.358 12.8579L111.142 13.6421C114.893 17.3929 119.98 19.5 125.284 19.5H129.004" stroke="#4BB7BA" stroke-opacity="0.5" stroke-width="4" stroke-miterlimit="22.9256" stroke-linecap="round" stroke-linejoin="round" shape-rendering="crispEdges"/>
</g>
<path d="M132.371 15.3096H147.194C147.399 15.3096 147.565 15.4761 147.565 15.6806V17.0936C147.565 17.2978 147.399 17.4646 147.194 17.4646H137.406H135.784H132.371C132.167 17.4646 132 17.2978 132 17.0936V15.6806C132 15.4761 132.167 15.3096 132.371 15.3096ZM135.784 18.4226H137.406H147.194C147.399 18.4226 147.565 18.5893 147.565 18.7936V20.2066C147.565 20.4111 147.399 20.5776 147.194 20.5776H136.155C135.95 20.5776 135.784 20.7443 135.784 20.9488V21.1643C135.784 21.3688 135.95 21.5356 136.155 21.5356H147.194C147.399 21.5356 147.565 21.7023 147.565 21.9066V23.3196C147.565 23.5241 147.399 23.6908 147.194 23.6908H132.371C132.167 23.6908 132 23.5241 132 23.3196V18.7936C132 18.5893 132.167 18.4226 132.371 18.4226H135.784Z" fill="#4BB7BA"/>
<path d="M153.769 15.3791L156.544 17.3693C156.676 17.4638 156.846 17.4638 156.977 17.3693L159.753 15.3791C159.819 15.3318 159.888 15.3096 159.969 15.3096H164.036C164.2 15.3096 164.339 15.4108 164.389 15.5671C164.439 15.7231 164.385 15.8866 164.252 15.9821L159.851 19.1386C159.751 19.2106 159.696 19.3168 159.696 19.4401C159.696 19.5636 159.751 19.6698 159.851 19.7418L164.419 23.0181C164.553 23.1136 164.607 23.2771 164.556 23.4331C164.506 23.5893 164.367 23.6908 164.203 23.6908H160.137C160.056 23.6908 159.986 23.6683 159.92 23.6213L156.977 21.5111C156.846 21.4166 156.676 21.4166 156.544 21.5111L153.601 23.6213C153.535 23.6683 153.466 23.6908 153.385 23.6908H149.318C149.155 23.6908 149.015 23.5893 148.965 23.4331C148.915 23.2771 148.969 23.1136 149.102 23.0181L153.67 19.7418C153.771 19.6698 153.825 19.5636 153.825 19.4401C153.825 19.3168 153.771 19.2106 153.67 19.1386L149.269 15.9821C149.136 15.8866 149.082 15.7231 149.132 15.5671C149.183 15.4108 149.322 15.3096 149.486 15.3096H153.553C153.633 15.3096 153.703 15.3318 153.769 15.3791Z" fill="#4BB7BA"/>
<path d="M166.019 15.2837H178.22C178.747 15.2837 179.218 15.3794 179.633 15.5709C180.048 15.7624 180.399 16.0159 180.686 16.3312C180.974 16.6464 181.193 17.0037 181.345 17.4029C181.497 17.8019 181.572 18.2129 181.572 18.6362C181.572 19.0512 181.497 19.4602 181.345 19.8634C181.193 20.2664 180.974 20.6257 180.686 20.9409C180.399 21.2562 180.048 21.5097 179.633 21.7012C179.218 21.8927 178.747 21.9887 178.22 21.9887H169.803C169.599 21.9887 169.432 22.1552 169.432 22.3597V23.2937C169.432 23.4982 169.265 23.6649 169.06 23.6649H166.019C165.815 23.6649 165.648 23.4982 165.648 23.2937V19.4862C165.648 19.2817 165.815 19.1149 166.019 19.1149H169.432H173.804H177.262C177.613 19.1149 177.789 18.9554 177.789 18.6362C177.789 18.3167 177.613 18.1572 177.262 18.1572H173.804H169.432H166.019C165.815 18.1572 165.648 17.9904 165.648 17.7859V15.6547C165.648 15.4502 165.815 15.2837 166.019 15.2837Z" fill="#4BB7BA"/>
<defs>
<filter id="filter0_d_1030_2754" x="0" y="0" width="314" height="189" filterUnits="userSpaceOnUse" color-interpolation-filters="sRGB">
<feFlood flood-opacity="0" result="BackgroundImageFix"/>
<feColorMatrix in="SourceAlpha" type="matrix" values="0 0 0 0 0 0 0 0 0 0 0 0 0 0 0 0 0 0 127 0" result="hardAlpha"/>
<feOffset/>
<feGaussianBlur stdDeviation="2.5"/>
<feComposite in2="hardAlpha" operator="out"/>
<feColorMatrix type="matrix" values="0 0 0 0 0.294118 0 0 0 0 0.717647 0 0 0 0 0.729412 0 0 0 1 0"/>
<feBlend mode="normal" in2="BackgroundImageFix" result="effect1_dropShadow_1030_2754"/>
<feBlend mode="normal" in="SourceGraphic" in2="effect1_dropShadow_1030_2754" result="shape"/>
</filter>
</defs>
</svg>
