<svg width="702" height="416" viewBox="0 0 702 416" fill="none" xmlns="http://www.w3.org/2000/svg">
<g filter="url(#filter0_d_1030_2748)">
<path d="M415.204 35.6667H426.208C436.791 35.6667 446.943 31.4725 454.44 24.0028L459.799 18.6638C467.296 11.1941 477.448 7 488.031 7H655C677.091 7 695 24.9086 695 47V368.333C695 390.425 677.091 408.333 655 408.333H47C24.9086 408.333 7 390.425 7 368.333V47C7 24.9086 24.9086 7 47 7H214.031C224.64 7 234.814 11.2143 242.316 18.7157L247.551 23.9509C255.052 31.4524 265.227 35.6667 275.835 35.6667H286.796" stroke="#4BB7BA" stroke-opacity="0.5" stroke-width="4" stroke-miterlimit="22.9256" stroke-linecap="round" stroke-linejoin="round" shape-rendering="crispEdges"/>
</g>
<path d="M294.518 26.0566H328.512C328.981 26.0566 329.363 26.4385 329.363 26.9075V30.1479C329.363 30.6164 328.981 30.9988 328.512 30.9988H306.065H302.344H294.518C294.049 30.9988 293.667 30.6164 293.667 30.1479V26.9075C293.667 26.4385 294.049 26.0566 294.518 26.0566ZM302.344 33.1958H306.065H328.512C328.981 33.1958 329.363 33.5782 329.363 34.0466V37.2871C329.363 37.7561 328.981 38.1379 328.512 38.1379H303.195C302.726 38.1379 302.344 38.5203 302.344 38.9893V39.4835C302.344 39.9525 302.726 40.3349 303.195 40.3349H328.512C328.981 40.3349 329.363 40.7173 329.363 41.1858V44.4262C329.363 44.8952 328.981 45.2776 328.512 45.2776H294.518C294.049 45.2776 293.667 44.8952 293.667 44.4262V34.0466C293.667 33.5782 294.049 33.1958 294.518 33.1958H302.344Z" fill="#4BB7BA"/>
<path d="M343.59 26.216L349.955 30.7803C350.257 30.9971 350.646 30.9971 350.947 30.7803L357.314 26.216C357.464 26.1077 357.624 26.0566 357.81 26.0566H367.135C367.512 26.0566 367.83 26.2888 367.946 26.6472C368.061 27.0049 367.937 27.3799 367.631 27.5989L357.539 34.8378C357.309 35.0029 357.184 35.2466 357.184 35.5293C357.184 35.8125 357.309 36.0561 357.539 36.2213L368.015 43.7348C368.321 43.9538 368.445 44.3288 368.33 44.6865C368.215 45.0449 367.896 45.2776 367.52 45.2776H358.194C358.008 45.2776 357.849 45.226 357.698 45.1183L350.947 40.2787C350.646 40.062 350.257 40.062 349.955 40.2787L343.205 45.1183C343.054 45.226 342.895 45.2776 342.709 45.2776H333.383C333.008 45.2776 332.688 45.0449 332.573 44.6865C332.458 44.3288 332.582 43.9538 332.887 43.7348L343.364 36.2213C343.594 36.0561 343.719 35.8125 343.719 35.5293C343.719 35.2466 343.594 35.0029 343.364 34.8378L333.271 27.5989C332.966 27.3799 332.842 27.0049 332.957 26.6472C333.072 26.2888 333.392 26.0566 333.767 26.0566H343.094C343.279 26.0566 343.439 26.1077 343.59 26.216Z" fill="#4BB7BA"/>
<path d="M371.684 25.9971H399.665C400.873 25.9971 401.953 26.2167 402.904 26.6558C403.857 27.095 404.662 27.6764 405.321 28.3993C405.98 29.1223 406.483 29.9416 406.831 30.8572C407.179 31.7723 407.353 32.7148 407.353 33.6855C407.353 34.6372 407.179 35.5752 406.831 36.5C406.483 37.4242 405.98 38.2481 405.321 38.971C404.662 39.694 403.857 40.2754 402.904 40.7145C401.953 41.1537 400.873 41.3739 399.665 41.3739H380.361C379.893 41.3739 379.51 41.7557 379.51 42.2247V44.3667C379.51 44.8357 379.128 45.2181 378.659 45.2181H371.684C371.216 45.2181 370.833 44.8357 370.833 44.3667V35.6348C370.833 35.1658 371.216 34.7834 371.684 34.7834H379.51H389.537H397.468C398.273 34.7834 398.676 34.4176 398.676 33.6855C398.676 32.9527 398.273 32.587 397.468 32.587H389.537H379.51H371.684C371.216 32.587 370.833 32.2045 370.833 31.7356V26.8479C370.833 26.3789 371.216 25.9971 371.684 25.9971Z" fill="#4BB7BA"/>
<defs>
<filter id="filter0_d_1030_2748" x="0" y="0" width="702" height="415.333" filterUnits="userSpaceOnUse" color-interpolation-filters="sRGB">
<feFlood flood-opacity="0" result="BackgroundImageFix"/>
<feColorMatrix in="SourceAlpha" type="matrix" values="0 0 0 0 0 0 0 0 0 0 0 0 0 0 0 0 0 0 127 0" result="hardAlpha"/>
<feOffset/>
<feGaussianBlur stdDeviation="2.5"/>
<feComposite in2="hardAlpha" operator="out"/>
<feColorMatrix type="matrix" values="0 0 0 0 0.294118 0 0 0 0 0.717647 0 0 0 0 0.729412 0 0 0 1 0"/>
<feBlend mode="normal" in2="BackgroundImageFix" result="effect1_dropShadow_1030_2748"/>
<feBlend mode="normal" in="SourceGraphic" in2="effect1_dropShadow_1030_2748" result="shape"/>
</filter>
</defs>
</svg>
