<svg width="1212" height="732" viewBox="0 0 1212 732" fill="none" xmlns="http://www.w3.org/2000/svg">
<g filter="url(#filter0_d_563_2757)">
<path d="M531.719 50.7368H576.864C577.486 50.7368 577.994 51.2447 577.994 51.8671V56.1699C577.994 56.7923 577.486 57.3002 576.864 57.3002H547.054H542.111H531.719C531.096 57.3002 530.588 56.7923 530.588 56.1699V51.8671C530.588 51.2447 531.096 50.7368 531.719 50.7368ZM542.111 60.2175H547.054H576.864C577.486 60.2175 577.994 60.7254 577.994 61.3478V65.6518C577.994 66.2742 577.486 66.7821 576.864 66.7821H543.242C542.619 66.7821 542.111 67.29 542.111 67.9124V68.5691C542.111 69.1915 542.619 69.6994 543.242 69.6994H576.864C577.486 69.6994 577.994 70.2073 577.994 70.8297V75.1325C577.994 75.7549 577.486 76.2628 576.864 76.2628H531.719C531.096 76.2628 530.588 75.7549 530.588 75.1325V61.3478C530.588 60.7254 531.096 60.2175 531.719 60.2175H542.111Z" fill="#4BB7BA"/>
<path d="M596.888 50.9482L605.342 57.0108C605.742 57.2978 606.258 57.2978 606.659 57.0108L615.113 50.9482C615.314 50.8053 615.525 50.7368 615.772 50.7368H628.157C628.657 50.7368 629.081 51.0463 629.233 51.5211C629.386 51.9959 629.221 52.4943 628.816 52.7848L615.413 62.399C615.107 62.6175 614.942 62.9411 614.942 63.3179C614.942 63.6935 615.107 64.0171 615.413 64.2356L629.327 74.2136C629.732 74.5053 629.896 75.0037 629.743 75.4785C629.591 75.9533 629.167 76.2628 628.668 76.2628H616.282C616.036 76.2628 615.824 76.1943 615.623 76.0514L606.659 69.6238C606.258 69.3368 605.742 69.3368 605.342 69.6238L596.377 76.0514C596.177 76.1943 595.965 76.2628 595.718 76.2628H583.333C582.834 76.2628 582.41 75.9533 582.257 75.4785C582.105 75.0037 582.269 74.5053 582.674 74.2136L596.588 64.2356C596.894 64.0171 597.059 63.6935 597.059 63.3179C597.059 62.9411 596.894 62.6175 596.588 62.399L583.184 52.7848C582.779 52.4943 582.614 51.9959 582.767 51.5211C582.92 51.0463 583.344 50.7368 583.844 50.7368H596.229C596.475 50.7368 596.687 50.8053 596.888 50.9482Z" fill="#4BB7BA"/>
<path d="M635.502 50.7368H672.661C674.266 50.7368 675.7 51.0285 676.965 51.612C678.228 52.1955 679.298 52.9667 680.174 53.927C681.049 54.8872 681.717 55.975 682.179 57.1915C682.641 58.4069 682.871 59.6589 682.871 60.9474C682.871 62.2112 682.641 63.4573 682.179 64.6844C681.717 65.9128 681.049 67.0065 680.174 67.9667C679.298 68.927 678.228 69.6994 676.965 70.2829C675.7 70.8663 674.266 71.1581 672.661 71.1581H647.025C646.402 71.1581 645.894 71.6659 645.894 72.2884V75.1325C645.894 75.7549 645.388 76.2628 644.764 76.2628H635.502C634.879 76.2628 634.372 75.7549 634.372 75.1325V63.5364C634.372 62.914 634.879 62.4061 635.502 62.4061H645.894H659.211H669.743C670.813 62.4061 671.348 61.9195 671.348 60.9474C671.348 59.9742 670.813 59.4888 669.743 59.4888H659.211H645.894H635.502C634.879 59.4888 634.372 58.9809 634.372 58.3585V51.8671C634.372 51.2447 634.879 50.7368 635.502 50.7368Z" fill="#4BB7BA"/>
<path d="M694.877 63.4996H702.714C711.34 63.4996 719.735 60.7109 726.647 55.5495L782.354 13.9501C789.266 8.78869 797.661 6 806.288 6H1109.43C1120.04 6 1130.21 10.2143 1137.72 17.7157L1194.28 74.2839C1201.79 81.7853 1206 91.9595 1206 102.568V629.432C1206 640.04 1201.79 650.215 1194.28 657.716L1137.72 714.284C1130.21 721.786 1120.04 726 1109.43 726H797.738C794.591 726 791.454 725.628 788.394 724.893L720.607 708.607C717.547 707.872 714.411 707.5 711.263 707.5H500.737C497.589 707.5 494.453 707.872 491.393 708.607L423.606 724.893C420.546 725.628 417.409 726 414.262 726H102.568C91.9595 726 81.7853 721.786 74.2839 714.284L17.7157 657.716C10.2143 650.215 6 640.04 6 629.432V102.568C6 91.9595 10.2143 81.7853 17.7157 74.2839L74.2839 17.7157C81.7853 10.2143 91.9595 6 102.568 6H405.713C414.339 6 422.734 8.78869 429.646 13.9501L485.353 55.5495C492.265 60.7109 500.66 63.4996 509.286 63.4996H520.186" stroke="#4BB7BA" stroke-opacity="0.5" stroke-width="2" stroke-miterlimit="22.9256" stroke-linecap="round"/>
</g>
<defs>
<filter id="filter0_d_563_2757" x="0" y="0" width="1212" height="732" filterUnits="userSpaceOnUse" color-interpolation-filters="sRGB">
<feFlood flood-opacity="0" result="BackgroundImageFix"/>
<feColorMatrix in="SourceAlpha" type="matrix" values="0 0 0 0 0 0 0 0 0 0 0 0 0 0 0 0 0 0 127 0" result="hardAlpha"/>
<feOffset/>
<feGaussianBlur stdDeviation="2.5"/>
<feComposite in2="hardAlpha" operator="out"/>
<feColorMatrix type="matrix" values="0 0 0 0 0.294118 0 0 0 0 0.717647 0 0 0 0 0.729412 0 0 0 1 0"/>
<feBlend mode="normal" in2="BackgroundImageFix" result="effect1_dropShadow_563_2757"/>
<feBlend mode="normal" in="SourceGraphic" in2="effect1_dropShadow_563_2757" result="shape"/>
</filter>
</defs>
</svg>
