<svg width="209" height="80" viewBox="0 0 209 80" fill="none" xmlns="http://www.w3.org/2000/svg">
<mask id="path-1-inside-1_522_2802" fill="white">
<path d="M38.6497 6.74548V12.3109H39.5715C40.8063 12.3109 43.9021 12.7457 45.2413 13.0936C45.85 13.2501 46.3891 13.3196 46.4413 13.2674C46.5109 13.2153 47.224 10.8152 48.0588 7.96293L49.5544 2.7454L48.9284 2.57149C46.6326 1.91054 41.4499 1.18018 39.1541 1.18018H38.6497V6.74558V6.74548ZM32.4756 1.71922C30.6495 2.04964 27.7103 2.81493 26.0407 3.38884C23.1537 4.39761 23.2058 3.61492 25.6928 9.42387C26.8755 12.1892 27.8842 14.4675 27.919 14.5022C27.9538 14.5544 28.3712 14.4153 28.8408 14.224C30.006 13.7196 32.9974 12.8848 34.1626 12.7457C34.6844 12.6762 35.1888 12.5717 35.2932 12.5197C35.3975 12.4326 35.2236 10.4848 34.8062 7.00643C34.441 4.03238 34.1453 1.59753 34.1453 1.56277C34.1279 1.49319 33.3626 1.56277 32.4756 1.71927L32.4756 1.71922ZM53.2067 4.25841C53.0501 4.50185 49.2587 14.05 49.2587 14.1892C49.2587 14.2586 50.0414 14.6762 50.9806 15.1457C51.9371 15.5979 53.4502 16.4675 54.3546 17.0762L56.0068 18.1719L59.346 13.9282C61.2069 11.5282 62.633 9.56286 62.581 9.44112C62.4243 9.02372 58.2677 6.3976 55.972 5.24967C53.7458 4.15407 53.3632 4.01487 53.2067 4.25841H53.2067ZM18.1622 7.18029C16.1795 8.41509 14.1099 9.99778 12.3881 11.5804L11.2576 12.6413L15.2056 16.6066L19.1709 20.5719L19.9884 19.7719C21.2057 18.6067 22.6667 17.4761 24.058 16.624C24.7189 16.2066 25.2581 15.8065 25.2581 15.7369C25.2581 15.5978 20.2666 6.44977 20.0579 6.18882C19.9884 6.11929 19.1362 6.554 18.1622 7.18019V7.18029ZM62.32 16.3806L58.4069 20.2937L59.2765 21.2851C60.8591 23.1112 61.433 23.8765 62.2505 25.1808C62.7027 25.8939 63.0852 26.5026 63.1027 26.5374C63.12 26.5722 63.4679 26.433 63.8678 26.2243C65.1897 25.5461 72.4769 21.4938 72.6334 21.3546C72.9812 21.0241 70.2681 17.0414 67.7985 14.2413C66.9636 13.2674 66.2506 12.4847 66.2332 12.4847C66.2158 12.4847 64.4593 14.2413 62.32 16.3805V16.3806ZM7.24014 17.4066C6.73575 18.0849 6.00533 19.198 5.60528 19.8763C4.73566 21.3024 2.82261 25.1286 2.82261 25.4417C2.82261 25.6156 12.5968 29.7026 12.9968 29.7026C13.049 29.7026 13.3447 29.1287 13.6751 28.4331C14.3186 27.0244 15.6751 24.7286 16.423 23.7547C16.7012 23.3895 16.8926 23.0242 16.8404 22.9546C16.7361 22.7807 8.44018 16.2414 8.24891 16.1892C8.17934 16.1544 7.72712 16.711 7.24014 17.4066ZM70.2159 26.6591C67.9202 27.6504 65.6767 28.6244 65.2418 28.8157L64.4244 29.1462L65.1026 31.1114C65.4679 32.2071 65.9027 33.7898 66.0593 34.6594C66.2158 35.5116 66.3897 36.3463 66.4592 36.5029C66.5463 36.729 67.1723 36.6942 71.9203 36.1203C74.8769 35.755 77.3292 35.442 77.3639 35.3899C77.4683 35.3028 76.8074 31.7549 76.39 30.1896C75.9552 28.5026 74.6508 24.8329 74.4943 24.8504C74.4421 24.8504 72.5115 25.6678 70.2158 26.659L70.2159 26.6591ZM36.3888 29.2853C32.9974 30.0158 29.8843 32.6767 28.5799 35.9638L28.0755 37.2681L22.4057 37.3203L16.736 37.3551V40.1378V42.9205H22.4753C27.7277 42.9205 28.2147 42.9379 28.2147 43.2162C28.2147 43.3727 28.5451 44.1727 28.9277 44.9901C29.9539 47.0945 31.8669 49.025 33.954 50.0164C35.8323 50.9033 36.9628 51.1642 38.9107 51.1642C43.676 51.1468 47.9718 48.0511 49.4153 43.564L49.6414 42.9205H55.3633H61.0853V40.1378V37.3551H55.3633H49.6588L49.2937 36.3463C47.3632 31.1114 41.8847 28.1027 36.3889 29.2853H36.3888ZM1.18775 30.2592C0.839978 31.5115 0.439929 33.5115 0.231201 35.1811C0.00511779 36.9377 -0.0818137 40.0335 0.0921004 40.0856C0.161625 40.1204 2.6661 40.1378 5.67486 40.1378H11.1185L11.2229 38.0855C11.3098 36.4333 11.6229 34.4332 12.0577 32.6767C12.1099 32.4853 10.8055 32.0505 6.82273 30.9027C3.90091 30.0505 1.50087 29.3549 1.48346 29.3549C1.46601 29.3549 1.32696 29.7723 1.18775 30.2592ZM66.5984 41.6509C66.4767 43.3901 66.1289 45.6163 65.781 46.9207C65.6767 47.3381 65.6419 47.7207 65.7288 47.7903C65.8853 47.9468 75.59 50.7469 75.9378 50.7469C76.1988 50.7469 76.2509 50.6077 76.7379 48.4685C77.2075 46.3816 77.6074 43.164 77.6074 41.4248V39.9639H72.1639H66.7029L66.5985 41.6509H66.5984ZM5.29222 44.1031L0.179032 44.7292L0.300726 45.5293C0.735537 48.625 2.21388 53.8948 2.97911 55.0774C3.11821 55.2861 4.04001 54.9557 8.21399 53.1643C12.075 51.512 13.2577 50.9381 13.1881 50.7468C13.1359 50.6077 12.8576 49.7729 12.562 48.9207C12.2663 48.0511 11.8489 46.4684 11.6402 45.3901C11.275 43.5118 11.2402 43.4422 10.8228 43.4596C10.5793 43.477 8.0922 43.7726 5.29211 44.1031H5.29222ZM63.8158 52.2252C62.9809 53.9469 61.6592 56.1035 61.033 56.7992C60.7721 57.0775 60.72 57.234 60.8591 57.3732C60.9635 57.4775 62.9114 59.0428 65.1897 60.8341L69.3463 64.1038L69.6595 63.7386C71.2942 61.7559 75.0857 54.921 74.7204 54.5905C74.5465 54.4166 64.9984 50.573 64.7549 50.573C64.6853 50.573 64.2505 51.3208 63.8158 52.2252ZM11.6054 55.1121C10.0749 55.9643 7.93579 57.1471 6.8748 57.7383C5.7965 58.3123 4.90958 58.8862 4.90958 59.0079C4.90958 59.3036 6.59655 61.9471 7.814 63.5472C8.90965 64.9733 10.9097 67.2691 11.2576 67.4777C11.3793 67.5474 12.9968 66.0516 15.3446 63.7037L19.223 59.8254L17.9186 58.2775C16.6491 56.7992 14.649 53.9817 14.649 53.6686C14.649 53.4252 14.4403 53.5121 11.6054 55.1122V55.1121ZM57.259 60.8689C56.6329 61.4428 55.3111 62.4689 54.3024 63.1298C53.2937 63.8081 52.4589 64.4168 52.4241 64.5037C52.3372 64.6951 57.4678 74.0345 57.659 74.0519C57.746 74.0519 58.5461 73.5823 59.4678 73.0083C61.4505 71.7562 64.32 69.53 65.5028 68.33L66.3723 67.4429L62.494 63.6689C60.3548 61.5819 58.5634 59.8601 58.4939 59.8427C58.4417 59.8253 57.8852 60.2775 57.2591 60.8688L57.259 60.8689ZM18.3883 66.0864C16.5621 68.3995 15.0317 70.3822 14.9621 70.504C14.8056 70.7475 16.3535 71.9475 18.3883 73.1823C19.6579 73.9649 23.345 75.8432 23.9537 76.0346C24.2841 76.1389 24.4928 75.6867 26.3886 71.0083C27.519 68.1909 28.4234 65.8604 28.3712 65.843C28.3364 65.8082 27.519 65.4082 26.5799 64.956C24.945 64.156 23.5015 63.2863 22.2493 62.3298L21.6753 61.895L18.3883 66.0864ZM47.5369 66.4343C46.4413 66.7995 44.789 67.2343 43.8499 67.4083C42.8933 67.5648 42.1281 67.7735 42.1281 67.8778C42.1629 68.5387 43.4673 78.5738 43.5195 78.6433C43.7281 78.8347 48.7892 77.739 50.824 77.0781C52.4763 76.539 53.9545 75.8954 53.9545 75.7389C53.9545 75.4433 49.7458 65.7038 49.624 65.7212C49.5719 65.7387 48.6327 66.0517 47.5369 66.4343ZM31.1017 66.8864C31.0322 66.9908 28.0407 77.3216 28.0407 77.4434C28.0407 77.5303 31.0148 78.2085 32.7365 78.5042C34.4409 78.7998 38.7019 78.9389 38.7889 78.6955C38.8063 78.626 38.8236 76.1563 38.8236 73.1822V67.7908H37.5367C36.3193 67.7908 32.9452 67.3038 31.7452 66.9386C31.4321 66.8517 31.1365 66.8343 31.1017 66.8864Z"/>
</mask>
<path d="M38.6497 6.74548V12.3109H39.5715C40.8063 12.3109 43.9021 12.7457 45.2413 13.0936C45.85 13.2501 46.3891 13.3196 46.4413 13.2674C46.5109 13.2153 47.224 10.8152 48.0588 7.96293L49.5544 2.7454L48.9284 2.57149C46.6326 1.91054 41.4499 1.18018 39.1541 1.18018H38.6497V6.74558V6.74548ZM32.4756 1.71922C30.6495 2.04964 27.7103 2.81493 26.0407 3.38884C23.1537 4.39761 23.2058 3.61492 25.6928 9.42387C26.8755 12.1892 27.8842 14.4675 27.919 14.5022C27.9538 14.5544 28.3712 14.4153 28.8408 14.224C30.006 13.7196 32.9974 12.8848 34.1626 12.7457C34.6844 12.6762 35.1888 12.5717 35.2932 12.5197C35.3975 12.4326 35.2236 10.4848 34.8062 7.00643C34.441 4.03238 34.1453 1.59753 34.1453 1.56277C34.1279 1.49319 33.3626 1.56277 32.4756 1.71927L32.4756 1.71922ZM53.2067 4.25841C53.0501 4.50185 49.2587 14.05 49.2587 14.1892C49.2587 14.2586 50.0414 14.6762 50.9806 15.1457C51.9371 15.5979 53.4502 16.4675 54.3546 17.0762L56.0068 18.1719L59.346 13.9282C61.2069 11.5282 62.633 9.56286 62.581 9.44112C62.4243 9.02372 58.2677 6.3976 55.972 5.24967C53.7458 4.15407 53.3632 4.01487 53.2067 4.25841H53.2067ZM18.1622 7.18029C16.1795 8.41509 14.1099 9.99778 12.3881 11.5804L11.2576 12.6413L15.2056 16.6066L19.1709 20.5719L19.9884 19.7719C21.2057 18.6067 22.6667 17.4761 24.058 16.624C24.7189 16.2066 25.2581 15.8065 25.2581 15.7369C25.2581 15.5978 20.2666 6.44977 20.0579 6.18882C19.9884 6.11929 19.1362 6.554 18.1622 7.18019V7.18029ZM62.32 16.3806L58.4069 20.2937L59.2765 21.2851C60.8591 23.1112 61.433 23.8765 62.2505 25.1808C62.7027 25.8939 63.0852 26.5026 63.1027 26.5374C63.12 26.5722 63.4679 26.433 63.8678 26.2243C65.1897 25.5461 72.4769 21.4938 72.6334 21.3546C72.9812 21.0241 70.2681 17.0414 67.7985 14.2413C66.9636 13.2674 66.2506 12.4847 66.2332 12.4847C66.2158 12.4847 64.4593 14.2413 62.32 16.3805V16.3806ZM7.24014 17.4066C6.73575 18.0849 6.00533 19.198 5.60528 19.8763C4.73566 21.3024 2.82261 25.1286 2.82261 25.4417C2.82261 25.6156 12.5968 29.7026 12.9968 29.7026C13.049 29.7026 13.3447 29.1287 13.6751 28.4331C14.3186 27.0244 15.6751 24.7286 16.423 23.7547C16.7012 23.3895 16.8926 23.0242 16.8404 22.9546C16.7361 22.7807 8.44018 16.2414 8.24891 16.1892C8.17934 16.1544 7.72712 16.711 7.24014 17.4066ZM70.2159 26.6591C67.9202 27.6504 65.6767 28.6244 65.2418 28.8157L64.4244 29.1462L65.1026 31.1114C65.4679 32.2071 65.9027 33.7898 66.0593 34.6594C66.2158 35.5116 66.3897 36.3463 66.4592 36.5029C66.5463 36.729 67.1723 36.6942 71.9203 36.1203C74.8769 35.755 77.3292 35.442 77.3639 35.3899C77.4683 35.3028 76.8074 31.7549 76.39 30.1896C75.9552 28.5026 74.6508 24.8329 74.4943 24.8504C74.4421 24.8504 72.5115 25.6678 70.2158 26.659L70.2159 26.6591ZM36.3888 29.2853C32.9974 30.0158 29.8843 32.6767 28.5799 35.9638L28.0755 37.2681L22.4057 37.3203L16.736 37.3551V40.1378V42.9205H22.4753C27.7277 42.9205 28.2147 42.9379 28.2147 43.2162C28.2147 43.3727 28.5451 44.1727 28.9277 44.9901C29.9539 47.0945 31.8669 49.025 33.954 50.0164C35.8323 50.9033 36.9628 51.1642 38.9107 51.1642C43.676 51.1468 47.9718 48.0511 49.4153 43.564L49.6414 42.9205H55.3633H61.0853V40.1378V37.3551H55.3633H49.6588L49.2937 36.3463C47.3632 31.1114 41.8847 28.1027 36.3889 29.2853H36.3888ZM1.18775 30.2592C0.839978 31.5115 0.439929 33.5115 0.231201 35.1811C0.00511779 36.9377 -0.0818137 40.0335 0.0921004 40.0856C0.161625 40.1204 2.6661 40.1378 5.67486 40.1378H11.1185L11.2229 38.0855C11.3098 36.4333 11.6229 34.4332 12.0577 32.6767C12.1099 32.4853 10.8055 32.0505 6.82273 30.9027C3.90091 30.0505 1.50087 29.3549 1.48346 29.3549C1.46601 29.3549 1.32696 29.7723 1.18775 30.2592ZM66.5984 41.6509C66.4767 43.3901 66.1289 45.6163 65.781 46.9207C65.6767 47.3381 65.6419 47.7207 65.7288 47.7903C65.8853 47.9468 75.59 50.7469 75.9378 50.7469C76.1988 50.7469 76.2509 50.6077 76.7379 48.4685C77.2075 46.3816 77.6074 43.164 77.6074 41.4248V39.9639H72.1639H66.7029L66.5985 41.6509H66.5984ZM5.29222 44.1031L0.179032 44.7292L0.300726 45.5293C0.735537 48.625 2.21388 53.8948 2.97911 55.0774C3.11821 55.2861 4.04001 54.9557 8.21399 53.1643C12.075 51.512 13.2577 50.9381 13.1881 50.7468C13.1359 50.6077 12.8576 49.7729 12.562 48.9207C12.2663 48.0511 11.8489 46.4684 11.6402 45.3901C11.275 43.5118 11.2402 43.4422 10.8228 43.4596C10.5793 43.477 8.0922 43.7726 5.29211 44.1031H5.29222ZM63.8158 52.2252C62.9809 53.9469 61.6592 56.1035 61.033 56.7992C60.7721 57.0775 60.72 57.234 60.8591 57.3732C60.9635 57.4775 62.9114 59.0428 65.1897 60.8341L69.3463 64.1038L69.6595 63.7386C71.2942 61.7559 75.0857 54.921 74.7204 54.5905C74.5465 54.4166 64.9984 50.573 64.7549 50.573C64.6853 50.573 64.2505 51.3208 63.8158 52.2252ZM11.6054 55.1121C10.0749 55.9643 7.93579 57.1471 6.8748 57.7383C5.7965 58.3123 4.90958 58.8862 4.90958 59.0079C4.90958 59.3036 6.59655 61.9471 7.814 63.5472C8.90965 64.9733 10.9097 67.2691 11.2576 67.4777C11.3793 67.5474 12.9968 66.0516 15.3446 63.7037L19.223 59.8254L17.9186 58.2775C16.6491 56.7992 14.649 53.9817 14.649 53.6686C14.649 53.4252 14.4403 53.5121 11.6054 55.1122V55.1121ZM57.259 60.8689C56.6329 61.4428 55.3111 62.4689 54.3024 63.1298C53.2937 63.8081 52.4589 64.4168 52.4241 64.5037C52.3372 64.6951 57.4678 74.0345 57.659 74.0519C57.746 74.0519 58.5461 73.5823 59.4678 73.0083C61.4505 71.7562 64.32 69.53 65.5028 68.33L66.3723 67.4429L62.494 63.6689C60.3548 61.5819 58.5634 59.8601 58.4939 59.8427C58.4417 59.8253 57.8852 60.2775 57.2591 60.8688L57.259 60.8689ZM18.3883 66.0864C16.5621 68.3995 15.0317 70.3822 14.9621 70.504C14.8056 70.7475 16.3535 71.9475 18.3883 73.1823C19.6579 73.9649 23.345 75.8432 23.9537 76.0346C24.2841 76.1389 24.4928 75.6867 26.3886 71.0083C27.519 68.1909 28.4234 65.8604 28.3712 65.843C28.3364 65.8082 27.519 65.4082 26.5799 64.956C24.945 64.156 23.5015 63.2863 22.2493 62.3298L21.6753 61.895L18.3883 66.0864ZM47.5369 66.4343C46.4413 66.7995 44.789 67.2343 43.8499 67.4083C42.8933 67.5648 42.1281 67.7735 42.1281 67.8778C42.1629 68.5387 43.4673 78.5738 43.5195 78.6433C43.7281 78.8347 48.7892 77.739 50.824 77.0781C52.4763 76.539 53.9545 75.8954 53.9545 75.7389C53.9545 75.4433 49.7458 65.7038 49.624 65.7212C49.5719 65.7387 48.6327 66.0517 47.5369 66.4343ZM31.1017 66.8864C31.0322 66.9908 28.0407 77.3216 28.0407 77.4434C28.0407 77.5303 31.0148 78.2085 32.7365 78.5042C34.4409 78.7998 38.7019 78.9389 38.7889 78.6955C38.8063 78.626 38.8236 76.1563 38.8236 73.1822V67.7908H37.5367C36.3193 67.7908 32.9452 67.3038 31.7452 66.9386C31.4321 66.8517 31.1365 66.8343 31.1017 66.8864Z" stroke="#FBFBFB" stroke-width="2" mask="url(#path-1-inside-1_522_2802)"/>
<mask id="path-2-inside-2_522_2802" fill="white">
<path d="M89.5156 2.37137H97.0627C98.8109 2.37137 100.361 2.69812 101.714 3.35178C103.067 4.00539 104.116 4.93266 104.861 6.13348C105.606 7.3344 105.978 8.74038 105.978 10.3517C105.978 11.963 105.606 13.3691 104.861 14.5699C104.116 15.7708 103.067 16.698 101.714 17.3517C100.361 18.0053 98.8109 18.3321 97.0627 18.3321H89.5156V2.37137ZM96.8804 14.7295C98.2484 14.7295 99.3467 14.3419 100.175 13.5667C101.004 12.7915 101.418 11.7198 101.418 10.3517C101.418 8.98366 101.004 7.91203 100.175 7.13678C99.3467 6.36152 98.2484 5.97392 96.8804 5.97392H94.0303V14.7295H96.8804ZM121.164 5.97392L115.828 18.8337C115.205 20.3538 114.445 21.4217 113.548 22.0373C112.651 22.6529 111.557 22.9607 110.265 22.9607C109.611 22.9607 108.954 22.8582 108.292 22.6529C107.631 22.4477 107.095 22.1779 106.685 21.8435L108.19 18.8109C108.433 19.0389 108.726 19.2175 109.068 19.3468C109.41 19.476 109.755 19.5406 110.105 19.5406C110.516 19.5406 110.854 19.457 111.12 19.2898C111.386 19.1225 111.61 18.8565 111.792 18.4917L106.503 5.97392H110.949L113.981 13.5211L117.037 5.97392H121.164ZM130.33 5.76866C131.865 5.76866 133.1 6.2247 134.035 7.13678C134.97 8.04881 135.437 9.42447 135.437 11.2638V18.3321H131.105V11.9706C131.105 10.2833 130.429 9.43971 129.076 9.43971C128.331 9.43971 127.734 9.68294 127.286 10.1693C126.837 10.6558 126.613 11.3854 126.613 12.3582V18.3321H122.281V5.97392H126.408V7.31916C126.894 6.81756 127.472 6.43379 128.141 6.16767C128.81 5.90166 129.539 5.76866 130.33 5.76866ZM143.418 5.76866C145.47 5.76866 147.035 6.23611 148.115 7.17092C149.194 8.10578 149.734 9.53852 149.734 11.469V18.3321H145.698V16.736C145.074 17.9369 143.858 18.5373 142.05 18.5373C141.092 18.5373 140.263 18.3701 139.564 18.0358C138.865 17.7013 138.337 17.2491 137.98 16.6791C137.622 16.109 137.444 15.4592 137.444 14.7295C137.444 13.5591 137.892 12.6508 138.789 12.0048C139.686 11.3588 141.069 11.0358 142.939 11.0358H145.401C145.325 9.72855 144.451 9.07483 142.779 9.07483C142.186 9.07483 141.586 9.16987 140.978 9.3599C140.37 9.54993 139.853 9.81212 139.427 10.1465L137.968 7.20511C138.652 6.74918 139.484 6.39567 140.465 6.14489C141.445 5.89407 142.43 5.76866 143.418 5.76866ZM143.258 15.8012C143.76 15.8012 144.2 15.6796 144.58 15.4364C144.96 15.1932 145.234 14.8359 145.401 14.3647V13.2931H143.532C142.27 13.2931 141.639 13.7111 141.639 14.5472C141.639 14.9271 141.784 15.2312 142.072 15.4592C142.361 15.6872 142.756 15.8012 143.258 15.8012ZM168.567 5.76866C170.087 5.76866 171.3 6.2247 172.204 7.13678C173.109 8.04881 173.561 9.42447 173.561 11.2638V18.3321H169.228V11.9706C169.228 11.1042 169.065 10.4657 168.738 10.0553C168.411 9.64487 167.952 9.43971 167.359 9.43971C166.705 9.43971 166.181 9.6677 165.786 10.1237C165.39 10.5798 165.193 11.2714 165.193 12.1986V18.3321H160.86V11.9706C160.86 10.2833 160.237 9.43971 158.991 9.43971C158.322 9.43971 157.79 9.6677 157.395 10.1237C156.999 10.5798 156.802 11.2714 156.802 12.1986V18.3321H152.47V5.97392H156.597V7.27355C157.053 6.77196 157.596 6.39567 158.227 6.14489C158.858 5.89407 159.546 5.76866 160.29 5.76866C161.157 5.76866 161.932 5.92832 162.616 6.24753C163.3 6.56679 163.855 7.05315 164.281 7.70676C164.767 7.08352 165.383 6.60476 166.128 6.27031C166.872 5.93596 167.686 5.76866 168.567 5.76866ZM176.297 5.97392H180.629V18.3321H176.297V5.97392ZM178.463 4.60586C177.673 4.60586 177.034 4.38545 176.548 3.94465C176.061 3.50375 175.818 2.95659 175.818 2.30293C175.818 1.64921 176.061 1.10211 176.548 0.661204C177.034 0.220401 177.673 0 178.463 0C179.253 0 179.892 0.208986 180.378 0.627009C180.865 1.04508 181.108 1.58088 181.108 2.23454C181.108 2.91852 180.865 3.48479 180.378 3.93318C179.892 4.38163 179.253 4.60586 178.463 4.60586ZM189.75 18.5373C188.382 18.5373 187.158 18.2638 186.079 17.7165C184.999 17.1693 184.159 16.4093 183.559 15.4364C182.959 14.4636 182.658 13.3615 182.658 12.1302C182.658 10.899 182.959 9.8007 183.559 8.83542C184.159 7.87024 184.999 7.11772 186.079 6.5781C187.158 6.03849 188.382 5.76866 189.75 5.76866C191.148 5.76866 192.357 6.06896 193.375 6.66932C194.393 7.26978 195.115 8.10206 195.541 9.16605L192.189 10.8761C191.627 9.76651 190.806 9.21166 189.727 9.21166C188.951 9.21166 188.309 9.47003 187.8 9.98691C187.291 10.5037 187.036 11.2182 187.036 12.1302C187.036 13.0575 187.291 13.7833 187.8 14.3077C188.309 14.8322 188.951 15.0944 189.727 15.0944C190.806 15.0944 191.627 14.5395 192.189 13.4299L195.541 15.14C195.115 16.204 194.393 17.0363 193.375 17.6367C192.357 18.2371 191.148 18.5373 189.75 18.5373Z"/>
</mask>
<path d="M89.5156 2.37137H97.0627C98.8109 2.37137 100.361 2.69812 101.714 3.35178C103.067 4.00539 104.116 4.93266 104.861 6.13348C105.606 7.3344 105.978 8.74038 105.978 10.3517C105.978 11.963 105.606 13.3691 104.861 14.5699C104.116 15.7708 103.067 16.698 101.714 17.3517C100.361 18.0053 98.8109 18.3321 97.0627 18.3321H89.5156V2.37137ZM96.8804 14.7295C98.2484 14.7295 99.3467 14.3419 100.175 13.5667C101.004 12.7915 101.418 11.7198 101.418 10.3517C101.418 8.98366 101.004 7.91203 100.175 7.13678C99.3467 6.36152 98.2484 5.97392 96.8804 5.97392H94.0303V14.7295H96.8804ZM121.164 5.97392L115.828 18.8337C115.205 20.3538 114.445 21.4217 113.548 22.0373C112.651 22.6529 111.557 22.9607 110.265 22.9607C109.611 22.9607 108.954 22.8582 108.292 22.6529C107.631 22.4477 107.095 22.1779 106.685 21.8435L108.19 18.8109C108.433 19.0389 108.726 19.2175 109.068 19.3468C109.41 19.476 109.755 19.5406 110.105 19.5406C110.516 19.5406 110.854 19.457 111.12 19.2898C111.386 19.1225 111.61 18.8565 111.792 18.4917L106.503 5.97392H110.949L113.981 13.5211L117.037 5.97392H121.164ZM130.33 5.76866C131.865 5.76866 133.1 6.2247 134.035 7.13678C134.97 8.04881 135.437 9.42447 135.437 11.2638V18.3321H131.105V11.9706C131.105 10.2833 130.429 9.43971 129.076 9.43971C128.331 9.43971 127.734 9.68294 127.286 10.1693C126.837 10.6558 126.613 11.3854 126.613 12.3582V18.3321H122.281V5.97392H126.408V7.31916C126.894 6.81756 127.472 6.43379 128.141 6.16767C128.81 5.90166 129.539 5.76866 130.33 5.76866ZM143.418 5.76866C145.47 5.76866 147.035 6.23611 148.115 7.17092C149.194 8.10578 149.734 9.53852 149.734 11.469V18.3321H145.698V16.736C145.074 17.9369 143.858 18.5373 142.05 18.5373C141.092 18.5373 140.263 18.3701 139.564 18.0358C138.865 17.7013 138.337 17.2491 137.98 16.6791C137.622 16.109 137.444 15.4592 137.444 14.7295C137.444 13.5591 137.892 12.6508 138.789 12.0048C139.686 11.3588 141.069 11.0358 142.939 11.0358H145.401C145.325 9.72855 144.451 9.07483 142.779 9.07483C142.186 9.07483 141.586 9.16987 140.978 9.3599C140.37 9.54993 139.853 9.81212 139.427 10.1465L137.968 7.20511C138.652 6.74918 139.484 6.39567 140.465 6.14489C141.445 5.89407 142.43 5.76866 143.418 5.76866ZM143.258 15.8012C143.76 15.8012 144.2 15.6796 144.58 15.4364C144.96 15.1932 145.234 14.8359 145.401 14.3647V13.2931H143.532C142.27 13.2931 141.639 13.7111 141.639 14.5472C141.639 14.9271 141.784 15.2312 142.072 15.4592C142.361 15.6872 142.756 15.8012 143.258 15.8012ZM168.567 5.76866C170.087 5.76866 171.3 6.2247 172.204 7.13678C173.109 8.04881 173.561 9.42447 173.561 11.2638V18.3321H169.228V11.9706C169.228 11.1042 169.065 10.4657 168.738 10.0553C168.411 9.64487 167.952 9.43971 167.359 9.43971C166.705 9.43971 166.181 9.6677 165.786 10.1237C165.39 10.5798 165.193 11.2714 165.193 12.1986V18.3321H160.86V11.9706C160.86 10.2833 160.237 9.43971 158.991 9.43971C158.322 9.43971 157.79 9.6677 157.395 10.1237C156.999 10.5798 156.802 11.2714 156.802 12.1986V18.3321H152.47V5.97392H156.597V7.27355C157.053 6.77196 157.596 6.39567 158.227 6.14489C158.858 5.89407 159.546 5.76866 160.29 5.76866C161.157 5.76866 161.932 5.92832 162.616 6.24753C163.3 6.56679 163.855 7.05315 164.281 7.70676C164.767 7.08352 165.383 6.60476 166.128 6.27031C166.872 5.93596 167.686 5.76866 168.567 5.76866ZM176.297 5.97392H180.629V18.3321H176.297V5.97392ZM178.463 4.60586C177.673 4.60586 177.034 4.38545 176.548 3.94465C176.061 3.50375 175.818 2.95659 175.818 2.30293C175.818 1.64921 176.061 1.10211 176.548 0.661204C177.034 0.220401 177.673 0 178.463 0C179.253 0 179.892 0.208986 180.378 0.627009C180.865 1.04508 181.108 1.58088 181.108 2.23454C181.108 2.91852 180.865 3.48479 180.378 3.93318C179.892 4.38163 179.253 4.60586 178.463 4.60586ZM189.75 18.5373C188.382 18.5373 187.158 18.2638 186.079 17.7165C184.999 17.1693 184.159 16.4093 183.559 15.4364C182.959 14.4636 182.658 13.3615 182.658 12.1302C182.658 10.899 182.959 9.8007 183.559 8.83542C184.159 7.87024 184.999 7.11772 186.079 6.5781C187.158 6.03849 188.382 5.76866 189.75 5.76866C191.148 5.76866 192.357 6.06896 193.375 6.66932C194.393 7.26978 195.115 8.10206 195.541 9.16605L192.189 10.8761C191.627 9.76651 190.806 9.21166 189.727 9.21166C188.951 9.21166 188.309 9.47003 187.8 9.98691C187.291 10.5037 187.036 11.2182 187.036 12.1302C187.036 13.0575 187.291 13.7833 187.8 14.3077C188.309 14.8322 188.951 15.0944 189.727 15.0944C190.806 15.0944 191.627 14.5395 192.189 13.4299L195.541 15.14C195.115 16.204 194.393 17.0363 193.375 17.6367C192.357 18.2371 191.148 18.5373 189.75 18.5373Z" stroke="#FBFBFB" stroke-width="2" mask="url(#path-2-inside-2_522_2802)"/>
<mask id="path-3-inside-3_522_2802" fill="white">
<path d="M101.783 34.184C102.695 34.5032 103.409 35.001 103.926 35.6774C104.443 36.3539 104.701 37.1709 104.701 38.1286C104.701 39.5271 104.139 40.6063 103.014 41.3663C101.889 42.1264 100.263 42.5064 98.1345 42.5064H89.5156V26.5457H97.6784C99.7153 26.5457 101.266 26.9218 102.33 27.6743C103.394 28.4267 103.926 29.4413 103.926 30.7182C103.926 31.4782 103.74 32.1585 103.367 32.759C102.995 33.3594 102.467 33.8344 101.783 34.184ZM93.9847 29.8061V32.8843H97.0856C98.6056 32.8843 99.3657 32.3675 99.3657 31.3338C99.3657 30.3154 98.6056 29.8061 97.0856 29.8061H93.9847ZM97.7696 39.2459C99.3505 39.2459 100.141 38.7062 100.141 37.627C100.141 36.5477 99.3505 36.0081 97.7696 36.0081H93.9847V39.2459H97.7696ZM112.112 29.943C114.164 29.943 115.729 30.4104 116.809 31.3452C117.888 32.28 118.428 33.7128 118.428 35.6433V42.5064H114.392V40.9103C113.769 42.1112 112.552 42.7116 110.744 42.7116C109.786 42.7116 108.957 42.5444 108.258 42.21C107.559 41.8756 107.031 41.4234 106.674 40.8534C106.316 40.2833 106.138 39.6335 106.138 38.9039C106.138 37.7334 106.586 36.8252 107.483 36.1791C108.38 35.533 109.763 35.2101 111.633 35.2101H114.095C114.019 33.9028 113.145 33.2491 111.473 33.2491C110.88 33.2491 110.28 33.3442 109.672 33.5342C109.064 33.7242 108.547 33.9864 108.121 34.3208L106.662 31.3794C107.346 30.9235 108.178 30.57 109.159 30.3192C110.139 30.0683 111.123 29.943 112.112 29.943ZM111.952 39.9755C112.454 39.9755 112.894 39.8539 113.274 39.6107C113.654 39.3675 113.928 39.0102 114.095 38.539V37.4674H112.226C110.964 37.4674 110.333 37.8854 110.333 38.7215C110.333 39.1014 110.478 39.4055 110.766 39.6335C111.055 39.8615 111.45 39.9755 111.952 39.9755ZM121.164 25.588H125.496V42.5064H121.164V25.588ZM133.568 29.943C135.62 29.943 137.185 30.4104 138.265 31.3452C139.344 32.28 139.883 33.7128 139.883 35.6433V42.5064H135.848V40.9103C135.224 42.1112 134.008 42.7116 132.199 42.7116C131.242 42.7116 130.413 42.5444 129.714 42.21C129.015 41.8756 128.487 41.4234 128.129 40.8534C127.772 40.2833 127.594 39.6335 127.594 38.9039C127.594 37.7334 128.042 36.8252 128.939 36.1791C129.836 35.533 131.219 35.2101 133.089 35.2101H135.551C135.475 33.9028 134.601 33.2491 132.929 33.2491C132.336 33.2491 131.736 33.3442 131.128 33.5342C130.52 33.7242 130.003 33.9864 129.577 34.3208L128.118 31.3794C128.802 30.9235 129.634 30.57 130.615 30.3192C131.595 30.0683 132.579 29.943 133.568 29.943ZM133.408 39.9755C133.91 39.9755 134.35 39.8539 134.73 39.6107C135.11 39.3675 135.384 39.0102 135.551 38.539V37.4674H133.681C132.42 37.4674 131.789 37.8854 131.789 38.7215C131.789 39.1014 131.933 39.4055 132.222 39.6335C132.511 39.8615 132.906 39.9755 133.408 39.9755ZM150.668 29.943C152.204 29.943 153.439 30.399 154.374 31.311C155.308 32.2231 155.776 33.5987 155.776 35.4381V42.5064H151.444V36.1449C151.444 34.4576 150.767 33.614 149.414 33.614C148.669 33.614 148.073 33.8573 147.624 34.3436C147.176 34.83 146.952 35.5597 146.952 36.5325V42.5064H142.62V30.1482H146.747V31.4935C147.233 30.9918 147.811 30.608 148.479 30.342C149.148 30.076 149.878 29.943 150.668 29.943ZM164.987 42.7116C163.619 42.7116 162.396 42.4381 161.317 41.8908C160.237 41.3436 159.397 40.5835 158.797 39.6107C158.197 38.6378 157.896 37.5358 157.896 36.3045C157.896 35.0733 158.197 33.975 158.797 33.0097C159.397 32.0445 160.237 31.292 161.317 30.7524C162.396 30.2128 163.619 29.943 164.987 29.943C166.386 29.943 167.594 30.2432 168.613 30.8436C169.631 31.444 170.353 32.2763 170.779 33.3404L167.427 35.0504C166.865 33.9408 166.044 33.386 164.965 33.386C164.189 33.386 163.547 33.6443 163.038 34.1612C162.529 34.678 162.274 35.3925 162.274 36.3045C162.274 37.2318 162.529 37.9576 163.038 38.482C163.547 39.0065 164.189 39.2687 164.965 39.2687C166.044 39.2687 166.865 38.7138 167.427 37.6042L170.779 39.3143C170.353 40.3783 169.631 41.2106 168.613 41.811C167.594 42.4114 166.386 42.7116 164.987 42.7116ZM172.421 30.1482H176.753V42.5064H172.421V30.1482ZM174.587 28.7801C173.796 28.7801 173.158 28.5597 172.671 28.1189C172.185 27.6781 171.942 27.1309 171.942 26.4772C171.942 25.8235 172.185 25.2764 172.671 24.8355C173.158 24.3947 173.796 24.1743 174.587 24.1743C175.377 24.1743 176.016 24.3832 176.502 24.8013C176.988 25.2193 177.232 25.7552 177.232 26.4089C177.232 27.0928 176.988 27.6591 176.502 28.1075C176.016 28.5559 175.377 28.7801 174.587 28.7801ZM187.606 29.943C189.141 29.943 190.377 30.399 191.311 31.311C192.246 32.2231 192.714 33.5987 192.714 35.4381V42.5064H188.381V36.1449C188.381 34.4576 187.705 33.614 186.352 33.614C185.607 33.614 185.011 33.8573 184.562 34.3436C184.114 34.83 183.89 35.5597 183.89 36.5325V42.5064H179.557V30.1482H183.684V31.4935C184.171 30.9918 184.748 30.608 185.417 30.342C186.086 30.076 186.816 29.943 187.606 29.943ZM208.902 30.1482V40.2491C208.902 42.5444 208.279 44.2659 207.033 45.4136C205.786 46.5612 203.993 47.135 201.652 47.135C200.435 47.135 199.296 46.9983 198.231 46.7247C197.167 46.4511 196.263 46.0482 195.518 45.5162L197.091 42.4837C197.593 42.894 198.228 43.217 198.995 43.4527C199.763 43.6883 200.519 43.806 201.264 43.806C202.404 43.806 203.24 43.5553 203.772 43.0537C204.304 42.552 204.57 41.8071 204.57 40.8191V40.4087C203.734 41.3816 202.51 41.868 200.899 41.868C199.805 41.868 198.794 41.621 197.867 41.127C196.939 40.6329 196.202 39.9337 195.655 39.0293C195.108 38.1248 194.834 37.0798 194.834 35.8941C194.834 34.7236 195.108 33.6861 195.655 32.7817C196.202 31.8773 196.939 31.1781 197.867 30.684C198.794 30.19 199.805 29.943 200.899 29.943C202.662 29.943 203.954 30.5131 204.775 31.653V30.1482H208.902ZM201.925 38.425C202.7 38.425 203.343 38.1894 203.852 37.7182C204.361 37.2469 204.616 36.6389 204.616 35.8941C204.616 35.1492 204.365 34.545 203.863 34.0814C203.362 33.6178 202.716 33.386 201.925 33.386C201.135 33.386 200.485 33.6178 199.976 34.0814C199.466 34.545 199.212 35.1492 199.212 35.8941C199.212 36.6389 199.47 37.2469 199.987 37.7182C200.504 38.1894 201.15 38.425 201.925 38.425Z"/>
</mask>
<path d="M101.783 34.184C102.695 34.5032 103.409 35.001 103.926 35.6774C104.443 36.3539 104.701 37.1709 104.701 38.1286C104.701 39.5271 104.139 40.6063 103.014 41.3663C101.889 42.1264 100.263 42.5064 98.1345 42.5064H89.5156V26.5457H97.6784C99.7153 26.5457 101.266 26.9218 102.33 27.6743C103.394 28.4267 103.926 29.4413 103.926 30.7182C103.926 31.4782 103.74 32.1585 103.367 32.759C102.995 33.3594 102.467 33.8344 101.783 34.184ZM93.9847 29.8061V32.8843H97.0856C98.6056 32.8843 99.3657 32.3675 99.3657 31.3338C99.3657 30.3154 98.6056 29.8061 97.0856 29.8061H93.9847ZM97.7696 39.2459C99.3505 39.2459 100.141 38.7062 100.141 37.627C100.141 36.5477 99.3505 36.0081 97.7696 36.0081H93.9847V39.2459H97.7696ZM112.112 29.943C114.164 29.943 115.729 30.4104 116.809 31.3452C117.888 32.28 118.428 33.7128 118.428 35.6433V42.5064H114.392V40.9103C113.769 42.1112 112.552 42.7116 110.744 42.7116C109.786 42.7116 108.957 42.5444 108.258 42.21C107.559 41.8756 107.031 41.4234 106.674 40.8534C106.316 40.2833 106.138 39.6335 106.138 38.9039C106.138 37.7334 106.586 36.8252 107.483 36.1791C108.38 35.533 109.763 35.2101 111.633 35.2101H114.095C114.019 33.9028 113.145 33.2491 111.473 33.2491C110.88 33.2491 110.28 33.3442 109.672 33.5342C109.064 33.7242 108.547 33.9864 108.121 34.3208L106.662 31.3794C107.346 30.9235 108.178 30.57 109.159 30.3192C110.139 30.0683 111.123 29.943 112.112 29.943ZM111.952 39.9755C112.454 39.9755 112.894 39.8539 113.274 39.6107C113.654 39.3675 113.928 39.0102 114.095 38.539V37.4674H112.226C110.964 37.4674 110.333 37.8854 110.333 38.7215C110.333 39.1014 110.478 39.4055 110.766 39.6335C111.055 39.8615 111.45 39.9755 111.952 39.9755ZM121.164 25.588H125.496V42.5064H121.164V25.588ZM133.568 29.943C135.62 29.943 137.185 30.4104 138.265 31.3452C139.344 32.28 139.883 33.7128 139.883 35.6433V42.5064H135.848V40.9103C135.224 42.1112 134.008 42.7116 132.199 42.7116C131.242 42.7116 130.413 42.5444 129.714 42.21C129.015 41.8756 128.487 41.4234 128.129 40.8534C127.772 40.2833 127.594 39.6335 127.594 38.9039C127.594 37.7334 128.042 36.8252 128.939 36.1791C129.836 35.533 131.219 35.2101 133.089 35.2101H135.551C135.475 33.9028 134.601 33.2491 132.929 33.2491C132.336 33.2491 131.736 33.3442 131.128 33.5342C130.52 33.7242 130.003 33.9864 129.577 34.3208L128.118 31.3794C128.802 30.9235 129.634 30.57 130.615 30.3192C131.595 30.0683 132.579 29.943 133.568 29.943ZM133.408 39.9755C133.91 39.9755 134.35 39.8539 134.73 39.6107C135.11 39.3675 135.384 39.0102 135.551 38.539V37.4674H133.681C132.42 37.4674 131.789 37.8854 131.789 38.7215C131.789 39.1014 131.933 39.4055 132.222 39.6335C132.511 39.8615 132.906 39.9755 133.408 39.9755ZM150.668 29.943C152.204 29.943 153.439 30.399 154.374 31.311C155.308 32.2231 155.776 33.5987 155.776 35.4381V42.5064H151.444V36.1449C151.444 34.4576 150.767 33.614 149.414 33.614C148.669 33.614 148.073 33.8573 147.624 34.3436C147.176 34.83 146.952 35.5597 146.952 36.5325V42.5064H142.62V30.1482H146.747V31.4935C147.233 30.9918 147.811 30.608 148.479 30.342C149.148 30.076 149.878 29.943 150.668 29.943ZM164.987 42.7116C163.619 42.7116 162.396 42.4381 161.317 41.8908C160.237 41.3436 159.397 40.5835 158.797 39.6107C158.197 38.6378 157.896 37.5358 157.896 36.3045C157.896 35.0733 158.197 33.975 158.797 33.0097C159.397 32.0445 160.237 31.292 161.317 30.7524C162.396 30.2128 163.619 29.943 164.987 29.943C166.386 29.943 167.594 30.2432 168.613 30.8436C169.631 31.444 170.353 32.2763 170.779 33.3404L167.427 35.0504C166.865 33.9408 166.044 33.386 164.965 33.386C164.189 33.386 163.547 33.6443 163.038 34.1612C162.529 34.678 162.274 35.3925 162.274 36.3045C162.274 37.2318 162.529 37.9576 163.038 38.482C163.547 39.0065 164.189 39.2687 164.965 39.2687C166.044 39.2687 166.865 38.7138 167.427 37.6042L170.779 39.3143C170.353 40.3783 169.631 41.2106 168.613 41.811C167.594 42.4114 166.386 42.7116 164.987 42.7116ZM172.421 30.1482H176.753V42.5064H172.421V30.1482ZM174.587 28.7801C173.796 28.7801 173.158 28.5597 172.671 28.1189C172.185 27.6781 171.942 27.1309 171.942 26.4772C171.942 25.8235 172.185 25.2764 172.671 24.8355C173.158 24.3947 173.796 24.1743 174.587 24.1743C175.377 24.1743 176.016 24.3832 176.502 24.8013C176.988 25.2193 177.232 25.7552 177.232 26.4089C177.232 27.0928 176.988 27.6591 176.502 28.1075C176.016 28.5559 175.377 28.7801 174.587 28.7801ZM187.606 29.943C189.141 29.943 190.377 30.399 191.311 31.311C192.246 32.2231 192.714 33.5987 192.714 35.4381V42.5064H188.381V36.1449C188.381 34.4576 187.705 33.614 186.352 33.614C185.607 33.614 185.011 33.8573 184.562 34.3436C184.114 34.83 183.89 35.5597 183.89 36.5325V42.5064H179.557V30.1482H183.684V31.4935C184.171 30.9918 184.748 30.608 185.417 30.342C186.086 30.076 186.816 29.943 187.606 29.943ZM208.902 30.1482V40.2491C208.902 42.5444 208.279 44.2659 207.033 45.4136C205.786 46.5612 203.993 47.135 201.652 47.135C200.435 47.135 199.296 46.9983 198.231 46.7247C197.167 46.4511 196.263 46.0482 195.518 45.5162L197.091 42.4837C197.593 42.894 198.228 43.217 198.995 43.4527C199.763 43.6883 200.519 43.806 201.264 43.806C202.404 43.806 203.24 43.5553 203.772 43.0537C204.304 42.552 204.57 41.8071 204.57 40.8191V40.4087C203.734 41.3816 202.51 41.868 200.899 41.868C199.805 41.868 198.794 41.621 197.867 41.127C196.939 40.6329 196.202 39.9337 195.655 39.0293C195.108 38.1248 194.834 37.0798 194.834 35.8941C194.834 34.7236 195.108 33.6861 195.655 32.7817C196.202 31.8773 196.939 31.1781 197.867 30.684C198.794 30.19 199.805 29.943 200.899 29.943C202.662 29.943 203.954 30.5131 204.775 31.653V30.1482H208.902ZM201.925 38.425C202.7 38.425 203.343 38.1894 203.852 37.7182C204.361 37.2469 204.616 36.6389 204.616 35.8941C204.616 35.1492 204.365 34.545 203.863 34.0814C203.362 33.6178 202.716 33.386 201.925 33.386C201.135 33.386 200.485 33.6178 199.976 34.0814C199.466 34.545 199.212 35.1492 199.212 35.8941C199.212 36.6389 199.47 37.2469 199.987 37.7182C200.504 38.1894 201.15 38.425 201.925 38.425Z" stroke="#FBFBFB" stroke-width="2" mask="url(#path-3-inside-3_522_2802)"/>
<mask id="path-4-inside-4_522_2802" fill="white">
<path d="M98.294 64.9478C96.6219 64.9478 95.121 64.5944 93.7908 63.8876C92.4608 63.1808 91.4157 62.1965 90.6557 60.9349C89.8956 59.6732 89.5156 58.2443 89.5156 56.6483C89.5156 55.0522 89.8956 53.6233 90.6557 52.3616C91.4157 51.1 92.4608 50.1157 93.7908 49.4089C95.121 48.702 96.6219 48.3486 98.294 48.3486C99.7533 48.3486 101.068 48.6071 102.239 49.1238C103.409 49.6407 104.382 50.3854 105.157 51.3584L102.284 53.9576C101.251 52.7112 99.9966 52.088 98.522 52.088C97.6557 52.088 96.8842 52.2781 96.2078 52.658C95.5314 53.0381 95.0069 53.5739 94.6344 54.2655C94.2621 54.9571 94.0759 55.7514 94.0759 56.6483C94.0759 57.5451 94.2621 58.3393 94.6344 59.0309C95.0069 59.7226 95.5314 60.2584 96.2078 60.6384C96.8842 61.0184 97.6557 61.2085 98.522 61.2085C99.9966 61.2085 101.251 60.5853 102.284 59.3387L105.157 61.9381C104.382 62.9109 103.409 63.6558 102.239 64.1726C101.068 64.6895 99.7533 64.9478 98.294 64.9478ZM119.203 58.4723C119.203 58.5027 119.18 58.86 119.134 59.544H110.151C110.333 60.1823 110.686 60.6727 111.211 61.0147C111.735 61.3566 112.393 61.5277 113.183 61.5277C113.776 61.5277 114.289 61.4441 114.722 61.2768C115.156 61.1096 115.593 60.836 116.033 60.456L118.313 62.8274C117.113 64.165 115.357 64.8338 113.046 64.8338C111.602 64.8338 110.333 64.5602 109.239 64.013C108.144 63.4658 107.297 62.7058 106.696 61.7329C106.096 60.7601 105.796 59.658 105.796 58.4267C105.796 57.2106 106.088 56.12 106.674 55.1548C107.259 54.1895 108.068 53.4333 109.102 52.886C110.135 52.3388 111.298 52.0652 112.59 52.0652C113.822 52.0652 114.939 52.3198 115.942 52.829C116.945 53.3383 117.74 54.0755 118.325 55.0407C118.91 56.006 119.203 57.1499 119.203 58.4723ZM112.613 55.1433C111.944 55.1433 111.386 55.3333 110.937 55.7134C110.489 56.0934 110.204 56.6102 110.082 57.2639H115.144C115.023 56.6102 114.737 56.0934 114.289 55.7134C113.841 55.3333 113.282 55.1433 112.613 55.1433ZM129.258 52.0652C130.793 52.0652 132.028 52.5212 132.963 53.4333C133.898 54.3453 134.366 55.7209 134.366 57.5603V64.6286H130.033V58.2671C130.033 56.5798 129.357 55.7362 128.004 55.7362C127.259 55.7362 126.662 55.9794 126.214 56.4658C125.766 56.9522 125.541 57.6819 125.541 58.6547V64.6286H121.209V52.2704H125.336V53.6157C125.823 53.114 126.4 52.7303 127.069 52.4642C127.738 52.1981 128.468 52.0652 129.258 52.0652ZM145.606 64.127C145.242 64.355 144.797 64.5298 144.273 64.6514C143.748 64.7731 143.19 64.8338 142.597 64.8338C140.986 64.8338 139.747 64.4386 138.88 63.6482C138.014 62.8577 137.581 61.6796 137.581 60.114V55.9642H135.779V52.7264H137.581V49.5115H141.913V52.7264H144.74V55.9642H141.913V60.0684C141.913 60.5092 142.031 60.8551 142.266 61.1058C142.502 61.3566 142.817 61.4821 143.212 61.4821C143.714 61.4821 144.155 61.3529 144.535 61.0944L145.606 64.127ZM159.538 58.4723C159.538 58.5027 159.515 58.86 159.47 59.544H150.486C150.668 60.1823 151.022 60.6727 151.546 61.0147C152.071 61.3566 152.728 61.5277 153.519 61.5277C154.111 61.5277 154.624 61.4441 155.058 61.2768C155.491 61.1096 155.928 60.836 156.369 60.456L158.649 62.8274C157.448 64.165 155.692 64.8338 153.382 64.8338C151.938 64.8338 150.668 64.5602 149.574 64.013C148.479 63.4658 147.632 62.7058 147.032 61.7329C146.431 60.7601 146.131 59.658 146.131 58.4267C146.131 57.2106 146.424 56.12 147.009 55.1548C147.594 54.1895 148.403 53.4333 149.437 52.886C150.471 52.3388 151.634 52.0652 152.926 52.0652C154.157 52.0652 155.274 52.3198 156.277 52.829C157.281 53.3383 158.075 54.0755 158.66 55.0407C159.245 56.006 159.538 57.1499 159.538 58.4723ZM152.948 55.1433C152.28 55.1433 151.721 55.3333 151.273 55.7134C150.824 56.0934 150.539 56.6102 150.418 57.2639H155.479C155.358 56.6102 155.073 56.0934 154.624 55.7134C154.176 55.3333 153.617 55.1433 152.948 55.1433ZM165.672 53.7525C166.112 53.19 166.686 52.7682 167.393 52.487C168.1 52.2058 168.909 52.0652 169.821 52.0652V55.9642C169.426 55.9186 169.099 55.8957 168.841 55.8957C167.914 55.8957 167.188 56.1466 166.663 56.6483C166.139 57.1499 165.877 57.9175 165.877 58.9511V64.6286H161.544V52.2704H165.672V53.7525Z"/>
</mask>
<path d="M98.294 64.9478C96.6219 64.9478 95.121 64.5944 93.7908 63.8876C92.4608 63.1808 91.4157 62.1965 90.6557 60.9349C89.8956 59.6732 89.5156 58.2443 89.5156 56.6483C89.5156 55.0522 89.8956 53.6233 90.6557 52.3616C91.4157 51.1 92.4608 50.1157 93.7908 49.4089C95.121 48.702 96.6219 48.3486 98.294 48.3486C99.7533 48.3486 101.068 48.6071 102.239 49.1238C103.409 49.6407 104.382 50.3854 105.157 51.3584L102.284 53.9576C101.251 52.7112 99.9966 52.088 98.522 52.088C97.6557 52.088 96.8842 52.2781 96.2078 52.658C95.5314 53.0381 95.0069 53.5739 94.6344 54.2655C94.2621 54.9571 94.0759 55.7514 94.0759 56.6483C94.0759 57.5451 94.2621 58.3393 94.6344 59.0309C95.0069 59.7226 95.5314 60.2584 96.2078 60.6384C96.8842 61.0184 97.6557 61.2085 98.522 61.2085C99.9966 61.2085 101.251 60.5853 102.284 59.3387L105.157 61.9381C104.382 62.9109 103.409 63.6558 102.239 64.1726C101.068 64.6895 99.7533 64.9478 98.294 64.9478ZM119.203 58.4723C119.203 58.5027 119.18 58.86 119.134 59.544H110.151C110.333 60.1823 110.686 60.6727 111.211 61.0147C111.735 61.3566 112.393 61.5277 113.183 61.5277C113.776 61.5277 114.289 61.4441 114.722 61.2768C115.156 61.1096 115.593 60.836 116.033 60.456L118.313 62.8274C117.113 64.165 115.357 64.8338 113.046 64.8338C111.602 64.8338 110.333 64.5602 109.239 64.013C108.144 63.4658 107.297 62.7058 106.696 61.7329C106.096 60.7601 105.796 59.658 105.796 58.4267C105.796 57.2106 106.088 56.12 106.674 55.1548C107.259 54.1895 108.068 53.4333 109.102 52.886C110.135 52.3388 111.298 52.0652 112.59 52.0652C113.822 52.0652 114.939 52.3198 115.942 52.829C116.945 53.3383 117.74 54.0755 118.325 55.0407C118.91 56.006 119.203 57.1499 119.203 58.4723ZM112.613 55.1433C111.944 55.1433 111.386 55.3333 110.937 55.7134C110.489 56.0934 110.204 56.6102 110.082 57.2639H115.144C115.023 56.6102 114.737 56.0934 114.289 55.7134C113.841 55.3333 113.282 55.1433 112.613 55.1433ZM129.258 52.0652C130.793 52.0652 132.028 52.5212 132.963 53.4333C133.898 54.3453 134.366 55.7209 134.366 57.5603V64.6286H130.033V58.2671C130.033 56.5798 129.357 55.7362 128.004 55.7362C127.259 55.7362 126.662 55.9794 126.214 56.4658C125.766 56.9522 125.541 57.6819 125.541 58.6547V64.6286H121.209V52.2704H125.336V53.6157C125.823 53.114 126.4 52.7303 127.069 52.4642C127.738 52.1981 128.468 52.0652 129.258 52.0652ZM145.606 64.127C145.242 64.355 144.797 64.5298 144.273 64.6514C143.748 64.7731 143.19 64.8338 142.597 64.8338C140.986 64.8338 139.747 64.4386 138.88 63.6482C138.014 62.8577 137.581 61.6796 137.581 60.114V55.9642H135.779V52.7264H137.581V49.5115H141.913V52.7264H144.74V55.9642H141.913V60.0684C141.913 60.5092 142.031 60.8551 142.266 61.1058C142.502 61.3566 142.817 61.4821 143.212 61.4821C143.714 61.4821 144.155 61.3529 144.535 61.0944L145.606 64.127ZM159.538 58.4723C159.538 58.5027 159.515 58.86 159.47 59.544H150.486C150.668 60.1823 151.022 60.6727 151.546 61.0147C152.071 61.3566 152.728 61.5277 153.519 61.5277C154.111 61.5277 154.624 61.4441 155.058 61.2768C155.491 61.1096 155.928 60.836 156.369 60.456L158.649 62.8274C157.448 64.165 155.692 64.8338 153.382 64.8338C151.938 64.8338 150.668 64.5602 149.574 64.013C148.479 63.4658 147.632 62.7058 147.032 61.7329C146.431 60.7601 146.131 59.658 146.131 58.4267C146.131 57.2106 146.424 56.12 147.009 55.1548C147.594 54.1895 148.403 53.4333 149.437 52.886C150.471 52.3388 151.634 52.0652 152.926 52.0652C154.157 52.0652 155.274 52.3198 156.277 52.829C157.281 53.3383 158.075 54.0755 158.66 55.0407C159.245 56.006 159.538 57.1499 159.538 58.4723ZM152.948 55.1433C152.28 55.1433 151.721 55.3333 151.273 55.7134C150.824 56.0934 150.539 56.6102 150.418 57.2639H155.479C155.358 56.6102 155.073 56.0934 154.624 55.7134C154.176 55.3333 153.617 55.1433 152.948 55.1433ZM165.672 53.7525C166.112 53.19 166.686 52.7682 167.393 52.487C168.1 52.2058 168.909 52.0652 169.821 52.0652V55.9642C169.426 55.9186 169.099 55.8957 168.841 55.8957C167.914 55.8957 167.188 56.1466 166.663 56.6483C166.139 57.1499 165.877 57.9175 165.877 58.9511V64.6286H161.544V52.2704H165.672V53.7525Z" stroke="#FBFBFB" stroke-width="2" mask="url(#path-4-inside-4_522_2802)"/>
<mask id="path-5-inside-5_522_2802" fill="white">
<path d="M91.1271 72.5874V75.2278H95.317V76.5914H91.1271V79.9135H89.5156V71.2363H95.85V72.5874H91.1271ZM97.6762 74.2609C98.1224 73.5667 98.9074 73.2196 100.031 73.2196V74.6948C99.8992 74.67 99.7793 74.6576 99.6719 74.6576C99.0686 74.6576 98.5975 74.8331 98.2587 75.1844C97.9199 75.5357 97.7505 76.0417 97.7505 76.7028V79.9135H96.201V73.294H97.6762V74.2609ZM103.32 80.0002C102.651 80.0002 102.048 79.8556 101.51 79.5664C100.973 79.2771 100.554 78.8743 100.252 78.3578C99.9506 77.8412 99.7998 77.2566 99.7998 76.6038C99.7998 75.9508 99.9506 75.3683 100.252 74.8559C100.554 74.3435 100.973 73.9428 101.51 73.6534C102.048 73.3642 102.651 73.2196 103.32 73.2196C103.998 73.2196 104.605 73.3642 105.142 73.6534C105.68 73.9428 106.099 74.3435 106.401 74.8559C106.702 75.3683 106.853 75.9508 106.853 76.6038C106.853 77.2566 106.702 77.8412 106.401 78.3578C106.099 78.8743 105.68 79.2771 105.142 79.5664C104.605 79.8556 103.998 80.0002 103.32 80.0002ZM103.32 78.6739C103.89 78.6739 104.361 78.4838 104.733 78.1036C105.105 77.7234 105.291 77.2236 105.291 76.6038C105.291 75.9839 105.105 75.4839 104.733 75.1038C104.361 74.7236 103.89 74.5336 103.32 74.5336C102.75 74.5336 102.281 74.7236 101.913 75.1038C101.546 75.4839 101.362 75.9839 101.362 76.6038C101.362 77.2236 101.546 77.7234 101.913 78.1036C102.281 78.4838 102.75 78.6739 103.32 78.6739ZM115.757 73.2196C116.592 73.2196 117.253 73.4613 117.741 73.9448C118.228 74.4282 118.472 75.1534 118.472 76.1203V79.9135H116.923V76.3186C116.923 75.7401 116.794 75.3042 116.538 75.0109C116.282 74.7175 115.914 74.5708 115.435 74.5708C114.914 74.5708 114.497 74.7423 114.183 75.0852C113.869 75.4282 113.712 75.9178 113.712 76.5541V79.9135H112.163V76.3186C112.163 75.7401 112.034 75.3042 111.778 75.0109C111.522 74.7175 111.154 74.5708 110.675 74.5708C110.146 74.5708 109.727 74.7402 109.417 75.0791C109.107 75.4179 108.952 75.9095 108.952 76.5541V79.9135H107.402V73.294H108.878V74.1369C109.126 73.8395 109.435 73.6121 109.807 73.4551C110.179 73.2981 110.592 73.2196 111.047 73.2196C111.543 73.2196 111.983 73.3126 112.367 73.4985C112.751 73.6845 113.055 73.9592 113.278 74.3229C113.551 73.9758 113.902 73.7051 114.332 73.5109C114.762 73.3167 115.237 73.2196 115.757 73.2196ZM124.848 72.5998H121.972V71.2363H129.335V72.5998H126.459V79.9135H124.848V72.5998ZM131.756 80.0002C131.087 80.0002 130.483 79.8556 129.946 79.5664C129.409 79.2771 128.99 78.8743 128.688 78.3578C128.386 77.8412 128.236 77.2566 128.236 76.6038C128.236 75.9508 128.386 75.3683 128.688 74.8559C128.99 74.3435 129.409 73.9428 129.946 73.6534C130.483 73.3642 131.087 73.2196 131.756 73.2196C132.434 73.2196 133.041 73.3642 133.578 73.6534C134.115 73.9428 134.535 74.3435 134.837 74.8559C135.138 75.3683 135.289 75.9508 135.289 76.6038C135.289 77.2566 135.138 77.8412 134.837 78.3578C134.535 78.8743 134.115 79.2771 133.578 79.5664C133.041 79.8556 132.434 80.0002 131.756 80.0002ZM131.756 78.6739C132.326 78.6739 132.797 78.4838 133.169 78.1036C133.541 77.7234 133.727 77.2236 133.727 76.6038C133.727 75.9839 133.541 75.4839 133.169 75.1038C132.797 74.7236 132.326 74.5336 131.756 74.5336C131.186 74.5336 130.717 74.7236 130.349 75.1038C129.981 75.4839 129.798 75.9839 129.798 76.6038C129.798 77.2236 129.981 77.7234 130.349 78.1036C130.717 78.4838 131.186 78.6739 131.756 78.6739ZM139.594 73.2196C140.429 73.2196 141.098 73.4634 141.602 73.951C142.107 74.4386 142.359 75.1617 142.359 76.1203V79.9135H140.809V76.3186C140.809 75.7401 140.673 75.3042 140.4 75.0109C140.127 74.7175 139.739 74.5708 139.235 74.5708C138.665 74.5708 138.214 74.7423 137.884 75.0852C137.553 75.4282 137.388 75.922 137.388 76.5665V79.9135H135.838V73.294H137.313V74.1494C137.57 73.8436 137.892 73.6121 138.28 73.4551C138.669 73.2981 139.107 73.2196 139.594 73.2196ZM150.792 79.554C150.61 79.7028 150.389 79.8142 150.129 79.8887C149.868 79.9631 149.594 80.0002 149.304 80.0002C148.577 80.0002 148.015 79.8102 147.618 79.43C147.222 79.0499 147.023 78.4962 147.023 77.769V74.5832H145.933V73.3436H147.023V71.8313H148.573V73.3436H150.346V74.5832H148.573V77.7318C148.573 78.0541 148.651 78.2999 148.808 78.4693C148.966 78.6388 149.193 78.7235 149.49 78.7235C149.837 78.7235 150.127 78.6326 150.358 78.4507L150.792 79.554ZM153.882 80.0002C153.213 80.0002 152.61 79.8556 152.073 79.5664C151.535 79.2771 151.116 78.8743 150.814 78.3578C150.513 77.8412 150.362 77.2566 150.362 76.6038C150.362 75.9508 150.513 75.3683 150.814 74.8559C151.116 74.3435 151.535 73.9428 152.073 73.6534C152.61 73.3642 153.213 73.2196 153.882 73.2196C154.56 73.2196 155.167 73.3642 155.705 73.6534C156.242 73.9428 156.661 74.3435 156.963 74.8559C157.264 75.3683 157.415 75.9508 157.415 76.6038C157.415 77.2566 157.264 77.8412 156.963 78.3578C156.661 78.8743 156.242 79.2771 155.705 79.5664C155.167 79.8556 154.56 80.0002 153.882 80.0002ZM153.882 78.6739C154.453 78.6739 154.924 78.4838 155.296 78.1036C155.667 77.7234 155.853 77.2236 155.853 76.6038C155.853 75.9839 155.667 75.4839 155.296 75.1038C154.924 74.7236 154.453 74.5336 153.882 74.5336C153.312 74.5336 152.843 74.7236 152.475 75.1038C152.108 75.4839 151.924 75.9839 151.924 76.6038C151.924 77.2236 152.108 77.7234 152.475 78.1036C152.843 78.4838 153.312 78.6739 153.882 78.6739ZM169.505 79.9135L169.493 74.1617L166.642 78.9218H165.923L163.072 74.2361V79.9135H161.535V71.2363H162.861L166.307 76.988L169.691 71.2363H171.018L171.03 79.9135H169.505ZM172.286 73.294H173.835V79.9135H172.286V73.294ZM173.067 72.2032C172.786 72.2032 172.55 72.1143 172.36 71.9366C172.17 71.759 172.075 71.5379 172.075 71.2735C172.075 71.009 172.17 70.788 172.36 70.6103C172.55 70.4325 172.786 70.3438 173.067 70.3438C173.348 70.3438 173.583 70.4285 173.773 70.5978C173.963 70.7673 174.059 70.9801 174.059 71.2363C174.059 71.5089 173.966 71.7383 173.78 71.9242C173.594 72.1102 173.356 72.2032 173.067 72.2032ZM177.967 80.0002C177.281 80.0002 176.666 79.8556 176.12 79.5664C175.575 79.2771 175.149 78.8743 174.843 78.3578C174.538 77.8412 174.385 77.2566 174.385 76.6038C174.385 75.9508 174.538 75.3683 174.843 74.8559C175.149 74.3435 175.573 73.9428 176.114 73.6534C176.655 73.3642 177.273 73.2196 177.967 73.2196C178.62 73.2196 179.192 73.3518 179.684 73.6163C180.176 73.8808 180.546 74.2609 180.794 74.7568L179.603 75.4509C179.413 75.1451 179.176 74.9158 178.891 74.763C178.606 74.61 178.294 74.5336 177.955 74.5336C177.376 74.5336 176.897 74.7217 176.517 75.0976C176.137 75.4737 175.947 75.9757 175.947 76.6038C175.947 77.2318 176.135 77.7338 176.511 78.1098C176.887 78.4859 177.368 78.6739 177.955 78.6739C178.294 78.6739 178.606 78.5975 178.891 78.4446C179.176 78.2916 179.413 78.0623 179.603 77.7566L180.794 78.4507C180.537 78.9466 180.163 79.3288 179.672 79.5974C179.18 79.8659 178.612 80.0002 177.967 80.0002ZM182.669 74.2609C183.116 73.5667 183.901 73.2196 185.024 73.2196V74.6948C184.892 74.67 184.772 74.6576 184.665 74.6576C184.062 74.6576 183.591 74.8331 183.252 75.1844C182.913 75.5357 182.744 76.0417 182.744 76.7028V79.9135H181.194V73.294H182.669V74.2609ZM188.313 80.0002C187.644 80.0002 187.041 79.8556 186.504 79.5664C185.966 79.2771 185.547 78.8743 185.245 78.3578C184.944 77.8412 184.793 77.2566 184.793 76.6038C184.793 75.9508 184.944 75.3683 185.245 74.8559C185.547 74.3435 185.966 73.9428 186.504 73.6534C187.041 73.3642 187.644 73.2196 188.313 73.2196C188.991 73.2196 189.598 73.3642 190.136 73.6534C190.673 73.9428 191.092 74.3435 191.394 74.8559C191.695 75.3683 191.846 75.9508 191.846 76.6038C191.846 77.2566 191.695 77.8412 191.394 78.3578C191.092 78.8743 190.673 79.2771 190.136 79.5664C189.598 79.8556 188.991 80.0002 188.313 80.0002ZM188.313 78.6739C188.884 78.6739 189.355 78.4838 189.727 78.1036C190.098 77.7234 190.284 77.2236 190.284 76.6038C190.284 75.9839 190.098 75.4839 189.727 75.1038C189.355 74.7236 188.884 74.5336 188.313 74.5336C187.743 74.5336 187.274 74.7236 186.906 75.1038C186.539 75.4839 186.355 75.9839 186.355 76.6038C186.355 77.2236 186.539 77.7234 186.906 78.1036C187.274 78.4838 187.743 78.6739 188.313 78.6739ZM196.152 73.2196C196.986 73.2196 197.656 73.4634 198.16 73.951C198.664 74.4386 198.916 75.1617 198.916 76.1203V79.9135H197.366V76.3186C197.366 75.7401 197.23 75.3042 196.957 75.0109C196.685 74.7175 196.296 74.5708 195.792 74.5708C195.222 74.5708 194.771 74.7423 194.441 75.0852C194.11 75.4282 193.945 75.922 193.945 76.5665V79.9135H192.396V73.294H193.871V74.1494C194.127 73.8436 194.449 73.6121 194.838 73.4551C195.226 73.2981 195.664 73.2196 196.152 73.2196Z"/>
</mask>
<path d="M91.1271 72.5874V75.2278H95.317V76.5914H91.1271V79.9135H89.5156V71.2363H95.85V72.5874H91.1271ZM97.6762 74.2609C98.1224 73.5667 98.9074 73.2196 100.031 73.2196V74.6948C99.8992 74.67 99.7793 74.6576 99.6719 74.6576C99.0686 74.6576 98.5975 74.8331 98.2587 75.1844C97.9199 75.5357 97.7505 76.0417 97.7505 76.7028V79.9135H96.201V73.294H97.6762V74.2609ZM103.32 80.0002C102.651 80.0002 102.048 79.8556 101.51 79.5664C100.973 79.2771 100.554 78.8743 100.252 78.3578C99.9506 77.8412 99.7998 77.2566 99.7998 76.6038C99.7998 75.9508 99.9506 75.3683 100.252 74.8559C100.554 74.3435 100.973 73.9428 101.51 73.6534C102.048 73.3642 102.651 73.2196 103.32 73.2196C103.998 73.2196 104.605 73.3642 105.142 73.6534C105.68 73.9428 106.099 74.3435 106.401 74.8559C106.702 75.3683 106.853 75.9508 106.853 76.6038C106.853 77.2566 106.702 77.8412 106.401 78.3578C106.099 78.8743 105.68 79.2771 105.142 79.5664C104.605 79.8556 103.998 80.0002 103.32 80.0002ZM103.32 78.6739C103.89 78.6739 104.361 78.4838 104.733 78.1036C105.105 77.7234 105.291 77.2236 105.291 76.6038C105.291 75.9839 105.105 75.4839 104.733 75.1038C104.361 74.7236 103.89 74.5336 103.32 74.5336C102.75 74.5336 102.281 74.7236 101.913 75.1038C101.546 75.4839 101.362 75.9839 101.362 76.6038C101.362 77.2236 101.546 77.7234 101.913 78.1036C102.281 78.4838 102.75 78.6739 103.32 78.6739ZM115.757 73.2196C116.592 73.2196 117.253 73.4613 117.741 73.9448C118.228 74.4282 118.472 75.1534 118.472 76.1203V79.9135H116.923V76.3186C116.923 75.7401 116.794 75.3042 116.538 75.0109C116.282 74.7175 115.914 74.5708 115.435 74.5708C114.914 74.5708 114.497 74.7423 114.183 75.0852C113.869 75.4282 113.712 75.9178 113.712 76.5541V79.9135H112.163V76.3186C112.163 75.7401 112.034 75.3042 111.778 75.0109C111.522 74.7175 111.154 74.5708 110.675 74.5708C110.146 74.5708 109.727 74.7402 109.417 75.0791C109.107 75.4179 108.952 75.9095 108.952 76.5541V79.9135H107.402V73.294H108.878V74.1369C109.126 73.8395 109.435 73.6121 109.807 73.4551C110.179 73.2981 110.592 73.2196 111.047 73.2196C111.543 73.2196 111.983 73.3126 112.367 73.4985C112.751 73.6845 113.055 73.9592 113.278 74.3229C113.551 73.9758 113.902 73.7051 114.332 73.5109C114.762 73.3167 115.237 73.2196 115.757 73.2196ZM124.848 72.5998H121.972V71.2363H129.335V72.5998H126.459V79.9135H124.848V72.5998ZM131.756 80.0002C131.087 80.0002 130.483 79.8556 129.946 79.5664C129.409 79.2771 128.99 78.8743 128.688 78.3578C128.386 77.8412 128.236 77.2566 128.236 76.6038C128.236 75.9508 128.386 75.3683 128.688 74.8559C128.99 74.3435 129.409 73.9428 129.946 73.6534C130.483 73.3642 131.087 73.2196 131.756 73.2196C132.434 73.2196 133.041 73.3642 133.578 73.6534C134.115 73.9428 134.535 74.3435 134.837 74.8559C135.138 75.3683 135.289 75.9508 135.289 76.6038C135.289 77.2566 135.138 77.8412 134.837 78.3578C134.535 78.8743 134.115 79.2771 133.578 79.5664C133.041 79.8556 132.434 80.0002 131.756 80.0002ZM131.756 78.6739C132.326 78.6739 132.797 78.4838 133.169 78.1036C133.541 77.7234 133.727 77.2236 133.727 76.6038C133.727 75.9839 133.541 75.4839 133.169 75.1038C132.797 74.7236 132.326 74.5336 131.756 74.5336C131.186 74.5336 130.717 74.7236 130.349 75.1038C129.981 75.4839 129.798 75.9839 129.798 76.6038C129.798 77.2236 129.981 77.7234 130.349 78.1036C130.717 78.4838 131.186 78.6739 131.756 78.6739ZM139.594 73.2196C140.429 73.2196 141.098 73.4634 141.602 73.951C142.107 74.4386 142.359 75.1617 142.359 76.1203V79.9135H140.809V76.3186C140.809 75.7401 140.673 75.3042 140.4 75.0109C140.127 74.7175 139.739 74.5708 139.235 74.5708C138.665 74.5708 138.214 74.7423 137.884 75.0852C137.553 75.4282 137.388 75.922 137.388 76.5665V79.9135H135.838V73.294H137.313V74.1494C137.57 73.8436 137.892 73.6121 138.28 73.4551C138.669 73.2981 139.107 73.2196 139.594 73.2196ZM150.792 79.554C150.61 79.7028 150.389 79.8142 150.129 79.8887C149.868 79.9631 149.594 80.0002 149.304 80.0002C148.577 80.0002 148.015 79.8102 147.618 79.43C147.222 79.0499 147.023 78.4962 147.023 77.769V74.5832H145.933V73.3436H147.023V71.8313H148.573V73.3436H150.346V74.5832H148.573V77.7318C148.573 78.0541 148.651 78.2999 148.808 78.4693C148.966 78.6388 149.193 78.7235 149.49 78.7235C149.837 78.7235 150.127 78.6326 150.358 78.4507L150.792 79.554ZM153.882 80.0002C153.213 80.0002 152.61 79.8556 152.073 79.5664C151.535 79.2771 151.116 78.8743 150.814 78.3578C150.513 77.8412 150.362 77.2566 150.362 76.6038C150.362 75.9508 150.513 75.3683 150.814 74.8559C151.116 74.3435 151.535 73.9428 152.073 73.6534C152.61 73.3642 153.213 73.2196 153.882 73.2196C154.56 73.2196 155.167 73.3642 155.705 73.6534C156.242 73.9428 156.661 74.3435 156.963 74.8559C157.264 75.3683 157.415 75.9508 157.415 76.6038C157.415 77.2566 157.264 77.8412 156.963 78.3578C156.661 78.8743 156.242 79.2771 155.705 79.5664C155.167 79.8556 154.56 80.0002 153.882 80.0002ZM153.882 78.6739C154.453 78.6739 154.924 78.4838 155.296 78.1036C155.667 77.7234 155.853 77.2236 155.853 76.6038C155.853 75.9839 155.667 75.4839 155.296 75.1038C154.924 74.7236 154.453 74.5336 153.882 74.5336C153.312 74.5336 152.843 74.7236 152.475 75.1038C152.108 75.4839 151.924 75.9839 151.924 76.6038C151.924 77.2236 152.108 77.7234 152.475 78.1036C152.843 78.4838 153.312 78.6739 153.882 78.6739ZM169.505 79.9135L169.493 74.1617L166.642 78.9218H165.923L163.072 74.2361V79.9135H161.535V71.2363H162.861L166.307 76.988L169.691 71.2363H171.018L171.03 79.9135H169.505ZM172.286 73.294H173.835V79.9135H172.286V73.294ZM173.067 72.2032C172.786 72.2032 172.55 72.1143 172.36 71.9366C172.17 71.759 172.075 71.5379 172.075 71.2735C172.075 71.009 172.17 70.788 172.36 70.6103C172.55 70.4325 172.786 70.3438 173.067 70.3438C173.348 70.3438 173.583 70.4285 173.773 70.5978C173.963 70.7673 174.059 70.9801 174.059 71.2363C174.059 71.5089 173.966 71.7383 173.78 71.9242C173.594 72.1102 173.356 72.2032 173.067 72.2032ZM177.967 80.0002C177.281 80.0002 176.666 79.8556 176.12 79.5664C175.575 79.2771 175.149 78.8743 174.843 78.3578C174.538 77.8412 174.385 77.2566 174.385 76.6038C174.385 75.9508 174.538 75.3683 174.843 74.8559C175.149 74.3435 175.573 73.9428 176.114 73.6534C176.655 73.3642 177.273 73.2196 177.967 73.2196C178.62 73.2196 179.192 73.3518 179.684 73.6163C180.176 73.8808 180.546 74.2609 180.794 74.7568L179.603 75.4509C179.413 75.1451 179.176 74.9158 178.891 74.763C178.606 74.61 178.294 74.5336 177.955 74.5336C177.376 74.5336 176.897 74.7217 176.517 75.0976C176.137 75.4737 175.947 75.9757 175.947 76.6038C175.947 77.2318 176.135 77.7338 176.511 78.1098C176.887 78.4859 177.368 78.6739 177.955 78.6739C178.294 78.6739 178.606 78.5975 178.891 78.4446C179.176 78.2916 179.413 78.0623 179.603 77.7566L180.794 78.4507C180.537 78.9466 180.163 79.3288 179.672 79.5974C179.18 79.8659 178.612 80.0002 177.967 80.0002ZM182.669 74.2609C183.116 73.5667 183.901 73.2196 185.024 73.2196V74.6948C184.892 74.67 184.772 74.6576 184.665 74.6576C184.062 74.6576 183.591 74.8331 183.252 75.1844C182.913 75.5357 182.744 76.0417 182.744 76.7028V79.9135H181.194V73.294H182.669V74.2609ZM188.313 80.0002C187.644 80.0002 187.041 79.8556 186.504 79.5664C185.966 79.2771 185.547 78.8743 185.245 78.3578C184.944 77.8412 184.793 77.2566 184.793 76.6038C184.793 75.9508 184.944 75.3683 185.245 74.8559C185.547 74.3435 185.966 73.9428 186.504 73.6534C187.041 73.3642 187.644 73.2196 188.313 73.2196C188.991 73.2196 189.598 73.3642 190.136 73.6534C190.673 73.9428 191.092 74.3435 191.394 74.8559C191.695 75.3683 191.846 75.9508 191.846 76.6038C191.846 77.2566 191.695 77.8412 191.394 78.3578C191.092 78.8743 190.673 79.2771 190.136 79.5664C189.598 79.8556 188.991 80.0002 188.313 80.0002ZM188.313 78.6739C188.884 78.6739 189.355 78.4838 189.727 78.1036C190.098 77.7234 190.284 77.2236 190.284 76.6038C190.284 75.9839 190.098 75.4839 189.727 75.1038C189.355 74.7236 188.884 74.5336 188.313 74.5336C187.743 74.5336 187.274 74.7236 186.906 75.1038C186.539 75.4839 186.355 75.9839 186.355 76.6038C186.355 77.2236 186.539 77.7234 186.906 78.1036C187.274 78.4838 187.743 78.6739 188.313 78.6739ZM196.152 73.2196C196.986 73.2196 197.656 73.4634 198.16 73.951C198.664 74.4386 198.916 75.1617 198.916 76.1203V79.9135H197.366V76.3186C197.366 75.7401 197.23 75.3042 196.957 75.0109C196.685 74.7175 196.296 74.5708 195.792 74.5708C195.222 74.5708 194.771 74.7423 194.441 75.0852C194.11 75.4282 193.945 75.922 193.945 76.5665V79.9135H192.396V73.294H193.871V74.1494C194.127 73.8436 194.449 73.6121 194.838 73.4551C195.226 73.2981 195.664 73.2196 196.152 73.2196Z" stroke="#FBFBFB" stroke-width="2" mask="url(#path-5-inside-5_522_2802)"/>
</svg>
