<svg width="312" height="83" viewBox="0 0 312 83" fill="none" xmlns="http://www.w3.org/2000/svg">
<path d="M70.9212 3.69253L70.1489 2.92026L70.069 4.00949L69.9483 5.65445L68.3177 1.80498L68.0323 1.1311L67.5083 1.642L64.311 4.75924L64.1753 4.89159L64.1614 5.08066L63.6334 12.2767L61.8986 8.06964L61.6167 7.38608L61.0873 7.90225L57.6206 11.2822L57.4842 11.4152L57.4709 11.6052L56.9829 18.5718L55.2929 14.4737L55.0111 13.7901L54.4817 14.3063L51.2163 17.4898L51.0806 17.6221L51.0667 17.8112L50.5433 24.9439L48.8258 20.7787L48.544 20.0952L48.0145 20.6113L45.7064 22.8617L45.5626 23.0019L45.5557 23.2026L45.0701 37.4132L45.0518 37.9483L45.5868 37.93L53.7994 37.6497L54.2482 37.6344L54.281 37.1866L54.3157 36.7151L54.5562 37.2984L54.6885 37.6193L55.0355 37.6075L59.6206 37.4509L60.0693 37.4356L60.1022 36.9878L60.6148 30.003L62.3109 34.1163L62.5928 34.7999L63.1222 34.2837L66.6118 30.8814L66.7475 30.7491L66.7614 30.56L67.2644 23.7056L68.9058 27.6863L69.1876 28.3699L69.7171 27.8537L73.0469 24.6073L73.1826 24.475L73.1965 24.2859L73.7064 17.3395L75.3731 21.3813L75.655 22.0648L76.1844 21.5487L82.1981 15.6855L82.5607 15.332L82.2026 14.9739L76.8965 9.66773L70.9212 3.69253ZM54.9406 57.268L54.9406 57.268C56.8365 55.3719 58.3658 53.1086 59.4127 50.5937H70.7324C69.3056 56.0799 66.4329 60.9834 62.5445 64.8719C56.861 70.5552 49.0098 74.07 40.3363 74.07C31.6629 74.07 23.8115 70.5552 18.1282 64.8719C12.4445 59.1883 8.93002 51.3371 8.93002 42.6637C8.93002 33.9903 12.4445 26.1391 18.1282 20.4556L17.7746 20.1021L18.1282 20.4556C22.0168 16.567 26.9202 13.6945 32.4063 12.2675V23.5873C29.8914 24.6341 27.6281 26.1633 25.732 28.0594C21.9945 31.7969 19.6819 36.9611 19.6819 42.6637C19.6819 48.3664 21.9945 53.5306 25.732 57.268L26.0855 56.9145L25.732 57.268C29.4694 61.0052 34.6337 63.3181 40.3363 63.3181C46.0388 63.3181 51.2032 61.0052 54.9406 57.268ZM40.3363 30.4393H40.8363V29.9393V3.32742V2.82742H40.3363C18.3353 2.82742 0.5 20.6627 0.5 42.6637C0.5 64.6647 18.3353 82.5 40.3363 82.5C62.3373 82.5 80.1726 64.6647 80.1724 42.6637V42.1637H79.6724H53.0607H52.5607V42.6637C52.5607 49.415 47.0876 54.8881 40.3363 54.8881C33.585 54.8881 28.112 49.415 28.112 42.6637C28.112 35.9124 33.585 30.4393 40.3363 30.4393ZM53.8467 26.6699L68.0908 12.7828L70.578 15.27L56.3378 29.1536L53.7589 29.2416L53.8467 26.6699Z" stroke="#FBFBFB"/>
<path d="M303.989 25.8475L303.968 33.7534L298.499 33.7514L298.499 25.6341L298.499 25.1351L298 25.1341L292.048 25.123L291.544 25.1221L291.547 25.6256L291.665 49.0061L291.667 49.5024L292.164 49.5036L297.979 49.5175L298.479 49.5187L298.48 49.0188L298.502 40.5138L303.994 40.5065L304.022 48.9716L304.024 49.4778L304.53 49.4698L310.449 49.3764L310.941 49.3686L310.941 48.876L310.923 25.8796L310.923 25.5092L310.568 25.4016C309.721 25.1443 308.575 25.035 307.461 25.0362C306.344 25.0374 305.206 25.1499 304.366 25.3644L303.99 25.4602L303.989 25.8475ZM251.984 44.0307L252.086 43.6634L251.759 43.4674L247.017 40.6271L246.675 40.4226L246.399 40.7095C243.932 43.2754 241.301 43.6075 239.332 42.7589C237.337 41.8991 235.914 39.7862 235.955 37.2299C235.996 34.6529 237.151 33.0907 238.633 32.2678C240.144 31.4286 242.041 31.3347 243.558 31.8146C244.296 32.0481 244.705 32.3329 245.067 32.6594C245.2 32.7792 245.322 32.8994 245.456 33.0325C245.519 33.0948 245.585 33.1599 245.656 33.2292C245.873 33.4395 246.118 33.6665 246.425 33.9008L246.663 34.0825L246.936 33.9583C247.731 33.5957 248.678 33.1598 249.566 32.6548C250.449 32.1529 251.31 31.563 251.916 30.8785L252.132 30.6341L251.995 30.3376C249.943 25.8911 244.09 24.0018 238.904 25.0141C236.287 25.5251 233.781 26.7793 231.942 28.8676C230.098 30.9618 228.954 33.8627 229.015 37.6074C229.078 41.4739 230.393 44.3478 232.401 46.3381C234.402 48.3207 237.053 49.3916 239.739 49.7291C242.423 50.0664 245.173 49.6759 247.403 48.6985C249.626 47.7241 251.397 46.1335 251.984 44.0307ZM270.278 26.9511L270.368 26.5591L270.005 26.387C269.073 25.9463 267.731 25.6371 266.221 25.4374C264.702 25.2363 262.973 25.1412 261.244 25.1478C259.515 25.1545 257.776 25.2628 256.237 25.4713C254.706 25.6787 253.34 25.9894 252.373 26.4158L251.983 26.5876L252.091 26.9997L253.421 32.0879L253.527 32.4967L253.948 32.4596L257.749 32.1244L257.864 49.0095L257.868 49.5084L258.366 49.5061L264.213 49.48L264.71 49.4777L264.71 48.9804L264.725 32.0178L268.562 32.4376L269.004 32.4859L269.104 32.0527L270.278 26.9511ZM270.026 48.8684L270.032 49.3647L270.528 49.3621L276.662 49.3293L277.152 49.3267L277.16 48.8372L277.228 44.4568C277.855 44.2207 278.843 44.0843 279.888 44.0829C280.932 44.0814 281.91 44.2146 282.522 44.4398L282.666 48.83L282.682 49.3151L283.168 49.3136L288.994 49.2958L289.491 49.2943L289.493 48.7969L289.523 34.8622C289.911 29.4007 285.194 25.2153 279.909 25.2102L279.909 25.7102L279.909 25.2102C274.646 25.2054 269.949 29.3327 270.254 34.6957C270.046 39.3522 269.964 44.0439 270.026 48.8684ZM282.433 35.2567C282.717 36.7166 282.596 38.5089 282.397 39.9752L277.407 39.9638C277.238 38.4502 277.112 36.656 277.387 35.2032C277.537 34.4082 277.799 33.7683 278.193 33.3336C278.57 32.917 279.103 32.6492 279.903 32.652C280.69 32.6548 281.225 32.9286 281.609 33.3575C282.009 33.804 282.277 34.4562 282.433 35.2567Z" stroke="#FBFBFB"/>
<path d="M112.016 48.868L112.022 49.3643L112.518 49.3617L118.652 49.3289L119.142 49.3263L119.15 48.8368L119.219 44.4564C119.845 44.2203 120.833 44.0839 121.878 44.0825C122.922 44.0811 123.9 44.2143 124.512 44.4394L124.657 48.8296L124.673 49.3147L125.158 49.3132L130.984 49.2954L131.482 49.2939L131.483 48.7965L131.513 34.8618C131.901 29.4003 127.184 25.2149 121.899 25.2098L121.899 25.2098C116.636 25.205 111.939 29.3323 112.244 34.6953C112.036 39.3518 111.955 44.0435 112.016 48.868ZM131.731 26.3852L131.364 26.556L131.454 26.9506L132.628 32.0575L132.728 32.4909L133.17 32.4426L136.997 32.0239L137.005 49.0168L137.005 49.5179L137.506 49.5166L143.395 49.5005L143.892 49.4992L143.894 49.0028L143.971 32.0787L147.787 32.4648L148.215 32.5081L148.322 32.0909L149.622 26.9928L149.725 26.588L149.345 26.4144C147.404 25.5279 143.903 25.1085 140.498 25.1036C138.782 25.1011 137.064 25.2039 135.546 25.4134C134.036 25.6217 132.688 25.9401 131.731 26.3852ZM112.323 26.9507L112.413 26.5587L112.049 26.3866C111.117 25.9459 109.775 25.6367 108.266 25.437C106.746 25.2359 105.017 25.1408 103.288 25.1475C101.559 25.1541 99.8209 25.2624 98.2816 25.4709C96.7509 25.6783 95.3842 25.989 94.4174 26.4154L94.0277 26.5872L94.1354 26.9993L95.4652 32.0875L95.572 32.4963L95.9929 32.4592L99.7941 32.1241L99.9089 49.0091L99.9123 49.508L100.411 49.5057L106.257 49.4796L106.755 49.4774L106.755 48.98L106.769 32.0174L110.607 32.4372L111.049 32.4856L111.148 32.0523L112.323 26.9507ZM124.423 35.2563C124.707 36.7162 124.586 38.5085 124.387 39.9748L119.397 39.9634C119.228 38.4498 119.102 36.6556 119.377 35.2028C119.527 34.4078 119.789 33.7679 120.183 33.3332C120.56 32.9166 121.093 32.6488 121.893 32.6517C122.68 32.6544 123.215 32.9283 123.599 33.3572C123.999 33.8036 124.268 34.4558 124.423 35.2563Z" stroke="#FBFBFB"/>
<path d="M168.214 37.9188L168.214 37.9188C168.015 39.184 167.918 43.0938 167.933 46.9088C167.941 48.8271 167.977 50.7393 168.046 52.3084C168.113 53.8548 168.213 55.1254 168.361 55.7199L168.457 56.1043L168.853 56.0989L174.148 56.0264L174.643 56.0196L174.641 55.5252L174.626 49.1654C177.459 49.8368 179.905 49.9894 181.911 49.3143C184.102 48.5763 185.676 46.8829 186.663 44.0662L186.191 43.9009L186.663 44.0662C187.892 40.5591 187.495 37.7047 186.1 35.5832C184.717 33.4784 182.4 32.1698 179.923 31.6343C177.445 31.0989 174.751 31.3232 172.557 32.348C170.351 33.3784 168.636 35.2298 168.214 37.9188ZM176.322 37.9096C177.381 37.3909 178.241 37.4308 178.892 37.7345C179.558 38.0453 180.077 38.6656 180.371 39.4284C180.971 40.99 180.553 42.8384 178.964 43.4931C177.906 43.9288 177.044 43.8669 176.389 43.5593C175.725 43.247 175.218 42.6548 174.933 41.9352C174.356 40.4756 174.742 38.6835 176.322 37.9096Z" stroke="#FBFBFB"/>
<path d="M214.433 48.9433L214.463 42.7132C214.86 43.1969 215.177 43.7461 215.502 44.3242C215.521 44.3576 215.54 44.391 215.559 44.4246C216.042 45.2842 216.57 46.2255 217.454 46.8762L217.747 47.0919L218.043 46.8794C218.922 46.2469 219.273 45.6385 219.744 44.8225C219.848 44.6413 219.959 44.4498 220.082 44.2456L221.152 42.8517L221.169 48.9678L221.17 49.4701L221.672 49.4665L226.949 49.4283L227.444 49.4247L227.445 48.9294L227.481 32.3271L227.482 31.8198L226.974 31.826L221.479 31.8931L221.176 31.8968L221.039 32.1667C220.604 33.0227 219.919 34.0857 219.381 34.9203C219.334 34.9932 219.288 35.0644 219.243 35.1336L217.714 37.2194C216.559 35.8421 215.264 33.7229 214.551 32.0992L214.416 31.7913L214.08 31.8005L208.534 31.9513L208.046 31.9645L208.048 32.4525L208.096 48.9932L208.097 49.4966L208.601 49.4918L213.937 49.4408L214.43 49.436L214.433 48.9433Z" stroke="#FBFBFB"/>
<path d="M196.302 37.9255L196.302 37.9255C197.318 37.5777 198.103 37.6984 198.676 38.0336C199.262 38.3759 199.689 38.9774 199.906 39.6904C200.351 41.1559 199.86 42.8008 198.482 43.3413C197.458 43.7429 196.615 43.6557 195.975 43.3284C195.324 42.9955 194.833 42.389 194.577 41.6744C194.32 40.9592 194.31 40.1682 194.578 39.4905C194.842 38.8248 195.385 38.2396 196.302 37.9255ZM194.837 31.7091C191.89 32.5019 189.919 34.2073 188.842 36.2942C187.769 38.3713 187.598 40.793 188.179 43.0078C188.76 45.2229 190.1 47.2575 192.085 48.5502C194.078 49.8485 196.688 50.3758 199.751 49.6278C202.644 48.921 204.572 47.2376 205.619 45.1462C206.66 43.0671 206.816 40.6158 206.239 38.3705C205.662 36.1248 204.343 34.0496 202.389 32.7382C200.423 31.4194 197.851 30.8984 194.837 31.7091Z" stroke="#FBFBFB"/>
<path d="M148.99 48.9385L148.991 49.4315L149.484 49.4382L154.856 49.5118L155.358 49.5187L155.363 49.0165L155.465 38.1074L159.39 38.0961L159.393 48.9405L159.393 49.435L159.887 49.4403L165.337 49.4995L165.839 49.5049L165.842 49.0029L165.955 32.3358L165.958 31.8329L165.455 31.8325L149.482 31.8188L148.981 31.8184L148.981 32.3191L148.99 48.9385Z" stroke="#FBFBFB"/>
<mask id="path-8-outside-1_522_2813" maskUnits="userSpaceOnUse" x="99.3096" y="59.666" width="213" height="10" fill="black">
<rect fill="white" x="99.3096" y="59.666" width="213" height="10"/>
<path d="M102.454 64.8321V67.0314C102.454 67.5042 102.505 67.7974 102.609 67.9108C102.749 68.0734 102.961 68.1547 103.245 68.1547H103.532V68.359H100.31V68.1547H100.593C100.911 68.1547 101.14 68.0508 101.276 67.8447C101.35 67.7311 101.387 67.4589 101.387 67.0314V62.1638C101.387 61.691 101.338 61.3978 101.238 61.2844C101.092 61.1218 100.879 61.0405 100.593 61.0405H100.31V60.8362H103.067C103.74 60.8362 104.27 60.9062 104.659 61.0443C105.047 61.1823 105.374 61.4168 105.641 61.7459C105.907 62.0749 106.04 62.4645 106.04 62.9145C106.04 63.5291 105.837 64.0284 105.432 64.4122C105.028 64.7962 104.457 64.989 103.717 64.989C103.536 64.989 103.341 64.9759 103.131 64.9493C102.919 64.9248 102.694 64.885 102.454 64.8321ZM102.454 64.5145C102.649 64.5523 102.823 64.5806 102.974 64.5976C103.124 64.6166 103.254 64.626 103.36 64.626C103.744 64.626 104.073 64.4766 104.351 64.1797C104.629 63.8828 104.769 63.4989 104.769 63.0279C104.769 62.7028 104.703 62.4002 104.57 62.1222C104.438 61.8442 104.249 61.6361 104.007 61.4981C103.763 61.36 103.487 61.2902 103.178 61.2902C102.989 61.2902 102.749 61.3261 102.454 61.396V64.5145ZM112.581 61.2448V64.2175H114.238C114.667 64.2175 114.953 64.1532 115.097 64.0246C115.29 63.8544 115.396 63.5556 115.418 63.1282H115.622V65.7492H115.418C115.367 65.3825 115.314 65.146 115.263 65.042C115.197 64.9134 115.087 64.8113 114.936 64.7376C114.785 64.6639 114.552 64.626 114.238 64.626H112.581V67.1071C112.581 67.4399 112.597 67.6422 112.625 67.7141C112.655 67.786 112.706 67.8447 112.78 67.8863C112.854 67.9298 112.996 67.9505 113.202 67.9505H114.474C114.898 67.9505 115.206 67.9202 115.399 67.8617C115.59 67.803 115.776 67.6858 115.951 67.5118C116.18 67.2829 116.415 66.937 116.655 66.4754H116.882L116.233 68.359H110.437V68.1547H110.704C110.881 68.1547 111.05 68.1113 111.208 68.0262C111.328 67.9676 111.409 67.8787 111.451 67.7595C111.494 67.6404 111.515 67.3983 111.515 67.0314V62.1411C111.515 61.6646 111.468 61.3714 111.371 61.2618C111.237 61.1142 111.016 61.0405 110.704 61.0405H110.437V60.8362H116.235L116.314 62.4929H116.099C116.021 62.0938 115.936 61.8196 115.842 61.6702C115.747 61.5208 115.607 61.4074 115.424 61.3279C115.276 61.2731 115.015 61.2448 114.643 61.2448H112.581ZM127.743 60.666L127.913 63.2191H127.743C127.514 62.455 127.189 61.9029 126.765 61.5682C126.342 61.2315 125.835 61.0632 125.241 61.0632C124.746 61.0632 124.296 61.1899 123.895 61.4433C123.494 61.6966 123.178 62.0995 122.947 62.6555C122.718 63.2095 122.603 63.8998 122.603 64.7244C122.603 65.4051 122.711 65.9951 122.928 66.4944C123.146 66.9937 123.473 67.3756 123.908 67.6422C124.345 67.9089 124.842 68.0413 125.4 68.0413C125.886 68.0413 126.315 67.9373 126.686 67.7293C127.059 67.5212 127.467 67.1071 127.911 66.4868L128.084 66.6003C127.707 67.2679 127.268 67.7558 126.767 68.0659C126.266 68.3742 125.67 68.5292 124.982 68.5292C123.74 68.5292 122.777 68.0678 122.096 67.143C121.588 66.4546 121.332 65.6453 121.332 64.7149C121.332 63.9641 121.501 63.2738 121.835 62.6461C122.17 62.0164 122.631 61.5303 123.218 61.1843C123.806 60.8381 124.447 60.666 125.143 60.666C125.684 60.666 126.217 60.7984 126.745 61.0651C126.898 61.1464 127.009 61.1879 127.075 61.1879C127.174 61.1879 127.261 61.1521 127.335 61.0821C127.431 60.9818 127.499 60.8437 127.539 60.666H127.743ZM138.084 61.2448H134.612V66.9861C134.612 67.4834 134.675 67.7992 134.801 67.9316C134.928 68.0659 135.225 68.1397 135.69 68.1547V68.359H132.468V68.1547C132.929 68.1397 133.224 68.0659 133.353 67.9316C133.481 67.7992 133.546 67.4834 133.546 66.9861V62.2091C133.546 61.7118 133.481 61.396 133.353 61.2636C133.224 61.1293 132.929 61.0556 132.468 61.0405V60.8362H140.229V61.0405C139.767 61.0556 139.472 61.1293 139.344 61.2636C139.215 61.396 139.151 61.7118 139.151 62.2091V66.9861C139.151 67.4834 139.215 67.7992 139.344 67.9316C139.472 68.0659 139.767 68.1397 140.229 68.1547V68.359H137.006V68.1547C137.468 68.1397 137.761 68.0659 137.891 67.9354C138.02 67.803 138.084 67.4872 138.084 66.9861V61.2448ZM144.365 60.8362H147.417V61.0405C146.88 61.0632 146.612 61.2069 146.612 61.4735C146.612 61.6627 146.809 62.1033 147.204 62.7935L148.841 65.6775L150.027 62.7935C150.277 62.1883 150.402 61.7818 150.402 61.5738C150.402 61.2844 150.167 61.1066 149.698 61.0405V60.8362H152.069V61.0405C151.515 61.1066 151.096 61.4867 150.808 62.177L149.39 65.598C149.021 66.4754 148.718 67.0977 148.484 67.4645C148.25 67.8333 147.994 68.1018 147.718 68.2719C147.442 68.4441 147.155 68.5292 146.856 68.5292C146.6 68.5292 146.383 68.4744 146.207 68.3647C146.031 68.2569 145.942 68.1075 145.942 67.9184C145.942 67.7804 145.988 67.6669 146.08 67.5761C146.173 67.4854 146.298 67.4399 146.457 67.4399C146.612 67.4399 146.795 67.5024 147.009 67.629C147.153 67.7066 147.262 67.7463 147.336 67.7463C147.627 67.7463 147.953 67.4437 148.314 66.8367L145.589 62.0409C145.396 61.7042 145.214 61.4641 145.042 61.3241C144.872 61.1823 144.645 61.0878 144.365 61.0405V60.8362ZM161.616 60.8362L161.696 62.4929H161.492C161.374 61.9539 161.191 61.6097 160.945 61.4641C160.699 61.3185 160.262 61.2448 159.635 61.2448H158.371V64.2175H158.67C159.591 64.2175 160.266 64.2762 160.699 64.3935C161.13 64.5087 161.482 64.7318 161.754 65.0628C162.025 65.3919 162.161 65.789 162.161 66.2523C162.161 66.8121 161.955 67.3019 161.541 67.7255C161.129 68.1473 160.416 68.359 159.404 68.359H156.227V68.1547C156.688 68.1397 156.983 68.0659 157.112 67.9316C157.24 67.7992 157.305 67.4834 157.305 66.9861V62.2091C157.305 61.8272 157.278 61.5699 157.223 61.4357C157.17 61.3015 157.083 61.2069 156.961 61.1521C156.838 61.0953 156.613 61.0595 156.284 61.0405V60.8362H161.616ZM158.371 67.907C158.696 67.9581 158.95 67.9846 159.13 67.9846C159.583 67.9846 159.994 67.8333 160.363 67.5307C160.729 67.2282 160.913 66.8083 160.913 66.2713C160.913 65.7172 160.722 65.3068 160.338 65.0382C159.954 64.7716 159.466 64.6373 158.874 64.6373C158.71 64.6373 158.541 64.6525 158.371 64.6809V67.907ZM171.36 61.2448H169.034V63.3533C169.034 65.4826 168.85 66.8631 168.485 67.4986C168.119 68.1321 167.616 68.4497 166.973 68.4497C166.698 68.4497 166.487 68.3818 166.339 68.2474C166.192 68.1113 166.118 67.9544 166.118 67.7766C166.118 67.6386 166.165 67.5194 166.262 67.4191C166.358 67.3189 166.475 67.2697 166.611 67.2697C166.725 67.2697 166.857 67.3265 167.005 67.4381C167.171 67.5609 167.321 67.6214 167.455 67.6214C167.776 67.6214 168.037 67.3548 168.242 66.8197C168.444 66.2845 168.546 65.2727 168.546 63.7807V62.2053C168.546 61.71 168.482 61.396 168.351 61.2618C168.223 61.1293 167.924 61.0556 167.457 61.0405V60.8362H173.504V61.0405C173.043 61.0556 172.748 61.1293 172.619 61.2636C172.491 61.396 172.426 61.7118 172.426 62.2091V66.9861C172.426 67.4834 172.491 67.7992 172.619 67.9316C172.748 68.0659 173.043 68.1397 173.504 68.1547V68.359H170.282V68.1547C170.743 68.1397 171.039 68.0659 171.167 67.9316C171.296 67.7992 171.36 67.4834 171.36 66.9861V61.2448ZM183.326 62.073C183.326 61.6229 183.254 61.3393 183.108 61.2201C182.962 61.101 182.667 61.0405 182.225 61.0405V60.8362H185.47V61.0405C185.009 61.0556 184.714 61.1293 184.585 61.2636C184.456 61.396 184.392 61.7118 184.392 62.2091V66.9861C184.392 67.4834 184.456 67.7992 184.585 67.9316C184.714 68.0659 185.009 68.1397 185.47 68.1547V68.359H182.225V68.1547C182.701 68.1397 183.002 68.064 183.133 67.9298C183.261 67.7936 183.326 67.4796 183.326 66.9861V62.663L179.854 67.1449C179.857 67.4664 179.878 67.682 179.918 67.7916C179.956 67.8995 180.046 67.9865 180.188 68.0488C180.33 68.1113 180.582 68.1473 180.943 68.1547V68.359H177.709V68.1547C178.17 68.1397 178.465 68.0659 178.594 67.9316C178.723 67.7992 178.787 67.4834 178.787 66.9861V62.2091C178.787 61.7118 178.723 61.396 178.594 61.2636C178.465 61.1293 178.17 61.0556 177.709 61.0405V60.8362H180.943V61.0405C180.474 61.0556 180.177 61.1293 180.046 61.2636C179.918 61.396 179.854 61.7118 179.854 62.2091V66.5435L183.326 62.073ZM196.986 68.1547V68.359H195.049C194.839 68.0225 194.397 67.387 193.722 66.4528C193.046 65.5185 192.636 65.0005 192.489 64.8983C192.341 64.7962 192.118 64.7432 191.819 64.7394V66.9861C191.819 67.4834 191.881 67.7992 192.008 67.9316C192.135 68.0659 192.432 68.1397 192.897 68.1547V68.359H189.675V68.1547C190.132 68.1397 190.427 68.0659 190.558 67.9354C190.688 67.803 190.752 67.4872 190.752 66.9861V62.2091C190.752 61.7118 190.688 61.396 190.56 61.2636C190.431 61.1293 190.136 61.0556 189.675 61.0405V60.8362H192.897V61.0405C192.432 61.0556 192.135 61.1293 192.008 61.2636C191.881 61.396 191.819 61.7118 191.819 62.2091V64.3082C192.222 64.3046 192.5 64.278 192.655 64.2269C192.81 64.1778 192.984 64.0644 193.177 63.8866C193.37 63.7088 193.523 63.5159 193.636 63.3098C193.748 63.1056 193.894 62.7671 194.069 62.2961C194.236 61.8555 194.372 61.5492 194.476 61.3771C194.582 61.205 194.75 61.0556 194.983 60.9309C195.215 60.8078 195.492 60.7455 195.813 60.7455C196.38 60.7455 196.664 60.9459 196.664 61.3468C196.664 61.4867 196.607 61.6097 196.496 61.7137C196.382 61.8176 196.256 61.8687 196.112 61.8687C196.008 61.8687 195.834 61.8102 195.592 61.691C195.378 61.5832 195.229 61.5284 195.144 61.5284C195.025 61.5284 194.924 61.5908 194.839 61.7137C194.754 61.8386 194.62 62.1543 194.435 62.6611C194.081 63.6086 193.629 64.2099 193.08 64.4652C193.415 64.5239 193.879 64.9853 194.474 65.8457C195.104 66.7592 195.567 67.37 195.862 67.6763C196.157 67.9827 196.532 68.1435 196.986 68.1547ZM205.997 65.8515H203.083L202.58 67.0296C202.455 67.3208 202.391 67.5401 202.391 67.6839C202.391 67.7974 202.446 67.8995 202.555 67.9865C202.663 68.0716 202.9 68.1283 203.261 68.1547V68.359H200.889V68.1547C201.203 68.0999 201.406 68.0281 201.498 67.9392C201.687 67.7614 201.896 67.4002 202.124 66.8574L204.77 60.666H204.957L207.573 66.9236C207.782 67.4267 207.973 67.752 208.146 67.9032C208.318 68.0526 208.556 68.1359 208.864 68.1547V68.359H205.899V68.1547C206.198 68.1397 206.4 68.0904 206.506 68.0053C206.612 67.9202 206.663 67.8163 206.663 67.6933C206.663 67.5307 206.589 67.2735 206.442 66.9218L205.997 65.8515ZM205.827 65.443L204.56 62.4078L203.259 65.443H205.827ZM222.171 60.8362L222.25 62.6044H222.04C221.999 62.2944 221.944 62.0711 221.874 61.9387C221.758 61.7252 221.607 61.5662 221.416 61.4659C221.225 61.3639 220.975 61.3128 220.665 61.3128H219.606V67.0542C219.606 67.5175 219.655 67.8068 219.756 67.9222C219.896 68.0772 220.111 68.1547 220.403 68.1547H220.662V68.359H217.462V68.1547H217.732C218.054 68.1547 218.281 68.0584 218.417 67.8655C218.498 67.7462 218.54 67.4759 218.54 67.0542V61.3128H217.638C217.286 61.3128 217.036 61.3393 216.889 61.3904C216.696 61.4603 216.533 61.5945 216.395 61.795C216.259 61.9936 216.178 62.264 216.151 62.6044H215.941L216.021 60.8362H222.171ZM230.937 65.8515H228.022L227.519 67.0296C227.394 67.3208 227.33 67.5401 227.33 67.6839C227.33 67.7974 227.385 67.8995 227.495 67.9865C227.602 68.0716 227.839 68.1283 228.2 68.1547V68.359H225.829V68.1547C226.143 68.0999 226.345 68.0281 226.438 67.9392C226.627 67.7614 226.835 67.4002 227.063 66.8574L229.709 60.666H229.896L232.512 66.9236C232.722 67.4267 232.913 67.752 233.085 67.9032C233.257 68.0526 233.495 68.1359 233.803 68.1547V68.359H230.838V68.1547C231.137 68.1397 231.339 68.0904 231.445 68.0053C231.551 67.9202 231.602 67.8163 231.602 67.6933C231.602 67.5307 231.528 67.2735 231.381 66.9218L230.937 65.8515ZM230.766 65.443L229.499 62.4078L228.198 65.443H230.766ZM243.277 60.8362L243.356 62.6044H243.146C243.104 62.2944 243.05 62.0711 242.98 61.9387C242.864 61.7252 242.713 61.5662 242.522 61.4659C242.331 61.3639 242.081 61.3128 241.771 61.3128H240.712V67.0542C240.712 67.5175 240.761 67.8068 240.862 67.9222C241.002 68.0772 241.217 68.1547 241.508 68.1547H241.768V68.359H238.568V68.1547H238.838C239.16 68.1547 239.387 68.0584 239.523 67.8655C239.604 67.7462 239.646 67.4759 239.646 67.0542V61.3128H238.744C238.392 61.3128 238.142 61.3393 237.995 61.3904C237.802 61.4603 237.639 61.5945 237.501 61.795C237.365 61.9936 237.284 62.264 237.257 62.6044H237.047L237.127 60.8362H243.277ZM252.042 65.8515H249.128L248.625 67.0296C248.5 67.3208 248.436 67.5401 248.436 67.6839C248.436 67.7974 248.491 67.8995 248.601 67.9865C248.708 68.0716 248.945 68.1283 249.306 68.1547V68.359H246.935V68.1547C247.248 68.0999 247.451 68.0281 247.544 67.9392C247.733 67.7614 247.941 67.4002 248.169 66.8574L250.815 60.666H251.002L253.618 66.9236C253.828 67.4267 254.019 67.752 254.191 67.9032C254.363 68.0526 254.601 68.1359 254.909 68.1547V68.359H251.944V68.1547C252.243 68.1397 252.445 68.0904 252.551 68.0053C252.657 67.9202 252.708 67.8163 252.708 67.6933C252.708 67.5307 252.634 67.2735 252.487 66.9218L252.042 65.8515ZM251.872 65.443L250.605 62.4078L249.304 65.443H251.872ZM261.135 64.8321V67.0314C261.135 67.5042 261.187 67.7974 261.291 67.9108C261.43 68.0734 261.642 68.1547 261.926 68.1547H262.213V68.359H258.991V68.1547H259.275C259.592 68.1547 259.821 68.0508 259.957 67.8447C260.031 67.7311 260.069 67.4589 260.069 67.0314V62.1638C260.069 61.691 260.02 61.3978 259.919 61.2844C259.774 61.1218 259.56 61.0405 259.275 61.0405H258.991V60.8362H261.748C262.421 60.8362 262.951 60.9062 263.341 61.0443C263.728 61.1823 264.055 61.4168 264.322 61.7459C264.589 62.0749 264.721 62.4645 264.721 62.9145C264.721 63.5291 264.519 64.0284 264.114 64.4122C263.709 64.7962 263.138 64.989 262.399 64.989C262.217 64.989 262.022 64.9759 261.812 64.9493C261.601 64.9248 261.376 64.885 261.135 64.8321ZM261.135 64.5145C261.33 64.5523 261.504 64.5806 261.655 64.5976C261.805 64.6166 261.935 64.626 262.041 64.626C262.425 64.626 262.754 64.4766 263.032 64.1797C263.31 63.8828 263.45 63.4989 263.45 63.0279C263.45 62.7028 263.384 62.4002 263.252 62.1222C263.119 61.8442 262.93 61.6361 262.688 61.4981C262.444 61.36 262.168 61.2902 261.86 61.2902C261.671 61.2902 261.43 61.3261 261.135 61.396V64.5145ZM275.86 60.666L276.03 63.2191H275.86C275.631 62.455 275.306 61.9029 274.882 61.5682C274.459 61.2315 273.952 61.0632 273.358 61.0632C272.863 61.0632 272.413 61.1899 272.012 61.4433C271.611 61.6966 271.295 62.0995 271.064 62.6555C270.835 63.2095 270.72 63.8998 270.72 64.7244C270.72 65.4051 270.828 65.9951 271.045 66.4944C271.263 66.9937 271.59 67.3756 272.025 67.6422C272.462 67.9089 272.959 68.0413 273.517 68.0413C274.003 68.0413 274.432 67.9373 274.803 67.7293C275.176 67.5212 275.584 67.1071 276.028 66.4868L276.201 66.6003C275.824 67.2679 275.385 67.7558 274.884 68.0659C274.383 68.3742 273.788 68.5292 273.099 68.5292C271.857 68.5292 270.894 68.0678 270.213 67.143C269.705 66.4546 269.449 65.6453 269.449 64.7149C269.449 63.9641 269.618 63.2738 269.952 62.6461C270.287 62.0164 270.749 61.5303 271.335 61.1843C271.923 60.8381 272.564 60.666 273.26 60.666C273.801 60.666 274.334 60.7984 274.862 61.0651C275.015 61.1464 275.126 61.1879 275.193 61.1879C275.291 61.1879 275.378 61.1521 275.452 61.0821C275.548 60.9818 275.616 60.8437 275.656 60.666H275.86ZM286.939 60.8362L287.018 62.6044H286.808C286.767 62.2944 286.712 62.0711 286.642 61.9387C286.527 61.7252 286.375 61.5662 286.184 61.4659C285.993 61.3639 285.744 61.3128 285.434 61.3128H284.374V67.0542C284.374 67.5175 284.424 67.8068 284.524 67.9222C284.664 68.0772 284.879 68.1547 285.171 68.1547H285.43V68.359H282.23V68.1547H282.5C282.822 68.1547 283.049 68.0584 283.185 67.8655C283.266 67.7462 283.308 67.4759 283.308 67.0542V61.3128H282.406C282.054 61.3128 281.805 61.3393 281.657 61.3904C281.464 61.4603 281.301 61.5945 281.163 61.795C281.027 61.9936 280.946 62.264 280.919 62.6044H280.709L280.789 60.8362H286.939ZM295.705 65.8515H292.791L292.287 67.0296C292.163 67.3208 292.098 67.5401 292.098 67.6839C292.098 67.7974 292.153 67.8995 292.263 67.9865C292.371 68.0716 292.607 68.1283 292.968 68.1547V68.359H290.597V68.1547C290.911 68.0999 291.113 68.0281 291.206 67.9392C291.395 67.7614 291.603 67.4002 291.832 66.8574L294.477 60.666H294.665L297.28 66.9236C297.49 67.4267 297.681 67.752 297.853 67.9032C298.025 68.0526 298.263 68.1359 298.572 68.1547V68.359H295.606V68.1547C295.905 68.1397 296.108 68.0904 296.213 68.0053C296.319 67.9202 296.37 67.8163 296.37 67.6933C296.37 67.5307 296.297 67.2735 296.149 66.9218L295.705 65.8515ZM295.535 65.443L294.267 62.4078L292.966 65.443H295.535ZM304.809 64.331H308.292V62.1638C308.292 61.7818 308.268 61.5303 308.221 61.4092C308.183 61.3185 308.105 61.239 307.986 61.1729C307.827 61.084 307.659 61.0405 307.481 61.0405H307.215V60.8362H310.437V61.0405H310.17C309.993 61.0405 309.824 61.0821 309.665 61.1671C309.546 61.2258 309.465 61.3147 309.423 61.4338C309.38 61.553 309.359 61.7969 309.359 62.1638V67.0314C309.359 67.4115 309.384 67.6632 309.431 67.7842C309.469 67.8768 309.544 67.9562 309.66 68.0225C309.822 68.1113 309.993 68.1547 310.17 68.1547H310.437V68.359H307.215V68.1547H307.481C307.789 68.1547 308.013 68.064 308.154 67.8843C308.247 67.7652 308.292 67.4816 308.292 67.0314V64.7394H304.809V67.0314C304.809 67.4115 304.834 67.6632 304.881 67.7842C304.917 67.8768 304.994 67.9562 305.113 68.0225C305.272 68.1113 305.439 68.1547 305.617 68.1547H305.887V68.359H302.665V68.1547H302.931C303.243 68.1547 303.468 68.064 303.61 67.8843C303.699 67.7652 303.743 67.4816 303.743 67.0314V62.1638C303.743 61.7818 303.718 61.5303 303.671 61.4092C303.633 61.3185 303.557 61.239 303.442 61.1729C303.279 61.084 303.109 61.0405 302.931 61.0405H302.665V60.8362H305.887V61.0405H305.617C305.439 61.0405 305.272 61.0821 305.113 61.1671C304.998 61.2258 304.919 61.3147 304.875 61.4338C304.832 61.553 304.809 61.7969 304.809 62.1638V64.331Z"/>
</mask>
<path d="M102.454 64.8321V67.0314C102.454 67.5042 102.505 67.7974 102.609 67.9108C102.749 68.0734 102.961 68.1547 103.245 68.1547H103.532V68.359H100.31V68.1547H100.593C100.911 68.1547 101.14 68.0508 101.276 67.8447C101.35 67.7311 101.387 67.4589 101.387 67.0314V62.1638C101.387 61.691 101.338 61.3978 101.238 61.2844C101.092 61.1218 100.879 61.0405 100.593 61.0405H100.31V60.8362H103.067C103.74 60.8362 104.27 60.9062 104.659 61.0443C105.047 61.1823 105.374 61.4168 105.641 61.7459C105.907 62.0749 106.04 62.4645 106.04 62.9145C106.04 63.5291 105.837 64.0284 105.432 64.4122C105.028 64.7962 104.457 64.989 103.717 64.989C103.536 64.989 103.341 64.9759 103.131 64.9493C102.919 64.9248 102.694 64.885 102.454 64.8321ZM102.454 64.5145C102.649 64.5523 102.823 64.5806 102.974 64.5976C103.124 64.6166 103.254 64.626 103.36 64.626C103.744 64.626 104.073 64.4766 104.351 64.1797C104.629 63.8828 104.769 63.4989 104.769 63.0279C104.769 62.7028 104.703 62.4002 104.57 62.1222C104.438 61.8442 104.249 61.6361 104.007 61.4981C103.763 61.36 103.487 61.2902 103.178 61.2902C102.989 61.2902 102.749 61.3261 102.454 61.396V64.5145ZM112.581 61.2448V64.2175H114.238C114.667 64.2175 114.953 64.1532 115.097 64.0246C115.29 63.8544 115.396 63.5556 115.418 63.1282H115.622V65.7492H115.418C115.367 65.3825 115.314 65.146 115.263 65.042C115.197 64.9134 115.087 64.8113 114.936 64.7376C114.785 64.6639 114.552 64.626 114.238 64.626H112.581V67.1071C112.581 67.4399 112.597 67.6422 112.625 67.7141C112.655 67.786 112.706 67.8447 112.78 67.8863C112.854 67.9298 112.996 67.9505 113.202 67.9505H114.474C114.898 67.9505 115.206 67.9202 115.399 67.8617C115.59 67.803 115.776 67.6858 115.951 67.5118C116.18 67.2829 116.415 66.937 116.655 66.4754H116.882L116.233 68.359H110.437V68.1547H110.704C110.881 68.1547 111.05 68.1113 111.208 68.0262C111.328 67.9676 111.409 67.8787 111.451 67.7595C111.494 67.6404 111.515 67.3983 111.515 67.0314V62.1411C111.515 61.6646 111.468 61.3714 111.371 61.2618C111.237 61.1142 111.016 61.0405 110.704 61.0405H110.437V60.8362H116.235L116.314 62.4929H116.099C116.021 62.0938 115.936 61.8196 115.842 61.6702C115.747 61.5208 115.607 61.4074 115.424 61.3279C115.276 61.2731 115.015 61.2448 114.643 61.2448H112.581ZM127.743 60.666L127.913 63.2191H127.743C127.514 62.455 127.189 61.9029 126.765 61.5682C126.342 61.2315 125.835 61.0632 125.241 61.0632C124.746 61.0632 124.296 61.1899 123.895 61.4433C123.494 61.6966 123.178 62.0995 122.947 62.6555C122.718 63.2095 122.603 63.8998 122.603 64.7244C122.603 65.4051 122.711 65.9951 122.928 66.4944C123.146 66.9937 123.473 67.3756 123.908 67.6422C124.345 67.9089 124.842 68.0413 125.4 68.0413C125.886 68.0413 126.315 67.9373 126.686 67.7293C127.059 67.5212 127.467 67.1071 127.911 66.4868L128.084 66.6003C127.707 67.2679 127.268 67.7558 126.767 68.0659C126.266 68.3742 125.67 68.5292 124.982 68.5292C123.74 68.5292 122.777 68.0678 122.096 67.143C121.588 66.4546 121.332 65.6453 121.332 64.7149C121.332 63.9641 121.501 63.2738 121.835 62.6461C122.17 62.0164 122.631 61.5303 123.218 61.1843C123.806 60.8381 124.447 60.666 125.143 60.666C125.684 60.666 126.217 60.7984 126.745 61.0651C126.898 61.1464 127.009 61.1879 127.075 61.1879C127.174 61.1879 127.261 61.1521 127.335 61.0821C127.431 60.9818 127.499 60.8437 127.539 60.666H127.743ZM138.084 61.2448H134.612V66.9861C134.612 67.4834 134.675 67.7992 134.801 67.9316C134.928 68.0659 135.225 68.1397 135.69 68.1547V68.359H132.468V68.1547C132.929 68.1397 133.224 68.0659 133.353 67.9316C133.481 67.7992 133.546 67.4834 133.546 66.9861V62.2091C133.546 61.7118 133.481 61.396 133.353 61.2636C133.224 61.1293 132.929 61.0556 132.468 61.0405V60.8362H140.229V61.0405C139.767 61.0556 139.472 61.1293 139.344 61.2636C139.215 61.396 139.151 61.7118 139.151 62.2091V66.9861C139.151 67.4834 139.215 67.7992 139.344 67.9316C139.472 68.0659 139.767 68.1397 140.229 68.1547V68.359H137.006V68.1547C137.468 68.1397 137.761 68.0659 137.891 67.9354C138.02 67.803 138.084 67.4872 138.084 66.9861V61.2448ZM144.365 60.8362H147.417V61.0405C146.88 61.0632 146.612 61.2069 146.612 61.4735C146.612 61.6627 146.809 62.1033 147.204 62.7935L148.841 65.6775L150.027 62.7935C150.277 62.1883 150.402 61.7818 150.402 61.5738C150.402 61.2844 150.167 61.1066 149.698 61.0405V60.8362H152.069V61.0405C151.515 61.1066 151.096 61.4867 150.808 62.177L149.39 65.598C149.021 66.4754 148.718 67.0977 148.484 67.4645C148.25 67.8333 147.994 68.1018 147.718 68.2719C147.442 68.4441 147.155 68.5292 146.856 68.5292C146.6 68.5292 146.383 68.4744 146.207 68.3647C146.031 68.2569 145.942 68.1075 145.942 67.9184C145.942 67.7804 145.988 67.6669 146.08 67.5761C146.173 67.4854 146.298 67.4399 146.457 67.4399C146.612 67.4399 146.795 67.5024 147.009 67.629C147.153 67.7066 147.262 67.7463 147.336 67.7463C147.627 67.7463 147.953 67.4437 148.314 66.8367L145.589 62.0409C145.396 61.7042 145.214 61.4641 145.042 61.3241C144.872 61.1823 144.645 61.0878 144.365 61.0405V60.8362ZM161.616 60.8362L161.696 62.4929H161.492C161.374 61.9539 161.191 61.6097 160.945 61.4641C160.699 61.3185 160.262 61.2448 159.635 61.2448H158.371V64.2175H158.67C159.591 64.2175 160.266 64.2762 160.699 64.3935C161.13 64.5087 161.482 64.7318 161.754 65.0628C162.025 65.3919 162.161 65.789 162.161 66.2523C162.161 66.8121 161.955 67.3019 161.541 67.7255C161.129 68.1473 160.416 68.359 159.404 68.359H156.227V68.1547C156.688 68.1397 156.983 68.0659 157.112 67.9316C157.24 67.7992 157.305 67.4834 157.305 66.9861V62.2091C157.305 61.8272 157.278 61.5699 157.223 61.4357C157.17 61.3015 157.083 61.2069 156.961 61.1521C156.838 61.0953 156.613 61.0595 156.284 61.0405V60.8362H161.616ZM158.371 67.907C158.696 67.9581 158.95 67.9846 159.13 67.9846C159.583 67.9846 159.994 67.8333 160.363 67.5307C160.729 67.2282 160.913 66.8083 160.913 66.2713C160.913 65.7172 160.722 65.3068 160.338 65.0382C159.954 64.7716 159.466 64.6373 158.874 64.6373C158.71 64.6373 158.541 64.6525 158.371 64.6809V67.907ZM171.36 61.2448H169.034V63.3533C169.034 65.4826 168.85 66.8631 168.485 67.4986C168.119 68.1321 167.616 68.4497 166.973 68.4497C166.698 68.4497 166.487 68.3818 166.339 68.2474C166.192 68.1113 166.118 67.9544 166.118 67.7766C166.118 67.6386 166.165 67.5194 166.262 67.4191C166.358 67.3189 166.475 67.2697 166.611 67.2697C166.725 67.2697 166.857 67.3265 167.005 67.4381C167.171 67.5609 167.321 67.6214 167.455 67.6214C167.776 67.6214 168.037 67.3548 168.242 66.8197C168.444 66.2845 168.546 65.2727 168.546 63.7807V62.2053C168.546 61.71 168.482 61.396 168.351 61.2618C168.223 61.1293 167.924 61.0556 167.457 61.0405V60.8362H173.504V61.0405C173.043 61.0556 172.748 61.1293 172.619 61.2636C172.491 61.396 172.426 61.7118 172.426 62.2091V66.9861C172.426 67.4834 172.491 67.7992 172.619 67.9316C172.748 68.0659 173.043 68.1397 173.504 68.1547V68.359H170.282V68.1547C170.743 68.1397 171.039 68.0659 171.167 67.9316C171.296 67.7992 171.36 67.4834 171.36 66.9861V61.2448ZM183.326 62.073C183.326 61.6229 183.254 61.3393 183.108 61.2201C182.962 61.101 182.667 61.0405 182.225 61.0405V60.8362H185.47V61.0405C185.009 61.0556 184.714 61.1293 184.585 61.2636C184.456 61.396 184.392 61.7118 184.392 62.2091V66.9861C184.392 67.4834 184.456 67.7992 184.585 67.9316C184.714 68.0659 185.009 68.1397 185.47 68.1547V68.359H182.225V68.1547C182.701 68.1397 183.002 68.064 183.133 67.9298C183.261 67.7936 183.326 67.4796 183.326 66.9861V62.663L179.854 67.1449C179.857 67.4664 179.878 67.682 179.918 67.7916C179.956 67.8995 180.046 67.9865 180.188 68.0488C180.33 68.1113 180.582 68.1473 180.943 68.1547V68.359H177.709V68.1547C178.17 68.1397 178.465 68.0659 178.594 67.9316C178.723 67.7992 178.787 67.4834 178.787 66.9861V62.2091C178.787 61.7118 178.723 61.396 178.594 61.2636C178.465 61.1293 178.17 61.0556 177.709 61.0405V60.8362H180.943V61.0405C180.474 61.0556 180.177 61.1293 180.046 61.2636C179.918 61.396 179.854 61.7118 179.854 62.2091V66.5435L183.326 62.073ZM196.986 68.1547V68.359H195.049C194.839 68.0225 194.397 67.387 193.722 66.4528C193.046 65.5185 192.636 65.0005 192.489 64.8983C192.341 64.7962 192.118 64.7432 191.819 64.7394V66.9861C191.819 67.4834 191.881 67.7992 192.008 67.9316C192.135 68.0659 192.432 68.1397 192.897 68.1547V68.359H189.675V68.1547C190.132 68.1397 190.427 68.0659 190.558 67.9354C190.688 67.803 190.752 67.4872 190.752 66.9861V62.2091C190.752 61.7118 190.688 61.396 190.56 61.2636C190.431 61.1293 190.136 61.0556 189.675 61.0405V60.8362H192.897V61.0405C192.432 61.0556 192.135 61.1293 192.008 61.2636C191.881 61.396 191.819 61.7118 191.819 62.2091V64.3082C192.222 64.3046 192.5 64.278 192.655 64.2269C192.81 64.1778 192.984 64.0644 193.177 63.8866C193.37 63.7088 193.523 63.5159 193.636 63.3098C193.748 63.1056 193.894 62.7671 194.069 62.2961C194.236 61.8555 194.372 61.5492 194.476 61.3771C194.582 61.205 194.75 61.0556 194.983 60.9309C195.215 60.8078 195.492 60.7455 195.813 60.7455C196.38 60.7455 196.664 60.9459 196.664 61.3468C196.664 61.4867 196.607 61.6097 196.496 61.7137C196.382 61.8176 196.256 61.8687 196.112 61.8687C196.008 61.8687 195.834 61.8102 195.592 61.691C195.378 61.5832 195.229 61.5284 195.144 61.5284C195.025 61.5284 194.924 61.5908 194.839 61.7137C194.754 61.8386 194.62 62.1543 194.435 62.6611C194.081 63.6086 193.629 64.2099 193.08 64.4652C193.415 64.5239 193.879 64.9853 194.474 65.8457C195.104 66.7592 195.567 67.37 195.862 67.6763C196.157 67.9827 196.532 68.1435 196.986 68.1547ZM205.997 65.8515H203.083L202.58 67.0296C202.455 67.3208 202.391 67.5401 202.391 67.6839C202.391 67.7974 202.446 67.8995 202.555 67.9865C202.663 68.0716 202.9 68.1283 203.261 68.1547V68.359H200.889V68.1547C201.203 68.0999 201.406 68.0281 201.498 67.9392C201.687 67.7614 201.896 67.4002 202.124 66.8574L204.77 60.666H204.957L207.573 66.9236C207.782 67.4267 207.973 67.752 208.146 67.9032C208.318 68.0526 208.556 68.1359 208.864 68.1547V68.359H205.899V68.1547C206.198 68.1397 206.4 68.0904 206.506 68.0053C206.612 67.9202 206.663 67.8163 206.663 67.6933C206.663 67.5307 206.589 67.2735 206.442 66.9218L205.997 65.8515ZM205.827 65.443L204.56 62.4078L203.259 65.443H205.827ZM222.171 60.8362L222.25 62.6044H222.04C221.999 62.2944 221.944 62.0711 221.874 61.9387C221.758 61.7252 221.607 61.5662 221.416 61.4659C221.225 61.3639 220.975 61.3128 220.665 61.3128H219.606V67.0542C219.606 67.5175 219.655 67.8068 219.756 67.9222C219.896 68.0772 220.111 68.1547 220.403 68.1547H220.662V68.359H217.462V68.1547H217.732C218.054 68.1547 218.281 68.0584 218.417 67.8655C218.498 67.7462 218.54 67.4759 218.54 67.0542V61.3128H217.638C217.286 61.3128 217.036 61.3393 216.889 61.3904C216.696 61.4603 216.533 61.5945 216.395 61.795C216.259 61.9936 216.178 62.264 216.151 62.6044H215.941L216.021 60.8362H222.171ZM230.937 65.8515H228.022L227.519 67.0296C227.394 67.3208 227.33 67.5401 227.33 67.6839C227.33 67.7974 227.385 67.8995 227.495 67.9865C227.602 68.0716 227.839 68.1283 228.2 68.1547V68.359H225.829V68.1547C226.143 68.0999 226.345 68.0281 226.438 67.9392C226.627 67.7614 226.835 67.4002 227.063 66.8574L229.709 60.666H229.896L232.512 66.9236C232.722 67.4267 232.913 67.752 233.085 67.9032C233.257 68.0526 233.495 68.1359 233.803 68.1547V68.359H230.838V68.1547C231.137 68.1397 231.339 68.0904 231.445 68.0053C231.551 67.9202 231.602 67.8163 231.602 67.6933C231.602 67.5307 231.528 67.2735 231.381 66.9218L230.937 65.8515ZM230.766 65.443L229.499 62.4078L228.198 65.443H230.766ZM243.277 60.8362L243.356 62.6044H243.146C243.104 62.2944 243.05 62.0711 242.98 61.9387C242.864 61.7252 242.713 61.5662 242.522 61.4659C242.331 61.3639 242.081 61.3128 241.771 61.3128H240.712V67.0542C240.712 67.5175 240.761 67.8068 240.862 67.9222C241.002 68.0772 241.217 68.1547 241.508 68.1547H241.768V68.359H238.568V68.1547H238.838C239.16 68.1547 239.387 68.0584 239.523 67.8655C239.604 67.7462 239.646 67.4759 239.646 67.0542V61.3128H238.744C238.392 61.3128 238.142 61.3393 237.995 61.3904C237.802 61.4603 237.639 61.5945 237.501 61.795C237.365 61.9936 237.284 62.264 237.257 62.6044H237.047L237.127 60.8362H243.277ZM252.042 65.8515H249.128L248.625 67.0296C248.5 67.3208 248.436 67.5401 248.436 67.6839C248.436 67.7974 248.491 67.8995 248.601 67.9865C248.708 68.0716 248.945 68.1283 249.306 68.1547V68.359H246.935V68.1547C247.248 68.0999 247.451 68.0281 247.544 67.9392C247.733 67.7614 247.941 67.4002 248.169 66.8574L250.815 60.666H251.002L253.618 66.9236C253.828 67.4267 254.019 67.752 254.191 67.9032C254.363 68.0526 254.601 68.1359 254.909 68.1547V68.359H251.944V68.1547C252.243 68.1397 252.445 68.0904 252.551 68.0053C252.657 67.9202 252.708 67.8163 252.708 67.6933C252.708 67.5307 252.634 67.2735 252.487 66.9218L252.042 65.8515ZM251.872 65.443L250.605 62.4078L249.304 65.443H251.872ZM261.135 64.8321V67.0314C261.135 67.5042 261.187 67.7974 261.291 67.9108C261.43 68.0734 261.642 68.1547 261.926 68.1547H262.213V68.359H258.991V68.1547H259.275C259.592 68.1547 259.821 68.0508 259.957 67.8447C260.031 67.7311 260.069 67.4589 260.069 67.0314V62.1638C260.069 61.691 260.02 61.3978 259.919 61.2844C259.774 61.1218 259.56 61.0405 259.275 61.0405H258.991V60.8362H261.748C262.421 60.8362 262.951 60.9062 263.341 61.0443C263.728 61.1823 264.055 61.4168 264.322 61.7459C264.589 62.0749 264.721 62.4645 264.721 62.9145C264.721 63.5291 264.519 64.0284 264.114 64.4122C263.709 64.7962 263.138 64.989 262.399 64.989C262.217 64.989 262.022 64.9759 261.812 64.9493C261.601 64.9248 261.376 64.885 261.135 64.8321ZM261.135 64.5145C261.33 64.5523 261.504 64.5806 261.655 64.5976C261.805 64.6166 261.935 64.626 262.041 64.626C262.425 64.626 262.754 64.4766 263.032 64.1797C263.31 63.8828 263.45 63.4989 263.45 63.0279C263.45 62.7028 263.384 62.4002 263.252 62.1222C263.119 61.8442 262.93 61.6361 262.688 61.4981C262.444 61.36 262.168 61.2902 261.86 61.2902C261.671 61.2902 261.43 61.3261 261.135 61.396V64.5145ZM275.86 60.666L276.03 63.2191H275.86C275.631 62.455 275.306 61.9029 274.882 61.5682C274.459 61.2315 273.952 61.0632 273.358 61.0632C272.863 61.0632 272.413 61.1899 272.012 61.4433C271.611 61.6966 271.295 62.0995 271.064 62.6555C270.835 63.2095 270.72 63.8998 270.72 64.7244C270.72 65.4051 270.828 65.9951 271.045 66.4944C271.263 66.9937 271.59 67.3756 272.025 67.6422C272.462 67.9089 272.959 68.0413 273.517 68.0413C274.003 68.0413 274.432 67.9373 274.803 67.7293C275.176 67.5212 275.584 67.1071 276.028 66.4868L276.201 66.6003C275.824 67.2679 275.385 67.7558 274.884 68.0659C274.383 68.3742 273.788 68.5292 273.099 68.5292C271.857 68.5292 270.894 68.0678 270.213 67.143C269.705 66.4546 269.449 65.6453 269.449 64.7149C269.449 63.9641 269.618 63.2738 269.952 62.6461C270.287 62.0164 270.749 61.5303 271.335 61.1843C271.923 60.8381 272.564 60.666 273.26 60.666C273.801 60.666 274.334 60.7984 274.862 61.0651C275.015 61.1464 275.126 61.1879 275.193 61.1879C275.291 61.1879 275.378 61.1521 275.452 61.0821C275.548 60.9818 275.616 60.8437 275.656 60.666H275.86ZM286.939 60.8362L287.018 62.6044H286.808C286.767 62.2944 286.712 62.0711 286.642 61.9387C286.527 61.7252 286.375 61.5662 286.184 61.4659C285.993 61.3639 285.744 61.3128 285.434 61.3128H284.374V67.0542C284.374 67.5175 284.424 67.8068 284.524 67.9222C284.664 68.0772 284.879 68.1547 285.171 68.1547H285.43V68.359H282.23V68.1547H282.5C282.822 68.1547 283.049 68.0584 283.185 67.8655C283.266 67.7462 283.308 67.4759 283.308 67.0542V61.3128H282.406C282.054 61.3128 281.805 61.3393 281.657 61.3904C281.464 61.4603 281.301 61.5945 281.163 61.795C281.027 61.9936 280.946 62.264 280.919 62.6044H280.709L280.789 60.8362H286.939ZM295.705 65.8515H292.791L292.287 67.0296C292.163 67.3208 292.098 67.5401 292.098 67.6839C292.098 67.7974 292.153 67.8995 292.263 67.9865C292.371 68.0716 292.607 68.1283 292.968 68.1547V68.359H290.597V68.1547C290.911 68.0999 291.113 68.0281 291.206 67.9392C291.395 67.7614 291.603 67.4002 291.832 66.8574L294.477 60.666H294.665L297.28 66.9236C297.49 67.4267 297.681 67.752 297.853 67.9032C298.025 68.0526 298.263 68.1359 298.572 68.1547V68.359H295.606V68.1547C295.905 68.1397 296.108 68.0904 296.213 68.0053C296.319 67.9202 296.37 67.8163 296.37 67.6933C296.37 67.5307 296.297 67.2735 296.149 66.9218L295.705 65.8515ZM295.535 65.443L294.267 62.4078L292.966 65.443H295.535ZM304.809 64.331H308.292V62.1638C308.292 61.7818 308.268 61.5303 308.221 61.4092C308.183 61.3185 308.105 61.239 307.986 61.1729C307.827 61.084 307.659 61.0405 307.481 61.0405H307.215V60.8362H310.437V61.0405H310.17C309.993 61.0405 309.824 61.0821 309.665 61.1671C309.546 61.2258 309.465 61.3147 309.423 61.4338C309.38 61.553 309.359 61.7969 309.359 62.1638V67.0314C309.359 67.4115 309.384 67.6632 309.431 67.7842C309.469 67.8768 309.544 67.9562 309.66 68.0225C309.822 68.1113 309.993 68.1547 310.17 68.1547H310.437V68.359H307.215V68.1547H307.481C307.789 68.1547 308.013 68.064 308.154 67.8843C308.247 67.7652 308.292 67.4816 308.292 67.0314V64.7394H304.809V67.0314C304.809 67.4115 304.834 67.6632 304.881 67.7842C304.917 67.8768 304.994 67.9562 305.113 68.0225C305.272 68.1113 305.439 68.1547 305.617 68.1547H305.887V68.359H302.665V68.1547H302.931C303.243 68.1547 303.468 68.064 303.61 67.8843C303.699 67.7652 303.743 67.4816 303.743 67.0314V62.1638C303.743 61.7818 303.718 61.5303 303.671 61.4092C303.633 61.3185 303.557 61.239 303.442 61.1729C303.279 61.084 303.109 61.0405 302.931 61.0405H302.665V60.8362H305.887V61.0405H305.617C305.439 61.0405 305.272 61.0821 305.113 61.1671C304.998 61.2258 304.919 61.3147 304.875 61.4338C304.832 61.553 304.809 61.7969 304.809 62.1638V64.331Z" stroke="#FBFBFB" stroke-width="2" mask="url(#path-8-outside-1_522_2813)"/>
</svg>
