<svg width="127" height="82" viewBox="0 0 127 82" fill="none" xmlns="http://www.w3.org/2000/svg">
<path d="M55.5634 16.0777C55.4425 15.8643 55.2149 15.4589 55.0655 15.1886C54.4112 13.9867 51.4383 8.66685 50.8125 7.57876L55.5634 16.0777ZM55.5634 16.0777C55.6914 16.291 55.8976 16.6609 56.0256 16.8955C56.2959 17.3862 57.4552 19.4558 57.8321 20.1173M55.5634 16.0777L57.8321 20.1173M57.8321 20.1173C57.9743 20.3662 58.0882 20.6009 58.0882 20.6294C58.0882 20.6578 58.1309 20.7005 58.1877 20.7218C58.2231 20.7375 58.2758 20.7055 58.3435 20.6294C58.394 20.5725 58.4528 20.4911 58.519 20.3866M57.8321 20.1173L58.519 20.3866M58.519 20.3866C58.5217 20.3909 58.5244 20.3953 58.5271 20.3999C58.5484 20.4363 58.5882 20.5167 58.5882 20.6294C58.5882 20.5627 58.5745 20.5102 58.571 20.4966L58.5708 20.4959C58.5651 20.474 58.5589 20.4555 58.5546 20.4433C58.5458 20.4184 58.5359 20.3942 58.5273 20.3743C58.5272 20.3741 58.5271 20.374 58.5271 20.3738M37.7094 4.52782L37.7101 4.52899C37.8182 4.70914 38.3194 5.589 38.8908 6.59216C38.9752 6.74036 39.0611 6.89126 39.1476 7.04299C39.8099 8.21811 40.8415 10.0251 41.4393 11.0641L41.4394 11.0644L41.6022 11.3469C42.6222 13.1173 44.303 16.0346 45.5495 18.2109L45.5504 18.2124C45.8445 18.7217 46.1578 19.2722 46.2439 19.4377L46.2475 19.4446L46.2513 19.4513C46.3532 19.6332 46.5405 19.9576 46.6713 20.1755C46.7717 20.3428 47.3402 21.3315 48.0412 22.5506C48.212 22.8476 48.3906 23.1583 48.5723 23.4741C48.8936 24.0345 49.2702 24.6923 49.6563 25.3668C50.3717 26.6163 51.1197 27.923 51.6095 28.7732C53.0177 31.2198 55.9612 36.3673 56.209 36.8063L56.2089 36.8063L56.2117 36.8111C56.2341 36.8498 56.2718 36.9153 56.3197 36.9984C56.4342 37.1971 56.6066 37.4965 56.767 37.772C56.8136 37.8521 56.8621 37.9356 56.9106 38.0191C57.0917 38.331 57.2729 38.6428 57.357 38.7817C57.3702 38.8054 57.3826 38.8289 57.3967 38.8556L57.4 38.862C57.4156 38.8914 57.4355 38.929 57.4564 38.9648L57.4584 38.9683C57.4878 39.0187 57.5758 39.1697 57.7411 39.2584C57.845 39.3141 57.9681 39.3403 58.0972 39.3226C58.2162 39.3063 58.3093 39.257 58.373 39.2136C58.4908 39.1334 58.5873 39.0176 58.6643 38.9148C58.9385 38.5489 59.4066 37.7256 60.2937 36.1652C60.4073 35.9653 60.5279 35.7533 60.6558 35.5285C60.7888 35.2973 60.9277 35.0554 61.063 34.8196C61.4004 34.2319 61.7155 33.683 61.8611 33.4369L61.8613 33.437L61.8671 33.4265C62.0634 33.076 62.3029 32.6673 62.3947 32.5121L62.399 32.5047L62.4032 32.4971C62.4852 32.3467 63.2417 31.0246 64.0836 29.5547C64.3397 29.1077 64.6122 28.6318 64.8787 28.1662C65.4863 27.1049 66.0632 26.0974 66.3447 25.6084L66.346 25.6062C67.3419 23.8563 68.1438 22.4584 68.5897 21.701L68.5898 21.701L68.5951 21.6916C68.747 21.4203 69.0758 20.85 69.405 20.279C69.503 20.1089 69.6011 19.9388 69.6945 19.7765L69.6964 19.7732C69.923 19.3727 70.2583 18.7886 70.5964 18.2C70.8527 17.7536 71.1106 17.3045 71.3237 16.9309C72.9689 14.074 73.8957 12.4593 74.4109 11.5324C74.6675 11.0708 74.8278 10.7695 74.9246 10.5668C75.0079 10.3923 75.0881 10.2084 75.0881 10.0253C75.0881 9.973 75.084 9.82051 74.9707 9.6752C74.8676 9.54315 74.7333 9.49279 74.6633 9.47163C74.5309 9.43154 74.3516 9.41861 74.1474 9.41015C73.7048 9.39182 72.864 9.39016 71.2811 9.39016H67.981H67.6971L67.5517 9.63393L67.2885 10.0749L67.2884 10.0749L67.2837 10.0831C67.2209 10.1931 67.1493 10.316 67.0867 10.4234C67.0187 10.5401 66.9613 10.6385 66.9378 10.6817C66.9188 10.7165 66.883 10.7775 66.8352 10.8588C66.7673 10.9746 66.6752 11.1316 66.5732 11.3123C66.2746 11.8224 64.7151 14.5444 64.4094 15.0847L64.4094 15.0847L64.4057 15.0915C64.3656 15.1649 64.172 15.5022 63.8906 15.9922C63.5932 16.5102 63.1978 17.1988 62.7824 17.9267C61.3607 20.3892 59.9833 22.7914 59.3026 23.9786C59.0761 24.3736 58.9267 24.6341 58.8785 24.7176L58.8735 24.7262L58.8689 24.735C58.8038 24.8588 58.5333 25.3307 58.2669 25.7915L58.2669 25.7915L58.264 25.7966C58.1956 25.9183 58.1298 26.0371 58.0699 26.1471C58.0477 26.1078 58.0246 26.0661 58.0004 26.0219L58.0004 26.0219L57.9982 26.0181C57.7627 25.5969 57.186 24.5788 56.7079 23.7582C56.5238 23.4346 56.3075 23.0572 56.0907 22.6788C55.7508 22.0857 55.4096 21.4902 55.1888 21.0961L55.1887 21.096C54.5965 20.0401 54.2393 19.4186 52.6109 16.6025L52.6103 16.6015C52.0782 15.6863 51.1831 14.1235 49.7036 11.5273L49.7031 11.5265C49.1405 10.5437 48.6299 9.65 48.567 9.53829L48.5671 9.53824L48.5622 9.52997C48.4925 9.41143 48.188 8.88738 47.8904 8.36318L47.8904 8.36317L47.8879 8.35884C47.7018 8.03847 47.5095 7.71002 47.3706 7.47719C47.6295 7.47434 47.9938 7.4742 48.5082 7.4742C49.0162 7.4742 49.4858 7.48126 49.8319 7.49174C49.9738 7.49605 50.0926 7.50085 50.1836 7.50583C50.24 7.5914 50.3089 7.70362 50.3771 7.82445L50.3771 7.82446L50.3791 7.82804C51.0028 8.91241 53.9737 14.2288 54.6264 15.4277L54.6279 15.4305C54.7783 15.7027 55.0068 16.1096 55.1283 16.3241L55.1282 16.3242L55.1346 16.3349C55.2571 16.539 55.4592 16.9013 55.5867 17.135L55.5877 17.1368C55.8592 17.6297 57.0196 19.7014 57.3977 20.3648L57.398 20.3653C57.4645 20.4817 57.5238 20.5939 57.5654 20.6779C57.583 20.7133 57.5959 20.7408 57.6044 20.7598C57.6204 20.8231 57.6451 20.8728 57.6644 20.9057C57.6983 20.9634 57.7378 21.008 57.7721 21.0406C57.8376 21.1028 57.9165 21.1524 58.0012 21.1858C58.21 21.2708 58.3939 21.2017 58.4801 21.1561C58.5712 21.1078 58.6406 21.0429 58.686 20.9954C58.7806 20.8965 58.8733 20.764 58.9609 20.6231L58.9609 20.6232L58.9646 20.617C59.3855 19.9179 61.8476 15.5799 62.0203 15.2344L62.0205 15.2345L62.0262 15.2222L62.1755 14.9022L62.2857 14.6661L62.1553 14.4406L61.4441 13.2101L61.4431 13.2084C61.2446 12.8681 61.0658 12.5584 60.937 12.3325C60.8725 12.2194 60.8212 12.1285 60.7864 12.0657C60.7712 12.0384 60.7601 12.0181 60.7528 12.0044C60.7505 11.9988 60.7485 11.9944 60.7472 11.9914C60.7406 11.9766 60.7339 11.9631 60.7294 11.9542C60.7198 11.9351 60.7077 11.9125 60.695 11.8891C60.669 11.8411 60.6327 11.776 60.5896 11.6997C60.5029 11.5462 60.3845 11.3399 60.2559 11.1184L60.256 11.1184L60.2529 11.1132C60.0001 10.6897 59.7064 10.1713 59.5788 9.94611L59.5686 9.92807L59.5686 9.92802C59.4481 9.71538 59.1477 9.18602 58.8961 8.76182C58.773 8.55086 58.6628 8.35828 58.5837 8.21744C58.5438 8.1465 58.5129 8.09054 58.4925 8.05261C58.4887 8.04551 58.4855 8.03949 58.4829 8.03447C58.4771 8.01916 58.4717 8.0067 58.468 7.99845C58.4573 7.97474 58.4458 7.95271 58.4371 7.93666C58.4189 7.90294 58.3959 7.8635 58.372 7.82373C58.3234 7.74271 58.2585 7.6389 58.1905 7.53158L58.1905 7.53151C58.1249 7.42807 58.0654 7.33101 58.023 7.25964C58.0058 7.23064 57.9927 7.20794 57.9837 7.19182C57.9782 7.17764 57.9732 7.16597 57.9697 7.15826C57.9598 7.13594 57.9486 7.11386 57.9394 7.09605C57.9201 7.05886 57.8948 7.01311 57.8672 6.96433C57.8113 6.86549 57.7362 6.73747 57.6573 6.60477L57.6573 6.60476L57.6553 6.60148C57.4966 6.33919 57.1376 5.7129 56.8542 5.20272C56.3254 4.24532 54.8579 1.68765 54.4915 1.07702L54.4915 1.077L54.4882 1.07166L54.2819 0.737386L54.1354 0.5H53.8564H45.0944C42.1818 0.5 39.9879 0.505325 38.5216 0.516892C37.7889 0.522671 37.2354 0.530027 36.864 0.539133C36.6793 0.543663 36.5346 0.548738 36.434 0.554593C36.3856 0.557415 36.3375 0.56095 36.2973 0.566005C36.2804 0.568127 36.2457 0.57277 36.2075 0.582728C36.1924 0.586665 36.1458 0.59906 36.0926 0.6273C36.0666 0.641128 36.0129 0.672263 35.96 0.729018C35.9045 0.78857 35.8252 0.904922 35.8252 1.0711V1.07124C35.8252 1.14101 35.8403 1.19522 35.8439 1.20833C35.844 1.20864 35.8441 1.20892 35.8442 1.20919C35.8501 1.23056 35.8563 1.24796 35.8602 1.25824C35.8681 1.27931 35.8766 1.29841 35.8826 1.31172C35.8954 1.33974 35.9114 1.37199 35.9281 1.40475C35.9623 1.47168 36.0102 1.56126 36.0675 1.66651C36.1828 1.87802 36.343 2.16476 36.5249 2.48589C36.889 3.12831 37.3443 3.91576 37.7094 4.52782L37.7094 4.52782Z" stroke="#FBFBFB"/>
<path d="M77.7891 7.49372C78.2049 7.49813 78.55 7.50321 78.8222 7.50885L65.0575 44.4548C66.3662 42.243 69.2039 37.3427 69.6022 36.6102L70.0403 36.8511C70.0405 36.8508 70.0407 36.8505 70.0408 36.8502C70.1956 36.5688 70.7194 35.6416 71.2092 34.7898L71.21 34.7882C71.4559 34.3571 71.6807 33.9592 71.8444 33.6658C71.9261 33.5194 71.9934 33.3976 72.0406 33.3102C72.064 33.267 72.0839 33.2295 72.0986 33.2007C72.1056 33.187 72.1138 33.1707 72.1211 33.1548C72.1239 33.1489 72.1285 33.1386 72.1337 33.126C72.1361 33.1213 72.1392 33.1154 72.1431 33.1082C72.161 33.0745 72.1888 33.0236 72.2261 32.9561C72.3005 32.8216 72.4089 32.628 72.5441 32.3878C72.8143 31.9078 73.1897 31.2458 73.6096 30.5082C74.4494 29.0331 75.4658 27.2579 76.1727 26.036L76.1744 26.033C76.258 25.8861 76.3471 25.7306 76.4341 25.5785C76.6424 25.2146 76.8394 24.8704 76.9247 24.711C77.0521 24.4864 77.6793 23.387 78.3276 22.2666L78.3283 22.2655C78.5819 21.8244 78.8397 21.3774 79.0697 20.9786C79.4308 20.3524 79.7235 19.8449 79.8244 19.6649C79.9866 19.3758 80.6896 18.1402 81.3862 16.9319L81.3869 16.9308C82.0844 15.7137 82.7805 14.4991 82.9362 14.23L82.9362 14.23L82.9389 14.2253C83.0939 13.9507 84.0023 12.3752 84.9635 10.709C85.9224 9.04689 86.7848 7.54313 86.8869 7.3608C86.9849 7.18582 87.4308 6.40717 87.8799 5.62317C88.6624 4.26793 89.2545 3.22644 89.6516 2.50656C89.8498 2.14717 90.0016 1.86395 90.1047 1.66035C90.1559 1.55932 90.1982 1.47186 90.2287 1.40173C90.2438 1.3672 90.2591 1.32971 90.2716 1.29295L90.2724 1.2907C90.2798 1.26925 90.3076 1.18814 90.3076 1.09247C90.3076 0.82362 90.1136 0.690615 90.0689 0.662389C90.0058 0.622615 89.9471 0.604809 89.9232 0.597949C89.8678 0.582051 89.8116 0.574218 89.7722 0.56954C89.6855 0.559229 89.565 0.551683 89.411 0.545434C89.0983 0.532742 88.5963 0.523591 87.8321 0.516921C86.3013 0.503558 83.6941 0.5 79.3884 0.5H68.9763H68.6861L68.5422 0.751935L68.3715 1.05066L67.944 1.79872H67.9691C67.7975 2.12317 67.5924 2.51339 67.3887 2.90107L67.3887 2.9011C67.0413 3.56225 66.5746 4.44429 66.2322 5.09149C66.1404 5.26506 66.0575 5.42174 65.9882 5.55273L65.9882 5.55272L65.9861 5.55672C65.9478 5.6308 65.9101 5.70358 65.8735 5.77434C65.7577 5.9982 65.6523 6.20179 65.5701 6.36202C65.5162 6.46723 65.471 6.55617 65.439 6.62094C65.4232 6.65278 65.4089 6.68234 65.3978 6.70641C65.3926 6.71774 65.3856 6.7333 65.379 6.74966C65.376 6.75728 65.3703 6.77181 65.3646 6.78967C65.3617 6.79853 65.357 6.81385 65.3527 6.83308C65.3496 6.84655 65.3399 6.88968 65.3399 6.9457C65.3399 7.23374 65.5635 7.36347 65.5844 7.37555C65.5848 7.37582 65.5852 7.37602 65.5854 7.37618C65.6384 7.40748 65.6847 7.42137 65.6984 7.42543C65.7328 7.43561 65.761 7.4398 65.7683 7.44089L65.7687 7.44094C65.7889 7.44393 65.8059 7.44521 65.8117 7.44565C65.8271 7.4468 65.8435 7.44752 65.8567 7.44801C65.885 7.44908 65.9238 7.45003 65.9704 7.45092C66.0646 7.45272 66.2018 7.45447 66.3763 7.45614C66.7259 7.45949 67.2306 7.46261 67.8523 7.46529C69.096 7.47063 70.8107 7.4742 72.696 7.4742C74.9036 7.4742 76.6209 7.4813 77.7891 7.49372ZM64.1492 46.9971C64.274 46.7752 64.8748 45.7503 65.488 44.7092L75.2909 13.6972C74.4027 15.2602 72.7109 18.2031 71.0253 21.1262C70.7104 21.6699 70.4137 22.1855 70.2123 22.5354C70.0798 22.7658 69.9886 22.9243 69.9606 22.9718L69.9606 22.9718L69.9559 22.98C69.8928 23.0921 69.4456 23.88 68.9627 24.7181L68.9615 24.7202C68.5025 25.5257 68.2508 25.9656 68.0546 26.3086C67.7681 26.8094 67.5997 27.1038 67.0763 28.0281C66.6571 28.7671 66.1464 29.6609 65.9412 30.0147C65.2304 31.2337 64.8116 31.9537 64.5705 32.3743C64.4504 32.5838 64.3718 32.7235 64.3227 32.8149C64.2986 32.8597 64.2777 32.9001 64.2617 32.9347C64.2539 32.9514 64.2434 32.9752 64.2339 33.002L64.2333 33.0035C64.2323 33.0063 64.2306 33.0111 64.2285 33.0176C64.2177 33.0388 64.2014 33.0697 64.1791 33.111C64.1284 33.2049 64.0544 33.338 63.9634 33.4995C63.7817 33.8217 63.5368 34.2485 63.2854 34.6817C63.034 35.1149 62.777 35.5528 62.5714 35.8973C62.4685 36.0698 62.3792 36.2174 62.3104 36.3287C62.2759 36.3845 62.2474 36.4296 62.2255 36.4634C62.2068 36.4922 62.1972 36.5061 62.1944 36.5101C62.1941 36.5105 62.1939 36.5109 62.1937 36.5111L62.1897 36.5164C62.0766 36.6673 61.9162 36.9511 61.8262 37.1557L61.8247 37.159C61.6833 37.4868 61.634 37.5721 60.4439 39.6296L60.4433 39.6306C60.2212 40.0104 60.0198 40.3664 59.8731 40.6354C59.8 40.7694 59.7386 40.8851 59.6947 40.9726C59.6731 41.0156 59.6531 41.0571 59.6374 41.0928C59.6298 41.1101 59.6202 41.1329 59.6115 41.1575C59.6072 41.1697 59.601 41.1885 59.5953 41.211C59.5914 41.2267 59.5791 41.2762 59.5791 41.3397C59.5791 41.4157 59.5956 41.4777 59.6026 41.5028C59.6118 41.5362 59.6229 41.5671 59.6327 41.5924C59.6525 41.6434 59.6775 41.6983 59.7031 41.7511C59.7551 41.8581 59.8234 41.9845 59.8947 42.1084L59.8946 42.1085L59.9004 42.118C60.0379 42.3448 60.7656 43.6164 61.5217 44.9503L61.5233 44.9531C61.9046 45.6158 62.2597 46.2243 62.5244 46.6697C62.6565 46.8919 62.7673 47.0756 62.8481 47.2057C62.8881 47.2702 62.923 47.3252 62.9505 47.3663C62.9637 47.386 62.9791 47.4086 62.9947 47.4292C63.0019 47.4388 63.015 47.4558 63.0318 47.4743C63.04 47.4833 63.0552 47.4995 63.0757 47.5176L63.0762 47.5181C63.0891 47.5294 63.1412 47.5751 63.2216 47.6073L63.2642 47.6244L63.3093 47.6334C63.5036 47.6724 63.6498 47.5861 63.6772 47.5699L63.6789 47.5689C63.7288 47.5395 63.7669 47.5069 63.7894 47.4864C63.837 47.4429 63.8807 47.3926 63.9167 47.3474C63.9916 47.2535 64.0738 47.1311 64.1492 46.9971L64.1492 46.9971Z" stroke="#FBFBFB"/>
<path d="M100.451 53.4494C100.85 53.3462 101.235 53.338 101.631 53.4669C102.035 53.5984 102.405 53.8586 102.784 54.2073L102.786 54.2089L102.786 54.2089C102.916 54.3298 103.735 55.0947 104.989 56.2666C106.617 57.7875 108.978 59.9938 111.52 62.3674L111.52 62.3674L118.863 69.225L118.893 62.6238V62.6236C118.904 60.4896 118.917 58.5494 118.927 57.1416C118.933 56.4378 118.938 55.8668 118.942 55.4711C118.944 55.2734 118.945 55.1189 118.947 55.0133C118.948 54.9607 118.948 54.9191 118.949 54.8901C118.949 54.8759 118.95 54.8625 118.95 54.8516C118.95 54.8468 118.951 54.8383 118.951 54.829C118.951 54.8254 118.952 54.8142 118.954 54.8003C118.955 54.7947 118.957 54.7775 118.961 54.7561C118.964 54.7443 118.972 54.714 118.978 54.6956C118.983 54.6834 118.993 54.6622 119.008 54.6373L119.004 54.6353C119.023 54.5966 119.044 54.5675 119.048 54.5625L119.048 54.562C119.056 54.5518 119.063 54.5432 119.067 54.5375C119.076 54.526 119.086 54.5142 119.095 54.504C119.113 54.4829 119.136 54.4568 119.161 54.4284C119.212 54.371 119.279 54.2963 119.351 54.2176L119.352 54.2159C119.468 54.0894 119.599 53.9661 119.767 53.8646C119.938 53.7621 120.124 53.6962 120.338 53.6525C120.741 53.5701 121.31 53.5561 122.174 53.5561C122.635 53.5561 123.049 53.5651 123.378 53.5807C123.693 53.5956 123.969 53.6178 124.13 53.653L124.138 53.6548L124.138 53.6549C124.835 53.8193 125.32 54.3046 125.484 55.0009L125.486 55.006L125.486 55.006C125.504 55.09 125.513 55.2101 125.519 55.3257C125.526 55.4577 125.532 55.6363 125.538 55.8669C125.549 56.3286 125.558 57.012 125.564 57.974C125.578 59.8989 125.583 62.9499 125.583 67.5975C125.583 68.459 125.583 69.262 125.583 70.0108C125.584 75.1267 125.585 77.7067 125.535 79.0444C125.507 79.7887 125.463 80.2241 125.361 80.5043C125.25 80.806 125.03 80.9704 124.952 81.0284C124.941 81.037 124.932 81.0432 124.928 81.0473L124.927 81.0477C124.798 81.1646 124.662 81.2693 124.49 81.345C124.321 81.419 124.15 81.4514 123.97 81.4717C123.487 81.5352 122.964 81.4957 122.564 81.306L122.564 81.306C122.519 81.2845 122.486 81.2607 122.482 81.2575L122.482 81.2572C122.468 81.2476 122.456 81.2383 122.448 81.2315C122.43 81.2175 122.41 81.201 122.39 81.1842C122.35 81.1498 122.297 81.1025 122.232 81.0445C122.101 80.9277 121.916 80.7596 121.684 80.5467C121.219 80.1204 120.56 79.5098 119.755 78.7605C118.145 77.2617 115.95 75.2056 113.56 72.9542L105.7 65.55L105.669 72.1586L105.669 72.1587C105.655 75.1029 105.641 77.0523 105.622 78.2804C105.613 78.8937 105.602 79.3314 105.59 79.6245C105.584 79.7702 105.577 79.8868 105.569 79.9738C105.565 80.0167 105.56 80.0603 105.553 80.1002L105.552 80.103C105.549 80.1246 105.534 80.2145 105.485 80.3015C105.485 80.3021 105.484 80.3026 105.484 80.3031L105.048 80.0579C104.878 80.3637 104.472 80.641 104.088 80.7264L100.451 53.4494ZM100.451 53.4494H100.448L100.382 53.4684C99.7308 53.653 99.2736 54.1253 99.1021 54.7921C99.0838 54.8633 99.0775 54.9506 99.0742 54.9973L99.074 54.9991C99.0691 55.0678 99.0646 55.1561 99.0604 55.2601C99.052 55.4691 99.0443 55.756 99.0371 56.1078C99.0229 56.8121 99.0109 57.7867 99.0012 58.9403C98.9819 61.2478 98.9717 64.2775 98.9708 67.3067C98.9699 70.3359 98.9783 73.3659 98.9963 75.6744C99.0054 76.8284 99.0168 77.8035 99.0306 78.5085C99.0376 78.8607 99.0451 79.1479 99.0534 79.3573C99.0576 79.4616 99.062 79.5499 99.0669 79.6188L99.067 79.6201C99.0705 79.6685 99.0769 79.7589 99.096 79.8307L99.0967 79.8333C99.1701 80.1036 99.2611 80.3506 99.4186 80.5629C99.5828 80.7843 99.789 80.928 100.024 81.0456L100.024 81.0457L100.032 81.0496C100.235 81.1462 100.399 81.2052 100.716 81.2364C100.994 81.2638 101.415 81.2727 102.138 81.2832C102.654 81.2939 103.086 81.294 103.423 81.2839C103.746 81.2742 104.02 81.2546 104.198 81.2142L100.451 53.4494Z" stroke="#FBFBFB"/>
<path d="M8.69619 72.9647L8.69613 72.9646C8.1131 71.8093 6.09724 67.6011 4.22354 63.6547C3.28588 61.6798 2.38246 59.7676 1.70975 58.3314C1.37347 57.6135 1.0944 57.0136 0.897396 56.584C0.79902 56.3694 0.720338 56.1957 0.665006 56.0704C0.637491 56.008 0.614617 55.9551 0.597642 55.9141C0.589268 55.8938 0.581028 55.8733 0.573981 55.8544C0.573841 55.8541 0.573667 55.8536 0.573462 55.8531C0.569674 55.843 0.555224 55.8046 0.545839 55.7609C0.448292 55.3058 0.506059 54.8571 0.724369 54.4789C0.94275 54.1006 1.30102 53.8292 1.7388 53.6925C1.92856 53.633 2.17745 53.6048 2.50686 53.5877C2.84673 53.5701 3.31612 53.5631 3.97108 53.5631M8.69619 72.9647L6.61774 54.4684M8.69619 72.9647C8.9071 73.3824 9.19678 73.7205 9.576 73.9234C9.96122 74.1295 10.3915 74.1707 10.8293 74.0739L10.8293 74.0739L10.8333 74.073C11.0007 74.0346 11.1768 73.9759 11.3528 73.8547C11.5247 73.7363 11.6665 73.579 11.8015 73.3859C12.0597 73.0166 12.3596 72.4152 12.8224 71.4474L12.823 71.4462C13.2939 70.4552 13.5671 69.8681 13.7021 69.4758C13.7718 69.2731 13.8156 69.0927 13.8239 68.9145C13.8326 68.7295 13.8013 68.5787 13.7633 68.4444M8.69619 72.9647L13.2817 68.5788M3.97108 53.5631C3.97139 53.5631 3.97169 53.5631 3.972 53.5631V54.0631L3.97016 53.5631C3.97047 53.5631 3.97077 53.5631 3.97108 53.5631ZM3.97108 53.5631C4.92762 53.5595 5.54512 53.5707 5.96806 53.6355C6.18734 53.6691 6.37909 53.7203 6.55206 53.8049C6.73019 53.8921 6.86344 54.0024 6.97841 54.1221M6.97841 54.1221L6.61774 54.4684M6.97841 54.1221C6.97802 54.1217 6.97763 54.1213 6.97724 54.1209L6.61774 54.4684M6.97841 54.1221C7.01824 54.1636 7.04573 54.207 7.05262 54.2179C7.05294 54.2184 7.05322 54.2188 7.05345 54.2192C7.06587 54.2387 7.07803 54.2594 7.08898 54.2786C7.11124 54.3176 7.13796 54.3672 7.16781 54.4241C7.22798 54.5387 7.3084 54.6974 7.40535 54.8921C7.59962 55.2823 7.86509 55.8269 8.1773 56.4739C8.80197 57.7684 9.61649 59.4789 10.4285 61.1981C11.2405 62.9173 12.0506 64.6464 12.6663 65.9782C12.9741 66.6439 13.2339 67.2116 13.4213 67.6297C13.5149 67.8384 13.5913 68.0118 13.6468 68.1423C13.693 68.2505 13.7422 68.3685 13.7633 68.4444M6.61774 54.4684C6.82399 54.6818 13.1466 68.0667 13.2817 68.5788M13.7633 68.4444C13.7631 68.4438 13.763 68.4431 13.7628 68.4425L13.2817 68.5788M13.7633 68.4444C13.764 68.4467 13.7646 68.4489 13.7652 68.4512L13.2817 68.5788" stroke="#FBFBFB"/>
<path d="M29.858 55.7596C29.9545 55.3004 29.8984 54.8479 29.6729 54.4663C29.4472 54.0845 29.078 53.8183 28.63 53.6843L28.63 53.6843L28.6268 53.6834C28.4313 53.6264 28.0771 53.5979 27.7201 53.5801C27.3372 53.561 26.8748 53.5518 26.4158 53.5523C25.9569 53.5527 25.4956 53.5628 25.1148 53.5831C24.9247 53.5932 24.7503 53.6061 24.6042 53.6221C24.4704 53.6369 24.3254 53.6577 24.2126 53.6933C23.9632 53.7704 23.6608 53.9408 23.4863 54.1045L23.4753 54.1149L23.4649 54.1259C23.4059 54.1884 23.3548 54.2732 23.3264 54.3207C23.2878 54.3853 23.2418 54.4674 23.19 54.5635C23.0859 54.7563 22.9497 55.0209 22.7865 55.3468C22.4598 55.9995 22.0189 56.9099 21.4989 58.0105M29.858 55.7596L29.3687 55.6569L29.8582 55.7589C29.8581 55.7591 29.8581 55.7594 29.858 55.7596ZM29.858 55.7596C29.8435 55.8288 29.8089 55.9129 29.7905 55.9575L29.7887 55.9621C29.7615 56.0281 29.7244 56.1142 29.679 56.2172C29.5877 56.424 29.4581 56.7098 29.2961 57.0619C28.9719 57.7668 28.5148 58.7447 27.9692 59.9033C26.8778 62.2207 25.43 65.265 23.9771 68.3019C22.5242 71.3389 21.0658 74.3694 19.9531 76.6593C19.3968 77.804 18.9264 78.7647 18.5861 79.4489C18.4161 79.7907 18.2776 80.0654 18.1767 80.2602C18.1265 80.3572 18.0841 80.4373 18.051 80.4971C18.0346 80.5267 18.0185 80.555 18.0035 80.5795L18.0025 80.5813C17.9949 80.5939 17.9625 80.6476 17.9178 80.6946L17.916 80.6966C17.6621 80.9606 17.3803 81.1198 16.942 81.2038C16.545 81.2799 15.9986 81.2981 15.2015 81.2981C14.6986 81.2981 14.2894 81.2925 13.9562 81.2666C13.625 81.2408 13.3343 81.193 13.0814 81.0913C12.5208 80.866 12.2776 80.4281 12.0395 79.9231L12.0382 79.9205L12.0382 79.9205C11.9443 79.7181 11.8697 79.5411 11.8287 79.3642C11.784 79.1717 11.7845 79.0049 11.8022 78.828L11.8026 78.8241L11.8026 78.8241C11.8136 78.7229 11.852 78.6103 11.883 78.5249C11.9202 78.4225 11.9728 78.2911 12.0417 78.128C12.1798 77.8008 12.392 77.3253 12.6978 76.6585C13.31 75.3236 14.3051 73.2051 15.8519 69.9374L15.8519 69.9372C16.9445 67.6311 18.1264 65.1339 19.1504 62.9702C20.1723 60.8111 21.037 58.9841 21.4989 58.0105M21.4989 58.0105C21.4988 58.0106 21.4988 58.0107 21.4988 58.0108L21.9508 58.2243L21.4991 58.01C21.499 58.0102 21.499 58.0103 21.4989 58.0105Z" stroke="#FBFBFB"/>
<path d="M36.9638 53.6836L36.9723 53.6812C37.141 53.6338 37.3715 53.6069 37.6592 53.5897C37.9559 53.5719 38.3473 53.563 38.856 53.563M36.9638 53.6836L38.8571 54.063M36.9638 53.6836L36.9554 53.6863M36.9638 53.6836L36.9554 53.6863M38.856 53.563C38.8564 53.563 38.8568 53.563 38.8571 53.563V54.063M38.856 53.563C38.8557 53.563 38.8553 53.563 38.8549 53.563L38.8571 54.063M38.856 53.563C39.6637 53.5595 40.2093 53.572 40.6019 53.6441C41.0427 53.7251 41.317 53.8856 41.5715 54.1501L41.5784 54.1572L41.5783 54.1573C41.6217 54.2042 41.6533 54.258 41.6602 54.2698C41.6606 54.2705 41.661 54.271 41.6612 54.2714C41.6756 54.2955 41.6912 54.3236 41.7072 54.353C41.7396 54.4126 41.7813 54.4928 41.831 54.5901C41.9306 54.7856 42.0679 55.0616 42.2366 55.4053C42.5745 56.0934 43.0421 57.0601 43.5954 58.2121C44.7022 60.5163 46.1538 63.5659 47.5991 66.6197C49.0444 69.6735 50.484 72.7324 51.5668 75.0554C52.1081 76.2167 52.5608 77.1951 52.8806 77.8973C53.0403 78.2481 53.1678 78.5318 53.2568 78.7356C53.3011 78.8371 53.3371 78.9216 53.3632 78.9859C53.3761 79.0177 53.3881 79.0482 53.3978 79.075L53.3985 79.0771C53.4042 79.0927 53.4232 79.145 53.4325 79.2015L53.433 79.2044C53.5847 80.1655 52.9459 81.0065 52.0012 81.2144M38.8571 54.063C40.4929 54.0559 40.8485 54.1199 41.2113 54.4968C41.4744 54.7813 52.8679 78.8485 52.9391 79.2824C53.0457 79.958 52.6048 80.5697 51.8936 80.7261M52.0012 81.2144C52.0015 81.2144 52.0017 81.2143 52.002 81.2143L51.8936 80.7261M52.0012 81.2144C52.0012 81.2144 52.0011 81.2145 52.001 81.2145L51.8936 80.7261M52.0012 81.2144C51.8202 81.2545 51.5335 81.2741 51.1828 81.2837C50.8178 81.2938 50.3422 81.2937 49.7594 81.2829C48.9456 81.2724 48.4826 81.2654 48.1862 81.2393C48.0316 81.2257 47.9028 81.2056 47.7809 81.1709C47.6573 81.1357 47.5593 81.0906 47.4708 81.0473L47.4667 81.0454C47.3335 80.9787 47.2025 80.8884 47.0939 80.7989C46.9916 80.7145 46.8738 80.6018 46.7941 80.4787L46.787 80.4677L46.7872 80.4676C46.7605 80.424 46.707 80.3133 46.6516 80.1985C46.5871 80.0647 46.4972 79.8761 46.3851 79.6394C46.1606 79.1658 45.8456 78.4965 45.4632 77.6811C44.6984 76.0501 43.6634 73.8324 42.5431 71.4211C41.4231 69.0141 40.3993 66.8242 39.6528 65.2363C39.3421 64.5752 39.0796 64.0188 38.8783 63.5947C38.6749 64.0229 38.4089 64.5861 38.0934 65.2561C37.3398 66.8565 36.3053 69.0642 35.1711 71.4926L49.7671 80.783M51.8936 80.7261C51.6376 80.783 50.9263 80.8044 49.7671 80.783M49.7671 80.783C48.1171 80.7617 48.0104 80.7546 47.6904 80.5981C47.5054 80.5057 47.2921 80.3278 47.2138 80.2069L49.7671 80.783ZM36.9554 53.6863C36.7001 53.7679 36.3897 53.96 36.2064 54.1433L36.1984 54.1513M36.9554 53.6863L36.1984 54.1513M36.1984 54.1513L36.1907 54.1597M36.1984 54.1513L36.1907 54.1597M36.1907 54.1597C36.1406 54.2146 36.0997 54.2849 36.082 54.3152L36.0804 54.318C36.0531 54.3647 36.0205 54.424 35.9833 54.4939C35.9086 54.6343 35.8075 54.8319 35.6799 55.0866C35.4245 55.5969 35.0574 56.3475 34.5717 57.3536C33.6 59.3663 32.1503 62.4081 30.1623 66.6081C28.5869 69.9333 27.1464 72.9867 26.0953 75.2268C25.5698 76.3467 25.1413 77.264 24.8419 77.9104C24.6922 78.2334 24.5743 78.4898 24.4925 78.6705C24.4517 78.7605 24.4191 78.8334 24.3958 78.887C24.3843 78.9135 24.374 78.9376 24.3658 78.9577L24.3652 78.9591C24.3615 78.9681 24.3452 79.0073 24.3344 79.0485C24.081 80.0116 24.7235 81.0013 25.6875 81.2079L25.6914 81.2088M36.1907 54.1597L25.6914 81.2088M25.6914 81.2088C25.8618 81.2438 26.1828 81.2627 26.5241 81.2747C26.8845 81.2875 27.3209 81.2937 27.7552 81.2937C28.1896 81.2937 28.626 81.2875 28.9864 81.2747C29.3277 81.2627 29.6487 81.2438 29.819 81.2088L29.819 81.2088M25.6914 81.2088L29.819 81.2088M29.819 81.2088L29.8229 81.2079M29.819 81.2088L29.8229 81.2079M29.8229 81.2079C29.8375 81.2048 29.8548 81.2017 29.8743 81.1982M29.8229 81.2079L29.8743 81.1982M29.8743 81.1982C30.0102 81.1739 30.2568 81.1297 30.4946 80.9136M29.8743 81.1982L30.4946 80.9136M30.4946 80.9136C30.717 80.7115 30.9329 80.3674 31.2277 79.8106M30.4946 80.9136L31.2277 79.8106M31.2277 79.8106C31.7816 78.7645 32.7347 76.7198 34.6147 72.6862M31.2277 79.8106L34.6147 72.6862M34.6147 72.6862C34.7918 72.3063 34.9771 71.9087 35.171 71.4927L34.6147 72.6862Z" stroke="#FBFBFB"/>
<path d="M49.9101 53.6853L49.9101 53.6853L49.9063 53.6865C49.6831 53.7574 49.463 53.8545 49.2717 54.0133C49.0741 54.1773 48.9351 54.3838 48.8398 54.6316C48.6636 55.0896 48.626 55.7295 48.626 56.5953C48.626 57.306 48.6406 57.794 48.7085 58.1526C48.7847 58.5547 48.9306 58.811 49.1634 59.0538L49.1634 59.0538L49.1657 59.0561C49.1739 59.0645 49.1842 59.0765 49.1968 59.0912C49.272 59.1785 49.429 59.3611 49.714 59.4622C49.9868 59.559 50.3964 59.6015 51.0798 59.6286C52.3301 59.6782 54.7316 59.6778 59.4989 59.6772C60.0827 59.6771 60.7019 59.677 61.3588 59.677C62.0157 59.677 62.6349 59.6771 63.2186 59.6772C67.986 59.6778 70.3874 59.6782 71.6378 59.6286C72.3212 59.6015 72.7307 59.559 73.0035 59.4622C73.2885 59.3611 73.4456 59.1785 73.5207 59.0912C73.5333 59.0765 73.5437 59.0645 73.5519 59.0561L73.5541 59.0538C73.7869 58.811 73.9328 58.5547 74.009 58.1526C74.077 57.794 74.0916 57.306 74.0916 56.5953C74.0916 55.7219 74.0563 55.0764 73.8756 54.6166C73.7771 54.3661 73.6328 54.1597 73.4284 53.9975C73.232 53.8414 73.0058 53.747 72.7767 53.6774L72.7751 53.677C72.7005 53.6546 72.6097 53.6475 72.5676 53.6442L72.5634 53.6439C72.4995 53.6389 72.4181 53.6344 72.323 53.6302C72.1319 53.6218 71.8699 53.6142 71.5492 53.6073C70.9069 53.5934 70.0182 53.582 68.9665 53.573C66.8627 53.555 64.1003 53.5465 61.3391 53.5474C58.5778 53.5483 55.8163 53.5585 53.7142 53.5779C52.6635 53.5876 51.7759 53.5995 51.135 53.6138C50.8149 53.6209 50.5536 53.6287 50.3632 53.6372C50.2685 53.6414 50.1874 53.6459 50.1238 53.651C50.1223 53.6511 50.1207 53.6512 50.119 53.6514C50.0779 53.6546 49.9858 53.6619 49.9101 53.6853Z" stroke="#FBFBFB"/>
<path d="M85.5474 54.1342L85.6539 53.6457C85.4663 53.6048 85.1662 53.5833 84.854 53.5712C84.5279 53.5584 84.1458 53.5546 83.7702 53.5587C83.3948 53.5628 83.0206 53.5747 82.7107 53.5942C82.4256 53.6121 82.1308 53.6392 81.9593 53.6915L81.9603 53.6981L81.9583 53.6919C81.6929 53.7735 81.3808 53.9667 81.1969 54.1505L81.1968 54.1504L81.1888 54.1588C81.134 54.2163 81.09 54.2915 81.0727 54.3212L81.0704 54.3251C81.0424 54.373 81.0088 54.434 80.9704 54.5059C80.8934 54.6504 80.7891 54.8539 80.6579 55.1156C80.3951 55.6399 80.0187 56.4088 79.525 57.4299C78.5374 59.4729 77.0769 62.5324 75.1103 66.679L72.5821 80.7831L72.575 81.2831C72.5752 81.2831 72.5753 81.2831 72.5754 81.2831C73.5713 81.2972 74.2129 81.2919 74.6548 81.2272C74.884 81.1937 75.083 81.1413 75.2631 81.0548C75.4474 80.9662 75.587 80.8537 75.7094 80.7313C75.7648 80.676 75.806 80.6086 75.8218 80.5828L75.823 80.5808C75.8477 80.5405 75.8755 80.4916 75.9053 80.4369C75.9653 80.3269 76.0436 80.1754 76.1396 79.9844C76.3321 79.6012 76.6031 79.0438 76.9555 78.307C77.6607 76.8325 78.6964 74.6295 80.0904 71.6423C81.429 68.7739 82.6361 66.1886 83.4 64.5527C83.5747 64.1785 83.7262 63.8541 83.8508 63.5872C83.9183 63.7236 83.9957 63.8823 84.0845 64.0665C84.6612 65.2625 85.6905 67.4719 87.5405 71.4564L87.5406 71.4568C88.7287 74.0107 89.7819 76.2541 90.5525 77.8764C90.9378 78.6873 91.2529 79.3442 91.4793 79.8075C91.5923 80.0388 91.6841 80.2239 91.7519 80.3564C91.7856 80.4224 91.8148 80.4782 91.8385 80.5214L91.8409 80.5257C91.8549 80.5514 91.8922 80.6198 91.9357 80.6714L91.9356 80.6715L91.9414 80.6781C92.0524 80.8053 92.1826 80.9262 92.3594 81.023C92.5327 81.1179 92.7246 81.1752 92.9426 81.2128C93.3596 81.2847 93.9662 81.2974 94.8998 81.2974C95.3784 81.2974 95.8384 81.2884 96.2076 81.2739C96.5578 81.2601 96.8713 81.2401 97.0248 81.2094L97.0248 81.2095L97.0312 81.2081C98.0496 80.9906 98.6553 79.9666 98.359 78.9694L98.3591 78.9694L98.356 78.9596C98.3427 78.9179 98.3161 78.8576 98.2987 78.8179L98.2975 78.8153C98.2734 78.7605 98.2402 78.6865 98.1986 78.5949C98.1154 78.4115 97.9965 78.1528 97.8463 77.8279C97.5457 77.1779 97.118 76.2595 96.5947 75.1404C95.548 72.9021 94.1182 69.8594 92.5569 66.5518C90.2848 61.7374 88.8526 58.7163 87.9624 56.872C87.5177 55.9504 87.2064 55.3189 86.9927 54.9031C86.8861 54.6957 86.8012 54.5371 86.7346 54.4211C86.679 54.3242 86.609 54.2069 86.5328 54.1281L86.5328 54.1281L86.5268 54.1221C86.2667 53.8619 86.0099 53.7227 85.6531 53.6455L85.5474 54.1342ZM85.5474 54.1342C85.8106 54.1911 85.9813 54.2836 86.1733 54.4756L82.1052 54.1696V53.6698H82.1053L82.1778 54.1523C82.7532 54.0394 85.0188 54.019 85.5474 54.1342Z" stroke="#FBFBFB"/>
<path d="M64.6086 61.3567C64.4466 60.7631 63.9406 60.3354 63.3502 60.1624C63.1383 60.0996 62.8081 60.0661 62.4734 60.0463C62.1205 60.0253 61.7072 60.017 61.2988 60.0202C60.8905 60.0234 60.4805 60.0381 60.1345 60.0644C59.811 60.089 59.4841 60.1271 59.2796 60.1966C58.699 60.3907 58.2677 60.795 58.1106 61.3709C58.0978 61.4178 58.0931 61.4609 58.0916 61.4745C58.0915 61.475 58.0915 61.4755 58.0914 61.4759C58.0888 61.4996 58.0868 61.5252 58.0851 61.5502C58.0816 61.6009 58.0786 61.6658 58.0758 61.7415C58.0701 61.8938 58.0649 62.1041 58.0601 62.3621C58.0505 62.8791 58.0424 63.5975 58.0358 64.4494C58.0226 66.1536 58.0152 68.3972 58.0139 70.6421C58.0126 72.8871 58.0172 75.1347 58.028 76.8468C58.0334 77.7026 58.0403 78.4259 58.0488 78.9486C58.0531 79.2096 58.0578 79.4227 58.0629 79.578C58.0655 79.6553 58.0682 79.7212 58.0713 79.7728L58.0715 79.7761C58.0735 79.8104 58.0778 79.8823 58.0913 79.9415L58.0913 79.9415L58.0932 79.9494C58.2346 80.5264 58.7505 81.0006 59.3263 81.1704C59.5185 81.2272 59.8464 81.2561 60.1735 81.2741C60.5239 81.2935 60.9432 81.3029 61.3596 81.3029C61.7759 81.3029 62.1953 81.2935 62.5457 81.2741C62.873 81.2561 63.2011 81.2272 63.3932 81.1703M64.6086 61.3567L64.1262 61.4883L64.6077 61.3535C64.608 61.3546 64.6083 61.3556 64.6086 61.3567ZM64.6086 61.3567C64.6214 61.4036 64.6261 61.4476 64.6277 61.462L64.6278 61.4632C64.6304 61.4867 64.6324 61.5123 64.6341 61.5376C64.6376 61.5886 64.6406 61.6537 64.6434 61.7298C64.6491 61.8827 64.6543 62.0935 64.6591 62.3521C64.6687 62.87 64.6768 63.5891 64.6834 64.4414C64.6966 66.1465 64.704 68.39 64.7053 70.635C64.7066 72.88 64.702 75.1275 64.6912 76.8405C64.6858 77.6968 64.6789 78.4207 64.6704 78.9444C64.6661 79.2059 64.6615 79.4196 64.6563 79.5756C64.6538 79.6532 64.651 79.7194 64.6479 79.7713L64.6478 79.7737C64.6457 79.8089 64.6415 79.8797 64.6287 79.9379L64.6262 79.9495L64.626 79.9495C64.4845 80.5262 63.9691 81.0004 63.3932 81.1703M63.3932 81.1703L63.2514 80.6909L63.3928 81.1705C63.393 81.1704 63.3931 81.1704 63.3932 81.1703Z" stroke="#FBFBFB"/>
</svg>
