<svg width="285" height="82" viewBox="0 0 285 82" fill="none" xmlns="http://www.w3.org/2000/svg">
<mask id="path-1-outside-1_522_2836" maskUnits="userSpaceOnUse" x="0" y="0" width="285" height="82" fill="black">
<rect fill="white" width="285" height="82"/>
<path d="M39.7148 1.01797C37.5645 1.08305 35.2566 1.34783 33.1438 1.77041C32.5747 1.88422 31.6157 2.09551 31.4139 2.15108C31.3696 2.16505 31.2746 2.18823 31.2047 2.2022C31.1352 2.21854 31.0677 2.23934 31.0538 2.25093C31.0422 2.26044 31.0145 2.26965 30.989 2.26965C30.9655 2.26965 30.8704 2.29046 30.7798 2.31601C30.687 2.34157 30.4781 2.39952 30.3108 2.44617C30.1459 2.49253 29.951 2.54365 29.8814 2.56445C29.2056 2.74572 27.044 3.46755 26.9442 3.5466C26.9323 3.55581 26.8907 3.56978 26.8512 3.57929C26.691 3.61881 25.3558 4.16204 24.8776 4.38254C24.8265 4.40572 24.7011 4.46129 24.5989 4.50557C24.0185 4.75638 22.7365 5.38787 22.0331 5.77093C20.2337 6.74862 18.6804 7.74236 17.0876 8.93105C16.6255 9.27725 15.583 10.0969 15.4273 10.2362C15.4017 10.2594 15.23 10.4056 15.0442 10.561C14.6588 10.8885 14.1967 11.2995 13.7438 11.7173C13.4166 12.0216 12.1626 13.2686 11.863 13.5889C11.3825 14.0997 11.0318 14.4923 10.5769 15.0287C10.4119 15.2189 10.2562 15.4025 10.2286 15.4349C10.203 15.4673 10.1287 15.5556 10.0681 15.6323C10.0078 15.7089 9.93824 15.7924 9.91744 15.818C9.57837 16.2198 8.90973 17.0997 8.40335 17.8079C7.92966 18.472 7.75344 18.7344 7.20753 19.5796C7.0218 19.8675 6.69907 20.3968 6.53414 20.6824C6.43429 20.8545 6.32761 21.0331 6.29968 21.0794C6.26966 21.1237 6.24411 21.1677 6.24411 21.1772C6.24411 21.1864 6.19775 21.2699 6.14425 21.3629C5.90028 21.7668 5.415 22.6838 5.06671 23.3944C4.75557 24.0354 4.32378 24.9732 4.30298 25.0639C4.29377 25.101 4.2795 25.1337 4.27267 25.1406C4.25425 25.1545 4.09377 25.5191 3.96629 25.8371C3.38799 27.2882 3.21623 27.769 2.72619 29.32C2.28281 30.7179 1.74166 33.042 1.51878 34.4863C1.11255 37.1472 0.975553 38.9816 1.00349 41.4383C1.01716 42.6734 1.0335 43.0543 1.11493 44.1108C1.23796 45.7547 1.45846 47.3336 1.78832 48.9752C1.90184 49.5371 2.14581 50.6028 2.19217 50.7374C2.21089 50.7885 2.22694 50.8512 2.22694 50.8723C2.22694 50.9838 2.68904 52.5906 2.96066 53.4262C3.18829 54.1299 3.74103 55.6437 3.88724 55.962C3.90358 56.0012 3.99184 56.2128 4.08218 56.4309C4.63255 57.7706 5.35943 59.2567 6.1395 60.6314C6.6016 61.4463 7.11244 62.2962 7.15196 62.3101C7.16355 62.3146 7.17277 62.3286 7.17277 62.3425C7.17277 62.3565 7.21704 62.4379 7.27261 62.5211C7.32848 62.6049 7.42804 62.7604 7.49549 62.865C7.56503 62.9696 7.63011 63.0507 7.64408 63.0415C7.65805 63.0344 7.66042 63.0391 7.65091 63.0531C7.61614 63.1089 8.70974 64.6528 9.43662 65.5793C9.76648 65.9951 10.1727 66.4988 10.2262 66.5546C10.2378 66.5683 10.2865 66.6242 10.3305 66.6801C10.4119 66.7844 10.9483 67.4043 11.0969 67.5716C11.7121 68.261 11.9605 68.5213 12.7964 69.357C13.2146 69.7775 13.5673 70.1118 13.5813 70.1047C13.5929 70.0978 13.6044 70.1047 13.6044 70.1234C13.6044 70.1418 13.644 70.1908 13.6903 70.2324C13.7391 70.2743 13.8413 70.3671 13.918 70.439C14.4451 70.9338 15.2136 71.5956 15.915 72.1596C16.0424 72.2618 16.1818 72.3733 16.2261 72.4104C16.4302 72.573 17.0573 73.0514 17.301 73.2279C17.747 73.5483 17.7886 73.5807 18.0302 73.7524C18.3922 74.0125 19.2653 74.5908 19.7345 74.8832C20.3892 75.2921 20.4123 75.3057 20.5238 75.3664C20.582 75.3964 20.6331 75.4291 20.64 75.4359C20.6563 75.4567 21.557 75.9699 21.9752 76.1976C22.3535 76.4017 23.7561 77.1099 24.0765 77.254C24.1855 77.3051 24.3481 77.3794 24.4363 77.421C24.694 77.5396 24.9935 77.6718 25.3071 77.802C25.6274 77.9366 25.6877 77.9622 25.8411 78.0296C25.899 78.0528 26.0755 78.1247 26.236 78.1851C26.3959 78.2454 26.5587 78.3104 26.6003 78.3292C27.0648 78.5286 29.3079 79.295 29.5097 79.3205C29.5284 79.3229 29.5703 79.3366 29.6027 79.3509C29.6351 79.3645 29.6978 79.3832 29.742 79.3924C29.786 79.4017 29.8975 79.4344 29.9857 79.462C30.0764 79.4923 30.3735 79.5758 30.6475 79.648C30.9215 79.7199 31.2047 79.7942 31.2746 79.8126C31.3441 79.8314 31.4903 79.8661 31.5997 79.8917C31.7087 79.9149 31.9384 79.9684 32.1102 80.0079C33.4989 80.3306 35.3565 80.6394 36.7193 80.774C36.8611 80.7856 37.07 80.8088 37.1838 80.8204C37.3 80.8319 37.6016 80.8599 37.8572 80.8786C39.3175 80.99 40.6387 81.0224 41.9995 80.9853C42.5427 80.9689 43.1186 80.9481 43.2788 80.9366C43.439 80.925 43.7409 80.9042 43.9522 80.8902C45.4036 80.7972 47.2656 80.5443 48.9096 80.2144C50.6998 79.8569 52.7663 79.2878 54.3196 78.7262C54.9163 78.5102 55.6756 78.2246 55.7826 78.1735C55.8078 78.1619 55.9124 78.12 56.0147 78.0784C56.1169 78.0388 56.2444 77.9877 56.2979 77.9622C56.3514 77.939 56.4025 77.9179 56.4117 77.9179C56.4209 77.9179 56.4952 77.8879 56.5766 77.8484C56.6554 77.8112 56.7276 77.7788 56.732 77.7788C56.7528 77.7788 57.5308 77.4326 57.8235 77.2935C57.9858 77.2145 58.1252 77.1518 58.1299 77.1518C58.1579 77.1518 59.5462 76.446 59.992 76.2092C60.315 76.035 61.0556 75.6124 61.0903 75.5821C61.1091 75.5637 61.1323 75.5497 61.1391 75.5497C61.211 75.5497 62.7414 74.5884 63.5028 74.0659C63.7001 73.9313 63.8838 73.8036 63.9138 73.7851C64.4083 73.4484 65.8085 72.392 66.1753 72.0808C66.2195 72.0413 66.303 71.9715 66.361 71.9251C67.0415 71.3656 67.7101 70.7804 68.3791 70.1534C68.769 69.7867 70.0694 68.4723 70.4361 68.0732C70.9006 67.5668 71.6203 66.7404 71.7921 66.5175C71.8364 66.4593 71.8851 66.4037 71.8991 66.3897C72.0105 66.2899 72.9623 65.0522 73.4408 64.3883C73.9121 63.7312 73.9377 63.6938 74.2975 63.1553C74.6366 62.6445 74.8758 62.2751 75.0265 62.0243C75.0568 61.9735 75.173 61.7806 75.2865 61.5949C78.4885 56.3031 80.4276 50.2034 80.8802 43.9946C80.9661 42.8359 80.9756 42.5619 80.9756 41.0342C80.9756 39.4461 80.9616 39.0211 80.8686 37.8417C80.6386 34.8857 80.1025 32.0762 79.2246 29.2041C79.0086 28.4935 78.4885 26.9982 78.3471 26.6731C78.326 26.6288 78.2773 26.4965 78.2356 26.3827C78.1611 26.1714 77.7177 25.1082 77.5994 24.8502C77.5623 24.7735 77.4692 24.5646 77.3881 24.386C77.1789 23.9192 76.6612 22.8627 76.3988 22.3706C76.025 21.6693 75.5073 20.7519 75.447 20.68C75.4283 20.6616 75.4143 20.636 75.4143 20.6268C75.4143 20.571 74.3671 18.9178 74.3183 18.8994C74.3091 18.8946 74.2999 18.8806 74.2999 18.8691C74.2999 18.8343 74.0886 18.5231 74.0654 18.5231C74.0536 18.5231 74.0443 18.5092 74.0443 18.4928C74.0443 18.4162 72.9323 16.8932 72.3029 16.1083C72.1543 15.9226 72.0126 15.7461 71.9894 15.7158C71.9639 15.6834 71.9151 15.6299 71.8803 15.5927C71.848 15.558 71.8153 15.5184 71.8108 15.5069C71.8037 15.4884 71.4182 15.0308 71.135 14.7057C70.7891 14.311 70.4848 13.9839 70.4664 13.9883C70.4548 13.9931 70.4477 13.9859 70.4524 13.972C70.4688 13.9024 68.5461 11.9753 67.7868 11.3019C67.7101 11.2347 67.5592 11.0998 67.4525 11.0023C67.3458 10.9049 67.2365 10.8098 67.2088 10.791C67.1809 10.7723 67.1437 10.7399 67.125 10.7191C67.095 10.6864 66.4983 10.1851 66.0894 9.85079C65.6507 9.49062 64.701 8.77087 64.6662 8.77087C64.6522 8.77087 64.6407 8.76166 64.6407 8.75245C64.6407 8.73135 63.8977 8.19733 63.4888 7.92126C63.3729 7.84221 63.2475 7.75871 63.2104 7.73077C63.15 7.68887 62.7275 7.41488 62.4116 7.21072C62.1839 7.06422 61.9703 6.93673 61.9403 6.9296C61.9263 6.92722 61.8984 6.9088 61.8776 6.88799C61.8588 6.86689 61.7126 6.77418 61.5524 6.68116C61.3923 6.58607 61.1902 6.46779 61.0996 6.4143C60.7792 6.22382 60.0036 5.79886 59.978 5.79886C59.962 5.79886 59.9504 5.78965 59.9504 5.78044C59.9504 5.76885 59.8945 5.73616 59.8294 5.70614C59.7623 5.67583 59.6904 5.63869 59.6716 5.62234C59.5766 5.54597 57.8396 4.70289 57.2337 4.43811C57.0735 4.36858 56.9225 4.30141 56.897 4.28982C56.6625 4.18284 56.3558 4.05268 56.212 3.99949C56.1169 3.96442 55.9728 3.9041 55.8916 3.86695C55.8126 3.83218 55.743 3.80217 55.7359 3.80217C55.7315 3.80217 55.5829 3.7463 55.4063 3.67676C54.445 3.30054 52.4855 2.64112 52.3297 2.64112C52.2994 2.64112 52.2647 2.63191 52.2507 2.61794C52.1904 2.55761 50.2424 2.05837 49.339 1.87263C49.1533 1.83549 48.9304 1.78883 48.84 1.77041C47.9854 1.58676 46.3926 1.34307 45.2686 1.22688C44.6907 1.16655 44.4701 1.14575 43.836 1.09702C42.6821 1.00876 41.0357 0.976365 39.7148 1.01797ZM42.118 4.95133C42.5079 4.95846 42.8586 4.96767 42.8957 4.97243C42.9353 4.97689 43.0954 4.98848 43.2556 4.99798C43.943 5.03275 45.3406 5.17658 46.1233 5.2904C46.9569 5.41105 48.1132 5.62026 48.8909 5.79203C48.9583 5.80807 49.3833 6.14715 50.0124 6.69038C50.147 6.80657 50.2724 6.91563 50.2911 6.93198C50.3096 6.94832 50.3583 6.98992 50.3954 7.02707C50.435 7.06214 50.6278 7.23628 50.8252 7.4125C51.243 7.78634 52.6109 9.14947 53.0311 9.60681C53.1865 9.77858 53.3259 9.91795 53.3351 9.91558C53.3467 9.91112 53.3538 9.91795 53.349 9.92954C53.3467 9.93876 53.4976 10.1245 53.6833 10.3405C54.0108 10.7215 54.3871 11.1673 54.5752 11.4062C54.626 11.4692 54.6726 11.5271 54.6795 11.534C54.7585 11.6106 55.5989 12.7274 55.9332 13.199C56.3537 13.7886 57.0666 14.8777 57.3032 15.284C57.3264 15.3211 57.403 15.4489 57.4729 15.5672C58.5828 17.4016 59.6669 19.691 60.4193 21.7855C61.896 25.9022 62.616 30.2278 62.5394 34.5442C62.5298 35.0878 62.5183 35.5939 62.5138 35.6705C62.509 35.7472 62.4951 35.998 62.4811 36.2277C62.2933 39.3415 61.7034 42.4205 60.7305 45.353C60.2731 46.7277 59.869 47.7538 59.2467 49.1146C59.0238 49.6046 58.4387 50.7725 58.2322 51.1463C58.1647 51.267 58.0069 51.5502 57.8815 51.7778C57.7537 52.0031 57.6518 52.198 57.6518 52.212C57.6518 52.2259 57.6423 52.2375 57.6331 52.2375C57.6215 52.2375 57.5635 52.3234 57.5029 52.428C57.4426 52.5347 57.3383 52.7088 57.2708 52.8179C57.2036 52.9273 57.0943 53.1035 57.0295 53.2128C56.9644 53.3219 56.9017 53.4194 56.8901 53.4333C56.8806 53.4449 56.7903 53.5819 56.6904 53.7353C56.2051 54.4758 55.297 55.7507 55.0509 56.0387C55.0393 56.0547 54.9466 56.1709 54.8492 56.2963C54.4869 56.7605 54.0248 57.318 53.6833 57.7058C53.1449 58.3185 52.9565 58.5206 52.2299 59.2638C51.8213 59.6817 51.489 60.0323 51.4938 60.0439C51.4962 60.0555 51.4914 60.06 51.4798 60.0531C51.4682 60.0463 51.3452 60.1482 51.2058 60.2808C49.966 61.4531 48.5102 62.6373 47.0636 63.643C46.6989 63.8959 46.2648 64.1886 46.0882 64.3C46.0443 64.3277 45.9025 64.4183 45.775 64.5018C45.6472 64.5832 45.5055 64.6715 45.4615 64.6994C45.4172 64.725 45.2455 64.8293 45.0782 64.9315C44.0544 65.5585 42.559 66.3454 41.4143 66.8634C40.3252 67.3555 38.4795 68.0892 38.4376 68.0453C38.4328 68.0405 38.5095 67.8524 38.607 67.6295C38.7068 67.4066 38.8393 67.1003 38.8997 66.9469C38.96 66.7936 39.0298 66.6266 39.053 66.5754C39.2387 66.176 39.7401 64.8061 40.0467 63.8682C41.795 58.5206 42.3825 52.7784 41.7674 47.106C41.4307 43.997 40.683 40.7626 39.6358 37.8996C39.5846 37.7579 39.508 37.5445 39.464 37.4235C39.3222 37.0313 38.9532 36.1234 38.7187 35.5894C38.5538 35.2132 38.533 35.1713 38.519 35.1713C38.5119 35.1713 38.505 35.1529 38.5026 35.1297C38.4887 34.9576 37.1003 32.1993 37.0281 32.1993C37.0141 32.1993 37.0073 32.1924 37.0165 32.1853C37.0328 32.169 36.8887 31.8742 36.8424 31.8254C36.8263 31.8067 36.7984 31.7627 36.782 31.7256C36.7288 31.6025 35.974 30.3416 35.9437 30.3185C35.9345 30.3116 35.9208 30.2905 35.9137 30.2697C35.8765 30.1723 35.4029 29.4804 35.3122 29.3922C35.0986 29.1854 34.8341 29.0695 34.5321 29.0484C34.1096 29.018 33.9749 29.0787 33.2017 29.6451C33.139 29.6891 32.9441 29.8332 32.7675 29.9634C32.5886 30.0908 32.4005 30.2489 32.3473 30.3093C32.2311 30.4439 32.101 30.7039 32.0662 30.8712C32.0059 31.1684 32.0454 31.4121 32.2196 31.793C32.8834 33.2581 33.032 35.1297 32.6094 36.7386C32.4193 37.4699 32.194 38.0134 31.7898 38.7168L31.6133 39.0259L31.4951 38.9584C31.43 38.9213 31.3046 38.8702 31.2187 38.8422C31.0656 38.7959 31.0166 38.7935 29.6862 38.7935C28.1676 38.7935 28.1932 38.7911 27.9124 38.9445C27.6407 39.093 27.441 39.3299 27.3201 39.6458L27.269 39.7804L27.2621 45.9057L27.2574 52.0307L27.2042 52.0146C27.1763 52.0054 27.1483 51.9915 27.1415 51.982C27.1344 51.9728 27.0324 51.9056 26.9139 51.8334C26.5237 51.5968 26.2521 51.4203 25.8782 51.1603C25.6761 51.0185 25.4556 50.8652 25.3909 50.8212C25.3258 50.7769 25.2444 50.7142 25.2096 50.6842C25.1748 50.6539 25.0539 50.5588 24.9424 50.4729L24.7383 50.3196L24.7314 42.0627L24.7267 33.8037L25.7644 33.7969L26.8048 33.7873L26.9697 33.727C27.3596 33.5856 27.6244 33.3208 27.7754 32.9261C27.8265 32.7912 27.8265 32.7776 27.8333 31.1544C27.8381 30.0005 27.8309 29.4709 27.8125 29.3595C27.7543 29.0065 27.4666 28.6234 27.1415 28.4656C26.8699 28.3334 26.77 28.3218 25.6972 28.3218H24.7267V23.715V19.1059L24.8961 18.9713C25.5231 18.4604 26.5284 17.7799 27.2342 17.3853C27.3436 17.3249 27.5525 17.2067 27.6987 17.1253C28.2651 16.8073 29.222 16.3612 29.9278 16.0875C30.0995 16.0201 30.2876 15.9458 30.3456 15.9226C30.6523 15.7948 31.978 15.3907 32.3658 15.3051C32.4472 15.2887 32.5467 15.2632 32.5863 15.2516C32.6234 15.2376 32.8603 15.1865 33.1087 15.1354C34.1535 14.9193 35.1916 14.7847 36.1853 14.736C36.782 14.706 38.2518 14.7196 38.7395 14.7615C40.3463 14.8962 41.7906 15.1725 43.1861 15.6135C43.9614 15.8575 44.5768 16.0875 45.3221 16.41C45.6264 16.5425 46.5994 17.0302 46.9358 17.2183C47.391 17.4735 47.3887 17.4712 47.802 17.7312C50.0148 19.113 51.9375 20.91 53.4676 23.0324C54.552 24.5346 55.448 26.2413 56.0518 27.95C56.1401 28.1985 56.2563 28.5236 56.3071 28.6701C56.3582 28.8163 56.4696 29.0763 56.5534 29.2481C56.7415 29.6287 56.9086 29.8148 57.1873 29.9515C57.4126 30.0632 57.5656 30.0932 57.8117 30.0816C58.0348 30.0677 58.1463 30.0353 58.4527 29.8891C59.9875 29.1577 59.9944 29.1553 60.1638 28.9393C60.3474 28.7072 60.4425 28.4448 60.4449 28.1613C60.4473 27.8829 60.3962 27.7132 60.2125 27.4044C60.1593 27.3141 60.0479 27.0493 59.962 26.8124C59.2143 24.7343 58.3947 23.0856 57.25 21.3674C57.0016 20.9959 56.8366 20.7546 56.76 20.6571C56.732 20.6221 56.6904 20.5665 56.6649 20.5293C56.5766 20.4039 56.2491 19.9742 56.1098 19.7977C56.031 19.7002 55.938 19.5796 55.8985 19.5309C55.0905 18.5068 53.6926 17.0929 52.6129 16.2034C52.5178 16.1247 52.3924 16.0201 52.3342 15.9713C52.065 15.7461 51.1663 15.0867 51.1455 15.1006C51.1315 15.1098 51.1271 15.1051 51.1339 15.0938C51.1571 15.0563 50.0751 14.339 49.3857 13.9327C48.8142 13.596 47.969 13.1524 47.4234 12.8995C47.296 12.8412 47.1239 12.7601 47.0404 12.723C46.7735 12.5999 46.1789 12.3559 45.8446 12.2305C45.666 12.1634 45.4871 12.0935 45.4475 12.0775C45.3337 12.0288 44.5189 11.7548 44.312 11.6965C44.2098 11.6689 44.1055 11.6362 44.08 11.6246C43.9245 11.5574 42.4313 11.1881 41.9902 11.1069C41.888 11.0882 41.6328 11.0419 41.4212 11.0047C38.3517 10.4499 35.1057 10.5218 31.9943 11.2092C31.8736 11.2368 31.7063 11.2739 31.6228 11.2903C31.5393 11.3087 31.4463 11.3343 31.4139 11.3462C31.3812 11.3577 31.3138 11.3738 31.263 11.3833C31.2118 11.3925 31.128 11.4133 31.0772 11.4297C31.0261 11.4457 30.8799 11.4876 30.7521 11.5203C30.1483 11.6849 29.2264 11.9892 28.6042 12.2305C28.3673 12.3212 28.1468 12.4071 28.1121 12.421C28.0749 12.4326 28.047 12.4534 28.047 12.4653C28.047 12.4769 28.0262 12.4861 28.0006 12.4861C27.9611 12.4861 27.7311 12.5812 27.211 12.8136C27.1159 12.8552 26.7445 13.0385 26.3867 13.2174C25.2351 13.8002 24.3689 14.3226 23.2105 15.1378C23.0899 15.226 22.9757 15.3095 22.9573 15.3259C22.941 15.3419 22.9015 15.3699 22.8691 15.3907C22.7832 15.4465 22.0192 16.0456 21.9077 16.1431C21.894 16.1571 21.7847 16.2477 21.6664 16.3476L21.4527 16.5285L21.1092 16.338C20.6376 16.0759 19.788 15.6439 19.2468 15.3886C18.9984 15.27 18.7057 15.133 18.5966 15.0822C17.7283 14.6709 17.4495 14.5874 17.1292 14.6409C17.0433 14.6572 16.9527 14.678 16.9295 14.6896C16.9087 14.7036 16.8623 14.7176 16.8296 14.7244C16.7577 14.7407 16.5536 14.8754 16.4418 14.9797C16.3491 15.0659 16.2213 15.2516 16.1678 15.3791C16.0704 15.6067 16.0659 15.6694 16.0659 16.6516C16.0659 17.6988 16.0728 17.7567 16.2121 18.0239C16.298 18.1817 16.5045 18.4162 16.6115 18.472C16.7135 18.5276 17.229 18.7784 17.2383 18.7784C17.2522 18.7784 18.3506 19.3124 18.3877 19.3359C18.4064 19.3475 18.5642 19.431 18.736 19.5216C19.0519 19.6842 19.2097 19.7701 19.6254 20.0022L19.8504 20.1299V35.9537C19.8504 50.2872 19.8528 51.7918 19.8875 51.9196C19.9898 52.3142 20.243 52.595 20.6632 52.7784C20.7862 52.8319 20.9975 52.8646 21.2275 52.8646H21.434L21.7012 53.0874C22.393 53.6678 23.0735 54.1858 23.7445 54.6408C24.0069 54.8197 24.0788 54.866 24.3481 55.0309C24.4479 55.0936 24.6129 55.1956 24.7151 55.2607C24.91 55.3861 24.9659 55.4187 25.5858 55.767C25.9873 55.9944 26.8743 56.4425 27.211 56.589C27.3201 56.6377 27.4663 56.7025 27.5361 56.7352C27.7171 56.8187 28.2351 57.0348 28.4532 57.1183C29.3822 57.4713 29.3634 57.4642 29.6143 57.4781C30.0044 57.4989 30.3156 57.3807 30.578 57.1135C30.838 56.849 30.926 56.5958 30.926 56.1106C30.926 55.7926 30.926 55.7902 30.9795 55.7902C31.1792 55.7902 31.509 55.6416 31.7016 55.4651C31.8736 55.3046 31.9756 55.1468 32.0522 54.924L32.1102 54.7474V49.3538V43.9598L32.3586 43.7625C32.8718 43.3539 33.4686 42.778 33.8519 42.323C33.9215 42.2416 34.0026 42.1465 34.0329 42.1138C34.1467 41.9908 34.5853 41.394 34.7714 41.1108C35.1452 40.5421 35.5259 39.8247 35.7675 39.2395C35.8162 39.121 35.8578 39.0283 35.8626 39.0327C35.8905 39.0607 36.3083 40.2936 36.508 40.9299C36.659 41.4172 36.8703 42.1813 37.0305 42.8338C37.9663 46.637 38.2726 50.5285 37.9499 54.513C37.7666 56.7724 37.3276 59.1919 36.7054 61.3628C36.5615 61.8689 36.2248 62.9532 36.1853 63.0462C36.169 63.0834 36.1018 63.2667 36.0391 63.4525C35.3981 65.3217 34.4555 67.3858 33.3666 69.3085C33.2828 69.4568 33.2712 69.4616 32.9461 69.5151C32.7836 69.5406 32.7604 69.5406 32.6094 69.4919C32.2196 69.3641 31.4811 69.0993 31.0074 68.916C30.5058 68.721 29.6027 68.3516 29.4053 68.2565C29.3542 68.2334 29.2449 68.1823 29.1614 68.1451C29.0779 68.108 28.9085 68.0289 28.7807 67.971C28.6553 67.9127 28.5367 67.8619 28.5135 67.8595C28.4927 67.8548 28.4719 67.8456 28.4648 67.8387C28.458 67.8316 28.1444 67.669 27.7682 67.4789C27.0996 67.1374 26.2824 66.7032 26.1198 66.5986C25.9457 66.4872 25.3023 66.1226 25.2815 66.1226C25.2699 66.1226 25.2607 66.1133 25.2607 66.1041C25.2607 66.0949 25.2259 66.067 25.1864 66.0438C25.0123 65.9416 24.1344 65.3796 23.8328 65.1755C23.308 64.8177 23.1615 64.7134 22.4533 64.193C21.4456 63.4549 20.1779 62.3913 19.1306 61.4023C18.9844 61.2629 18.8546 61.1399 18.8406 61.1283C18.7987 61.0932 18.1277 60.4246 18.0998 60.3922C18.0858 60.3735 17.9443 60.2228 17.7862 60.0555C15.3251 57.4434 13.356 54.6431 11.7587 51.483C11.466 50.9047 11.3638 50.6911 11.1014 50.1246C11.0618 50.0411 10.9228 49.7181 10.7882 49.4049C8.43604 43.8855 7.50263 37.9136 8.05507 31.8857C8.21079 30.1886 8.49874 28.4608 8.91657 26.7078C9.18818 25.5679 9.7014 23.896 10.1427 22.7097C10.233 22.4633 10.3073 22.2476 10.3073 22.2289C10.3073 22.2104 10.3145 22.1917 10.3261 22.187C10.3353 22.1825 10.3932 22.05 10.4583 21.8898C10.521 21.7296 10.6116 21.5418 10.658 21.472C10.9807 20.9799 11.4033 20.3528 11.422 20.3341C11.4289 20.3273 11.5658 20.1392 11.7239 19.9163C11.8841 19.6934 12.1254 19.3659 12.2624 19.1873C12.3994 19.0108 12.5064 18.8551 12.4969 18.8411C12.4901 18.8295 12.4924 18.8251 12.504 18.8319C12.5156 18.8387 12.6086 18.7392 12.7106 18.6114C13.1055 18.1122 13.7438 17.3529 14.0342 17.037C14.0969 16.9675 14.2015 16.8513 14.2639 16.7817C14.3242 16.7119 14.4567 16.5681 14.5542 16.4614C14.6517 16.3568 14.7283 16.2593 14.7236 16.2477C14.7215 16.2337 14.726 16.2266 14.7355 16.229C14.7471 16.2314 15.0882 15.8994 15.4992 15.4929C16.1147 14.8801 16.4837 14.5223 16.6787 14.3553C16.6926 14.3413 16.7625 14.2786 16.832 14.2159C16.9016 14.1509 17.027 14.0418 17.1108 13.9699C17.1943 13.898 17.3568 13.7562 17.4706 13.6564C17.821 13.35 18.4412 12.8391 18.7824 12.5744C18.8266 12.542 18.9844 12.421 19.1306 12.3072C19.3675 12.1239 19.6323 11.9289 20.1128 11.5827C20.4798 11.3182 21.4432 10.6728 21.7544 10.4823C21.8126 10.4451 21.9285 10.3732 22.0147 10.3197C22.1793 10.2175 22.7924 9.84366 22.8619 9.80414C22.8854 9.79047 22.9853 9.7346 23.0851 9.6814C23.1826 9.62554 23.2637 9.56967 23.2637 9.556C23.2637 9.54173 23.2708 9.53728 23.28 9.54441C23.2916 9.55808 23.6283 9.38869 23.6583 9.35392C23.6655 9.34441 23.7258 9.3144 23.7933 9.28409C23.8583 9.25169 23.9139 9.21901 23.9139 9.20742C23.9139 9.1982 23.9279 9.18899 23.9442 9.18899C23.9626 9.18899 24.0949 9.12391 24.2414 9.04486C24.7522 8.76879 26.598 7.88857 26.663 7.88857C26.6699 7.88857 26.7629 7.84934 26.8675 7.80031C27.2018 7.64251 28.6808 7.07135 29.0339 6.95991C29.085 6.94357 29.1593 6.91801 29.1961 6.90196C29.2357 6.88562 29.5004 6.79498 29.7884 6.70226C30.0764 6.61162 30.3248 6.52574 30.3411 6.51178C30.3572 6.50019 30.3759 6.49543 30.3827 6.50256C30.3899 6.5094 30.4246 6.50494 30.457 6.49305C30.6148 6.43273 32.0662 6.03125 32.2959 5.98251C32.3542 5.97092 32.5051 5.93586 32.6326 5.90346C33.1574 5.77568 33.7984 5.63869 34.3859 5.53438C34.5717 5.49931 34.8317 5.45295 34.9663 5.4274C35.4329 5.34152 36.7633 5.165 37.4159 5.10229C38.6349 4.98402 40.272 4.9121 41.1659 4.9329C41.3005 4.93736 41.7279 4.94449 42.118 4.95133ZM57.8999 9.12391C57.9882 9.16581 58.0625 9.20534 58.0696 9.21217C58.0928 9.23773 58.8568 9.65317 58.88 9.65317C58.8916 9.65317 58.9055 9.66268 58.91 9.6719C58.9148 9.68348 59.0934 9.79492 59.3094 9.92271C59.5254 10.0481 59.7344 10.1735 59.7763 10.1991C59.8179 10.2246 59.9014 10.2754 59.9644 10.3129C60.0268 10.3521 60.1825 10.4499 60.3103 10.5334C60.4381 10.6145 60.6167 10.7283 60.7049 10.7863C61.3459 11.1997 62.0285 11.6805 62.7946 12.2632C63.3078 12.6534 63.3729 12.7042 63.6306 12.9155C63.7072 12.9782 63.8326 13.0828 63.9093 13.1432C64.074 13.2733 64.0719 13.2733 64.2808 13.4519C64.3783 13.5357 64.4989 13.6748 64.5824 13.7978C64.7681 14.0697 65.2745 14.8382 65.3628 14.982C65.4023 15.0448 65.4626 15.1446 65.4998 15.2028C65.5369 15.2608 65.588 15.3443 65.6112 15.3886C65.6368 15.4326 65.7482 15.6207 65.8596 15.804C66.5631 16.9698 67.4804 18.7716 68.0005 20.009C68.2721 20.6524 68.5624 21.3906 68.7202 21.8319C68.8153 22.099 68.9175 22.3867 68.9479 22.4705C69.0011 22.6167 69.2542 23.4083 69.3981 23.8752C69.8302 25.2823 70.2619 27.2326 70.5012 28.8558C70.659 29.9214 70.7449 30.7363 70.8331 32.0135C70.8914 32.8611 70.8914 35.4919 70.8331 36.3671C70.5847 40.0404 69.9324 43.1866 68.7226 46.5488C68.5669 46.9782 68.1119 48.13 68.04 48.2786C68.0213 48.3158 67.9565 48.462 67.8982 48.6037C67.8403 48.7431 67.7428 48.9636 67.6822 49.0914C67.6219 49.2192 67.5428 49.3909 67.5057 49.4744C67.4293 49.6486 66.6932 51.116 66.6653 51.1555C66.6537 51.1695 66.5886 51.2857 66.5215 51.4132C66.2148 51.9938 65.5461 53.1246 65.1539 53.7237C65.1072 53.7956 65.0609 53.8699 65.0469 53.8883C65.0353 53.9094 64.9331 54.0601 64.8216 54.225C63.9069 55.5858 62.8365 56.9697 61.8101 58.1212C60.7328 59.331 59.4743 60.5687 58.3249 61.5485C58.1275 61.7179 57.935 61.8828 57.8955 61.9176C57.7793 62.0174 56.9086 62.7116 56.7276 62.8465C56.6369 62.9161 56.5603 62.9835 56.5603 62.9927C56.5603 63.002 56.5487 63.0112 56.5347 63.0112C56.5207 63.0112 56.3722 63.1134 56.2028 63.2388C55.8797 63.4804 55.3644 63.8471 55.0741 64.04C54.979 64.1048 54.7957 64.2281 54.6679 64.3116C54.4566 64.4531 54.0827 64.6902 53.6114 64.985C53.3166 65.1683 52.8103 65.4655 52.4991 65.6373C51.9211 65.9556 51.4427 66.2132 51.3428 66.2596C51.2754 66.2923 51.2198 66.3246 51.2198 66.3362C51.2198 66.3454 51.2058 66.3549 51.1874 66.3549C51.1687 66.3549 50.9366 66.464 50.6694 66.5963C50.405 66.7288 50.0659 66.8913 49.9197 66.9585C48.9352 67.4043 47.8832 67.8408 47.9575 67.7757C47.9714 67.7641 48.243 67.5832 48.5613 67.3719C49.0837 67.026 49.4344 66.7844 49.6989 66.5918C49.75 66.5546 49.8917 66.4524 50.0124 66.3642C50.4094 66.0738 50.9945 65.6304 51.2754 65.4052C51.4266 65.2822 51.5773 65.1615 51.6124 65.136C51.928 64.8991 53.1681 63.8263 53.716 63.3131C54.7793 62.3194 55.9612 61.0888 56.8274 60.0739C56.9781 59.8953 57.157 59.6864 57.2221 59.6098C57.9139 58.7994 59.0773 57.2413 59.7783 56.1849C60.1501 55.6253 60.7768 54.6315 60.8164 54.5362C60.8256 54.5177 60.8746 54.4342 60.9278 54.3504C60.9813 54.2669 61.0556 54.1415 61.0927 54.072C61.1322 54.0021 61.1715 53.9326 61.181 53.921C61.1902 53.907 61.2345 53.8304 61.2808 53.7469C61.3248 53.6631 61.4618 53.417 61.5848 53.2013C61.8612 52.7181 62.7087 51.0185 62.978 50.4102C63.222 49.8622 63.5399 49.1006 63.7352 48.6037C63.8139 48.3996 63.8882 48.2112 63.8977 48.1859C63.9093 48.1603 63.9557 48.0349 64.002 47.9071C65.9663 42.5806 66.7675 36.9638 66.3821 31.259C66.3357 30.5809 66.2498 29.6614 66.1824 29.1458C66.1637 28.9928 66.1429 28.8255 66.136 28.7744C66.0986 28.4796 66.0406 28.0918 65.9408 27.4739C65.4834 24.688 64.7102 21.8969 63.6817 19.3124C63.0897 17.8242 62.3186 16.1687 61.7198 15.0982C61.7055 15.0727 61.636 14.9425 61.5617 14.8079C61.2808 14.2902 60.7652 13.4056 60.4868 12.9619C60.4122 12.846 60.3171 12.695 60.2752 12.6255C60.2312 12.5556 60.1872 12.4929 60.1777 12.4909C60.1661 12.4861 60.1593 12.4721 60.1593 12.4606C60.1593 12.4187 59.3837 11.2716 58.9543 10.6796C58.8313 10.5102 58.6847 10.3058 58.6268 10.2246C58.5177 10.0737 58.2111 9.67427 57.8999 9.27933C57.8001 9.15185 57.7258 9.04962 57.7329 9.04962C57.7374 9.04962 57.814 9.08439 57.8999 9.12391ZM74.1837 26.8356C74.1837 26.8472 74.2093 26.9123 74.2396 26.9795C74.2696 27.0469 74.4042 27.3788 74.5388 27.7179C75.8161 30.9431 76.6217 34.3469 76.9213 37.795C77.0282 39.0048 77.049 39.5204 77.049 40.9646C77.0514 42.3346 77.0419 42.6246 76.956 43.7857C76.9028 44.5054 76.8074 45.4017 76.7147 46.0495C76.6868 46.2284 76.6612 46.4118 76.6544 46.4561C76.4128 48.1488 75.8788 50.3986 75.2865 52.2143C75.0265 53.006 74.9382 53.2521 74.6366 54.0369C74.4229 54.5873 74.4253 54.5825 74.2256 54.8892C74.1258 55.0422 74.0443 55.1748 74.0443 55.1887C74.0443 55.2003 74.0351 55.2095 74.0259 55.2095C74.0167 55.2095 73.9888 55.2399 73.968 55.2794C73.9053 55.3813 73.4152 56.0874 73.1644 56.4333C72.4239 57.4502 71.713 58.3257 70.7404 59.4216C70.0646 60.1833 68.7853 61.4463 67.8216 62.303C67.6243 62.4795 67.4641 62.6329 67.4688 62.6445C67.4709 62.6561 67.4665 62.6608 67.4549 62.6537C67.4433 62.6465 67.3387 62.7211 67.2249 62.8207C66.9648 63.0439 66.4727 63.443 66.2427 63.6195C66.1476 63.6938 65.9758 63.8263 65.8596 63.917C64.9702 64.6088 63.2939 65.7443 62.3836 66.2691C62.3209 66.3062 62.2722 66.3434 62.2722 66.357C62.2722 66.371 62.263 66.3757 62.2538 66.3686C62.2422 66.3618 62.1608 66.3989 62.0725 66.4524C61.896 66.5567 61.8264 66.5942 61.4363 66.8147C60.986 67.0676 59.9317 67.6087 59.4512 67.834C58.8289 68.1288 58.6963 68.187 58.3923 68.3169C58.2203 68.3888 58.0301 68.4723 57.965 68.5026C57.6446 68.6467 55.9915 69.2803 55.9356 69.2803C55.9216 69.2803 55.9101 69.2898 55.9101 69.3038C55.9101 69.3154 55.8916 69.327 55.8705 69.327C55.8126 69.327 54.8096 69.6565 54.8001 69.6797C54.7957 69.6892 54.7677 69.6984 54.7398 69.6984C54.7122 69.6984 54.6007 69.7264 54.4914 69.7588C54.2501 69.833 53.5719 70.0259 53.3211 70.0931C52.9149 70.2021 51.9256 70.4437 51.7538 70.4761C51.6751 70.4904 51.6771 70.488 51.7886 70.4253C51.8537 70.3902 51.9838 70.3255 52.0789 70.2812C52.4364 70.1186 53.3282 69.6637 53.9018 69.3501C53.9784 69.3082 54.1083 69.2363 54.1918 69.1923C54.2756 69.1481 54.3823 69.0854 54.4287 69.0553C54.4774 69.0274 54.5193 69.0019 54.5261 69.0019C54.5401 69.0019 55.3389 68.5329 55.3529 68.5166C55.36 68.5097 55.4108 68.4771 55.4691 68.4467C55.527 68.4167 55.6269 68.3585 55.6896 68.3169C55.7546 68.2774 55.9264 68.1683 56.0726 68.0777C56.9062 67.56 58.1183 66.7264 58.88 66.1457C59.0378 66.0251 59.1935 65.9044 59.2283 65.8789C59.6996 65.5235 60.8372 64.5856 61.3667 64.1119C62.1492 63.4153 63.5263 62.0686 64.1206 61.4207C64.7149 60.7705 64.8264 60.6451 65.0445 60.3875C65.1699 60.2412 65.2977 60.0879 65.3325 60.0508C65.3672 60.0112 65.5206 59.8303 65.6763 59.6445C65.9271 59.3402 66.0593 59.1753 66.44 58.6924C66.5051 58.6089 66.714 58.3325 66.9045 58.0772C67.0926 57.8217 67.276 57.5756 67.3087 57.5316C67.341 57.4874 67.3806 57.4339 67.3922 57.4107C67.4061 57.3899 67.5104 57.2389 67.6266 57.074C67.8287 56.7932 68.3069 56.085 68.3324 56.0339C68.3395 56.0223 68.4067 55.9153 68.481 55.8018C68.7621 55.3721 69.0545 54.8984 69.273 54.5246C69.5909 53.979 70.0599 53.1406 70.1692 52.9249C70.234 52.7947 70.297 52.6785 70.3062 52.6669C70.385 52.5674 71.2233 50.8236 71.2025 50.8049C71.1954 50.798 71.2046 50.7793 71.2209 50.7653C71.2908 50.7098 71.9546 49.1285 72.3145 48.1624C74.0886 43.3955 74.9314 38.3709 74.8108 33.2929C74.7596 31.1289 74.5739 29.2296 74.2093 27.1676C74.1745 26.9586 74.1537 26.7961 74.1629 26.8029C74.1745 26.8101 74.1837 26.824 74.1837 26.8356ZM5.27592 45.4109C5.46611 46.1446 5.72406 47.0317 5.75882 47.0712C5.77041 47.0828 5.77963 47.1131 5.77963 47.1363C5.77963 47.1618 5.86551 47.4382 5.96773 47.7538C6.46461 49.2563 7.0429 50.719 7.70678 52.1445C7.87647 52.5091 8.53351 53.8327 8.5659 53.8743C8.57512 53.8859 8.63574 53.9977 8.69844 54.1183C8.79116 54.2972 9.24643 55.1144 9.33201 55.2559C9.3439 55.2746 9.46217 55.4743 9.59441 55.6972C9.88475 56.1849 10.1076 56.5495 10.2726 56.8C10.6975 57.4526 10.9436 57.8148 10.9691 57.8241C10.9831 57.8312 10.9971 57.8472 10.9971 57.8636C10.9971 57.8891 11.1269 58.0817 11.3849 58.4371C11.4452 58.5206 11.5171 58.6252 11.5474 58.6716C11.6217 58.7806 12.2045 59.5539 12.5109 59.9462C12.8336 60.3595 13.1007 60.6846 13.5117 61.1631C13.6975 61.3791 13.8784 61.5925 13.918 61.6391C13.9551 61.6855 14.2107 61.9687 14.4867 62.2682C16.0216 63.9425 17.6377 65.4352 19.4394 66.8379C19.681 67.026 19.9642 67.2417 20.0688 67.3184C20.1758 67.3951 20.3939 67.5552 20.5565 67.6714C20.7166 67.7897 20.8584 67.8875 20.8697 67.8875C20.8816 67.8875 20.8955 67.8967 20.9 67.9083C20.914 67.9499 21.9148 68.6304 21.9612 68.6304C21.9752 68.6304 21.9868 68.6396 21.9868 68.6488C21.9868 68.6699 22.0611 68.721 22.637 69.0833C23.993 69.9421 25.7995 70.929 27.0253 71.4841C27.1715 71.5513 27.3296 71.6256 27.3736 71.6488C27.4176 71.6719 27.606 71.7557 27.7917 71.8324C27.9774 71.9112 28.1468 71.9855 28.1676 71.997C28.1887 72.0086 28.3349 72.0713 28.4927 72.1364C28.6505 72.2015 28.7991 72.2642 28.8247 72.2758C28.8505 72.2874 29.0547 72.3709 29.2776 72.4591C30.4873 72.9376 32.1661 73.4995 33.2712 73.7967C33.4433 73.8407 33.6267 73.8918 33.6778 73.9034C33.7286 73.9174 33.7937 73.9382 33.824 73.9498C33.854 73.9613 33.9027 73.9709 33.9354 73.9709C33.9654 73.9709 34.0097 73.9801 34.0329 73.994C34.0956 74.0288 35.1776 74.282 35.8486 74.4211C37.8943 74.8416 39.7728 75.0784 42.0946 75.2059C42.7795 75.243 45.1432 75.243 45.8562 75.2059C47.6115 75.1108 49.0558 74.9554 50.651 74.6882C51.4543 74.556 52.569 74.3307 53.1238 74.1914C53.2584 74.1566 53.4141 74.1194 53.4721 74.1078C53.5303 74.0963 53.6138 74.0775 53.6578 74.0659C53.7021 74.0544 53.9018 74.0033 54.1039 73.9498C54.3033 73.8989 54.5425 73.8339 54.6379 73.8059C54.7306 73.7804 54.8607 73.7432 54.9234 73.7269C55.5989 73.5527 57.4497 72.9376 58.2645 72.6149C58.3807 72.5682 58.4758 72.5358 58.4806 72.5406C58.499 72.5566 57.7329 72.9632 56.9665 73.3438C56.3258 73.6621 55.1555 74.2029 55.1092 74.2029C55.1044 74.2029 54.9279 74.2749 54.7214 74.3631C53.9249 74.6998 52.5294 75.2038 51.6495 75.4707C50.8739 75.7075 49.4412 76.093 49.0721 76.1649C48.9839 76.1836 48.7375 76.2347 48.5262 76.2811C48.0481 76.3857 47.8041 76.4344 47.2121 76.5343C46.5807 76.6433 45.3429 76.8267 45.2059 76.8314C45.1875 76.8314 45.0458 76.8454 44.8924 76.8638C43.4877 77.0195 41.672 77.0938 40.1095 77.0567C37.7015 77.0008 35.0709 76.6736 32.9393 76.1673C32.7999 76.1349 32.6677 76.1069 32.6421 76.1069C32.6166 76.1069 32.5794 76.0977 32.5562 76.0861C32.5352 76.0745 32.3658 76.0282 32.18 75.9815C31.6505 75.8537 30.9539 75.6612 30.427 75.4962C30.2876 75.4546 30.0576 75.3848 29.9162 75.3408C29.7768 75.2989 29.6398 75.257 29.6143 75.2454C29.5887 75.2338 29.3331 75.1435 29.0455 75.0413C28.5973 74.8832 28.3418 74.7905 27.745 74.5628C27.6871 74.542 27.6104 74.5093 27.5709 74.4933C27.5338 74.4769 27.3876 74.4142 27.2458 74.3587C26.0152 73.857 24.1415 72.942 23.1478 72.3548C22.4649 71.9531 22.2444 71.8208 22.0471 71.6999C21.9193 71.6211 21.8079 71.5629 21.7986 71.5676C21.7894 71.5745 21.7778 71.5653 21.7707 71.5468C21.7639 71.5305 21.6037 71.4191 21.4132 71.2984C21.2251 71.1798 21.0602 71.0731 21.0462 71.0615C21.0346 71.052 20.8884 70.9498 20.7214 70.8363C20.034 70.3671 19.3746 69.8889 18.9681 69.5662C18.9497 69.5498 18.8287 69.4568 18.7012 69.3573C18.2136 68.9787 17.5729 68.4423 17.0178 67.9478C16.2864 67.2976 15.1693 66.2064 14.6145 65.5981C13.7507 64.6575 13.5117 64.3791 12.7828 63.478C11.7005 62.1384 10.5162 60.3898 9.6063 58.7854C9.20215 58.0725 8.66575 57.044 8.36145 56.3938C7.98999 55.595 7.76711 55.0818 7.46073 54.3133C6.39953 51.6456 5.62183 48.6944 5.26641 45.9916C5.24085 45.7803 5.20846 45.5874 5.19925 45.5619C5.18766 45.5366 5.17369 45.4157 5.16656 45.295C5.15973 45.1744 5.14576 45.0326 5.13893 44.9815C5.10624 44.7866 5.15259 44.9304 5.27592 45.4112V45.4109ZM263.897 12.8507C262.202 12.9016 260.444 13.15 258.951 13.5473C258.483 13.6727 257.795 13.8837 257.651 13.9488C257.625 13.9604 257.547 13.9859 257.477 14.0091C257.333 14.0534 256.887 14.2228 256.732 14.2926C256.676 14.3182 256.509 14.3877 256.363 14.4504C255.601 14.7708 254.695 15.2676 253.88 15.8112C253.439 16.1036 252.891 16.5077 252.861 16.5633C252.849 16.582 252.833 16.5981 252.821 16.5936C252.794 16.5868 252.127 17.1484 251.8 17.4572C251.196 18.0263 250.588 18.6833 250.128 19.2545C250.026 19.3823 249.938 19.4913 249.931 19.4982C249.835 19.5864 249.104 20.6292 248.842 21.0494C248.41 21.7412 247.994 22.4844 248.017 22.5216C248.025 22.5308 248.017 22.54 248.003 22.54C247.939 22.54 247.119 24.3465 246.901 24.9664C246.877 25.0291 246.847 25.1126 246.831 25.1521C246.792 25.2404 246.573 25.879 246.452 26.2552C245.686 28.6305 245.215 31.2055 244.973 34.3237C244.822 36.2836 244.808 39.0583 244.939 41.162C245.159 44.6983 245.765 47.8189 246.757 50.5309C247.235 51.8381 247.667 52.7552 248.549 54.3388C249.281 55.6508 250.402 57.2226 251.328 58.235C252.51 59.5307 253.697 60.4805 255.078 61.2421C255.501 61.4766 256.511 61.9431 256.595 61.9431C256.609 61.9431 256.643 61.9571 256.671 61.9755C256.855 62.0965 258.218 62.533 258.991 62.7211C259.358 62.8094 259.342 62.807 259.938 62.9277C261.464 63.2344 262.962 63.3782 264.889 63.399C266.233 63.4153 267.357 63.369 268.077 63.2667C268.167 63.2552 268.385 63.2272 268.564 63.2085C268.903 63.1693 269.584 63.0578 269.865 62.9972C270.601 62.835 270.784 62.7907 271.153 62.684C271.88 62.4772 272.746 62.1544 273.255 61.9015C273.382 61.8365 273.524 61.769 273.568 61.7482C273.823 61.632 274.645 61.1654 274.715 61.0932C274.734 61.0748 274.757 61.0608 274.766 61.0608C274.785 61.0608 275.279 60.7357 275.402 60.643C275.447 60.608 275.581 60.5081 275.699 60.4222C275.816 60.3363 275.913 60.2576 275.913 60.2481C275.913 60.2365 275.927 60.2249 275.946 60.2204C275.995 60.2086 276.584 59.7117 276.9 59.4145C278.43 57.9726 279.731 56.1685 280.754 54.0601C281.04 53.4729 281.509 52.4001 281.509 52.335C281.509 52.3234 281.528 52.2747 281.553 52.2236C281.611 52.1029 281.871 51.3852 282.018 50.949C282.326 50.0156 282.619 48.9636 282.854 47.9419C282.96 47.4754 283.134 46.651 283.134 46.6067C283.134 46.5907 283.09 46.5627 283.037 46.5443C282.851 46.4792 282.333 46.2888 282.264 46.2584C282.227 46.24 281.73 46.0543 281.161 45.8406C280.592 45.6269 279.977 45.3949 279.791 45.325C279.605 45.2555 279.35 45.158 279.222 45.1093C278.581 44.8701 277.936 44.6264 277.643 44.517C277.26 44.3708 272.918 42.7408 272.66 42.6457L272.481 42.5806L272.442 42.8059C272.358 43.2748 272.214 43.9551 272.091 44.4591C271.32 47.6052 270.134 49.8251 268.646 50.9023C268.576 50.9535 268.509 51.0046 268.495 51.0138C268.334 51.1508 267.566 51.541 267.229 51.6572C267.109 51.6964 266.988 51.7407 266.962 51.7499C266.797 51.815 266.242 51.9404 265.882 51.9915C265.246 52.0842 264.41 52.1029 263.802 52.0402C262.845 51.9404 261.928 51.6476 261.206 51.209C261.129 51.1624 261.06 51.13 261.048 51.1368C261.039 51.1439 261.03 51.1392 261.03 51.1276C261.03 51.1136 260.911 51.0209 260.77 50.9211C260.18 50.5029 259.613 49.9178 259.135 49.226C259.047 49.1006 258.968 48.996 258.958 48.9915C258.949 48.9868 258.94 48.9728 258.94 48.9588C258.94 48.9452 258.903 48.8753 258.859 48.8034C258.62 48.4088 258.215 47.4682 258.048 46.9134C257.502 45.1161 257.228 43.2609 257.082 40.3608C257.041 39.5599 257.026 37.1983 257.057 36.3787C257.138 34.1591 257.345 32.4617 257.712 30.9734C258.102 29.3966 258.612 28.2356 259.416 27.1096C260.027 26.2529 260.804 25.5076 261.54 25.0731C261.636 25.0175 261.74 24.9548 261.773 24.934C262 24.7923 262.787 24.4719 263.142 24.3789C263.809 24.2027 264.213 24.1539 265.012 24.1539C265.859 24.1539 266.235 24.2027 266.893 24.4021C268.476 24.8805 269.858 26.0532 270.865 27.7759C271.227 28.3889 271.636 29.5057 271.954 30.741C272.003 30.9315 272.029 30.9919 272.056 30.9919C272.077 30.9919 272.221 30.9571 272.372 30.9128C272.525 30.8712 272.85 30.7806 273.092 30.7155C273.554 30.5877 274.274 30.388 274.903 30.2139C275.108 30.1583 275.333 30.0956 275.402 30.0769C275.953 29.9283 276.234 29.8495 276.266 29.8308C276.289 29.8168 276.322 29.8076 276.34 29.8076C276.359 29.8076 276.507 29.7705 276.67 29.7241C276.835 29.6798 277.116 29.6035 277.295 29.5524C278.328 29.2689 278.579 29.1993 278.641 29.1785C278.681 29.1669 278.89 29.1111 279.106 29.0531C279.324 28.9949 279.547 28.9325 279.605 28.9137C279.723 28.879 279.932 28.8207 280.325 28.714C280.471 28.6745 280.659 28.6234 280.743 28.6002C280.901 28.5539 281.613 28.3586 282.298 28.1708C282.521 28.1105 282.716 28.0499 282.733 28.0383C282.761 28.0151 282.74 27.9245 282.514 27.1491C282.287 26.3619 281.994 25.4796 281.697 24.688C281.607 24.444 281.523 24.2259 281.511 24.2003C281.497 24.1747 281.409 23.9611 281.312 23.7242C280.738 22.3403 280.007 20.9519 279.275 19.8628C278.858 19.2358 278.53 18.7948 278.502 18.8203C278.491 18.8295 278.488 18.8251 278.498 18.8111C278.532 18.7484 277.643 17.7243 277.035 17.1276C276.37 16.4798 275.758 15.9805 275.031 15.5C274.483 15.1354 273.71 14.6965 273.675 14.7315C273.668 14.7407 273.661 14.7336 273.661 14.7176C273.661 14.6944 273.566 14.6433 273.092 14.4249C272.86 14.3182 272.249 14.0697 271.931 13.9535C271.639 13.8489 270.93 13.6261 270.782 13.5937C270.749 13.5868 270.652 13.5589 270.561 13.531C270.392 13.4822 269.869 13.3568 269.69 13.3221C269.632 13.3128 269.451 13.2757 269.284 13.243C268.685 13.1224 267.796 12.9969 267.218 12.9503C267.053 12.9387 266.795 12.9179 266.649 12.9039C265.971 12.8484 264.775 12.8228 263.897 12.8507ZM88.9977 38.1085V62.547H95.0695H101.141L101.146 44.1176L101.153 25.6862L107.835 25.6793L114.516 25.6746V44.0736C114.516 54.1926 114.523 62.4888 114.529 62.5096C114.544 62.5446 115.099 62.547 120.602 62.547H126.659V38.1457C126.659 24.7248 126.652 13.7283 126.645 13.7075C126.631 13.6727 124.95 13.6703 107.815 13.6703H88.9977V38.1085ZM134.768 13.698C134.747 13.7191 134.74 19.1638 134.74 38.1364V62.547H151.342H167.943V57.0208C167.943 53.9813 167.941 51.4922 167.939 51.4898C167.934 51.4851 163.209 51.4783 157.437 51.4711L146.944 51.4598L146.946 51.3948C146.949 51.3597 146.949 49.1957 146.951 46.5835L146.953 41.8353H156.41H165.865V36.8616V31.8857L157.564 31.881C153 31.8765 148.743 31.8718 148.109 31.8694L146.953 31.8626V27.9848V24.1073L157.139 24.0957L167.328 24.0841L167.335 18.8783L167.34 13.6703H151.068C138.429 13.6703 134.789 13.6772 134.768 13.698ZM174.533 13.6864C174.494 13.6959 174.491 14.8798 174.491 38.1225V62.547H180.563H186.635V44.1108V25.6746H196.155H205.675V19.6723V13.6703L190.125 13.6727C181.571 13.6748 174.554 13.6795 174.533 13.6864ZM215.408 13.698C215.397 13.7143 215.343 13.8745 215.29 14.0534C215.174 14.4364 214.97 15.1098 214.707 15.9805C214.603 16.3244 214.482 16.7211 214.44 16.8628C214.287 17.3737 214.003 18.3071 213.477 20.0441C213.284 20.6824 213.063 21.414 212.987 21.6693C212.907 21.9249 212.773 22.3682 212.687 22.6562C212.555 23.0856 212.069 24.69 211.839 25.4541C211.809 25.5563 211.726 25.8279 211.656 26.0579C211.375 26.9842 210.983 28.2846 210.883 28.6234C210.825 28.8207 210.769 29.0044 210.76 29.0299C210.737 29.0831 210.718 29.1482 210.53 29.7845C210.451 30.0469 210.372 30.3069 210.353 30.3648C210.335 30.4231 210.267 30.6412 210.205 30.8525C210.142 31.0638 210.017 31.4748 209.929 31.7699C209.838 32.0623 209.754 32.3502 209.741 32.4082C209.724 32.4661 209.703 32.5336 209.692 32.5591C209.68 32.5847 209.606 32.8192 209.529 33.0816C209.45 33.344 209.213 34.1264 209.004 34.823C208.793 35.5196 208.596 36.1766 208.563 36.286C208.531 36.395 208.494 36.5088 208.484 36.5412C208.473 36.5736 208.347 36.9846 208.203 37.4583C207.932 38.3593 207.695 39.1486 207.358 40.2562C207.249 40.6208 207.045 41.2942 206.905 41.7563C206.766 42.216 206.615 42.7176 206.566 42.8707C206.52 43.0217 206.469 43.1937 206.453 43.2517C206.436 43.3096 206.348 43.6023 206.255 43.9019C206.165 44.2014 206.067 44.5194 206.044 44.61C206.018 44.6983 205.967 44.8653 205.93 44.9815C205.893 45.0953 205.763 45.52 205.642 45.9217C205.399 46.7321 205.089 47.7538 204.686 49.089C204.537 49.5767 204.312 50.3172 204.186 50.7398C204.059 51.16 203.903 51.6708 203.84 51.8777C203.778 52.0821 203.627 52.5834 203.504 52.9921C202.991 54.6895 202.884 55.0422 202.7 55.6392C202.596 55.9828 202.491 56.3334 202.468 56.417C202.445 56.5005 202.364 56.7652 202.289 57.0092C202.215 57.2505 202.083 57.6894 201.994 57.9842C201.909 58.2769 201.83 58.5391 201.818 58.5646C201.809 58.5905 201.79 58.6484 201.776 58.6924C201.765 58.7367 201.679 59.0199 201.588 59.3194C201.498 59.619 201.412 59.9022 201.398 59.9462C201.386 59.9904 201.335 60.1574 201.286 60.3179C201.238 60.4781 201.191 60.6451 201.182 60.6894C201.172 60.7334 201.156 60.7845 201.145 60.8056C201.115 60.8611 200.636 62.4587 200.636 62.5051C200.636 62.5446 200.875 62.547 206.833 62.547C212.218 62.547 213.033 62.5422 213.042 62.5143C213.056 62.4795 213.165 62.0198 213.581 60.26C214.02 58.3976 214.127 57.9447 214.335 57.0672C214.751 55.3141 214.939 54.5153 214.939 54.5038C214.939 54.4966 218.06 54.4898 221.877 54.4898H228.813L228.901 54.8565C228.984 55.2072 229.797 58.6041 229.941 59.2032C229.978 59.3634 230.058 59.6909 230.115 59.9346C230.173 60.1762 230.278 60.6103 230.348 60.8983C230.417 61.1862 230.533 61.6715 230.608 61.9779L230.742 62.5354L237.084 62.5422C242.898 62.547 243.425 62.5446 243.439 62.5096C243.446 62.4888 243.348 62.1313 243.223 61.7131C243.095 61.2977 242.807 60.3455 242.582 59.5979C242.357 58.8505 242.164 58.2187 242.152 58.1931C242.141 58.1676 242.12 58.1004 242.104 58.0422C242.09 57.9842 242.006 57.6963 241.916 57.4039C241.827 57.1088 241.702 56.6978 241.639 56.4865C241.576 56.2752 241.509 56.0571 241.491 55.9991C241.472 55.9409 241.37 55.6113 241.268 55.2675C241.163 54.9216 241.024 54.4571 240.957 54.2342C240.889 54.0113 240.697 53.3775 240.532 52.8295C240.364 52.2791 240.107 51.4295 239.958 50.9371C239.807 50.445 239.673 49.9969 239.656 49.9389C239.64 49.8807 239.549 49.5882 239.459 49.2887C239.366 48.9891 239.278 48.6964 239.262 48.6385C239.245 48.5805 239.194 48.4088 239.145 48.2554C239.099 48.1021 238.925 47.5262 238.76 46.9782C238.595 46.4281 238.451 45.9636 238.44 45.9449C238.428 45.9241 238.412 45.873 238.402 45.829C238.393 45.7848 238.347 45.6177 238.298 45.4576C238.249 45.2971 238.198 45.1301 238.186 45.0858C238.172 45.0418 238.087 44.7586 237.996 44.4591C237.906 44.1595 237.82 43.8763 237.808 43.832C237.794 43.7881 237.775 43.7298 237.766 43.7043C237.755 43.679 237.685 43.4537 237.613 43.2053C237.541 42.9569 237.413 42.5387 237.334 42.2763C237.253 42.0139 237.16 41.7123 237.13 41.603C237.098 41.4939 236.986 41.1224 236.881 40.7789C236.777 40.4327 236.605 39.8639 236.498 39.5132C235.96 37.7371 235.588 36.5065 235.296 35.5427C235.212 35.2687 235.026 34.6557 234.885 34.1844C234.743 33.7107 234.585 33.1883 234.534 33.0236C234.483 32.8563 234.341 32.3966 234.223 32.0019C234.104 31.6049 233.97 31.1612 233.926 31.015C233.596 29.933 233.461 29.4917 232.876 27.5554C232.6 26.6428 232.345 25.7952 232.307 25.6746C232.154 25.1801 231.906 24.3557 231.878 24.2583C231.862 24.2 231.741 23.8033 231.611 23.376C231.481 22.9486 231.318 22.4146 231.251 22.1917C230.835 20.8102 230.455 19.5564 230.364 19.2661C230.308 19.0803 230.234 18.8411 230.204 18.7321C230.171 18.623 230.088 18.3466 230.018 18.1166C229.848 17.5686 229.456 16.2637 229.417 16.1315C229.4 16.0736 229.349 15.9015 229.3 15.7482C229.198 15.4141 228.878 14.3506 228.759 13.9559L228.674 13.6703H222.054C216.785 13.6703 215.427 13.6772 215.408 13.698H215.408ZM222.095 27.098C222.279 27.8433 222.732 29.673 223.391 32.327C223.596 33.1559 223.874 34.275 224.007 34.8114C224.139 35.3478 224.452 36.6108 224.703 37.6209C224.954 38.6286 225.256 39.8523 225.376 40.3376C225.497 40.8229 225.741 41.8142 225.92 42.5411C226.101 43.2656 226.247 43.8692 226.247 43.8808C226.247 43.8927 224.466 43.9019 221.917 43.9019C219.534 43.9019 217.586 43.8971 217.586 43.8903C217.586 43.8739 217.749 43.2053 218.027 42.079C218.158 41.5542 218.329 40.8553 218.41 40.5233C218.754 39.1254 219.044 37.9436 219.316 36.8432C219.476 36.1977 219.815 34.8182 220.071 33.7781C220.326 32.7377 220.656 31.4005 220.802 30.8061C221.236 29.0415 221.731 27.0329 221.815 26.6894C221.856 26.5153 221.898 26.3711 221.905 26.3711C221.912 26.3711 221.998 26.6986 222.095 27.098Z"/>
</mask>
<path d="M39.7148 1.01797C37.5645 1.08305 35.2566 1.34783 33.1438 1.77041C32.5747 1.88422 31.6157 2.09551 31.4139 2.15108C31.3696 2.16505 31.2746 2.18823 31.2047 2.2022C31.1352 2.21854 31.0677 2.23934 31.0538 2.25093C31.0422 2.26044 31.0145 2.26965 30.989 2.26965C30.9655 2.26965 30.8704 2.29046 30.7798 2.31601C30.687 2.34157 30.4781 2.39952 30.3108 2.44617C30.1459 2.49253 29.951 2.54365 29.8814 2.56445C29.2056 2.74572 27.044 3.46755 26.9442 3.5466C26.9323 3.55581 26.8907 3.56978 26.8512 3.57929C26.691 3.61881 25.3558 4.16204 24.8776 4.38254C24.8265 4.40572 24.7011 4.46129 24.5989 4.50557C24.0185 4.75638 22.7365 5.38787 22.0331 5.77093C20.2337 6.74862 18.6804 7.74236 17.0876 8.93105C16.6255 9.27725 15.583 10.0969 15.4273 10.2362C15.4017 10.2594 15.23 10.4056 15.0442 10.561C14.6588 10.8885 14.1967 11.2995 13.7438 11.7173C13.4166 12.0216 12.1626 13.2686 11.863 13.5889C11.3825 14.0997 11.0318 14.4923 10.5769 15.0287C10.4119 15.2189 10.2562 15.4025 10.2286 15.4349C10.203 15.4673 10.1287 15.5556 10.0681 15.6323C10.0078 15.7089 9.93824 15.7924 9.91744 15.818C9.57837 16.2198 8.90973 17.0997 8.40335 17.8079C7.92966 18.472 7.75344 18.7344 7.20753 19.5796C7.0218 19.8675 6.69907 20.3968 6.53414 20.6824C6.43429 20.8545 6.32761 21.0331 6.29968 21.0794C6.26966 21.1237 6.24411 21.1677 6.24411 21.1772C6.24411 21.1864 6.19775 21.2699 6.14425 21.3629C5.90028 21.7668 5.415 22.6838 5.06671 23.3944C4.75557 24.0354 4.32378 24.9732 4.30298 25.0639C4.29377 25.101 4.2795 25.1337 4.27267 25.1406C4.25425 25.1545 4.09377 25.5191 3.96629 25.8371C3.38799 27.2882 3.21623 27.769 2.72619 29.32C2.28281 30.7179 1.74166 33.042 1.51878 34.4863C1.11255 37.1472 0.975553 38.9816 1.00349 41.4383C1.01716 42.6734 1.0335 43.0543 1.11493 44.1108C1.23796 45.7547 1.45846 47.3336 1.78832 48.9752C1.90184 49.5371 2.14581 50.6028 2.19217 50.7374C2.21089 50.7885 2.22694 50.8512 2.22694 50.8723C2.22694 50.9838 2.68904 52.5906 2.96066 53.4262C3.18829 54.1299 3.74103 55.6437 3.88724 55.962C3.90358 56.0012 3.99184 56.2128 4.08218 56.4309C4.63255 57.7706 5.35943 59.2567 6.1395 60.6314C6.6016 61.4463 7.11244 62.2962 7.15196 62.3101C7.16355 62.3146 7.17277 62.3286 7.17277 62.3425C7.17277 62.3565 7.21704 62.4379 7.27261 62.5211C7.32848 62.6049 7.42804 62.7604 7.49549 62.865C7.56503 62.9696 7.63011 63.0507 7.64408 63.0415C7.65805 63.0344 7.66042 63.0391 7.65091 63.0531C7.61614 63.1089 8.70974 64.6528 9.43662 65.5793C9.76648 65.9951 10.1727 66.4988 10.2262 66.5546C10.2378 66.5683 10.2865 66.6242 10.3305 66.6801C10.4119 66.7844 10.9483 67.4043 11.0969 67.5716C11.7121 68.261 11.9605 68.5213 12.7964 69.357C13.2146 69.7775 13.5673 70.1118 13.5813 70.1047C13.5929 70.0978 13.6044 70.1047 13.6044 70.1234C13.6044 70.1418 13.644 70.1908 13.6903 70.2324C13.7391 70.2743 13.8413 70.3671 13.918 70.439C14.4451 70.9338 15.2136 71.5956 15.915 72.1596C16.0424 72.2618 16.1818 72.3733 16.2261 72.4104C16.4302 72.573 17.0573 73.0514 17.301 73.2279C17.747 73.5483 17.7886 73.5807 18.0302 73.7524C18.3922 74.0125 19.2653 74.5908 19.7345 74.8832C20.3892 75.2921 20.4123 75.3057 20.5238 75.3664C20.582 75.3964 20.6331 75.4291 20.64 75.4359C20.6563 75.4567 21.557 75.9699 21.9752 76.1976C22.3535 76.4017 23.7561 77.1099 24.0765 77.254C24.1855 77.3051 24.3481 77.3794 24.4363 77.421C24.694 77.5396 24.9935 77.6718 25.3071 77.802C25.6274 77.9366 25.6877 77.9622 25.8411 78.0296C25.899 78.0528 26.0755 78.1247 26.236 78.1851C26.3959 78.2454 26.5587 78.3104 26.6003 78.3292C27.0648 78.5286 29.3079 79.295 29.5097 79.3205C29.5284 79.3229 29.5703 79.3366 29.6027 79.3509C29.6351 79.3645 29.6978 79.3832 29.742 79.3924C29.786 79.4017 29.8975 79.4344 29.9857 79.462C30.0764 79.4923 30.3735 79.5758 30.6475 79.648C30.9215 79.7199 31.2047 79.7942 31.2746 79.8126C31.3441 79.8314 31.4903 79.8661 31.5997 79.8917C31.7087 79.9149 31.9384 79.9684 32.1102 80.0079C33.4989 80.3306 35.3565 80.6394 36.7193 80.774C36.8611 80.7856 37.07 80.8088 37.1838 80.8204C37.3 80.8319 37.6016 80.8599 37.8572 80.8786C39.3175 80.99 40.6387 81.0224 41.9995 80.9853C42.5427 80.9689 43.1186 80.9481 43.2788 80.9366C43.439 80.925 43.7409 80.9042 43.9522 80.8902C45.4036 80.7972 47.2656 80.5443 48.9096 80.2144C50.6998 79.8569 52.7663 79.2878 54.3196 78.7262C54.9163 78.5102 55.6756 78.2246 55.7826 78.1735C55.8078 78.1619 55.9124 78.12 56.0147 78.0784C56.1169 78.0388 56.2444 77.9877 56.2979 77.9622C56.3514 77.939 56.4025 77.9179 56.4117 77.9179C56.4209 77.9179 56.4952 77.8879 56.5766 77.8484C56.6554 77.8112 56.7276 77.7788 56.732 77.7788C56.7528 77.7788 57.5308 77.4326 57.8235 77.2935C57.9858 77.2145 58.1252 77.1518 58.1299 77.1518C58.1579 77.1518 59.5462 76.446 59.992 76.2092C60.315 76.035 61.0556 75.6124 61.0903 75.5821C61.1091 75.5637 61.1323 75.5497 61.1391 75.5497C61.211 75.5497 62.7414 74.5884 63.5028 74.0659C63.7001 73.9313 63.8838 73.8036 63.9138 73.7851C64.4083 73.4484 65.8085 72.392 66.1753 72.0808C66.2195 72.0413 66.303 71.9715 66.361 71.9251C67.0415 71.3656 67.7101 70.7804 68.3791 70.1534C68.769 69.7867 70.0694 68.4723 70.4361 68.0732C70.9006 67.5668 71.6203 66.7404 71.7921 66.5175C71.8364 66.4593 71.8851 66.4037 71.8991 66.3897C72.0105 66.2899 72.9623 65.0522 73.4408 64.3883C73.9121 63.7312 73.9377 63.6938 74.2975 63.1553C74.6366 62.6445 74.8758 62.2751 75.0265 62.0243C75.0568 61.9735 75.173 61.7806 75.2865 61.5949C78.4885 56.3031 80.4276 50.2034 80.8802 43.9946C80.9661 42.8359 80.9756 42.5619 80.9756 41.0342C80.9756 39.4461 80.9616 39.0211 80.8686 37.8417C80.6386 34.8857 80.1025 32.0762 79.2246 29.2041C79.0086 28.4935 78.4885 26.9982 78.3471 26.6731C78.326 26.6288 78.2773 26.4965 78.2356 26.3827C78.1611 26.1714 77.7177 25.1082 77.5994 24.8502C77.5623 24.7735 77.4692 24.5646 77.3881 24.386C77.1789 23.9192 76.6612 22.8627 76.3988 22.3706C76.025 21.6693 75.5073 20.7519 75.447 20.68C75.4283 20.6616 75.4143 20.636 75.4143 20.6268C75.4143 20.571 74.3671 18.9178 74.3183 18.8994C74.3091 18.8946 74.2999 18.8806 74.2999 18.8691C74.2999 18.8343 74.0886 18.5231 74.0654 18.5231C74.0536 18.5231 74.0443 18.5092 74.0443 18.4928C74.0443 18.4162 72.9323 16.8932 72.3029 16.1083C72.1543 15.9226 72.0126 15.7461 71.9894 15.7158C71.9639 15.6834 71.9151 15.6299 71.8803 15.5927C71.848 15.558 71.8153 15.5184 71.8108 15.5069C71.8037 15.4884 71.4182 15.0308 71.135 14.7057C70.7891 14.311 70.4848 13.9839 70.4664 13.9883C70.4548 13.9931 70.4477 13.9859 70.4524 13.972C70.4688 13.9024 68.5461 11.9753 67.7868 11.3019C67.7101 11.2347 67.5592 11.0998 67.4525 11.0023C67.3458 10.9049 67.2365 10.8098 67.2088 10.791C67.1809 10.7723 67.1437 10.7399 67.125 10.7191C67.095 10.6864 66.4983 10.1851 66.0894 9.85079C65.6507 9.49062 64.701 8.77087 64.6662 8.77087C64.6522 8.77087 64.6407 8.76166 64.6407 8.75245C64.6407 8.73135 63.8977 8.19733 63.4888 7.92126C63.3729 7.84221 63.2475 7.75871 63.2104 7.73077C63.15 7.68887 62.7275 7.41488 62.4116 7.21072C62.1839 7.06422 61.9703 6.93673 61.9403 6.9296C61.9263 6.92722 61.8984 6.9088 61.8776 6.88799C61.8588 6.86689 61.7126 6.77418 61.5524 6.68116C61.3923 6.58607 61.1902 6.46779 61.0996 6.4143C60.7792 6.22382 60.0036 5.79886 59.978 5.79886C59.962 5.79886 59.9504 5.78965 59.9504 5.78044C59.9504 5.76885 59.8945 5.73616 59.8294 5.70614C59.7623 5.67583 59.6904 5.63869 59.6716 5.62234C59.5766 5.54597 57.8396 4.70289 57.2337 4.43811C57.0735 4.36858 56.9225 4.30141 56.897 4.28982C56.6625 4.18284 56.3558 4.05268 56.212 3.99949C56.1169 3.96442 55.9728 3.9041 55.8916 3.86695C55.8126 3.83218 55.743 3.80217 55.7359 3.80217C55.7315 3.80217 55.5829 3.7463 55.4063 3.67676C54.445 3.30054 52.4855 2.64112 52.3297 2.64112C52.2994 2.64112 52.2647 2.63191 52.2507 2.61794C52.1904 2.55761 50.2424 2.05837 49.339 1.87263C49.1533 1.83549 48.9304 1.78883 48.84 1.77041C47.9854 1.58676 46.3926 1.34307 45.2686 1.22688C44.6907 1.16655 44.4701 1.14575 43.836 1.09702C42.6821 1.00876 41.0357 0.976365 39.7148 1.01797ZM42.118 4.95133C42.5079 4.95846 42.8586 4.96767 42.8957 4.97243C42.9353 4.97689 43.0954 4.98848 43.2556 4.99798C43.943 5.03275 45.3406 5.17658 46.1233 5.2904C46.9569 5.41105 48.1132 5.62026 48.8909 5.79203C48.9583 5.80807 49.3833 6.14715 50.0124 6.69038C50.147 6.80657 50.2724 6.91563 50.2911 6.93198C50.3096 6.94832 50.3583 6.98992 50.3954 7.02707C50.435 7.06214 50.6278 7.23628 50.8252 7.4125C51.243 7.78634 52.6109 9.14947 53.0311 9.60681C53.1865 9.77858 53.3259 9.91795 53.3351 9.91558C53.3467 9.91112 53.3538 9.91795 53.349 9.92954C53.3467 9.93876 53.4976 10.1245 53.6833 10.3405C54.0108 10.7215 54.3871 11.1673 54.5752 11.4062C54.626 11.4692 54.6726 11.5271 54.6795 11.534C54.7585 11.6106 55.5989 12.7274 55.9332 13.199C56.3537 13.7886 57.0666 14.8777 57.3032 15.284C57.3264 15.3211 57.403 15.4489 57.4729 15.5672C58.5828 17.4016 59.6669 19.691 60.4193 21.7855C61.896 25.9022 62.616 30.2278 62.5394 34.5442C62.5298 35.0878 62.5183 35.5939 62.5138 35.6705C62.509 35.7472 62.4951 35.998 62.4811 36.2277C62.2933 39.3415 61.7034 42.4205 60.7305 45.353C60.2731 46.7277 59.869 47.7538 59.2467 49.1146C59.0238 49.6046 58.4387 50.7725 58.2322 51.1463C58.1647 51.267 58.0069 51.5502 57.8815 51.7778C57.7537 52.0031 57.6518 52.198 57.6518 52.212C57.6518 52.2259 57.6423 52.2375 57.6331 52.2375C57.6215 52.2375 57.5635 52.3234 57.5029 52.428C57.4426 52.5347 57.3383 52.7088 57.2708 52.8179C57.2036 52.9273 57.0943 53.1035 57.0295 53.2128C56.9644 53.3219 56.9017 53.4194 56.8901 53.4333C56.8806 53.4449 56.7903 53.5819 56.6904 53.7353C56.2051 54.4758 55.297 55.7507 55.0509 56.0387C55.0393 56.0547 54.9466 56.1709 54.8492 56.2963C54.4869 56.7605 54.0248 57.318 53.6833 57.7058C53.1449 58.3185 52.9565 58.5206 52.2299 59.2638C51.8213 59.6817 51.489 60.0323 51.4938 60.0439C51.4962 60.0555 51.4914 60.06 51.4798 60.0531C51.4682 60.0463 51.3452 60.1482 51.2058 60.2808C49.966 61.4531 48.5102 62.6373 47.0636 63.643C46.6989 63.8959 46.2648 64.1886 46.0882 64.3C46.0443 64.3277 45.9025 64.4183 45.775 64.5018C45.6472 64.5832 45.5055 64.6715 45.4615 64.6994C45.4172 64.725 45.2455 64.8293 45.0782 64.9315C44.0544 65.5585 42.559 66.3454 41.4143 66.8634C40.3252 67.3555 38.4795 68.0892 38.4376 68.0453C38.4328 68.0405 38.5095 67.8524 38.607 67.6295C38.7068 67.4066 38.8393 67.1003 38.8997 66.9469C38.96 66.7936 39.0298 66.6266 39.053 66.5754C39.2387 66.176 39.7401 64.8061 40.0467 63.8682C41.795 58.5206 42.3825 52.7784 41.7674 47.106C41.4307 43.997 40.683 40.7626 39.6358 37.8996C39.5846 37.7579 39.508 37.5445 39.464 37.4235C39.3222 37.0313 38.9532 36.1234 38.7187 35.5894C38.5538 35.2132 38.533 35.1713 38.519 35.1713C38.5119 35.1713 38.505 35.1529 38.5026 35.1297C38.4887 34.9576 37.1003 32.1993 37.0281 32.1993C37.0141 32.1993 37.0073 32.1924 37.0165 32.1853C37.0328 32.169 36.8887 31.8742 36.8424 31.8254C36.8263 31.8067 36.7984 31.7627 36.782 31.7256C36.7288 31.6025 35.974 30.3416 35.9437 30.3185C35.9345 30.3116 35.9208 30.2905 35.9137 30.2697C35.8765 30.1723 35.4029 29.4804 35.3122 29.3922C35.0986 29.1854 34.8341 29.0695 34.5321 29.0484C34.1096 29.018 33.9749 29.0787 33.2017 29.6451C33.139 29.6891 32.9441 29.8332 32.7675 29.9634C32.5886 30.0908 32.4005 30.2489 32.3473 30.3093C32.2311 30.4439 32.101 30.7039 32.0662 30.8712C32.0059 31.1684 32.0454 31.4121 32.2196 31.793C32.8834 33.2581 33.032 35.1297 32.6094 36.7386C32.4193 37.4699 32.194 38.0134 31.7898 38.7168L31.6133 39.0259L31.4951 38.9584C31.43 38.9213 31.3046 38.8702 31.2187 38.8422C31.0656 38.7959 31.0166 38.7935 29.6862 38.7935C28.1676 38.7935 28.1932 38.7911 27.9124 38.9445C27.6407 39.093 27.441 39.3299 27.3201 39.6458L27.269 39.7804L27.2621 45.9057L27.2574 52.0307L27.2042 52.0146C27.1763 52.0054 27.1483 51.9915 27.1415 51.982C27.1344 51.9728 27.0324 51.9056 26.9139 51.8334C26.5237 51.5968 26.2521 51.4203 25.8782 51.1603C25.6761 51.0185 25.4556 50.8652 25.3909 50.8212C25.3258 50.7769 25.2444 50.7142 25.2096 50.6842C25.1748 50.6539 25.0539 50.5588 24.9424 50.4729L24.7383 50.3196L24.7314 42.0627L24.7267 33.8037L25.7644 33.7969L26.8048 33.7873L26.9697 33.727C27.3596 33.5856 27.6244 33.3208 27.7754 32.9261C27.8265 32.7912 27.8265 32.7776 27.8333 31.1544C27.8381 30.0005 27.8309 29.4709 27.8125 29.3595C27.7543 29.0065 27.4666 28.6234 27.1415 28.4656C26.8699 28.3334 26.77 28.3218 25.6972 28.3218H24.7267V23.715V19.1059L24.8961 18.9713C25.5231 18.4604 26.5284 17.7799 27.2342 17.3853C27.3436 17.3249 27.5525 17.2067 27.6987 17.1253C28.2651 16.8073 29.222 16.3612 29.9278 16.0875C30.0995 16.0201 30.2876 15.9458 30.3456 15.9226C30.6523 15.7948 31.978 15.3907 32.3658 15.3051C32.4472 15.2887 32.5467 15.2632 32.5863 15.2516C32.6234 15.2376 32.8603 15.1865 33.1087 15.1354C34.1535 14.9193 35.1916 14.7847 36.1853 14.736C36.782 14.706 38.2518 14.7196 38.7395 14.7615C40.3463 14.8962 41.7906 15.1725 43.1861 15.6135C43.9614 15.8575 44.5768 16.0875 45.3221 16.41C45.6264 16.5425 46.5994 17.0302 46.9358 17.2183C47.391 17.4735 47.3887 17.4712 47.802 17.7312C50.0148 19.113 51.9375 20.91 53.4676 23.0324C54.552 24.5346 55.448 26.2413 56.0518 27.95C56.1401 28.1985 56.2563 28.5236 56.3071 28.6701C56.3582 28.8163 56.4696 29.0763 56.5534 29.2481C56.7415 29.6287 56.9086 29.8148 57.1873 29.9515C57.4126 30.0632 57.5656 30.0932 57.8117 30.0816C58.0348 30.0677 58.1463 30.0353 58.4527 29.8891C59.9875 29.1577 59.9944 29.1553 60.1638 28.9393C60.3474 28.7072 60.4425 28.4448 60.4449 28.1613C60.4473 27.8829 60.3962 27.7132 60.2125 27.4044C60.1593 27.3141 60.0479 27.0493 59.962 26.8124C59.2143 24.7343 58.3947 23.0856 57.25 21.3674C57.0016 20.9959 56.8366 20.7546 56.76 20.6571C56.732 20.6221 56.6904 20.5665 56.6649 20.5293C56.5766 20.4039 56.2491 19.9742 56.1098 19.7977C56.031 19.7002 55.938 19.5796 55.8985 19.5309C55.0905 18.5068 53.6926 17.0929 52.6129 16.2034C52.5178 16.1247 52.3924 16.0201 52.3342 15.9713C52.065 15.7461 51.1663 15.0867 51.1455 15.1006C51.1315 15.1098 51.1271 15.1051 51.1339 15.0938C51.1571 15.0563 50.0751 14.339 49.3857 13.9327C48.8142 13.596 47.969 13.1524 47.4234 12.8995C47.296 12.8412 47.1239 12.7601 47.0404 12.723C46.7735 12.5999 46.1789 12.3559 45.8446 12.2305C45.666 12.1634 45.4871 12.0935 45.4475 12.0775C45.3337 12.0288 44.5189 11.7548 44.312 11.6965C44.2098 11.6689 44.1055 11.6362 44.08 11.6246C43.9245 11.5574 42.4313 11.1881 41.9902 11.1069C41.888 11.0882 41.6328 11.0419 41.4212 11.0047C38.3517 10.4499 35.1057 10.5218 31.9943 11.2092C31.8736 11.2368 31.7063 11.2739 31.6228 11.2903C31.5393 11.3087 31.4463 11.3343 31.4139 11.3462C31.3812 11.3577 31.3138 11.3738 31.263 11.3833C31.2118 11.3925 31.128 11.4133 31.0772 11.4297C31.0261 11.4457 30.8799 11.4876 30.7521 11.5203C30.1483 11.6849 29.2264 11.9892 28.6042 12.2305C28.3673 12.3212 28.1468 12.4071 28.1121 12.421C28.0749 12.4326 28.047 12.4534 28.047 12.4653C28.047 12.4769 28.0262 12.4861 28.0006 12.4861C27.9611 12.4861 27.7311 12.5812 27.211 12.8136C27.1159 12.8552 26.7445 13.0385 26.3867 13.2174C25.2351 13.8002 24.3689 14.3226 23.2105 15.1378C23.0899 15.226 22.9757 15.3095 22.9573 15.3259C22.941 15.3419 22.9015 15.3699 22.8691 15.3907C22.7832 15.4465 22.0192 16.0456 21.9077 16.1431C21.894 16.1571 21.7847 16.2477 21.6664 16.3476L21.4527 16.5285L21.1092 16.338C20.6376 16.0759 19.788 15.6439 19.2468 15.3886C18.9984 15.27 18.7057 15.133 18.5966 15.0822C17.7283 14.6709 17.4495 14.5874 17.1292 14.6409C17.0433 14.6572 16.9527 14.678 16.9295 14.6896C16.9087 14.7036 16.8623 14.7176 16.8296 14.7244C16.7577 14.7407 16.5536 14.8754 16.4418 14.9797C16.3491 15.0659 16.2213 15.2516 16.1678 15.3791C16.0704 15.6067 16.0659 15.6694 16.0659 16.6516C16.0659 17.6988 16.0728 17.7567 16.2121 18.0239C16.298 18.1817 16.5045 18.4162 16.6115 18.472C16.7135 18.5276 17.229 18.7784 17.2383 18.7784C17.2522 18.7784 18.3506 19.3124 18.3877 19.3359C18.4064 19.3475 18.5642 19.431 18.736 19.5216C19.0519 19.6842 19.2097 19.7701 19.6254 20.0022L19.8504 20.1299V35.9537C19.8504 50.2872 19.8528 51.7918 19.8875 51.9196C19.9898 52.3142 20.243 52.595 20.6632 52.7784C20.7862 52.8319 20.9975 52.8646 21.2275 52.8646H21.434L21.7012 53.0874C22.393 53.6678 23.0735 54.1858 23.7445 54.6408C24.0069 54.8197 24.0788 54.866 24.3481 55.0309C24.4479 55.0936 24.6129 55.1956 24.7151 55.2607C24.91 55.3861 24.9659 55.4187 25.5858 55.767C25.9873 55.9944 26.8743 56.4425 27.211 56.589C27.3201 56.6377 27.4663 56.7025 27.5361 56.7352C27.7171 56.8187 28.2351 57.0348 28.4532 57.1183C29.3822 57.4713 29.3634 57.4642 29.6143 57.4781C30.0044 57.4989 30.3156 57.3807 30.578 57.1135C30.838 56.849 30.926 56.5958 30.926 56.1106C30.926 55.7926 30.926 55.7902 30.9795 55.7902C31.1792 55.7902 31.509 55.6416 31.7016 55.4651C31.8736 55.3046 31.9756 55.1468 32.0522 54.924L32.1102 54.7474V49.3538V43.9598L32.3586 43.7625C32.8718 43.3539 33.4686 42.778 33.8519 42.323C33.9215 42.2416 34.0026 42.1465 34.0329 42.1138C34.1467 41.9908 34.5853 41.394 34.7714 41.1108C35.1452 40.5421 35.5259 39.8247 35.7675 39.2395C35.8162 39.121 35.8578 39.0283 35.8626 39.0327C35.8905 39.0607 36.3083 40.2936 36.508 40.9299C36.659 41.4172 36.8703 42.1813 37.0305 42.8338C37.9663 46.637 38.2726 50.5285 37.9499 54.513C37.7666 56.7724 37.3276 59.1919 36.7054 61.3628C36.5615 61.8689 36.2248 62.9532 36.1853 63.0462C36.169 63.0834 36.1018 63.2667 36.0391 63.4525C35.3981 65.3217 34.4555 67.3858 33.3666 69.3085C33.2828 69.4568 33.2712 69.4616 32.9461 69.5151C32.7836 69.5406 32.7604 69.5406 32.6094 69.4919C32.2196 69.3641 31.4811 69.0993 31.0074 68.916C30.5058 68.721 29.6027 68.3516 29.4053 68.2565C29.3542 68.2334 29.2449 68.1823 29.1614 68.1451C29.0779 68.108 28.9085 68.0289 28.7807 67.971C28.6553 67.9127 28.5367 67.8619 28.5135 67.8595C28.4927 67.8548 28.4719 67.8456 28.4648 67.8387C28.458 67.8316 28.1444 67.669 27.7682 67.4789C27.0996 67.1374 26.2824 66.7032 26.1198 66.5986C25.9457 66.4872 25.3023 66.1226 25.2815 66.1226C25.2699 66.1226 25.2607 66.1133 25.2607 66.1041C25.2607 66.0949 25.2259 66.067 25.1864 66.0438C25.0123 65.9416 24.1344 65.3796 23.8328 65.1755C23.308 64.8177 23.1615 64.7134 22.4533 64.193C21.4456 63.4549 20.1779 62.3913 19.1306 61.4023C18.9844 61.2629 18.8546 61.1399 18.8406 61.1283C18.7987 61.0932 18.1277 60.4246 18.0998 60.3922C18.0858 60.3735 17.9443 60.2228 17.7862 60.0555C15.3251 57.4434 13.356 54.6431 11.7587 51.483C11.466 50.9047 11.3638 50.6911 11.1014 50.1246C11.0618 50.0411 10.9228 49.7181 10.7882 49.4049C8.43604 43.8855 7.50263 37.9136 8.05507 31.8857C8.21079 30.1886 8.49874 28.4608 8.91657 26.7078C9.18818 25.5679 9.7014 23.896 10.1427 22.7097C10.233 22.4633 10.3073 22.2476 10.3073 22.2289C10.3073 22.2104 10.3145 22.1917 10.3261 22.187C10.3353 22.1825 10.3932 22.05 10.4583 21.8898C10.521 21.7296 10.6116 21.5418 10.658 21.472C10.9807 20.9799 11.4033 20.3528 11.422 20.3341C11.4289 20.3273 11.5658 20.1392 11.7239 19.9163C11.8841 19.6934 12.1254 19.3659 12.2624 19.1873C12.3994 19.0108 12.5064 18.8551 12.4969 18.8411C12.4901 18.8295 12.4924 18.8251 12.504 18.8319C12.5156 18.8387 12.6086 18.7392 12.7106 18.6114C13.1055 18.1122 13.7438 17.3529 14.0342 17.037C14.0969 16.9675 14.2015 16.8513 14.2639 16.7817C14.3242 16.7119 14.4567 16.5681 14.5542 16.4614C14.6517 16.3568 14.7283 16.2593 14.7236 16.2477C14.7215 16.2337 14.726 16.2266 14.7355 16.229C14.7471 16.2314 15.0882 15.8994 15.4992 15.4929C16.1147 14.8801 16.4837 14.5223 16.6787 14.3553C16.6926 14.3413 16.7625 14.2786 16.832 14.2159C16.9016 14.1509 17.027 14.0418 17.1108 13.9699C17.1943 13.898 17.3568 13.7562 17.4706 13.6564C17.821 13.35 18.4412 12.8391 18.7824 12.5744C18.8266 12.542 18.9844 12.421 19.1306 12.3072C19.3675 12.1239 19.6323 11.9289 20.1128 11.5827C20.4798 11.3182 21.4432 10.6728 21.7544 10.4823C21.8126 10.4451 21.9285 10.3732 22.0147 10.3197C22.1793 10.2175 22.7924 9.84366 22.8619 9.80414C22.8854 9.79047 22.9853 9.7346 23.0851 9.6814C23.1826 9.62554 23.2637 9.56967 23.2637 9.556C23.2637 9.54173 23.2708 9.53728 23.28 9.54441C23.2916 9.55808 23.6283 9.38869 23.6583 9.35392C23.6655 9.34441 23.7258 9.3144 23.7933 9.28409C23.8583 9.25169 23.9139 9.21901 23.9139 9.20742C23.9139 9.1982 23.9279 9.18899 23.9442 9.18899C23.9626 9.18899 24.0949 9.12391 24.2414 9.04486C24.7522 8.76879 26.598 7.88857 26.663 7.88857C26.6699 7.88857 26.7629 7.84934 26.8675 7.80031C27.2018 7.64251 28.6808 7.07135 29.0339 6.95991C29.085 6.94357 29.1593 6.91801 29.1961 6.90196C29.2357 6.88562 29.5004 6.79498 29.7884 6.70226C30.0764 6.61162 30.3248 6.52574 30.3411 6.51178C30.3572 6.50019 30.3759 6.49543 30.3827 6.50256C30.3899 6.5094 30.4246 6.50494 30.457 6.49305C30.6148 6.43273 32.0662 6.03125 32.2959 5.98251C32.3542 5.97092 32.5051 5.93586 32.6326 5.90346C33.1574 5.77568 33.7984 5.63869 34.3859 5.53438C34.5717 5.49931 34.8317 5.45295 34.9663 5.4274C35.4329 5.34152 36.7633 5.165 37.4159 5.10229C38.6349 4.98402 40.272 4.9121 41.1659 4.9329C41.3005 4.93736 41.7279 4.94449 42.118 4.95133ZM57.8999 9.12391C57.9882 9.16581 58.0625 9.20534 58.0696 9.21217C58.0928 9.23773 58.8568 9.65317 58.88 9.65317C58.8916 9.65317 58.9055 9.66268 58.91 9.6719C58.9148 9.68348 59.0934 9.79492 59.3094 9.92271C59.5254 10.0481 59.7344 10.1735 59.7763 10.1991C59.8179 10.2246 59.9014 10.2754 59.9644 10.3129C60.0268 10.3521 60.1825 10.4499 60.3103 10.5334C60.4381 10.6145 60.6167 10.7283 60.7049 10.7863C61.3459 11.1997 62.0285 11.6805 62.7946 12.2632C63.3078 12.6534 63.3729 12.7042 63.6306 12.9155C63.7072 12.9782 63.8326 13.0828 63.9093 13.1432C64.074 13.2733 64.0719 13.2733 64.2808 13.4519C64.3783 13.5357 64.4989 13.6748 64.5824 13.7978C64.7681 14.0697 65.2745 14.8382 65.3628 14.982C65.4023 15.0448 65.4626 15.1446 65.4998 15.2028C65.5369 15.2608 65.588 15.3443 65.6112 15.3886C65.6368 15.4326 65.7482 15.6207 65.8596 15.804C66.5631 16.9698 67.4804 18.7716 68.0005 20.009C68.2721 20.6524 68.5624 21.3906 68.7202 21.8319C68.8153 22.099 68.9175 22.3867 68.9479 22.4705C69.0011 22.6167 69.2542 23.4083 69.3981 23.8752C69.8302 25.2823 70.2619 27.2326 70.5012 28.8558C70.659 29.9214 70.7449 30.7363 70.8331 32.0135C70.8914 32.8611 70.8914 35.4919 70.8331 36.3671C70.5847 40.0404 69.9324 43.1866 68.7226 46.5488C68.5669 46.9782 68.1119 48.13 68.04 48.2786C68.0213 48.3158 67.9565 48.462 67.8982 48.6037C67.8403 48.7431 67.7428 48.9636 67.6822 49.0914C67.6219 49.2192 67.5428 49.3909 67.5057 49.4744C67.4293 49.6486 66.6932 51.116 66.6653 51.1555C66.6537 51.1695 66.5886 51.2857 66.5215 51.4132C66.2148 51.9938 65.5461 53.1246 65.1539 53.7237C65.1072 53.7956 65.0609 53.8699 65.0469 53.8883C65.0353 53.9094 64.9331 54.0601 64.8216 54.225C63.9069 55.5858 62.8365 56.9697 61.8101 58.1212C60.7328 59.331 59.4743 60.5687 58.3249 61.5485C58.1275 61.7179 57.935 61.8828 57.8955 61.9176C57.7793 62.0174 56.9086 62.7116 56.7276 62.8465C56.6369 62.9161 56.5603 62.9835 56.5603 62.9927C56.5603 63.002 56.5487 63.0112 56.5347 63.0112C56.5207 63.0112 56.3722 63.1134 56.2028 63.2388C55.8797 63.4804 55.3644 63.8471 55.0741 64.04C54.979 64.1048 54.7957 64.2281 54.6679 64.3116C54.4566 64.4531 54.0827 64.6902 53.6114 64.985C53.3166 65.1683 52.8103 65.4655 52.4991 65.6373C51.9211 65.9556 51.4427 66.2132 51.3428 66.2596C51.2754 66.2923 51.2198 66.3246 51.2198 66.3362C51.2198 66.3454 51.2058 66.3549 51.1874 66.3549C51.1687 66.3549 50.9366 66.464 50.6694 66.5963C50.405 66.7288 50.0659 66.8913 49.9197 66.9585C48.9352 67.4043 47.8832 67.8408 47.9575 67.7757C47.9714 67.7641 48.243 67.5832 48.5613 67.3719C49.0837 67.026 49.4344 66.7844 49.6989 66.5918C49.75 66.5546 49.8917 66.4524 50.0124 66.3642C50.4094 66.0738 50.9945 65.6304 51.2754 65.4052C51.4266 65.2822 51.5773 65.1615 51.6124 65.136C51.928 64.8991 53.1681 63.8263 53.716 63.3131C54.7793 62.3194 55.9612 61.0888 56.8274 60.0739C56.9781 59.8953 57.157 59.6864 57.2221 59.6098C57.9139 58.7994 59.0773 57.2413 59.7783 56.1849C60.1501 55.6253 60.7768 54.6315 60.8164 54.5362C60.8256 54.5177 60.8746 54.4342 60.9278 54.3504C60.9813 54.2669 61.0556 54.1415 61.0927 54.072C61.1322 54.0021 61.1715 53.9326 61.181 53.921C61.1902 53.907 61.2345 53.8304 61.2808 53.7469C61.3248 53.6631 61.4618 53.417 61.5848 53.2013C61.8612 52.7181 62.7087 51.0185 62.978 50.4102C63.222 49.8622 63.5399 49.1006 63.7352 48.6037C63.8139 48.3996 63.8882 48.2112 63.8977 48.1859C63.9093 48.1603 63.9557 48.0349 64.002 47.9071C65.9663 42.5806 66.7675 36.9638 66.3821 31.259C66.3357 30.5809 66.2498 29.6614 66.1824 29.1458C66.1637 28.9928 66.1429 28.8255 66.136 28.7744C66.0986 28.4796 66.0406 28.0918 65.9408 27.4739C65.4834 24.688 64.7102 21.8969 63.6817 19.3124C63.0897 17.8242 62.3186 16.1687 61.7198 15.0982C61.7055 15.0727 61.636 14.9425 61.5617 14.8079C61.2808 14.2902 60.7652 13.4056 60.4868 12.9619C60.4122 12.846 60.3171 12.695 60.2752 12.6255C60.2312 12.5556 60.1872 12.4929 60.1777 12.4909C60.1661 12.4861 60.1593 12.4721 60.1593 12.4606C60.1593 12.4187 59.3837 11.2716 58.9543 10.6796C58.8313 10.5102 58.6847 10.3058 58.6268 10.2246C58.5177 10.0737 58.2111 9.67427 57.8999 9.27933C57.8001 9.15185 57.7258 9.04962 57.7329 9.04962C57.7374 9.04962 57.814 9.08439 57.8999 9.12391ZM74.1837 26.8356C74.1837 26.8472 74.2093 26.9123 74.2396 26.9795C74.2696 27.0469 74.4042 27.3788 74.5388 27.7179C75.8161 30.9431 76.6217 34.3469 76.9213 37.795C77.0282 39.0048 77.049 39.5204 77.049 40.9646C77.0514 42.3346 77.0419 42.6246 76.956 43.7857C76.9028 44.5054 76.8074 45.4017 76.7147 46.0495C76.6868 46.2284 76.6612 46.4118 76.6544 46.4561C76.4128 48.1488 75.8788 50.3986 75.2865 52.2143C75.0265 53.006 74.9382 53.2521 74.6366 54.0369C74.4229 54.5873 74.4253 54.5825 74.2256 54.8892C74.1258 55.0422 74.0443 55.1748 74.0443 55.1887C74.0443 55.2003 74.0351 55.2095 74.0259 55.2095C74.0167 55.2095 73.9888 55.2399 73.968 55.2794C73.9053 55.3813 73.4152 56.0874 73.1644 56.4333C72.4239 57.4502 71.713 58.3257 70.7404 59.4216C70.0646 60.1833 68.7853 61.4463 67.8216 62.303C67.6243 62.4795 67.4641 62.6329 67.4688 62.6445C67.4709 62.6561 67.4665 62.6608 67.4549 62.6537C67.4433 62.6465 67.3387 62.7211 67.2249 62.8207C66.9648 63.0439 66.4727 63.443 66.2427 63.6195C66.1476 63.6938 65.9758 63.8263 65.8596 63.917C64.9702 64.6088 63.2939 65.7443 62.3836 66.2691C62.3209 66.3062 62.2722 66.3434 62.2722 66.357C62.2722 66.371 62.263 66.3757 62.2538 66.3686C62.2422 66.3618 62.1608 66.3989 62.0725 66.4524C61.896 66.5567 61.8264 66.5942 61.4363 66.8147C60.986 67.0676 59.9317 67.6087 59.4512 67.834C58.8289 68.1288 58.6963 68.187 58.3923 68.3169C58.2203 68.3888 58.0301 68.4723 57.965 68.5026C57.6446 68.6467 55.9915 69.2803 55.9356 69.2803C55.9216 69.2803 55.9101 69.2898 55.9101 69.3038C55.9101 69.3154 55.8916 69.327 55.8705 69.327C55.8126 69.327 54.8096 69.6565 54.8001 69.6797C54.7957 69.6892 54.7677 69.6984 54.7398 69.6984C54.7122 69.6984 54.6007 69.7264 54.4914 69.7588C54.2501 69.833 53.5719 70.0259 53.3211 70.0931C52.9149 70.2021 51.9256 70.4437 51.7538 70.4761C51.6751 70.4904 51.6771 70.488 51.7886 70.4253C51.8537 70.3902 51.9838 70.3255 52.0789 70.2812C52.4364 70.1186 53.3282 69.6637 53.9018 69.3501C53.9784 69.3082 54.1083 69.2363 54.1918 69.1923C54.2756 69.1481 54.3823 69.0854 54.4287 69.0553C54.4774 69.0274 54.5193 69.0019 54.5261 69.0019C54.5401 69.0019 55.3389 68.5329 55.3529 68.5166C55.36 68.5097 55.4108 68.4771 55.4691 68.4467C55.527 68.4167 55.6269 68.3585 55.6896 68.3169C55.7546 68.2774 55.9264 68.1683 56.0726 68.0777C56.9062 67.56 58.1183 66.7264 58.88 66.1457C59.0378 66.0251 59.1935 65.9044 59.2283 65.8789C59.6996 65.5235 60.8372 64.5856 61.3667 64.1119C62.1492 63.4153 63.5263 62.0686 64.1206 61.4207C64.7149 60.7705 64.8264 60.6451 65.0445 60.3875C65.1699 60.2412 65.2977 60.0879 65.3325 60.0508C65.3672 60.0112 65.5206 59.8303 65.6763 59.6445C65.9271 59.3402 66.0593 59.1753 66.44 58.6924C66.5051 58.6089 66.714 58.3325 66.9045 58.0772C67.0926 57.8217 67.276 57.5756 67.3087 57.5316C67.341 57.4874 67.3806 57.4339 67.3922 57.4107C67.4061 57.3899 67.5104 57.2389 67.6266 57.074C67.8287 56.7932 68.3069 56.085 68.3324 56.0339C68.3395 56.0223 68.4067 55.9153 68.481 55.8018C68.7621 55.3721 69.0545 54.8984 69.273 54.5246C69.5909 53.979 70.0599 53.1406 70.1692 52.9249C70.234 52.7947 70.297 52.6785 70.3062 52.6669C70.385 52.5674 71.2233 50.8236 71.2025 50.8049C71.1954 50.798 71.2046 50.7793 71.2209 50.7653C71.2908 50.7098 71.9546 49.1285 72.3145 48.1624C74.0886 43.3955 74.9314 38.3709 74.8108 33.2929C74.7596 31.1289 74.5739 29.2296 74.2093 27.1676C74.1745 26.9586 74.1537 26.7961 74.1629 26.8029C74.1745 26.8101 74.1837 26.824 74.1837 26.8356ZM5.27592 45.4109C5.46611 46.1446 5.72406 47.0317 5.75882 47.0712C5.77041 47.0828 5.77963 47.1131 5.77963 47.1363C5.77963 47.1618 5.86551 47.4382 5.96773 47.7538C6.46461 49.2563 7.0429 50.719 7.70678 52.1445C7.87647 52.5091 8.53351 53.8327 8.5659 53.8743C8.57512 53.8859 8.63574 53.9977 8.69844 54.1183C8.79116 54.2972 9.24643 55.1144 9.33201 55.2559C9.3439 55.2746 9.46217 55.4743 9.59441 55.6972C9.88475 56.1849 10.1076 56.5495 10.2726 56.8C10.6975 57.4526 10.9436 57.8148 10.9691 57.8241C10.9831 57.8312 10.9971 57.8472 10.9971 57.8636C10.9971 57.8891 11.1269 58.0817 11.3849 58.4371C11.4452 58.5206 11.5171 58.6252 11.5474 58.6716C11.6217 58.7806 12.2045 59.5539 12.5109 59.9462C12.8336 60.3595 13.1007 60.6846 13.5117 61.1631C13.6975 61.3791 13.8784 61.5925 13.918 61.6391C13.9551 61.6855 14.2107 61.9687 14.4867 62.2682C16.0216 63.9425 17.6377 65.4352 19.4394 66.8379C19.681 67.026 19.9642 67.2417 20.0688 67.3184C20.1758 67.3951 20.3939 67.5552 20.5565 67.6714C20.7166 67.7897 20.8584 67.8875 20.8697 67.8875C20.8816 67.8875 20.8955 67.8967 20.9 67.9083C20.914 67.9499 21.9148 68.6304 21.9612 68.6304C21.9752 68.6304 21.9868 68.6396 21.9868 68.6488C21.9868 68.6699 22.0611 68.721 22.637 69.0833C23.993 69.9421 25.7995 70.929 27.0253 71.4841C27.1715 71.5513 27.3296 71.6256 27.3736 71.6488C27.4176 71.6719 27.606 71.7557 27.7917 71.8324C27.9774 71.9112 28.1468 71.9855 28.1676 71.997C28.1887 72.0086 28.3349 72.0713 28.4927 72.1364C28.6505 72.2015 28.7991 72.2642 28.8247 72.2758C28.8505 72.2874 29.0547 72.3709 29.2776 72.4591C30.4873 72.9376 32.1661 73.4995 33.2712 73.7967C33.4433 73.8407 33.6267 73.8918 33.6778 73.9034C33.7286 73.9174 33.7937 73.9382 33.824 73.9498C33.854 73.9613 33.9027 73.9709 33.9354 73.9709C33.9654 73.9709 34.0097 73.9801 34.0329 73.994C34.0956 74.0288 35.1776 74.282 35.8486 74.4211C37.8943 74.8416 39.7728 75.0784 42.0946 75.2059C42.7795 75.243 45.1432 75.243 45.8562 75.2059C47.6115 75.1108 49.0558 74.9554 50.651 74.6882C51.4543 74.556 52.569 74.3307 53.1238 74.1914C53.2584 74.1566 53.4141 74.1194 53.4721 74.1078C53.5303 74.0963 53.6138 74.0775 53.6578 74.0659C53.7021 74.0544 53.9018 74.0033 54.1039 73.9498C54.3033 73.8989 54.5425 73.8339 54.6379 73.8059C54.7306 73.7804 54.8607 73.7432 54.9234 73.7269C55.5989 73.5527 57.4497 72.9376 58.2645 72.6149C58.3807 72.5682 58.4758 72.5358 58.4806 72.5406C58.499 72.5566 57.7329 72.9632 56.9665 73.3438C56.3258 73.6621 55.1555 74.2029 55.1092 74.2029C55.1044 74.2029 54.9279 74.2749 54.7214 74.3631C53.9249 74.6998 52.5294 75.2038 51.6495 75.4707C50.8739 75.7075 49.4412 76.093 49.0721 76.1649C48.9839 76.1836 48.7375 76.2347 48.5262 76.2811C48.0481 76.3857 47.8041 76.4344 47.2121 76.5343C46.5807 76.6433 45.3429 76.8267 45.2059 76.8314C45.1875 76.8314 45.0458 76.8454 44.8924 76.8638C43.4877 77.0195 41.672 77.0938 40.1095 77.0567C37.7015 77.0008 35.0709 76.6736 32.9393 76.1673C32.7999 76.1349 32.6677 76.1069 32.6421 76.1069C32.6166 76.1069 32.5794 76.0977 32.5562 76.0861C32.5352 76.0745 32.3658 76.0282 32.18 75.9815C31.6505 75.8537 30.9539 75.6612 30.427 75.4962C30.2876 75.4546 30.0576 75.3848 29.9162 75.3408C29.7768 75.2989 29.6398 75.257 29.6143 75.2454C29.5887 75.2338 29.3331 75.1435 29.0455 75.0413C28.5973 74.8832 28.3418 74.7905 27.745 74.5628C27.6871 74.542 27.6104 74.5093 27.5709 74.4933C27.5338 74.4769 27.3876 74.4142 27.2458 74.3587C26.0152 73.857 24.1415 72.942 23.1478 72.3548C22.4649 71.9531 22.2444 71.8208 22.0471 71.6999C21.9193 71.6211 21.8079 71.5629 21.7986 71.5676C21.7894 71.5745 21.7778 71.5653 21.7707 71.5468C21.7639 71.5305 21.6037 71.4191 21.4132 71.2984C21.2251 71.1798 21.0602 71.0731 21.0462 71.0615C21.0346 71.052 20.8884 70.9498 20.7214 70.8363C20.034 70.3671 19.3746 69.8889 18.9681 69.5662C18.9497 69.5498 18.8287 69.4568 18.7012 69.3573C18.2136 68.9787 17.5729 68.4423 17.0178 67.9478C16.2864 67.2976 15.1693 66.2064 14.6145 65.5981C13.7507 64.6575 13.5117 64.3791 12.7828 63.478C11.7005 62.1384 10.5162 60.3898 9.6063 58.7854C9.20215 58.0725 8.66575 57.044 8.36145 56.3938C7.98999 55.595 7.76711 55.0818 7.46073 54.3133C6.39953 51.6456 5.62183 48.6944 5.26641 45.9916C5.24085 45.7803 5.20846 45.5874 5.19925 45.5619C5.18766 45.5366 5.17369 45.4157 5.16656 45.295C5.15973 45.1744 5.14576 45.0326 5.13893 44.9815C5.10624 44.7866 5.15259 44.9304 5.27592 45.4112V45.4109ZM263.897 12.8507C262.202 12.9016 260.444 13.15 258.951 13.5473C258.483 13.6727 257.795 13.8837 257.651 13.9488C257.625 13.9604 257.547 13.9859 257.477 14.0091C257.333 14.0534 256.887 14.2228 256.732 14.2926C256.676 14.3182 256.509 14.3877 256.363 14.4504C255.601 14.7708 254.695 15.2676 253.88 15.8112C253.439 16.1036 252.891 16.5077 252.861 16.5633C252.849 16.582 252.833 16.5981 252.821 16.5936C252.794 16.5868 252.127 17.1484 251.8 17.4572C251.196 18.0263 250.588 18.6833 250.128 19.2545C250.026 19.3823 249.938 19.4913 249.931 19.4982C249.835 19.5864 249.104 20.6292 248.842 21.0494C248.41 21.7412 247.994 22.4844 248.017 22.5216C248.025 22.5308 248.017 22.54 248.003 22.54C247.939 22.54 247.119 24.3465 246.901 24.9664C246.877 25.0291 246.847 25.1126 246.831 25.1521C246.792 25.2404 246.573 25.879 246.452 26.2552C245.686 28.6305 245.215 31.2055 244.973 34.3237C244.822 36.2836 244.808 39.0583 244.939 41.162C245.159 44.6983 245.765 47.8189 246.757 50.5309C247.235 51.8381 247.667 52.7552 248.549 54.3388C249.281 55.6508 250.402 57.2226 251.328 58.235C252.51 59.5307 253.697 60.4805 255.078 61.2421C255.501 61.4766 256.511 61.9431 256.595 61.9431C256.609 61.9431 256.643 61.9571 256.671 61.9755C256.855 62.0965 258.218 62.533 258.991 62.7211C259.358 62.8094 259.342 62.807 259.938 62.9277C261.464 63.2344 262.962 63.3782 264.889 63.399C266.233 63.4153 267.357 63.369 268.077 63.2667C268.167 63.2552 268.385 63.2272 268.564 63.2085C268.903 63.1693 269.584 63.0578 269.865 62.9972C270.601 62.835 270.784 62.7907 271.153 62.684C271.88 62.4772 272.746 62.1544 273.255 61.9015C273.382 61.8365 273.524 61.769 273.568 61.7482C273.823 61.632 274.645 61.1654 274.715 61.0932C274.734 61.0748 274.757 61.0608 274.766 61.0608C274.785 61.0608 275.279 60.7357 275.402 60.643C275.447 60.608 275.581 60.5081 275.699 60.4222C275.816 60.3363 275.913 60.2576 275.913 60.2481C275.913 60.2365 275.927 60.2249 275.946 60.2204C275.995 60.2086 276.584 59.7117 276.9 59.4145C278.43 57.9726 279.731 56.1685 280.754 54.0601C281.04 53.4729 281.509 52.4001 281.509 52.335C281.509 52.3234 281.528 52.2747 281.553 52.2236C281.611 52.1029 281.871 51.3852 282.018 50.949C282.326 50.0156 282.619 48.9636 282.854 47.9419C282.96 47.4754 283.134 46.651 283.134 46.6067C283.134 46.5907 283.09 46.5627 283.037 46.5443C282.851 46.4792 282.333 46.2888 282.264 46.2584C282.227 46.24 281.73 46.0543 281.161 45.8406C280.592 45.6269 279.977 45.3949 279.791 45.325C279.605 45.2555 279.35 45.158 279.222 45.1093C278.581 44.8701 277.936 44.6264 277.643 44.517C277.26 44.3708 272.918 42.7408 272.66 42.6457L272.481 42.5806L272.442 42.8059C272.358 43.2748 272.214 43.9551 272.091 44.4591C271.32 47.6052 270.134 49.8251 268.646 50.9023C268.576 50.9535 268.509 51.0046 268.495 51.0138C268.334 51.1508 267.566 51.541 267.229 51.6572C267.109 51.6964 266.988 51.7407 266.962 51.7499C266.797 51.815 266.242 51.9404 265.882 51.9915C265.246 52.0842 264.41 52.1029 263.802 52.0402C262.845 51.9404 261.928 51.6476 261.206 51.209C261.129 51.1624 261.06 51.13 261.048 51.1368C261.039 51.1439 261.03 51.1392 261.03 51.1276C261.03 51.1136 260.911 51.0209 260.77 50.9211C260.18 50.5029 259.613 49.9178 259.135 49.226C259.047 49.1006 258.968 48.996 258.958 48.9915C258.949 48.9868 258.94 48.9728 258.94 48.9588C258.94 48.9452 258.903 48.8753 258.859 48.8034C258.62 48.4088 258.215 47.4682 258.048 46.9134C257.502 45.1161 257.228 43.2609 257.082 40.3608C257.041 39.5599 257.026 37.1983 257.057 36.3787C257.138 34.1591 257.345 32.4617 257.712 30.9734C258.102 29.3966 258.612 28.2356 259.416 27.1096C260.027 26.2529 260.804 25.5076 261.54 25.0731C261.636 25.0175 261.74 24.9548 261.773 24.934C262 24.7923 262.787 24.4719 263.142 24.3789C263.809 24.2027 264.213 24.1539 265.012 24.1539C265.859 24.1539 266.235 24.2027 266.893 24.4021C268.476 24.8805 269.858 26.0532 270.865 27.7759C271.227 28.3889 271.636 29.5057 271.954 30.741C272.003 30.9315 272.029 30.9919 272.056 30.9919C272.077 30.9919 272.221 30.9571 272.372 30.9128C272.525 30.8712 272.85 30.7806 273.092 30.7155C273.554 30.5877 274.274 30.388 274.903 30.2139C275.108 30.1583 275.333 30.0956 275.402 30.0769C275.953 29.9283 276.234 29.8495 276.266 29.8308C276.289 29.8168 276.322 29.8076 276.34 29.8076C276.359 29.8076 276.507 29.7705 276.67 29.7241C276.835 29.6798 277.116 29.6035 277.295 29.5524C278.328 29.2689 278.579 29.1993 278.641 29.1785C278.681 29.1669 278.89 29.1111 279.106 29.0531C279.324 28.9949 279.547 28.9325 279.605 28.9137C279.723 28.879 279.932 28.8207 280.325 28.714C280.471 28.6745 280.659 28.6234 280.743 28.6002C280.901 28.5539 281.613 28.3586 282.298 28.1708C282.521 28.1105 282.716 28.0499 282.733 28.0383C282.761 28.0151 282.74 27.9245 282.514 27.1491C282.287 26.3619 281.994 25.4796 281.697 24.688C281.607 24.444 281.523 24.2259 281.511 24.2003C281.497 24.1747 281.409 23.9611 281.312 23.7242C280.738 22.3403 280.007 20.9519 279.275 19.8628C278.858 19.2358 278.53 18.7948 278.502 18.8203C278.491 18.8295 278.488 18.8251 278.498 18.8111C278.532 18.7484 277.643 17.7243 277.035 17.1276C276.37 16.4798 275.758 15.9805 275.031 15.5C274.483 15.1354 273.71 14.6965 273.675 14.7315C273.668 14.7407 273.661 14.7336 273.661 14.7176C273.661 14.6944 273.566 14.6433 273.092 14.4249C272.86 14.3182 272.249 14.0697 271.931 13.9535C271.639 13.8489 270.93 13.6261 270.782 13.5937C270.749 13.5868 270.652 13.5589 270.561 13.531C270.392 13.4822 269.869 13.3568 269.69 13.3221C269.632 13.3128 269.451 13.2757 269.284 13.243C268.685 13.1224 267.796 12.9969 267.218 12.9503C267.053 12.9387 266.795 12.9179 266.649 12.9039C265.971 12.8484 264.775 12.8228 263.897 12.8507ZM88.9977 38.1085V62.547H95.0695H101.141L101.146 44.1176L101.153 25.6862L107.835 25.6793L114.516 25.6746V44.0736C114.516 54.1926 114.523 62.4888 114.529 62.5096C114.544 62.5446 115.099 62.547 120.602 62.547H126.659V38.1457C126.659 24.7248 126.652 13.7283 126.645 13.7075C126.631 13.6727 124.95 13.6703 107.815 13.6703H88.9977V38.1085ZM134.768 13.698C134.747 13.7191 134.74 19.1638 134.74 38.1364V62.547H151.342H167.943V57.0208C167.943 53.9813 167.941 51.4922 167.939 51.4898C167.934 51.4851 163.209 51.4783 157.437 51.4711L146.944 51.4598L146.946 51.3948C146.949 51.3597 146.949 49.1957 146.951 46.5835L146.953 41.8353H156.41H165.865V36.8616V31.8857L157.564 31.881C153 31.8765 148.743 31.8718 148.109 31.8694L146.953 31.8626V27.9848V24.1073L157.139 24.0957L167.328 24.0841L167.335 18.8783L167.34 13.6703H151.068C138.429 13.6703 134.789 13.6772 134.768 13.698ZM174.533 13.6864C174.494 13.6959 174.491 14.8798 174.491 38.1225V62.547H180.563H186.635V44.1108V25.6746H196.155H205.675V19.6723V13.6703L190.125 13.6727C181.571 13.6748 174.554 13.6795 174.533 13.6864ZM215.408 13.698C215.397 13.7143 215.343 13.8745 215.29 14.0534C215.174 14.4364 214.97 15.1098 214.707 15.9805C214.603 16.3244 214.482 16.7211 214.44 16.8628C214.287 17.3737 214.003 18.3071 213.477 20.0441C213.284 20.6824 213.063 21.414 212.987 21.6693C212.907 21.9249 212.773 22.3682 212.687 22.6562C212.555 23.0856 212.069 24.69 211.839 25.4541C211.809 25.5563 211.726 25.8279 211.656 26.0579C211.375 26.9842 210.983 28.2846 210.883 28.6234C210.825 28.8207 210.769 29.0044 210.76 29.0299C210.737 29.0831 210.718 29.1482 210.53 29.7845C210.451 30.0469 210.372 30.3069 210.353 30.3648C210.335 30.4231 210.267 30.6412 210.205 30.8525C210.142 31.0638 210.017 31.4748 209.929 31.7699C209.838 32.0623 209.754 32.3502 209.741 32.4082C209.724 32.4661 209.703 32.5336 209.692 32.5591C209.68 32.5847 209.606 32.8192 209.529 33.0816C209.45 33.344 209.213 34.1264 209.004 34.823C208.793 35.5196 208.596 36.1766 208.563 36.286C208.531 36.395 208.494 36.5088 208.484 36.5412C208.473 36.5736 208.347 36.9846 208.203 37.4583C207.932 38.3593 207.695 39.1486 207.358 40.2562C207.249 40.6208 207.045 41.2942 206.905 41.7563C206.766 42.216 206.615 42.7176 206.566 42.8707C206.52 43.0217 206.469 43.1937 206.453 43.2517C206.436 43.3096 206.348 43.6023 206.255 43.9019C206.165 44.2014 206.067 44.5194 206.044 44.61C206.018 44.6983 205.967 44.8653 205.93 44.9815C205.893 45.0953 205.763 45.52 205.642 45.9217C205.399 46.7321 205.089 47.7538 204.686 49.089C204.537 49.5767 204.312 50.3172 204.186 50.7398C204.059 51.16 203.903 51.6708 203.84 51.8777C203.778 52.0821 203.627 52.5834 203.504 52.9921C202.991 54.6895 202.884 55.0422 202.7 55.6392C202.596 55.9828 202.491 56.3334 202.468 56.417C202.445 56.5005 202.364 56.7652 202.289 57.0092C202.215 57.2505 202.083 57.6894 201.994 57.9842C201.909 58.2769 201.83 58.5391 201.818 58.5646C201.809 58.5905 201.79 58.6484 201.776 58.6924C201.765 58.7367 201.679 59.0199 201.588 59.3194C201.498 59.619 201.412 59.9022 201.398 59.9462C201.386 59.9904 201.335 60.1574 201.286 60.3179C201.238 60.4781 201.191 60.6451 201.182 60.6894C201.172 60.7334 201.156 60.7845 201.145 60.8056C201.115 60.8611 200.636 62.4587 200.636 62.5051C200.636 62.5446 200.875 62.547 206.833 62.547C212.218 62.547 213.033 62.5422 213.042 62.5143C213.056 62.4795 213.165 62.0198 213.581 60.26C214.02 58.3976 214.127 57.9447 214.335 57.0672C214.751 55.3141 214.939 54.5153 214.939 54.5038C214.939 54.4966 218.06 54.4898 221.877 54.4898H228.813L228.901 54.8565C228.984 55.2072 229.797 58.6041 229.941 59.2032C229.978 59.3634 230.058 59.6909 230.115 59.9346C230.173 60.1762 230.278 60.6103 230.348 60.8983C230.417 61.1862 230.533 61.6715 230.608 61.9779L230.742 62.5354L237.084 62.5422C242.898 62.547 243.425 62.5446 243.439 62.5096C243.446 62.4888 243.348 62.1313 243.223 61.7131C243.095 61.2977 242.807 60.3455 242.582 59.5979C242.357 58.8505 242.164 58.2187 242.152 58.1931C242.141 58.1676 242.12 58.1004 242.104 58.0422C242.09 57.9842 242.006 57.6963 241.916 57.4039C241.827 57.1088 241.702 56.6978 241.639 56.4865C241.576 56.2752 241.509 56.0571 241.491 55.9991C241.472 55.9409 241.37 55.6113 241.268 55.2675C241.163 54.9216 241.024 54.4571 240.957 54.2342C240.889 54.0113 240.697 53.3775 240.532 52.8295C240.364 52.2791 240.107 51.4295 239.958 50.9371C239.807 50.445 239.673 49.9969 239.656 49.9389C239.64 49.8807 239.549 49.5882 239.459 49.2887C239.366 48.9891 239.278 48.6964 239.262 48.6385C239.245 48.5805 239.194 48.4088 239.145 48.2554C239.099 48.1021 238.925 47.5262 238.76 46.9782C238.595 46.4281 238.451 45.9636 238.44 45.9449C238.428 45.9241 238.412 45.873 238.402 45.829C238.393 45.7848 238.347 45.6177 238.298 45.4576C238.249 45.2971 238.198 45.1301 238.186 45.0858C238.172 45.0418 238.087 44.7586 237.996 44.4591C237.906 44.1595 237.82 43.8763 237.808 43.832C237.794 43.7881 237.775 43.7298 237.766 43.7043C237.755 43.679 237.685 43.4537 237.613 43.2053C237.541 42.9569 237.413 42.5387 237.334 42.2763C237.253 42.0139 237.16 41.7123 237.13 41.603C237.098 41.4939 236.986 41.1224 236.881 40.7789C236.777 40.4327 236.605 39.8639 236.498 39.5132C235.96 37.7371 235.588 36.5065 235.296 35.5427C235.212 35.2687 235.026 34.6557 234.885 34.1844C234.743 33.7107 234.585 33.1883 234.534 33.0236C234.483 32.8563 234.341 32.3966 234.223 32.0019C234.104 31.6049 233.97 31.1612 233.926 31.015C233.596 29.933 233.461 29.4917 232.876 27.5554C232.6 26.6428 232.345 25.7952 232.307 25.6746C232.154 25.1801 231.906 24.3557 231.878 24.2583C231.862 24.2 231.741 23.8033 231.611 23.376C231.481 22.9486 231.318 22.4146 231.251 22.1917C230.835 20.8102 230.455 19.5564 230.364 19.2661C230.308 19.0803 230.234 18.8411 230.204 18.7321C230.171 18.623 230.088 18.3466 230.018 18.1166C229.848 17.5686 229.456 16.2637 229.417 16.1315C229.4 16.0736 229.349 15.9015 229.3 15.7482C229.198 15.4141 228.878 14.3506 228.759 13.9559L228.674 13.6703H222.054C216.785 13.6703 215.427 13.6772 215.408 13.698H215.408ZM222.095 27.098C222.279 27.8433 222.732 29.673 223.391 32.327C223.596 33.1559 223.874 34.275 224.007 34.8114C224.139 35.3478 224.452 36.6108 224.703 37.6209C224.954 38.6286 225.256 39.8523 225.376 40.3376C225.497 40.8229 225.741 41.8142 225.92 42.5411C226.101 43.2656 226.247 43.8692 226.247 43.8808C226.247 43.8927 224.466 43.9019 221.917 43.9019C219.534 43.9019 217.586 43.8971 217.586 43.8903C217.586 43.8739 217.749 43.2053 218.027 42.079C218.158 41.5542 218.329 40.8553 218.41 40.5233C218.754 39.1254 219.044 37.9436 219.316 36.8432C219.476 36.1977 219.815 34.8182 220.071 33.7781C220.326 32.7377 220.656 31.4005 220.802 30.8061C221.236 29.0415 221.731 27.0329 221.815 26.6894C221.856 26.5153 221.898 26.3711 221.905 26.3711C221.912 26.3711 221.998 26.6986 222.095 27.098Z" stroke="#FBFBFB" stroke-width="2" mask="url(#path-1-outside-1_522_2836)"/>
</svg>
