<svg width="535" height="80" viewBox="0 0 535 80" fill="none" xmlns="http://www.w3.org/2000/svg">
<mask id="path-1-inside-1_522_2890" fill="white">
<path fill-rule="evenodd" clip-rule="evenodd" d="M263.358 8.21777C283.157 8.21777 299.306 24.3667 299.306 44.1674C299.306 62.9957 284.702 78.5225 266.242 80.0002V68.1338V17.5387H260.472V69.0079V80.0002C242.012 78.5225 227.408 62.9957 227.408 44.1674C227.408 24.3667 243.557 8.21777 263.358 8.21777ZM258.709 63.222C256.118 64.5048 253.527 64.3567 250.94 62.2668C246.479 64.2443 242.014 64.6956 237.548 62.99C235.7 60.4544 234.221 57.6511 233.168 54.6856C238.651 57.1045 244.134 56.7898 249.611 54.5973C252.642 56.8083 255.674 56.8453 258.709 55.3149V15.7747H268.005V55.3149C271.04 56.8453 274.072 56.8083 277.104 54.5973C282.593 56.7955 288.089 57.1059 293.584 54.6671C292.553 57.6198 291.094 60.416 289.255 62.9558C284.76 64.6998 280.266 64.2571 275.774 62.2668C273.187 64.3567 270.596 64.5048 268.005 63.222V67.8661V78.0298L269.346 77.8248L270.932 77.5031L272.489 77.1087L274.018 76.6446L275.518 76.1107L276.983 75.5099L278.415 74.8436L279.81 74.1147L281.167 73.3246L282.485 72.4732L283.761 71.5649L284.991 70.601L286.177 69.5817L288.403 67.3906L289.44 66.2218L290.424 65.0059L291.352 63.746L292.223 62.4433L293.036 61.1007L293.786 59.7183L294.475 58.2989L295.099 56.8453L295.656 55.3576L296.145 53.8385L296.564 52.291L296.911 50.7149L297.185 49.1133L297.383 47.486L297.502 45.8374L297.543 44.1688L297.498 42.412L297.365 40.6808L297.148 38.9738L296.846 37.2938L296.463 35.6423L296.002 34.0236L295.463 32.4362L294.85 30.8858L294.164 29.3738L293.408 27.9003L292.582 26.4681L291.691 25.08L290.737 23.7388L289.719 22.4461L288.643 21.2047L287.509 20.0145L286.321 18.8812L285.079 17.8049L283.785 16.7884L282.444 15.8331L281.056 14.9433L279.625 14.1175L278.151 13.3616L276.638 12.6754L275.088 12.0617L273.502 11.5236L271.881 11.0623L270.231 10.6779L268.551 10.3775L266.844 10.1597L265.113 10.0273L263.358 9.98173L261.602 10.0273L259.87 10.1597L258.163 10.3775L256.483 10.6779L254.833 11.0623L253.213 11.5236L251.627 12.0617L250.076 12.6754L248.563 13.3616L247.089 14.1175L245.658 14.9433L244.27 15.8331L242.929 16.7884L241.637 17.8049L240.394 18.8812L239.205 20.0145L238.072 21.2047L236.995 22.4461L235.979 23.7388L235.024 25.08L234.132 26.4681L233.307 27.9003L232.551 29.3738L231.864 30.8858L231.252 32.4362L230.713 34.0236L230.251 35.6423L229.868 37.2938L229.567 38.9738L229.349 40.6808L229.216 42.412L229.172 44.1688L229.212 45.8374L229.332 47.486L229.529 49.1133L229.803 50.7149L230.15 52.291L230.569 53.8385L231.059 55.3576L231.615 56.8453L232.239 58.2989L232.928 59.7183L233.68 61.1007L234.491 62.4433L235.362 63.746L236.291 65.0059L237.274 66.2218L238.311 67.3906L240.537 69.5817L241.723 70.601L242.955 71.5649L244.229 72.4732L245.547 73.3246L246.904 74.1147L248.299 74.8436L249.732 75.5099L251.197 76.1107L252.696 76.6446L254.225 77.1087L255.782 77.5031L257.368 77.8248L258.709 78.0298V69.2742V63.222Z"/>
</mask>
<path fill-rule="evenodd" clip-rule="evenodd" d="M263.358 8.21777C283.157 8.21777 299.306 24.3667 299.306 44.1674C299.306 62.9957 284.702 78.5225 266.242 80.0002V68.1338V17.5387H260.472V69.0079V80.0002C242.012 78.5225 227.408 62.9957 227.408 44.1674C227.408 24.3667 243.557 8.21777 263.358 8.21777ZM258.709 63.222C256.118 64.5048 253.527 64.3567 250.94 62.2668C246.479 64.2443 242.014 64.6956 237.548 62.99C235.7 60.4544 234.221 57.6511 233.168 54.6856C238.651 57.1045 244.134 56.7898 249.611 54.5973C252.642 56.8083 255.674 56.8453 258.709 55.3149V15.7747H268.005V55.3149C271.04 56.8453 274.072 56.8083 277.104 54.5973C282.593 56.7955 288.089 57.1059 293.584 54.6671C292.553 57.6198 291.094 60.416 289.255 62.9558C284.76 64.6998 280.266 64.2571 275.774 62.2668C273.187 64.3567 270.596 64.5048 268.005 63.222V67.8661V78.0298L269.346 77.8248L270.932 77.5031L272.489 77.1087L274.018 76.6446L275.518 76.1107L276.983 75.5099L278.415 74.8436L279.81 74.1147L281.167 73.3246L282.485 72.4732L283.761 71.5649L284.991 70.601L286.177 69.5817L288.403 67.3906L289.44 66.2218L290.424 65.0059L291.352 63.746L292.223 62.4433L293.036 61.1007L293.786 59.7183L294.475 58.2989L295.099 56.8453L295.656 55.3576L296.145 53.8385L296.564 52.291L296.911 50.7149L297.185 49.1133L297.383 47.486L297.502 45.8374L297.543 44.1688L297.498 42.412L297.365 40.6808L297.148 38.9738L296.846 37.2938L296.463 35.6423L296.002 34.0236L295.463 32.4362L294.85 30.8858L294.164 29.3738L293.408 27.9003L292.582 26.4681L291.691 25.08L290.737 23.7388L289.719 22.4461L288.643 21.2047L287.509 20.0145L286.321 18.8812L285.079 17.8049L283.785 16.7884L282.444 15.8331L281.056 14.9433L279.625 14.1175L278.151 13.3616L276.638 12.6754L275.088 12.0617L273.502 11.5236L271.881 11.0623L270.231 10.6779L268.551 10.3775L266.844 10.1597L265.113 10.0273L263.358 9.98173L261.602 10.0273L259.87 10.1597L258.163 10.3775L256.483 10.6779L254.833 11.0623L253.213 11.5236L251.627 12.0617L250.076 12.6754L248.563 13.3616L247.089 14.1175L245.658 14.9433L244.27 15.8331L242.929 16.7884L241.637 17.8049L240.394 18.8812L239.205 20.0145L238.072 21.2047L236.995 22.4461L235.979 23.7388L235.024 25.08L234.132 26.4681L233.307 27.9003L232.551 29.3738L231.864 30.8858L231.252 32.4362L230.713 34.0236L230.251 35.6423L229.868 37.2938L229.567 38.9738L229.349 40.6808L229.216 42.412L229.172 44.1688L229.212 45.8374L229.332 47.486L229.529 49.1133L229.803 50.7149L230.15 52.291L230.569 53.8385L231.059 55.3576L231.615 56.8453L232.239 58.2989L232.928 59.7183L233.68 61.1007L234.491 62.4433L235.362 63.746L236.291 65.0059L237.274 66.2218L238.311 67.3906L240.537 69.5817L241.723 70.601L242.955 71.5649L244.229 72.4732L245.547 73.3246L246.904 74.1147L248.299 74.8436L249.732 75.5099L251.197 76.1107L252.696 76.6446L254.225 77.1087L255.782 77.5031L257.368 77.8248L258.709 78.0298V69.2742V63.222Z" stroke="#FBFBFB" stroke-width="2" mask="url(#path-1-inside-1_522_2890)"/>
<path d="M521.099 34.2926L521.101 34.2955C521.722 35.3717 521.597 36.8165 520.953 38.502C520.953 38.5021 520.953 38.5022 520.953 38.5023L521.099 34.2926ZM521.099 34.2926C520.34 32.9975 518.679 32.4723 516.441 32.4723H494.244H493.9M521.099 34.2926L493.9 32.4723M493.9 32.4723L493.777 32.7941M493.9 32.4723L493.777 32.7941M493.777 32.7941L489.895 42.9735L489.636 43.6516M493.777 32.7941L489.636 43.6516M489.636 43.6516H490.362M489.636 43.6516H490.362M490.362 43.6516H512.559M490.362 43.6516H512.559M326.517 47.478H326.861H350.262C352.319 47.478 353.866 48.0185 354.653 49.2895C355.416 50.5215 355.385 52.0472 354.727 53.7711L326.517 47.478ZM326.517 47.478L326.394 47.7998M326.517 47.478L326.394 47.7998M326.394 47.7998L322.11 59.0298L321.851 59.708M326.394 47.7998L321.851 59.708M321.851 59.708H322.577M321.851 59.708H322.577M322.577 59.708H345.98M322.577 59.708H345.98M512.559 43.6516C514.877 43.6516 516.724 43.2517 518.032 42.3872L512.559 43.6516ZM345.98 59.708C348.097 59.708 349.932 59.1671 351.455 58.064M345.98 59.708L351.455 58.064M351.455 58.064C352.961 56.9749 354.054 55.5386 354.727 53.7713L351.455 58.064ZM469.03 57.4847L468.958 57.0694H468.537H441.188H440.959L440.81 57.2422L435.366 63.5343H430.659L461.113 28.6445H468.812L475.084 63.5343H470.069L469.03 57.4847ZM467.769 53.5264H468.361L468.262 52.9427L464.769 32.3632L464.698 31.9469H464.276H462.912H462.683L462.533 32.1202L444.766 52.6996L444.052 53.5264H445.144H467.769ZM496.229 48.3512L513.262 63.5343H507.705L489.835 47.6047L489.693 47.478H489.502H489.5H489.498H489.496H489.494H489.492H489.491H489.489H489.487H489.485H489.483H489.481H489.479H489.477H489.475H489.473H489.471H489.469H489.468H489.466H489.464H489.462H489.46H489.458H489.456H489.454H489.452H489.45H489.448H489.446H489.445H489.443H489.441H489.439H489.437H489.435H489.433H489.431H489.429H489.427H489.425H489.423H489.421H489.42H489.418H489.416H489.414H489.412H489.41H489.408H489.406H489.404H489.402H489.4H489.398H489.397H489.395H489.393H489.391H489.389H489.387H489.385H489.383H489.381H489.379H489.377H489.375H489.374H489.372H489.37H489.368H489.366H489.364H489.362H489.36H489.358H489.356H489.354H489.352H489.351H489.349H489.347H489.345H489.343H489.341H489.339H489.337H489.335H489.333H489.331H489.329H489.327H489.326H489.324H489.322H489.32H489.318H489.316H489.314H489.312H489.31H489.308H489.306H489.304H489.303H489.301H489.299H489.297H489.295H489.293H489.291H489.289H489.287H489.285H489.283H489.281H489.28H489.278H489.276H489.274H489.272H489.27H489.268H489.266H489.264H489.262H489.26H489.258H489.257H489.255H489.253H489.251H489.249H489.247H489.245H489.243H489.241H489.239H489.237H489.235H489.233H489.232H489.23H489.228H489.226H489.224H489.222H489.22H489.218H489.216H489.214H489.212H489.21H489.209H489.207H489.205H489.203H489.201H489.199H489.197H489.195H489.193H489.191H489.189H489.187H489.186H489.184H489.182H489.18H489.178H489.176H489.174H489.172H489.17H489.168H489.166H489.164H489.163H489.161H489.159H489.157H489.155H489.153H489.151H489.149H489.147H489.145H489.143H489.141H489.14H489.138H489.136H489.134H489.132H489.13H489.128H489.126H489.124H489.122H489.12H489.118H489.117H489.115H489.113H489.111H489.109H489.107H489.105H489.103H489.101H489.099H489.097H489.095H489.094H489.092H489.09H489.088H489.086H489.084H489.082H489.08H489.078H489.076H489.074H489.072H489.071H489.069H489.067H489.065H489.063H489.061H489.059H489.057H489.055H489.053H489.051H489.049H489.048H489.046H489.044H489.042H489.04H489.038H489.036H489.034H489.032H489.03H489.028H489.026H489.025H489.023H489.021H489.019H489.017H489.015H489.013H489.011H489.009H489.007H489.005H489.003H489.002H489H488.998H488.996H488.994H488.992H488.99H488.988H488.986H488.984H488.982H488.98H488.979H488.977H488.975H488.973H488.971H488.969H488.967H488.965H488.963H488.961H488.959H488.957H488.956H488.954H488.952H488.95H488.948H488.946H488.944H488.942H488.94H488.938H488.936H488.934H488.933H488.931H488.929H488.927H488.925H488.923H488.921H488.919H488.917H488.915H488.913H488.911H488.91H488.908H488.906H488.904H488.902H488.9H488.898H488.896H488.894H488.892H488.89H488.888H488.887H488.885H488.883H488.881H488.879H488.877H488.875H488.873H488.871H488.869H488.867H488.865H488.864H488.862H488.86H488.858H488.856H488.854H488.852H488.85H488.848H488.846H488.844H488.842H488.841H488.839H488.837H488.835H488.833H488.831H488.829H488.827H488.825H488.823H488.821H488.82H488.818H488.816H488.814H488.812H488.81H488.808H488.806H488.804H488.802H488.8H488.798H488.797H488.795H488.793H488.791H488.789H488.787H488.785H488.783H488.781H488.779H488.777H488.775H488.774H488.772H488.77H488.768H488.766H488.764H488.762H488.76H488.758H488.756H488.754H488.753H488.751H488.749H488.747H488.745H488.743H488.741H488.739H488.737H488.735H488.733H488.731H488.73H488.728H488.726H488.724H488.722H488.72H488.718H488.716H488.714H488.712H488.71H488.709H488.707H488.705H488.703H488.701H488.699H488.697H488.695H488.693H488.691H488.689H488.687H488.686H488.684H488.682H488.68H488.678H488.676H488.674H488.672H488.67H488.668H488.666H488.665H488.663H488.661H488.659H488.657H488.655H488.653H488.651H488.649H488.647H488.645H488.643H488.642H488.64H488.638H488.636H488.634H488.632H488.63H488.628H488.626H488.624H488.622H488.621H488.619H488.617H488.615H488.613H488.611H488.609H488.607H488.605H488.603H488.601H488.6H488.598H488.596H488.594H488.592H488.59H488.588H488.586H488.584H488.582H488.58H488.578H488.577H488.575H488.573H488.571H488.569H488.567H488.565H488.563H488.561H488.559H488.557H488.556H488.554H488.552H488.55H488.548H488.546H488.544H488.542H488.54H488.538H488.536H488.535H488.533H488.531H488.529H488.527H488.525H488.523H488.521H488.177L488.054 47.7999L482.059 63.5317L477.771 63.534L491.079 28.6445H518.282C521.905 28.6445 524.18 29.5106 525.327 31.0653L525.327 31.0654C526.466 32.6076 526.55 34.9144 525.319 38.1457C524.643 39.9183 523.757 41.6887 522.673 43.1323C521.587 44.5798 520.33 45.662 518.924 46.1249L518.893 46.1352L518.863 46.1496C516.643 47.2215 514.576 47.3512 511.913 47.478H511.895H511.865H511.835H511.805H511.775H511.745H511.715H511.685H511.655H511.625H511.595H511.565H511.535H511.505H511.475H511.445H511.415H511.385H511.355H511.325H511.295H511.265H511.235H511.205H511.175H511.145H511.115H511.085H511.055H511.025H510.995H510.965H510.935H510.905H510.875H510.845H510.815H510.785H510.755H510.725H510.695H510.665H510.635H510.605H510.575H510.545H510.515H510.485H510.455H510.425H510.395H510.364H510.334H510.304H510.274H510.244H510.214H510.184H510.154H510.124H510.094H510.064H510.034H510.004H509.974H509.944H509.914H509.884H509.854H509.824H509.794H509.764H509.734H509.704H509.674H509.644H509.614H509.584H509.554H509.524H509.494H509.464H509.434H509.404H509.374H509.344H509.314H509.284H509.254H509.224H509.194H509.164H509.134H509.104H509.074H509.044H509.014H508.984H508.954H508.924H508.894H508.864H508.834H508.804H508.774H508.744H508.714H508.684H508.654H508.624H508.594H508.564H508.534H508.504H508.474H508.444H508.414H508.384H508.354H508.324H508.294H508.264H508.234H508.204H508.174H508.144H508.114H508.084H508.054H508.024H507.994H507.964H507.934H507.904H507.874H507.844H507.814H507.784H507.754H507.724H507.693H507.663H507.633H507.603H507.573H507.543H507.513H507.483H507.453H507.423H507.393H507.363H507.333H507.303H507.273H507.243H507.213H507.183H507.153H507.123H507.093H507.063H507.033H507.003H506.973H506.943H506.913H506.883H506.853H506.823H506.793H506.763H506.733H506.703H506.673H506.643H506.613H506.583H506.553H506.523H506.493H506.463H506.433H506.403H506.373H506.343H506.313H506.283H506.253H506.223H506.193H506.163H506.133H506.103H506.073H506.043H506.013H505.983H505.953H505.923H505.893H505.863H505.833H505.803H505.773H505.743H505.713H505.683H505.653H505.623H505.593H505.563H505.533H505.503H505.473H505.443H505.413H505.383H505.353H505.323H505.293H505.263H505.233H505.203H505.173H505.143H505.113H505.083H505.053H505.023H504.993H504.963H504.933H504.903H504.873H504.843H504.813H504.783H504.753H504.723H504.693H504.663H504.633H504.603H504.573H504.543H504.513H504.483H504.453H504.423H504.393H504.363H504.333H504.303H504.273H504.243H504.213H504.183H504.153H504.123H504.093H504.063H504.033H504.003H503.973H503.943H503.913H503.883H503.853H503.823H503.793H503.763H503.733H503.703H503.673H503.643H503.612H503.582H503.552H503.522H503.492H503.462H503.432H503.402H503.372H503.342H503.312H503.282H503.252H503.222H503.192H503.162H503.132H503.102H503.072H503.042H503.012H502.982H502.952H502.922H502.892H502.862H502.832H502.802H502.772H502.742H502.712H502.682H502.652H502.622H502.592H502.562H502.532H502.502H502.472H502.442H502.412H502.382H502.352H502.322H502.292H502.262H502.232H502.202H502.172H502.142H502.112H502.082H502.052H502.022H501.992H501.962H501.932H501.902H501.872H501.842H501.812H501.782H501.752H501.722H501.692H501.662H501.632H501.602H501.572H501.542H501.512H501.482H501.452H501.422H501.392H501.362H501.332H501.302H501.272H501.242H501.212H501.182H501.152H501.122H501.092H501.062H501.032H501.002H500.972H500.942H500.912H500.882H500.852H500.822H500.792H500.762H500.732H500.702H500.672H500.642H500.612H500.582H500.552H500.522H500.492H500.462H500.432H500.402H500.372H500.342H500.312H500.282H500.252H500.222H500.192H500.162H500.132H500.102H500.072H500.042H500.012H499.982H499.952H499.922H499.892H499.862H499.832H499.802H499.772H499.742H499.712H499.682H499.652H499.622H499.592H499.562H499.532H499.502H499.472H499.442H499.412H499.382H499.352H499.322H499.292H499.262H499.232H499.202H499.172H499.142H499.112H499.082H499.052H499.022H498.992H498.962H498.932H498.902H498.872H498.842H498.812H498.782H498.752H498.722H498.692H498.662H498.632H498.602H498.572H498.542H498.512H498.482H498.452H498.422H498.392H498.362H498.332H498.302H498.272H498.242H498.212H498.182H498.152H498.122H498.092H498.062H498.032H498.002H497.972H497.942H497.912H497.882H497.852H497.822H497.792H497.762H497.732H497.702H497.672H497.642H497.612H497.582H497.552H497.522H497.492H497.462H497.432H497.402H497.372H497.342H497.312H497.282H497.252H497.222H497.192H497.162H497.132H497.102H497.072H497.042H497.012H496.982H496.952H496.922H496.892H496.862H496.832H496.802H496.772H496.742H496.712H496.682H496.652H496.622H496.592H496.562H495.25L496.229 48.3512ZM365.143 59.708H393.433L391.972 63.5343H358.675L371.982 28.6445H405.282L403.822 32.4723H375.148H374.804L374.681 32.794L370.698 43.2354L370.439 43.9136H371.165H398.46L397.001 47.7399H369.326H368.981L368.858 48.0618L364.676 59.0299L364.417 59.708H365.143ZM359.293 38.5024L359.293 38.5019C359.935 36.817 360.062 35.3719 359.441 34.2955L359.439 34.2926C358.68 32.9975 357.019 32.4723 354.78 32.4723H332.584H332.24L332.117 32.7941L328.235 42.9735L327.976 43.6516H328.702H350.897C353.216 43.6516 355.062 43.2517 356.372 42.3874C357.671 41.5314 358.637 40.2193 359.293 38.5024ZM353.431 61.0212L353.43 61.0214C350.927 62.6892 347.855 63.5343 344.19 63.5343H316.111L329.418 28.6445H356.622C360.244 28.6445 362.518 29.5105 363.667 31.0654C364.806 32.6077 364.891 34.9146 363.658 38.1456L363.658 38.1458C362.326 41.638 360.196 43.8177 357.286 44.7752L355.965 45.2096L357.26 45.7158C358.481 46.1935 359.258 46.9702 359.645 48.0436L359.646 48.0444C360.133 49.3905 360.012 51.1444 359.166 53.3621C357.847 56.8193 355.93 59.3589 353.431 61.0212ZM413.719 63.5343L425.308 33.1505L425.567 32.4723H424.841H407.556L409.016 28.6445H452.727L451.266 32.4723H430.194H429.85L429.727 32.7941L418.002 63.5343H413.719Z" stroke="#FBFBFB"/>
<path d="M38.0487 61.0213L38.0485 61.0214C35.5448 62.6892 32.4727 63.5343 28.8084 63.5343H0.725894L14.036 28.6445H52.674L51.2145 32.4723H17.2025H16.8581L16.7353 32.794L12.8515 42.9734L12.5927 43.6516H13.3186H35.4917C35.7389 43.6737 35.9812 43.6944 36.2188 43.7147C37.3161 43.8085 38.3114 43.8937 39.2078 44.0576C40.2988 44.2571 41.1782 44.5638 41.8506 45.0968L41.8743 45.1155L41.9001 45.1313C42.9312 45.7627 43.5775 46.714 43.9931 47.862L43.9932 47.8621C44.4965 49.2511 44.6094 51.1974 43.7826 53.3619L43.7825 53.3622C42.4649 56.8193 40.5464 59.3589 38.0487 61.0213ZM11.3796 47.478H11.0295L10.9097 47.8069L6.82229 59.037L6.57806 59.708H7.29214H30.6948C32.8115 59.708 34.6396 59.1688 36.1456 58.0622C37.6358 56.9713 38.7029 55.5327 39.3479 53.7643L39.348 53.7639C39.9761 52.0366 39.9775 50.5122 39.196 49.2841C38.391 48.0191 36.8395 47.478 34.7822 47.478H11.3796ZM161.456 63.534L174.764 28.6445H201.968C205.59 28.6445 207.864 29.5105 209.013 31.0654C210.152 32.6076 210.236 34.9144 209.003 38.1457L209.003 38.1459C208.328 39.9184 207.442 41.6888 206.358 43.1324C205.272 44.5798 204.016 45.662 202.61 46.1249L202.579 46.1352L202.549 46.1495C200.327 47.2216 198.261 47.3512 195.596 47.478H195.562H195.516H195.471H195.425H195.379H195.334H195.288H195.242H195.197H195.151H195.105H195.059H195.014H194.968H194.922H194.877H194.831H194.785H194.74H194.694H194.648H194.602H194.557H194.511H194.465H194.42H194.374H194.328H194.282H194.237H194.191H194.145H194.1H194.054H194.008H193.963H193.917H193.871H193.825H193.78H193.734H193.688H193.643H193.597H193.551H193.505H193.46H193.414H193.368H193.323H193.277H193.231H193.186H193.14H193.094H193.048H193.003H192.957H192.911H192.866H192.82H192.774H192.728H192.683H192.637H192.591H192.546H192.5H192.454H192.409H192.363H192.317H192.271H192.226H192.18H192.134H192.089H192.043H191.997H191.951H191.906H191.86H191.814H191.769H191.723H191.677H191.632H191.586H191.54H191.494H191.449H191.403H191.357H191.312H191.266H191.22H191.174H191.129H191.083H191.037H190.992H190.946H190.9H190.855H190.809H190.763H190.717H190.672H190.626H190.58H190.535H190.489H190.443H190.397H190.352H190.306H190.26H190.215H190.169H190.123H190.078H190.032H189.986H189.94H189.895H189.849H189.803H189.758H189.712H189.666H189.62H189.575H189.529H189.483H189.438H189.392H189.346H189.301H189.255H189.209H189.163H189.118H189.072H189.026H188.981H188.935H188.889H188.844H188.798H188.752H188.706H188.661H188.615H188.569H188.524H188.478H188.432H188.386H188.341H188.295H188.249H188.204H188.158H188.112H188.067H188.021H187.975H187.929H187.884H187.838H187.792H187.747H187.701H187.655H187.609H187.564H187.518H187.472H187.427H187.381H187.335H187.29H187.244H187.198H187.152H187.107H187.061H187.015H186.97H186.924H186.878H186.832H186.787H186.741H186.695H186.65H186.604H186.558H186.513H186.467H186.421H186.375H186.33H186.284H186.238H186.193H186.147H186.101H186.055H186.01H185.964H185.918H185.873H185.827H185.781H185.736H185.69H185.644H185.598H185.553H185.507H185.461H185.416H185.37H185.324H185.278H185.233H185.187H185.141H185.096H185.05H185.004H184.959H184.913H184.867H184.821H184.776H184.73H184.684H184.639H184.593H184.547H184.501H184.456H184.41H184.364H184.319H184.273H184.227H184.182H184.136H184.09H184.044H183.999H183.953H183.907H183.862H183.816H183.77H183.724H183.679H183.633H183.587H183.542H183.496H183.45H183.405H183.359H183.313H183.267H183.222H183.176H183.13H183.085H183.039H182.993H182.947H182.902H182.856H182.81H182.765H182.719H182.673H182.628H182.582H182.536H182.49H182.445H182.399H182.353H182.308H182.262H182.216H182.171H182.125H182.079H182.033H181.988H181.942H181.896H181.851H181.805H181.759H181.713H181.668H181.622H181.576H181.531H181.485H181.439H181.394H181.348H181.302H181.256H181.211H181.165H181.119H181.074H181.028H180.982H180.936H180.891H180.845H180.799H180.754H180.708H180.662H180.617H180.571H180.525H180.479H180.434H180.388H180.342H180.297H180.251H180.205H180.159H180.114H180.068H180.022H179.977H179.931H179.885H179.84H179.794H179.748H179.702H179.657H179.611H179.565H179.52H179.474H179.428H179.382H179.337H179.291H179.245H179.2H179.154H179.108H179.063H179.017H178.971H178.925H178.88H178.834H178.788H178.743H178.697H178.651H178.605H178.56H178.514H178.468H178.423H178.377H178.331H178.286H178.24H178.194H178.148H178.103H178.057H178.011H177.966H177.92H177.874H177.828H177.783H177.737H177.691H177.646H177.6H177.554H177.509H177.463H177.417H177.371H177.326H177.28H177.234H177.189H177.143H177.097H177.051H177.006H176.96H176.914H176.869H176.823H176.777H176.732H176.686H176.64H176.594H176.549H176.503H176.457H176.412H176.366H176.32H176.274H176.229H176.183H176.137H176.092H176.046H176H175.955H175.909H175.863H175.817H175.772H175.726H175.68H175.635H175.589H175.543H175.497H175.452H175.406H175.36H175.315H175.269H175.223H175.178H175.132H175.086H175.04H174.995H174.949H174.903H174.858H174.812H174.766H174.721H174.675H174.629H174.583H174.538H174.492H174.446H174.401H174.355H174.309H174.263H174.218H174.172H174.126H174.081H174.035H173.989H173.944H173.898H173.852H173.806H173.761H173.715H173.669H173.624H173.578H173.532H173.486H173.441H173.395H173.349H173.304H173.258H173.212H173.167H173.121H173.075H173.029H172.984H172.938H172.892H172.847H172.801H172.755H172.709H172.664H172.618H172.572H172.527H172.481H172.435H172.39H172.344H172.298H172.252H172.207H171.862L171.739 47.7999L165.745 63.5317L161.456 63.534ZM204.638 38.5024L204.639 38.5019C205.281 36.817 205.408 35.3719 204.787 34.2955L204.785 34.2926C204.026 32.9975 202.364 32.4723 200.125 32.4723H177.93H177.586L177.463 32.7941L173.58 42.9735L173.322 43.6516H174.048H196.243C198.562 43.6516 200.408 43.2517 201.718 42.3873C203.017 41.5312 203.982 40.2193 204.638 38.5024ZM49.758 59.708H78.0498L76.5904 63.5343H43.2914L56.6001 28.6445H89.899L88.4384 32.4723H59.7665H59.4221L59.2994 32.794L55.3159 43.2354L55.0571 43.9136H55.783H83.0781L81.6175 47.7413H53.9422H53.5978L53.475 48.0631L49.2908 59.0298L49.032 59.708H49.758ZM102.617 63.5343H98.3355L109.926 33.1505L110.185 32.4723H109.459H92.1722L93.6318 28.6445H137.344L135.883 32.4723H114.811H114.466L114.343 32.7941L102.617 63.5343ZM151.935 53.5264H152.517L152.429 52.9511L149.294 32.3716L149.229 31.9469H148.8H147.436H147.21L147.061 32.1164L128.933 52.6959L128.201 53.5264H129.308H151.935ZM153.117 57.493L153.051 57.0694H152.622H125.273H125.048L124.898 57.2385L119.342 63.5343H114.647L145.71 28.6445H153.403L159.068 63.5343H154.051L153.117 57.493Z" stroke="#FBFBFB"/>
<path d="M523.801 7.88155V8.38155H524.301H527.069C527.454 8.38155 527.815 8.33295 528.128 8.21148V8.36703V8.40405V8.60685C527.782 8.46535 527.367 8.41515 526.947 8.41515H524.301H523.801V8.91515V12.3445H523.554V4.09054H527.159C527.298 4.09054 527.488 4.09827 527.727 4.11354C527.936 4.12948 528.158 4.16868 528.396 4.23466C528.717 4.32412 529.029 4.50714 529.324 4.79976L529.325 4.80048C529.539 5.01255 529.7 5.39965 529.7 6.07346C529.7 6.58511 529.573 6.97879 529.348 7.28522C529.179 7.51576 528.988 7.67838 528.775 7.78316C528.993 7.57076 529.164 7.32668 529.27 7.04884L529.27 7.04889L529.275 7.03744C529.326 6.89109 529.363 6.74438 529.385 6.59347C529.405 6.46034 529.416 6.33022 529.416 6.20871C529.416 5.53044 529.206 4.93145 528.672 4.57222L528.672 4.57221L528.669 4.57039C528.203 4.26164 527.587 4.13838 526.883 4.13838H524.301H523.801V4.63838V7.88155ZM528.895 9.35322C528.831 9.18492 528.738 9.04454 528.623 8.92811C529.071 9.0884 529.234 9.29795 529.287 9.49492L529.287 9.4953C529.395 9.89612 529.458 10.3606 529.475 10.8936C529.475 10.9706 529.478 11.0411 529.481 11.0987L529.482 11.1123L529.483 11.1259C529.486 11.1565 529.488 11.1952 529.488 11.2486H529.488L529.488 11.2593C529.496 11.6603 529.515 11.9831 529.55 12.2122C529.557 12.2569 529.564 12.301 529.573 12.3445H529.31C529.28 12.2753 529.26 12.1987 529.25 12.1133L528.753 12.1711L529.25 12.1133C529.228 11.9253 529.208 11.6396 529.192 11.2515V11.2513V11.2511V11.2509V11.2507V11.2505V11.2503V11.2501V11.2499V11.2497V11.2495V11.2493V11.2491V11.2489V11.2487V11.2485V11.2483V11.2481V11.2479V11.2477V11.2475V11.2473V11.2471V11.2469V11.2467V11.2465V11.2463V11.2461V11.2459V11.2457V11.2455V11.2453V11.2451V11.2449V11.2447V11.2444V11.2442V11.244V11.2438V11.2436V11.2434V11.2432V11.243V11.2428V11.2426V11.2424V11.2422V11.242V11.2418V11.2416V11.2414V11.2412V11.241V11.2408V11.2406V11.2404V11.2402V11.24V11.2398V11.2396V11.2394V11.2392V11.2389V11.2387V11.2385V11.2383V11.2381V11.2379V11.2377V11.2375V11.2373V11.2371V11.2369V11.2367V11.2365V11.2363V11.2361V11.2359V11.2357V11.2355V11.2353V11.2351V11.2349V11.2347V11.2344V11.2342V11.234V11.2338V11.2336V11.2334V11.2332V11.233V11.2328V11.2326V11.2324V11.2322V11.232V11.2318V11.2316V11.2314V11.2312V11.231V11.2307V11.2305V11.2303V11.2301V11.2299V11.2297V11.2295V11.2293V11.2291V11.2289V11.2287V11.2285V11.2283V11.2281V11.2279V11.2277V11.2274V11.2272V11.227V11.2268V11.2266V11.2264V11.2262V11.226V11.2258V11.2256V11.2254V11.2252V11.225V11.2248V11.2246V11.2243V11.2241V11.2239V11.2237V11.2235V11.2233V11.2231V11.2229V11.2227V11.2225V11.2223V11.2221V11.2219V11.2217V11.2214V11.2212V11.221V11.2208V11.2206V11.2204V11.2202V11.22V11.2198V11.2196V11.2194V11.2192V11.2189V11.2187V11.2185V11.2183V11.2181V11.2179V11.2177V11.2175V11.2173V11.2171V11.2169V11.2167V11.2164V11.2162V11.216V11.2158V11.2156V11.2154V11.2152V11.215V11.2148V11.2146V11.2144V11.2141V11.2139V11.2137V11.2135V11.2133V11.2131V11.2129V11.2127V11.2125V11.2123V11.212V11.2118V11.2116V11.2114V11.2112V11.211V11.2108V11.2106V11.2104V11.2102V11.2099V11.2097V11.2095V11.2093V11.2091V11.2089V11.2087V11.2085V11.2083V11.208V11.2078V11.2076V11.2074V11.2072V11.207V11.2068V11.2066V11.2064V11.2061V11.2059V11.2057V11.2055V11.2053V11.2051V11.2049V11.2047V11.2045V11.2042V11.204V11.2038V11.2036V11.2034V11.2032V11.203V11.2028V11.2025V11.2023V11.2021V11.2019V11.2017V11.2015V11.2013V11.2011V11.2009V11.2006V11.2004V11.2002V11.2V11.1998V11.1996V11.1994V11.1992V11.1989V11.1987V11.1985V11.1983V11.1981V11.1979V11.1977V11.1974V11.1972V11.197V11.1968V11.1966V11.1964V11.1962V11.196V11.1957V11.1955V11.1953V11.1951V11.1949V11.1947V11.1945V11.1942V11.194V11.1938V11.1936V11.1934V11.1932V11.193V11.1927V11.1925V11.1923V11.1921V11.1919V11.1917V11.1915V11.1912V11.191V11.1908V11.1906V11.1904V11.1902V11.1899V11.1897V11.1895V11.1893V11.1891V11.1889V11.1887V11.1884V11.1882V11.188V11.1878V11.1876V11.1874V11.1871V11.1869V11.1867V11.1865V11.1863V11.1861V11.1858V11.1856V11.1854V11.1852V11.185V11.1848V11.1845V11.1843V11.1841V11.1839V11.1837V11.1835V11.1832V11.183V11.1828V11.1826V11.1824V11.1822V11.1819V11.1817V11.1815V11.1813V11.1811V11.1809V11.1806V11.1804V11.1802V11.18V11.1798V11.1796V11.1793V11.1791V11.1789V11.1787V11.1785V11.1782V11.178V11.1778V11.1776V11.1774V11.1771V11.1769V11.1767V11.1765V11.1763V11.1761V11.1758V11.1756V11.1754V11.1752V11.175V11.1747V11.1745V11.1743V11.1741V11.1739V11.1736V11.1734V11.1732V11.173V11.1728V11.1725V11.1723V11.1721V11.1719V11.1717V11.1714V11.1712V11.171V11.1708V11.1706V11.1703V11.1701V11.1699V11.1697V11.1695V11.1692V11.169V11.1688V11.1686V11.1684V11.1681V11.1679V11.1677V11.1675V11.1673V11.167V11.1668V11.1666V11.1664V11.1661V11.1659V11.1657V11.1655V11.1653V11.165V11.1648V11.1646V11.1644V11.1642V11.1639V11.1637V11.1635V11.1633V11.163V11.1628V11.1626V11.1624V11.1622V11.1619V11.1617V11.1615V11.1613V11.161V11.1608V11.1606V11.1604V11.1601V11.1599V11.1597V11.1595V11.1593V11.159V11.1588V11.1586V11.1584V11.1581V11.1579V11.1577V11.1575V11.1572V11.157V11.1568V11.1566V11.1563V11.1561V11.1559V11.1557V11.1554V11.1552V11.155V11.1548V11.1545V11.1543V11.1541V11.1539V11.1536V11.1534V11.1532V11.153V11.1528V11.1526V11.1524V11.1521V11.1519V11.1517V11.1515V11.1513V11.1511V11.1509V11.1507V11.1505V11.1503V11.1501V11.1498V11.1496V11.1494V11.1492V11.149V11.1488V11.1486V11.1484V11.1482V11.1479V11.1477V11.1475V11.1473V11.1471V11.1469V11.1467V11.1465V11.1463V11.146V11.1458V11.1456V11.1454V11.1452V11.145V11.1448V11.1446V11.1443V11.1441V11.1439V11.1437V11.1435V11.1433V11.1431V11.1429V11.1426V11.1424V11.1422V11.142V11.1418V11.1416V11.1414V11.1412V11.1409V11.1407V11.1405V11.1403V11.1401V11.1399V11.1397V11.1394V11.1392V11.139V11.1388V11.1386V11.1384V11.1381V11.1379V11.1377V11.1375V11.1373V11.1371V11.1369V11.1366V11.1364V11.1362V11.136V11.1358V11.1356V11.1353V11.1351V11.1349V11.1347V11.1345V11.1343V11.134V11.1338V11.1336V11.1334V11.1332V11.133V11.1327V11.1325V11.1323V11.1321V11.1319V11.1317V11.1314V11.1312V11.131V11.1308V11.1306V11.1303V11.1301V11.1299V11.1297V11.1295V11.1293V11.129V11.1288V11.1286V11.1284V11.1282V11.1279V11.1277V11.1275V11.1273V11.1271V11.1268V11.1266V11.1264V11.1262V11.126V11.1257V11.1255V11.1253V11.1251V11.1249V11.1246V11.1244V11.1242V11.124V11.1238V11.1235V11.1233V11.1231V11.1229V11.1227V11.1224V11.1222V11.122V11.1218V11.1215V11.1213V11.1211V11.1209V11.1207V11.1204V11.1202V11.12V11.1198V11.1195V11.1193V11.1191V11.1189V11.1187V11.1184V11.1182V11.118V11.1178V11.1175V11.1173V11.1171V11.1169V11.1167V11.1164V11.1162V11.116V11.1158V11.1155V11.1153V11.1151V11.1149V11.1146V11.1144V11.1142V11.114V11.1137V11.1135V11.1133V11.1131V11.1128V11.1126V11.1124V11.1122V11.1119V11.1117V11.1115V11.1113V11.111V11.1108V11.1106V11.1104V11.1101V11.1099V11.1097V11.1095V11.1092V11.109V11.1088V11.1086V11.1083V11.1081V11.1079V11.1077V11.1074V11.1072V11.107V11.1068V11.1065V11.1063V11.1061V11.1059V11.1056V11.1054V11.1052V11.1049V11.1047V11.1045V11.1043V11.104V11.1038V11.1036V11.1034V11.1031V11.1029V11.1027V11.1024V11.1022V11.102V11.1018V11.1015V11.1013V11.1011V11.1008V11.1006V11.1004V11.1002V11.0999V11.0997V11.0995V11.0992V11.099V11.0988V11.0986V11.0983V11.0981V11.0979V11.0976V11.0974V11.0972V11.097V11.0967V11.0965V11.0963V11.096V11.0958V11.0956V11.0953V11.0951V11.0949V11.0947V11.0944V11.0942V11.094V11.0937V11.0935V11.0933V11.093V11.0928V11.0926V11.0924V11.0921V11.0919V11.0917V11.0914V11.0912V11.091V11.0907V11.0905V11.0903V11.09V11.0898V11.0896V11.0894V11.0891V11.0889V11.0887V11.0884V11.0882V11.088V11.0877V11.0875V11.0873V11.087V11.0868V11.0866V11.0863V11.0861V11.0859V11.0856V11.0854V11.0852V11.0849V11.0847V11.0845V11.0842V11.084V11.0838V11.0835V11.0833V11.0831V11.0828V11.0826V11.0824V11.0821V11.0819V11.0817V11.0814V11.0812V11.081V11.0807V11.0805V11.0803V11.08V11.0798V11.0796V11.0793V11.0791V11.0789V11.0786V11.0784V11.0782V11.0779V11.0777V11.0775V11.0772V11.077V11.0768V11.0765V11.0763V11.0761V11.0758V11.0756V11.0754V11.0751V11.0749V11.0747V11.0744V11.0742V11.0739V11.0737V11.0735V11.0732V11.073V11.0728V11.0725V11.0723V11.0721V11.0718V11.0716V11.0714V11.0711V11.0709V11.0706V11.0704V11.0702V11.0699V11.0697V11.0695V11.0692V11.069V11.0688V11.0685V11.0683V11.068V11.0678V11.0676V11.0673V11.0671V11.0669V11.0666V11.0664V11.0662V11.0659V11.0657V11.0654V11.0652V11.065V11.0647V11.0645V11.0643V11.064V11.0638V11.0635V11.0633V11.0631V11.0628V11.0626V11.0624V11.0621V11.0619V11.0616V11.0614V11.0612V11.0609V11.0607V11.0605V11.0602V11.06V11.0597V11.0595V11.0593V11.059V11.0588V11.0586V11.0583V11.0581V11.0578V11.0576V11.0574V11.0571V11.0569V11.0566V11.0564V11.0562V11.0559V11.0557V11.0554V11.0552V11.055V11.0547V11.0545V11.0543V11.054V11.0538V11.0535V11.0533V11.0531V11.0528V11.0526V11.0523V11.0521V11.0519V11.0516V11.0514V11.0511V11.0509V11.0507V11.0504V11.0502V11.0499V11.0497V11.0495V11.0492V11.049V11.0487V11.0485V11.0483V11.048V11.0478V11.0475V11.0473V11.0471V11.0468V11.0466V11.0463V11.0461V11.0459V11.0456V11.0454V11.0451V11.0449V11.0447V11.0444V11.0442V11.0439V11.0437V11.0435V11.0432V11.043V11.0427V11.0425V11.0422V11.042V11.0418V11.0415V11.0413V11.041V11.0408V11.0406V11.0403V11.0401V11.0398V11.0396V11.0393V11.0391V11.0389V11.0386V11.0384V11.0381V11.0379V11.0377V11.0374V11.0372V11.0369V11.0367V11.0364V11.0292L529.192 11.022C529.174 10.3926 529.079 9.83062 528.895 9.35322ZM534.35 8.21612C534.35 4.00056 530.913 0.563497 526.696 0.563497C522.481 0.563497 519.042 4.0005 519.042 8.21612C519.042 12.433 522.481 15.8716 526.696 15.8716C530.913 15.8716 534.35 12.4329 534.35 8.21612ZM526.696 0.5C530.946 0.5 534.414 3.96777 534.414 8.21754C534.414 12.4687 530.946 15.9351 526.696 15.9351C522.445 15.9351 518.979 12.4687 518.979 8.21754C518.979 3.96771 522.445 0.5 526.696 0.5Z" stroke="#FBFBFB"/>
</svg>
