<svg width="153" height="27" viewBox="0 0 153 27" fill="none" xmlns="http://www.w3.org/2000/svg">
<path d="M1.71818 0.735352H46.8635C47.4859 0.735352 47.9938 1.24323 47.9938 1.86567V6.16842C47.9938 6.79086 47.4859 7.29874 46.8635 7.29874H17.0536H12.1107H1.71818C1.09574 7.29874 0.587891 6.79086 0.587891 6.16842V1.86567C0.587891 1.24323 1.09574 0.735352 1.71818 0.735352ZM12.1107 10.2161H17.0536H46.8635C47.4859 10.2161 47.9938 10.7239 47.9938 11.3464V15.6503C47.9938 16.2727 47.4859 16.7806 46.8635 16.7806H13.241C12.6186 16.7806 12.1107 17.2885 12.1107 17.9109V18.5676C12.1107 19.1901 12.6186 19.6979 13.241 19.6979H46.8635C47.4859 19.6979 47.9938 20.2058 47.9938 20.8283V25.131C47.9938 25.7535 47.4859 26.2613 46.8635 26.2613H1.71818C1.09574 26.2613 0.587891 25.7535 0.587891 25.131V11.3464C0.587891 10.7239 1.09574 10.2161 1.71818 10.2161H12.1107Z" fill="#4BB7BA"/>
<path d="M66.8866 0.946766L75.3409 7.00937C75.7413 7.29637 76.2575 7.29637 76.6579 7.00937L85.1122 0.946766C85.313 0.803853 85.5244 0.735352 85.7712 0.735352H98.1563C98.6559 0.735352 99.0799 1.04479 99.2323 1.5196C99.3847 1.9944 99.2204 2.49283 98.8153 2.78338L85.4122 12.3976C85.1063 12.6161 84.9409 12.9397 84.9409 13.3164C84.9409 13.692 85.1063 14.0157 85.4122 14.2342L99.3256 24.2121C99.7307 24.5039 99.8949 25.0023 99.7425 25.4771C99.5901 25.9519 99.1661 26.2613 98.6665 26.2613H86.2815C86.0347 26.2613 85.8232 26.1928 85.6224 26.0499L76.6579 19.6224C76.2575 19.3354 75.7413 19.3354 75.3409 19.6224L66.3764 26.0499C66.1756 26.1928 65.9641 26.2613 65.7173 26.2613H53.3323C52.8327 26.2613 52.4087 25.9519 52.2563 25.4771C52.1039 25.0023 52.2681 24.5039 52.6732 24.2121L66.5866 14.2342C66.8925 14.0157 67.0579 13.692 67.0579 13.3164C67.0579 12.9397 66.8925 12.6161 66.5866 12.3976L53.1835 2.78338C52.7784 2.49283 52.613 1.9944 52.7665 1.5196C52.9189 1.04479 53.3429 0.735352 53.8425 0.735352H66.2276C66.4744 0.735352 66.6858 0.803853 66.8866 0.946766Z" fill="#4BB7BA"/>
<path d="M105.5 0.735352H142.659C144.264 0.735352 145.698 1.02708 146.963 1.61055C148.227 2.19401 149.297 2.96527 150.172 3.92551C151.047 4.88575 151.716 5.97354 152.178 7.19007C152.639 8.40543 152.87 9.65739 152.87 10.946C152.87 12.2098 152.639 13.4558 152.178 14.683C151.716 15.9113 151.047 17.005 150.172 17.9653C149.297 18.9255 148.227 19.6979 146.963 20.2814C145.698 20.8649 144.264 21.1566 142.659 21.1566H117.023C116.401 21.1566 115.893 21.6645 115.893 22.2869V25.131C115.893 25.7535 115.386 26.2613 114.763 26.2613H105.5C104.878 26.2613 104.37 25.7535 104.37 25.131V13.535C104.37 12.9125 104.878 12.4046 105.5 12.4046H115.893H129.21H139.742C140.812 12.4046 141.347 11.918 141.347 10.946C141.347 9.97275 140.812 9.48732 139.742 9.48732H129.21H115.893H105.5C104.878 9.48732 104.37 8.97944 104.37 8.357V1.86567C104.37 1.24323 104.878 0.735352 105.5 0.735352Z" fill="#4BB7BA"/>
</svg>
