<svg width="80" height="80" viewBox="0 0 80 80" fill="none" xmlns="http://www.w3.org/2000/svg">
<path d="M10 11C10 10.4477 10.4477 10 11 10H69C69.5523 10 70 10.4477 70 11V70H10V11Z" stroke="#FBFBFB" stroke-width="4" stroke-linejoin="round"/>
<path fill-rule="evenodd" clip-rule="evenodd" d="M19.9993 23.3332C21.8403 23.3332 23.3327 21.8408 23.3327 19.9998C23.3327 18.1589 21.8403 16.6665 19.9993 16.6665C18.1584 16.6665 16.666 18.1589 16.666 19.9998C16.666 21.8408 18.1584 23.3332 19.9993 23.3332Z" stroke="#FBFBFB" stroke-width="4" stroke-linejoin="round"/>
<path fill-rule="evenodd" clip-rule="evenodd" d="M29.9993 23.3332C31.8403 23.3332 33.3327 21.8408 33.3327 19.9998C33.3327 18.1589 31.8403 16.6665 29.9993 16.6665C28.1584 16.6665 26.666 18.1589 26.666 19.9998C26.666 21.8408 28.1584 23.3332 29.9993 23.3332Z" stroke="#FBFBFB" stroke-width="4" stroke-linejoin="round"/>
<path fill-rule="evenodd" clip-rule="evenodd" d="M39.9993 23.3332C41.8403 23.3332 43.3327 21.8408 43.3327 19.9998C43.3327 18.1589 41.8403 16.6665 39.9993 16.6665C38.1584 16.6665 36.666 18.1589 36.666 19.9998C36.666 21.8408 38.1584 23.3332 39.9993 23.3332Z" stroke="#FBFBFB" stroke-width="4" stroke-linejoin="round"/>
<path d="M70 29.9998H10" stroke="#FBFBFB" stroke-width="4" stroke-linecap="round" stroke-linejoin="round"/>
</svg>
