<svg width="80" height="80" viewBox="0 0 80 80" fill="none" xmlns="http://www.w3.org/2000/svg">
<path d="M10 53.3332L26.6667 36.6665" stroke="#FBFBFB" stroke-width="4" stroke-linecap="round" stroke-linejoin="round"/>
<path fill-rule="evenodd" clip-rule="evenodd" d="M30.0003 36.6667C31.8413 36.6667 33.3337 35.1743 33.3337 33.3333C33.3337 31.4924 31.8413 30 30.0003 30C28.1594 30 26.667 31.4924 26.667 33.3333C26.667 35.1743 28.1594 36.6667 30.0003 36.6667Z" stroke="#FBFBFB" stroke-width="4"/>
<path fill-rule="evenodd" clip-rule="evenodd" d="M46.6663 53.3332C48.5073 53.3332 49.9997 51.8408 49.9997 49.9998C49.9997 48.1589 48.5073 46.6665 46.6663 46.6665C44.8254 46.6665 43.333 48.1589 43.333 49.9998C43.333 51.8408 44.8254 53.3332 46.6663 53.3332Z" stroke="#FBFBFB" stroke-width="4"/>
<path d="M33.333 36.6665L43.333 46.6665" stroke="#FBFBFB" stroke-width="4" stroke-linecap="round" stroke-linejoin="round"/>
<path d="M50 46.6665L70 26.6665" stroke="#FBFBFB" stroke-width="4" stroke-linecap="round" stroke-linejoin="round"/>
</svg>
